G04 #@! TF.GenerationSoftware,KiCad,Pcbnew,(5.1.9)-1*
G04 #@! TF.CreationDate,2022-03-30T20:26:24+02:00*
G04 #@! TF.ProjectId,robot_mobilny_pcb,726f626f-745f-46d6-9f62-696c6e795f70,rev?*
G04 #@! TF.SameCoordinates,Original*
G04 #@! TF.FileFunction,Legend,Bot*
G04 #@! TF.FilePolarity,Positive*
%FSLAX46Y46*%
G04 Gerber Fmt 4.6, Leading zero omitted, Abs format (unit mm)*
G04 Created by KiCad (PCBNEW (5.1.9)-1) date 2022-03-30 20:26:24*
%MOMM*%
%LPD*%
G01*
G04 APERTURE LIST*
%ADD10C,1.400000*%
%ADD11C,0.100000*%
%ADD12O,1.600000X1.600000*%
%ADD13R,1.600000X1.600000*%
%ADD14C,4.300000*%
%ADD15C,2.600000*%
%ADD16R,2.600000X2.600000*%
%ADD17R,1.700000X1.700000*%
%ADD18O,1.700000X1.700000*%
%ADD19C,1.600000*%
%ADD20C,1.800000*%
%ADD21R,1.800000X1.800000*%
%ADD22C,1.200000*%
%ADD23R,1.200000X1.200000*%
%ADD24R,2.000000X2.000000*%
%ADD25C,2.000000*%
%ADD26O,3.600000X1.800000*%
%ADD27O,1.800000X3.600000*%
%ADD28O,1.950000X1.700000*%
%ADD29C,6.000000*%
%ADD30O,2.000000X1.905000*%
%ADD31R,2.000000X1.905000*%
G04 APERTURE END LIST*
%LPC*%
D10*
X73940000Y-66100000D03*
X71400000Y-66100000D03*
D11*
G36*
X105992102Y-73590020D02*
G01*
X107194184Y-74792102D01*
X105992102Y-75994184D01*
X104790020Y-74792102D01*
X105992102Y-73590020D01*
G37*
G36*
G01*
X104797092Y-72395010D02*
X104797092Y-72395010D01*
G75*
G02*
X104797092Y-73597092I-601041J-601041D01*
G01*
X104797092Y-73597092D01*
G75*
G02*
X103595010Y-73597092I-601041J601041D01*
G01*
X103595010Y-73597092D01*
G75*
G02*
X103595010Y-72395010I601041J601041D01*
G01*
X103595010Y-72395010D01*
G75*
G02*
X104797092Y-72395010I601041J-601041D01*
G01*
G37*
G36*
G01*
X103001041Y-70598959D02*
X103001041Y-70598959D01*
G75*
G02*
X103001041Y-71801041I-601041J-601041D01*
G01*
X103001041Y-71801041D01*
G75*
G02*
X101798959Y-71801041I-601041J601041D01*
G01*
X101798959Y-71801041D01*
G75*
G02*
X101798959Y-70598959I601041J601041D01*
G01*
X101798959Y-70598959D01*
G75*
G02*
X103001041Y-70598959I601041J-601041D01*
G01*
G37*
G36*
G01*
X101204989Y-68802907D02*
X101204989Y-68802907D01*
G75*
G02*
X101204989Y-70004989I-601041J-601041D01*
G01*
X101204989Y-70004989D01*
G75*
G02*
X100002907Y-70004989I-601041J601041D01*
G01*
X100002907Y-70004989D01*
G75*
G02*
X100002907Y-68802907I601041J601041D01*
G01*
X100002907Y-68802907D01*
G75*
G02*
X101204989Y-68802907I601041J-601041D01*
G01*
G37*
D12*
X26820000Y-104250000D03*
X24280000Y-104250000D03*
X63900000Y-104250000D03*
X24280000Y-152510000D03*
X61360000Y-104250000D03*
X26820000Y-152510000D03*
X58820000Y-104250000D03*
X29360000Y-152510000D03*
X56280000Y-104250000D03*
X31900000Y-152510000D03*
X53740000Y-104250000D03*
X34440000Y-152510000D03*
X51200000Y-104250000D03*
X36980000Y-152510000D03*
X48660000Y-104250000D03*
X42060000Y-152510000D03*
X46120000Y-104250000D03*
X44600000Y-152510000D03*
X42060000Y-104250000D03*
X47140000Y-152510000D03*
X39520000Y-104250000D03*
X49680000Y-152510000D03*
X36980000Y-104250000D03*
X52220000Y-152510000D03*
X34440000Y-104250000D03*
X54760000Y-152510000D03*
X31900000Y-104250000D03*
X57300000Y-152510000D03*
X29360000Y-104250000D03*
D13*
X59840000Y-152510000D03*
D12*
X66440000Y-104250000D03*
X68980000Y-104250000D03*
X109310000Y-152510000D03*
X111850000Y-152510000D03*
D13*
X118450000Y-104250000D03*
D12*
X148930000Y-152510000D03*
X120990000Y-104250000D03*
X146390000Y-152510000D03*
X123530000Y-104250000D03*
X143850000Y-152510000D03*
X126070000Y-104250000D03*
X141310000Y-152510000D03*
X128610000Y-104250000D03*
X138770000Y-152510000D03*
X131150000Y-104250000D03*
X136230000Y-152510000D03*
X133690000Y-104250000D03*
X132170000Y-152510000D03*
X136230000Y-104250000D03*
X129630000Y-152510000D03*
X141310000Y-104250000D03*
X127090000Y-152510000D03*
X143850000Y-104250000D03*
X124550000Y-152510000D03*
X146390000Y-104250000D03*
X122010000Y-152510000D03*
X148930000Y-104250000D03*
X119470000Y-152510000D03*
X151470000Y-104250000D03*
X116930000Y-152510000D03*
X154010000Y-104250000D03*
X114390000Y-152510000D03*
X154010000Y-152510000D03*
X151470000Y-152510000D03*
D14*
X152000000Y-166600000D03*
X34300000Y-162400000D03*
X128900000Y-65500000D03*
X48800000Y-65500000D03*
D15*
X53200000Y-188800000D03*
X48200000Y-188800000D03*
X43200000Y-188800000D03*
D16*
X38200000Y-188800000D03*
D15*
X74400000Y-188800000D03*
X69400000Y-188800000D03*
X64400000Y-188800000D03*
D16*
X59400000Y-188800000D03*
D17*
X52050000Y-173800000D03*
D18*
X52050000Y-171260000D03*
X52050000Y-168720000D03*
X52050000Y-166180000D03*
X52050000Y-163640000D03*
G36*
G01*
X81500000Y-167250000D02*
X81500000Y-164750000D01*
G75*
G02*
X82750000Y-163500000I1250000J0D01*
G01*
X89250000Y-163500000D01*
G75*
G02*
X90500000Y-164750000I0J-1250000D01*
G01*
X90500000Y-167250000D01*
G75*
G02*
X89250000Y-168500000I-1250000J0D01*
G01*
X82750000Y-168500000D01*
G75*
G02*
X81500000Y-167250000I0J1250000D01*
G01*
G37*
G36*
G01*
X81500000Y-174250000D02*
X81500000Y-171750000D01*
G75*
G02*
X82750000Y-170500000I1250000J0D01*
G01*
X89250000Y-170500000D01*
G75*
G02*
X90500000Y-171750000I0J-1250000D01*
G01*
X90500000Y-174250000D01*
G75*
G02*
X89250000Y-175500000I-1250000J0D01*
G01*
X82750000Y-175500000D01*
G75*
G02*
X81500000Y-174250000I0J1250000D01*
G01*
G37*
G36*
G01*
X81500000Y-181250000D02*
X81500000Y-178750000D01*
G75*
G02*
X82750000Y-177500000I1250000J0D01*
G01*
X89250000Y-177500000D01*
G75*
G02*
X90500000Y-178750000I0J-1250000D01*
G01*
X90500000Y-181250000D01*
G75*
G02*
X89250000Y-182500000I-1250000J0D01*
G01*
X82750000Y-182500000D01*
G75*
G02*
X81500000Y-181250000I0J1250000D01*
G01*
G37*
X87180000Y-190000000D03*
X89720000Y-190000000D03*
X92260000Y-190000000D03*
D17*
X94800000Y-190000000D03*
D12*
X46550000Y-160800000D03*
D19*
X46550000Y-170960000D03*
D12*
X43550000Y-170960000D03*
D19*
X43550000Y-160800000D03*
X95950000Y-140000000D03*
X98450000Y-140000000D03*
D20*
X71010000Y-172050000D03*
D21*
X73550000Y-172050000D03*
D20*
X64510000Y-172050000D03*
D21*
X67050000Y-172050000D03*
D12*
X63890000Y-180050000D03*
D19*
X74050000Y-180050000D03*
D12*
X63890000Y-177050000D03*
D19*
X74050000Y-177050000D03*
D12*
X144250000Y-181310000D03*
D19*
X144250000Y-171150000D03*
D12*
X134500000Y-181310000D03*
D19*
X134500000Y-171150000D03*
D12*
X144760000Y-157450000D03*
D19*
X134600000Y-157450000D03*
D12*
X144760000Y-160450000D03*
D19*
X134600000Y-160450000D03*
D12*
X120190000Y-157450000D03*
D19*
X130350000Y-157450000D03*
D12*
X124750000Y-181200000D03*
D19*
X124750000Y-171040000D03*
X105400000Y-170600000D03*
D12*
X115560000Y-170600000D03*
X120190000Y-160450000D03*
D19*
X130350000Y-160450000D03*
X118550000Y-99350000D03*
D12*
X128710000Y-99350000D03*
X58290000Y-81100000D03*
D19*
X68450000Y-81100000D03*
D12*
X58290000Y-84350000D03*
D19*
X68450000Y-84350000D03*
D12*
X111300000Y-185260000D03*
D19*
X111300000Y-175100000D03*
D12*
X40550000Y-160800000D03*
D19*
X40550000Y-170960000D03*
D17*
X149000000Y-158200000D03*
D18*
X151540000Y-158200000D03*
X154080000Y-158200000D03*
D17*
X111250000Y-92000000D03*
D18*
X111250000Y-89460000D03*
X111250000Y-86920000D03*
D17*
X121050000Y-88350000D03*
D18*
X123590000Y-88350000D03*
X126130000Y-88350000D03*
D17*
X121050000Y-92100000D03*
D18*
X123590000Y-92100000D03*
X126130000Y-92100000D03*
X24200000Y-168020000D03*
X24200000Y-165480000D03*
X24200000Y-162940000D03*
D17*
X24200000Y-160400000D03*
D18*
X142000000Y-95220000D03*
X142000000Y-92680000D03*
X142000000Y-90140000D03*
X142000000Y-87600000D03*
X142000000Y-85060000D03*
X142000000Y-82520000D03*
X142000000Y-79980000D03*
X142000000Y-77440000D03*
D17*
X142000000Y-74900000D03*
X121010000Y-95850000D03*
D18*
X123550000Y-95850000D03*
X126090000Y-95850000D03*
X62620000Y-77600000D03*
X65160000Y-77600000D03*
D17*
X67700000Y-77600000D03*
D19*
X141000000Y-180900000D03*
X141000000Y-178400000D03*
X131250000Y-180900000D03*
X131250000Y-178400000D03*
X121400000Y-180800000D03*
X121400000Y-178300000D03*
X65950000Y-87350000D03*
X68450000Y-87350000D03*
D22*
X75300000Y-159300000D03*
D23*
X75300000Y-160800000D03*
D19*
X63550000Y-159050000D03*
X63550000Y-161550000D03*
X79300000Y-136900000D03*
X81800000Y-136900000D03*
X95950000Y-136900000D03*
X98450000Y-136900000D03*
X96400000Y-123800000D03*
X98900000Y-123800000D03*
X82050000Y-122400000D03*
X79550000Y-122400000D03*
D24*
X110600000Y-166000000D03*
D25*
X110600000Y-158400000D03*
X68450000Y-96850000D03*
X63950000Y-96850000D03*
X68450000Y-90350000D03*
X63950000Y-90350000D03*
X144250000Y-190650000D03*
X139750000Y-190650000D03*
X144250000Y-184150000D03*
X139750000Y-184150000D03*
X134450000Y-190710000D03*
X129950000Y-190710000D03*
X134450000Y-184210000D03*
X129950000Y-184210000D03*
X124750000Y-190650000D03*
X120250000Y-190650000D03*
X124750000Y-184150000D03*
X120250000Y-184150000D03*
D18*
X93420000Y-63600000D03*
X90880000Y-63600000D03*
X88340000Y-63600000D03*
D17*
X85800000Y-63600000D03*
D18*
X158000000Y-76820000D03*
X158000000Y-74280000D03*
X158000000Y-71740000D03*
D17*
X158000000Y-69200000D03*
D18*
X21800000Y-76820000D03*
X21800000Y-74280000D03*
X21800000Y-71740000D03*
D17*
X21800000Y-69200000D03*
D18*
X158885000Y-169120000D03*
X158885000Y-166580000D03*
X158885000Y-164040000D03*
D17*
X158885000Y-161500000D03*
D26*
X155800000Y-189400000D03*
X155800000Y-184320000D03*
X155800000Y-179240000D03*
G36*
G01*
X154250000Y-173260000D02*
X157350000Y-173260000D01*
G75*
G02*
X157600000Y-173510000I0J-250000D01*
G01*
X157600000Y-174810000D01*
G75*
G02*
X157350000Y-175060000I-250000J0D01*
G01*
X154250000Y-175060000D01*
G75*
G02*
X154000000Y-174810000I0J250000D01*
G01*
X154000000Y-173510000D01*
G75*
G02*
X154250000Y-173260000I250000J0D01*
G01*
G37*
X24550000Y-173265000D03*
X24550000Y-178345000D03*
X24550000Y-183425000D03*
G36*
G01*
X26100000Y-189405000D02*
X23000000Y-189405000D01*
G75*
G02*
X22750000Y-189155000I0J250000D01*
G01*
X22750000Y-187855000D01*
G75*
G02*
X23000000Y-187605000I250000J0D01*
G01*
X26100000Y-187605000D01*
G75*
G02*
X26350000Y-187855000I0J-250000D01*
G01*
X26350000Y-189155000D01*
G75*
G02*
X26100000Y-189405000I-250000J0D01*
G01*
G37*
D27*
X156640000Y-63600000D03*
X151560000Y-63600000D03*
X146480000Y-63600000D03*
G36*
G01*
X140500000Y-65150000D02*
X140500000Y-62050000D01*
G75*
G02*
X140750000Y-61800000I250000J0D01*
G01*
X142050000Y-61800000D01*
G75*
G02*
X142300000Y-62050000I0J-250000D01*
G01*
X142300000Y-65150000D01*
G75*
G02*
X142050000Y-65400000I-250000J0D01*
G01*
X140750000Y-65400000D01*
G75*
G02*
X140500000Y-65150000I0J250000D01*
G01*
G37*
D28*
X157935000Y-87000000D03*
X157935000Y-89500000D03*
X157935000Y-92000000D03*
X157935000Y-94500000D03*
G36*
G01*
X158660000Y-97850000D02*
X157210000Y-97850000D01*
G75*
G02*
X156960000Y-97600000I0J250000D01*
G01*
X156960000Y-96400000D01*
G75*
G02*
X157210000Y-96150000I250000J0D01*
G01*
X158660000Y-96150000D01*
G75*
G02*
X158910000Y-96400000I0J-250000D01*
G01*
X158910000Y-97600000D01*
G75*
G02*
X158660000Y-97850000I-250000J0D01*
G01*
G37*
D26*
X24750000Y-82560000D03*
X24750000Y-87640000D03*
X24750000Y-92720000D03*
G36*
G01*
X26300000Y-98700000D02*
X23200000Y-98700000D01*
G75*
G02*
X22950000Y-98450000I0J250000D01*
G01*
X22950000Y-97150000D01*
G75*
G02*
X23200000Y-96900000I250000J0D01*
G01*
X26300000Y-96900000D01*
G75*
G02*
X26550000Y-97150000I0J-250000D01*
G01*
X26550000Y-98450000D01*
G75*
G02*
X26300000Y-98700000I-250000J0D01*
G01*
G37*
D27*
X38240000Y-63800000D03*
X33160000Y-63800000D03*
X28080000Y-63800000D03*
G36*
G01*
X22100000Y-65350000D02*
X22100000Y-62250000D01*
G75*
G02*
X22350000Y-62000000I250000J0D01*
G01*
X23650000Y-62000000D01*
G75*
G02*
X23900000Y-62250000I0J-250000D01*
G01*
X23900000Y-65350000D01*
G75*
G02*
X23650000Y-65600000I-250000J0D01*
G01*
X22350000Y-65600000D01*
G75*
G02*
X22100000Y-65350000I0J250000D01*
G01*
G37*
G36*
G01*
X100500000Y-183200000D02*
X97500000Y-183200000D01*
G75*
G02*
X96000000Y-181700000I0J1500000D01*
G01*
X96000000Y-178700000D01*
G75*
G02*
X97500000Y-177200000I1500000J0D01*
G01*
X100500000Y-177200000D01*
G75*
G02*
X102000000Y-178700000I0J-1500000D01*
G01*
X102000000Y-181700000D01*
G75*
G02*
X100500000Y-183200000I-1500000J0D01*
G01*
G37*
D29*
X99000000Y-173000000D03*
D20*
X142600000Y-163910000D03*
D21*
X142600000Y-166450000D03*
D20*
X135850000Y-163910000D03*
D21*
X135850000Y-166450000D03*
D20*
X129100000Y-163910000D03*
D21*
X129100000Y-166450000D03*
D20*
X122350000Y-163910000D03*
D21*
X122350000Y-166450000D03*
D30*
X105550000Y-182890000D03*
X105550000Y-180350000D03*
D31*
X105550000Y-177810000D03*
M02*
