M48
; DRILL file {KiCad (5.1.9)-1} date 03/30/22 20:27:17
; FORMAT={-:-/ absolute / metric / decimal}
; #@! TF.CreationDate,2022-03-30T20:27:17+02:00
; #@! TF.GenerationSoftware,Kicad,Pcbnew,(5.1.9)-1
; #@! TF.FileFunction,Plated,1,2,PTH
FMAT,2
METRIC
T1C0.400
T2C0.600
T3C0.800
T4C0.900
T5C0.950
T6C1.000
T7C1.100
T8C1.200
T9C1.300
T10C4.500
%
G90
G05
T1
X16.0Y-90.5
X16.0Y-121.5
X16.0Y-156.5
X16.1Y-138.8
X16.1Y-176.6
X16.75Y-193.75
X17.25Y-59.75
X20.9Y-100.3
X21.6Y-181.1
X21.8Y-101.2
X21.9Y-99.5
X22.2Y-121.4
X22.25Y-138.75
X22.5Y-108.5
X22.7Y-100.3
X23.0Y-156.4
X24.2Y-150.0
X27.0Y-68.6
X27.0Y-74.4
X28.8Y-165.6
X29.0Y-87.2
X29.0Y-91.4
X29.0Y-94.2
X29.4Y-72.2
X30.4Y-77.0
X31.5Y-191.0
X32.0Y-74.8
X32.6Y-90.8
X33.0Y-184.4
X33.4Y-94.2
X33.6Y-155.2
X33.6Y-174.2
X33.8Y-80.6
X34.5Y-125.75
X34.8Y-147.6
X35.6Y-78.6
X36.0Y-108.2
X38.0Y-84.6
X38.4Y-157.0
X39.2Y-94.0
X39.8Y-82.6
X41.4Y-88.0
X42.0Y-67.6
X42.2Y-114.6
X42.25Y-59.75
X43.0Y-195.0
X43.2Y-86.0
X43.6Y-90.8
X43.6Y-110.2
X44.6Y-142.6
X44.6Y-148.8
X45.0Y-94.0
X45.1Y-100.0
X46.8Y-177.4
X47.6Y-89.8
X49.0Y-107.25
X49.0Y-115.0
X49.0Y-169.2
X49.1Y-161.9
X49.3Y-79.9
X49.6Y-121.6
X53.2Y-125.6
X53.4Y-142.6
X53.4Y-148.6
X54.2Y-120.4
X54.4Y-132.2
X54.6Y-96.0
X55.2Y-166.2
X55.3Y-169.5
X55.4Y-106.8
X55.8Y-88.1
X56.2Y-130.0
X57.6Y-99.8
X58.0Y-64.0
X58.8Y-156.8
X59.2Y-91.8
X59.5Y-124.5
X59.6Y-77.6
X59.8Y-170.2
X59.8Y-178.2
X60.8Y-106.8
X61.8Y-142.6
X61.8Y-148.6
X62.2Y-133.0
X62.4Y-136.0
X62.8Y-129.4
X63.6Y-81.5
X63.8Y-100.2
X64.2Y-194.9
X65.4Y-153.2
X66.7Y-156.9
X68.0Y-142.6
X68.0Y-179.8
X68.2Y-148.4
X68.3Y-63.9
X68.5Y-106.75
X69.0Y-165.8
X69.2Y-100.2
X69.4Y-132.6
X69.4Y-135.8
X70.0Y-129.2
X70.6Y-74.8
X70.8Y-133.4
X70.8Y-141.6
X70.8Y-142.8
X71.0Y-124.75
X71.1Y-132.3
X71.4Y-156.9
X71.6Y-151.2
X71.75Y-112.0
X71.75Y-118.0
X72.2Y-153.2
X72.4Y-88.4
X72.4Y-133.4
X72.4Y-141.4
X72.4Y-142.8
X72.6Y-151.2
X72.8Y-132.4
X73.8Y-100.2
X73.8Y-129.2
X73.8Y-130.2
X74.4Y-150.8
X74.5Y-121.5
X74.6Y-138.4
X74.6Y-139.6
X74.6Y-148.0
X74.75Y-148.95
X75.0Y-106.75
X75.6Y-150.8
X75.8Y-138.4
X75.8Y-139.6
X76.3Y-133.4
X76.4Y-149.8
X76.4Y-156.4
X77.2Y-100.2
X77.4Y-82.1
X77.4Y-149.8
X77.6Y-132.4
X77.6Y-134.6
X77.6Y-137.2
X77.6Y-138.4
X78.4Y-133.4
X78.6Y-170.0
X78.6Y-175.0
X78.75Y-89.25
X78.8Y-107.0
X78.8Y-108.4
X79.0Y-64.0
X79.2Y-132.4
X79.2Y-134.6
X79.6Y-126.6
X79.6Y-127.6
X79.8Y-133.4
X80.25Y-113.2
X80.3Y-110.0
X80.8Y-123.9
X80.8Y-126.6
X80.8Y-127.6
X81.4Y-139.6
X81.7Y-189.1
X81.7Y-194.9
X81.8Y-153.8
X82.0Y-159.2
X82.6Y-139.6
X83.6Y-103.4
X83.6Y-105.6
X83.6Y-147.2
X83.8Y-122.0
X84.2Y-91.4
X84.5Y-108.25
X84.5Y-122.7
X84.6Y-119.4
X84.6Y-120.4
X84.8Y-105.6
X84.8Y-114.0
X84.9Y-147.2
X85.0Y-75.7
X85.0Y-103.4
X85.0Y-130.8
X85.6Y-119.4
X85.6Y-120.4
X85.6Y-127.6
X85.6Y-128.6
X85.6Y-129.6
X85.6Y-138.6
X85.6Y-139.6
X86.2Y-130.8
X86.2Y-145.2
X86.2Y-146.2
X86.4Y-100.2
X86.6Y-119.4
X86.6Y-120.4
X86.6Y-127.6
X86.6Y-128.6
X86.6Y-129.6
X86.8Y-96.6
X87.4Y-145.2
X87.4Y-146.2
X87.4Y-111.0
X87.6Y-119.4
X87.6Y-120.4
X88.4Y-113.0
X88.4Y-111.0
X88.45Y-116.0
X88.6Y-119.4
X88.6Y-120.4
X88.6Y-132.6
X88.8Y-133.6
X89.4Y-154.0
X89.4Y-159.2
X89.6Y-132.6
X89.6Y-138.8
X89.6Y-139.8
X89.8Y-133.6
X90.4Y-126.2
X90.6Y-119.4
X90.6Y-120.4
X91.6Y-129.0
X92.0Y-61.0
X92.2Y-128.2
X92.4Y-100.2
X92.4Y-129.8
X92.7Y-162.6
X92.7Y-170.0
X92.8Y-155.4
X92.9Y-85.2
X92.9Y-128.9
X93.0Y-115.9
X93.0Y-117.05
X93.0Y-127.4
X93.05Y-119.55
X93.05Y-120.55
X93.2Y-107.45
X93.4Y-137.0
X94.0Y-123.0
X94.0Y-153.4
X94.2Y-137.8
X94.9Y-122.1
X95.0Y-153.6
X95.2Y-87.6
X95.4Y-144.8
X95.4Y-187.3
X95.6Y-66.9
X95.9Y-158.4
X95.9Y-167.4
X96.0Y-134.6
X96.2Y-114.4
X96.2Y-115.5
X96.4Y-125.6
X96.483Y-131.917
X96.6Y-144.8
X97.2Y-106.2
X97.2Y-107.4
X97.2Y-116.8
X97.2Y-119.2
X97.2Y-120.6
X97.2Y-153.6
X97.3Y-121.85
X97.4Y-63.9
X97.483Y-131.917
X97.6Y-146.6
X97.8Y-134.6
X98.25Y-127.6
X98.4Y-143.6
X98.475Y-125.675
X98.8Y-100.2
X98.8Y-101.4
X98.8Y-106.2
X98.8Y-107.4
X98.8Y-132.0
X99.0Y-79.6
X99.2Y-126.65
X99.4Y-143.6
X99.45Y-83.4
X99.5Y-91.1
X99.6Y-130.4
X99.85Y-127.6
X99.875Y-125.675
X100.0Y-132.0
X100.4Y-106.2
X100.4Y-107.4
X100.4Y-157.2
X100.4Y-159.8
X100.5Y-126.65
X101.0Y-130.4
X101.125Y-100.275
X101.125Y-101.475
X101.2Y-116.8
X101.2Y-132.0
X101.2Y-148.0
X101.2Y-149.2
X101.2Y-150.4
X101.2Y-151.8
X101.35Y-140.7
X101.4Y-57.6
X101.6Y-61.8
X101.625Y-109.125
X101.7Y-139.7
X102.0Y-83.2
X102.2Y-91.0
X102.4Y-108.15
X102.4Y-110.2
X102.4Y-132.0
X102.55Y-141.4
X102.6Y-148.0
X102.6Y-149.2
X102.6Y-150.4
X102.6Y-151.8
X102.6Y-153.6
X102.95Y-140.35
X103.0Y-100.3
X103.037Y-109.113
X103.75Y-108.15
X103.8Y-110.2
X103.8Y-123.4
X103.8Y-124.6
X104.2Y-121.7
X104.8Y-143.4
X105.0Y-189.4
X105.4Y-126.5
X105.6Y-134.6
X105.6Y-135.8
X105.8Y-164.0
X106.0Y-131.6
X106.0Y-132.8
X107.0Y-66.8
X107.2Y-124.6
X107.2Y-125.8
X107.6Y-114.8
X108.2Y-110.2
X108.3Y-131.5
X108.3Y-132.7
X108.4Y-125.4
X108.4Y-126.6
X108.85Y-138.65
X109.0Y-150.8
X109.2Y-124.6
X109.2Y-126.0
X109.2Y-134.65
X109.2Y-143.6
X109.5Y-138.0
X109.6Y-135.55
X110.4Y-150.8
X111.0Y-61.6
X111.0Y-130.2
X111.0Y-147.3
X111.0Y-154.4
X111.1Y-57.6
X111.2Y-98.0
X111.4Y-189.4
X111.6Y-149.8
X111.8Y-114.7
X111.8Y-126.2
X112.2Y-67.4
X112.6Y-149.8
X112.8Y-120.4
X112.9Y-125.1
X113.0Y-109.0
X113.0Y-110.2
X113.1Y-116.3
X113.4Y-160.2
X113.5Y-73.0
X113.7Y-135.4
X113.8Y-138.2
X114.0Y-117.2
X114.3Y-105.7
X114.4Y-160.2
X115.789Y-98.811
X115.8Y-97.8
X116.4Y-180.2
X116.5Y-147.3
X116.6Y-175.6
X116.6Y-185.2
X116.9Y-114.5
X117.8Y-166.0
X117.8Y-167.0
X117.9Y-119.7
X118.0Y-125.2
X118.4Y-73.4
X118.4Y-154.1
X119.1Y-57.5
X119.2Y-61.6
X119.4Y-137.4
X120.0Y-110.0
X120.0Y-142.2
X120.5Y-147.2
X120.6Y-114.5
X121.2Y-128.4
X121.6Y-80.8
X122.2Y-187.2
X122.4Y-108.4
X122.4Y-110.0
X122.4Y-115.0
X122.4Y-116.2
X123.0Y-125.2
X123.554Y-116.354
X123.6Y-115.0
X123.6Y-119.8
X123.8Y-142.2
X124.6Y-109.0
X124.6Y-110.0
X125.0Y-84.8
X125.0Y-147.3
X125.4Y-132.6
X125.9Y-154.0
X127.3Y-158.2
X127.5Y-195.0
X127.8Y-146.2
X128.4Y-130.4
X128.6Y-95.6
X128.6Y-110.0
X128.8Y-93.0
X129.0Y-115.45
X129.0Y-175.2
X129.5Y-84.25
X129.8Y-137.4
X131.4Y-187.6
X133.0Y-134.8
X133.2Y-162.7
X133.35Y-115.4
X133.4Y-110.0
X133.8Y-141.4
X135.6Y-89.2
X135.8Y-92.6
X135.9Y-57.6
X135.9Y-61.7
X136.2Y-97.8
X136.4Y-106.6
X136.75Y-86.15
X136.8Y-88.6
X136.8Y-89.8
X136.8Y-139.0
X137.0Y-78.4
X137.6Y-145.0
X138.05Y-72.35
X138.6Y-115.2
X139.2Y-175.2
X140.0Y-158.2
X140.6Y-142.4
X140.8Y-102.2
X141.0Y-98.2
X141.0Y-107.8
X141.0Y-187.6
X141.2Y-148.6
X143.0Y-102.2
X143.2Y-98.2
X143.2Y-126.3
X143.25Y-110.5
X144.0Y-146.0
X144.4Y-67.55
X144.8Y-83.2
X145.2Y-70.2
X145.4Y-86.6
X145.4Y-87.8
X146.0Y-89.8
X146.0Y-91.0
X146.2Y-98.2
X146.3Y-102.0
X147.2Y-106.6
X147.6Y-74.0
X148.0Y-186.8
X148.4Y-67.7
X148.4Y-175.6
X148.6Y-102.2
X148.7Y-90.1
X148.8Y-97.6
X148.8Y-161.55
X149.2Y-95.2
X149.45Y-78.6
X151.35Y-87.8
X151.7Y-80.5
X152.8Y-75.6
X154.4Y-77.8
X154.6Y-94.0
X155.2Y-85.5
X155.55Y-170.45
X156.5Y-108.25
X156.5Y-131.5
X159.0Y-121.25
X159.0Y-156.75
X159.25Y-102.25
X159.25Y-142.25
X161.9Y-58.8
X162.75Y-194.25
X163.25Y-102.75
X163.25Y-133.5
X163.25Y-173.0
T2
X75.3Y-159.3
X75.3Y-160.8
T3
X40.55Y-160.8
X40.55Y-170.96
X43.55Y-160.8
X43.55Y-170.96
X46.55Y-160.8
X46.55Y-170.96
X58.29Y-81.1
X58.29Y-84.35
X63.55Y-159.05
X63.55Y-161.55
X63.89Y-177.05
X63.89Y-180.05
X65.95Y-87.35
X68.45Y-81.1
X68.45Y-84.35
X68.45Y-87.35
X71.4Y-66.1
X73.94Y-66.1
X74.05Y-177.05
X74.05Y-180.05
X79.3Y-136.9
X79.55Y-122.4
X81.8Y-136.9
X82.05Y-122.4
X95.95Y-136.9
X95.95Y-140.0
X96.4Y-123.8
X98.45Y-136.9
X98.45Y-140.0
X98.9Y-123.8
X105.4Y-170.6
X111.3Y-175.1
X111.3Y-185.26
X115.56Y-170.6
X118.55Y-99.35
X120.19Y-157.45
X120.19Y-160.45
X121.4Y-178.3
X121.4Y-180.8
X124.75Y-171.04
X124.75Y-181.2
X128.71Y-99.35
X130.35Y-157.45
X130.35Y-160.45
X131.25Y-178.4
X131.25Y-180.9
X134.5Y-171.15
X134.5Y-181.31
X134.6Y-157.45
X134.6Y-160.45
X141.0Y-178.4
X141.0Y-180.9
X144.25Y-171.15
X144.25Y-181.31
X144.76Y-157.45
X144.76Y-160.45
T4
X64.51Y-172.05
X67.05Y-172.05
X71.01Y-172.05
X73.55Y-172.05
X122.35Y-163.91
X122.35Y-166.45
X129.1Y-163.91
X129.1Y-166.45
X135.85Y-163.91
X135.85Y-166.45
X142.6Y-163.91
X142.6Y-166.45
T5
X157.935Y-87.0
X157.935Y-89.5
X157.935Y-92.0
X157.935Y-94.5
X157.935Y-97.0
T6
X21.8Y-69.2
X21.8Y-71.74
X21.8Y-74.28
X21.8Y-76.82
X24.2Y-160.4
X24.2Y-162.94
X24.2Y-165.48
X24.2Y-168.02
X24.28Y-104.25
X24.28Y-152.51
X26.82Y-104.25
X26.82Y-152.51
X29.36Y-104.25
X29.36Y-152.51
X31.9Y-104.25
X31.9Y-152.51
X34.44Y-104.25
X34.44Y-152.51
X36.98Y-104.25
X36.98Y-152.51
X39.52Y-104.25
X42.06Y-104.25
X42.06Y-152.51
X44.6Y-152.51
X46.12Y-104.25
X47.14Y-152.51
X48.66Y-104.25
X49.68Y-152.51
X51.2Y-104.25
X52.05Y-163.64
X52.05Y-166.18
X52.05Y-168.72
X52.05Y-171.26
X52.05Y-173.8
X52.22Y-152.51
X53.74Y-104.25
X54.76Y-152.51
X56.28Y-104.25
X57.3Y-152.51
X58.82Y-104.25
X59.84Y-152.51
X61.36Y-104.25
X62.62Y-77.6
X63.9Y-104.25
X65.16Y-77.6
X66.44Y-104.25
X67.7Y-77.6
X68.98Y-104.25
X85.8Y-63.6
X87.18Y-190.0
X88.34Y-63.6
X89.72Y-190.0
X90.88Y-63.6
X92.26Y-190.0
X93.42Y-63.6
X94.8Y-190.0
X100.604Y-69.404
X102.4Y-71.2
X104.196Y-72.996
X105.992Y-74.792
X109.31Y-152.51
X110.6Y-158.4
X110.6Y-166.0
X111.25Y-86.92
X111.25Y-89.46
X111.25Y-92.0
X111.85Y-152.51
X114.39Y-152.51
X116.93Y-152.51
X118.45Y-104.25
X119.47Y-152.51
X120.99Y-104.25
X121.01Y-95.85
X121.05Y-88.35
X121.05Y-92.1
X122.01Y-152.51
X123.53Y-104.25
X123.55Y-95.85
X123.59Y-88.35
X123.59Y-92.1
X124.55Y-152.51
X126.07Y-104.25
X126.09Y-95.85
X126.13Y-88.35
X126.13Y-92.1
X127.09Y-152.51
X128.61Y-104.25
X129.63Y-152.51
X131.15Y-104.25
X132.17Y-152.51
X133.69Y-104.25
X136.23Y-104.25
X136.23Y-152.51
X138.77Y-152.51
X141.31Y-104.25
X141.31Y-152.51
X142.0Y-74.9
X142.0Y-77.44
X142.0Y-79.98
X142.0Y-82.52
X142.0Y-85.06
X142.0Y-87.6
X142.0Y-90.14
X142.0Y-92.68
X142.0Y-95.22
X143.85Y-104.25
X143.85Y-152.51
X146.39Y-104.25
X146.39Y-152.51
X148.93Y-104.25
X148.93Y-152.51
X149.0Y-158.2
X151.47Y-104.25
X151.47Y-152.51
X151.54Y-158.2
X154.01Y-104.25
X154.01Y-152.51
X154.08Y-158.2
X158.0Y-69.2
X158.0Y-71.74
X158.0Y-74.28
X158.0Y-76.82
X158.885Y-161.5
X158.885Y-164.04
X158.885Y-166.58
X158.885Y-169.12
T7
X63.95Y-90.35
X63.95Y-96.85
X68.45Y-90.35
X68.45Y-96.85
X105.55Y-177.81
X105.55Y-180.35
X105.55Y-182.89
X120.25Y-184.15
X120.25Y-190.65
X124.75Y-184.15
X124.75Y-190.65
X129.95Y-184.21
X129.95Y-190.71
X134.45Y-184.21
X134.45Y-190.71
X139.75Y-184.15
X139.75Y-190.65
X144.25Y-184.15
X144.25Y-190.65
T8
X23.0Y-63.8
X24.55Y-173.265
X24.55Y-178.345
X24.55Y-183.425
X24.55Y-188.505
X24.75Y-82.56
X24.75Y-87.64
X24.75Y-92.72
X24.75Y-97.8
X28.08Y-63.8
X33.16Y-63.8
X38.24Y-63.8
X141.4Y-63.6
X146.48Y-63.6
X151.56Y-63.6
X155.8Y-174.16
X155.8Y-179.24
X155.8Y-184.32
X155.8Y-189.4
X156.64Y-63.6
T9
X38.2Y-188.8
X43.2Y-188.8
X48.2Y-188.8
X53.2Y-188.8
X59.4Y-188.8
X64.4Y-188.8
X69.4Y-188.8
X74.4Y-188.8
T10
X99.0Y-173.0
X99.0Y-180.2
T9
X84.0Y-166.0G85X88.0Y-166.0
G05
X84.0Y-173.0G85X88.0Y-173.0
G05
X84.0Y-180.0G85X88.0Y-180.0
G05
T0
M30
