%FSLAX45Y45*%
G04 Gerber Fmt 4.5, Leading zero omitted, Abs format (unit mm)*
G04 Created by KiCad (PCBNEW (5.1.9)-1) date 2022-03-30 20:27:59*
%MOMM*%
%LPD*%
G01*
G04 APERTURE LIST*
%TA.AperFunction,Profile*%
%ADD10C,0.100000*%
%TD*%
%ADD11C,0.200000*%
%ADD12C,0.300000*%
G04 APERTURE END LIST*
D10*
X16425000Y-5600000D02*
X16425000Y-19600000D01*
X1425000Y-5600000D02*
X16425000Y-5600000D01*
X1425000Y-19600000D02*
X1425000Y-5600000D01*
X16425000Y-19600000D02*
X1425000Y-19600000D01*
D11*
X1580000Y-9030000D02*
X1620000Y-9070000D01*
X1620000Y-9030000D02*
X1580000Y-9070000D01*
X1580000Y-12130000D02*
X1620000Y-12170000D01*
X1620000Y-12130000D02*
X1580000Y-12170000D01*
X1580000Y-15630000D02*
X1620000Y-15670000D01*
X1620000Y-15630000D02*
X1580000Y-15670000D01*
X1590000Y-13860000D02*
X1630000Y-13900000D01*
X1630000Y-13860000D02*
X1590000Y-13900000D01*
X1590000Y-17640000D02*
X1630000Y-17680000D01*
X1630000Y-17640000D02*
X1590000Y-17680000D01*
X1655000Y-19355000D02*
X1695000Y-19395000D01*
X1695000Y-19355000D02*
X1655000Y-19395000D01*
X1705000Y-5955000D02*
X1745000Y-5995000D01*
X1745000Y-5955000D02*
X1705000Y-5995000D01*
X2070000Y-10010000D02*
X2110000Y-10050000D01*
X2110000Y-10010000D02*
X2070000Y-10050000D01*
X2140000Y-18090000D02*
X2180000Y-18130000D01*
X2180000Y-18090000D02*
X2140000Y-18130000D01*
X2160000Y-10100000D02*
X2200000Y-10140000D01*
X2200000Y-10100000D02*
X2160000Y-10140000D01*
X2170000Y-9930000D02*
X2210000Y-9970000D01*
X2210000Y-9930000D02*
X2170000Y-9970000D01*
X2200000Y-12120000D02*
X2240000Y-12160000D01*
X2240000Y-12120000D02*
X2200000Y-12160000D01*
X2205000Y-13855000D02*
X2245000Y-13895000D01*
X2245000Y-13855000D02*
X2205000Y-13895000D01*
X2230000Y-10830000D02*
X2270000Y-10870000D01*
X2270000Y-10830000D02*
X2230000Y-10870000D01*
X2250000Y-10010000D02*
X2290000Y-10050000D01*
X2290000Y-10010000D02*
X2250000Y-10050000D01*
X2280000Y-15620000D02*
X2320000Y-15660000D01*
X2320000Y-15620000D02*
X2280000Y-15660000D01*
X2400000Y-14980000D02*
X2440000Y-15020000D01*
X2440000Y-14980000D02*
X2400000Y-15020000D01*
X2680000Y-6840000D02*
X2720000Y-6880000D01*
X2720000Y-6840000D02*
X2680000Y-6880000D01*
X2680000Y-7420000D02*
X2720000Y-7460000D01*
X2720000Y-7420000D02*
X2680000Y-7460000D01*
X2860000Y-16540000D02*
X2900000Y-16580000D01*
X2900000Y-16540000D02*
X2860000Y-16580000D01*
X2880000Y-8700000D02*
X2920000Y-8740000D01*
X2920000Y-8700000D02*
X2880000Y-8740000D01*
X2880000Y-9120000D02*
X2920000Y-9160000D01*
X2920000Y-9120000D02*
X2880000Y-9160000D01*
X2880000Y-9400000D02*
X2920000Y-9440000D01*
X2920000Y-9400000D02*
X2880000Y-9440000D01*
X2920000Y-7200000D02*
X2960000Y-7240000D01*
X2960000Y-7200000D02*
X2920000Y-7240000D01*
X3020000Y-7680000D02*
X3060000Y-7720000D01*
X3060000Y-7680000D02*
X3020000Y-7720000D01*
X3130000Y-19080000D02*
X3170000Y-19120000D01*
X3170000Y-19080000D02*
X3130000Y-19120000D01*
X3180000Y-7460000D02*
X3220000Y-7500000D01*
X3220000Y-7460000D02*
X3180000Y-7500000D01*
X3240000Y-9060000D02*
X3280000Y-9100000D01*
X3280000Y-9060000D02*
X3240000Y-9100000D01*
X3280000Y-18420000D02*
X3320000Y-18460000D01*
X3320000Y-18420000D02*
X3280000Y-18460000D01*
X3320000Y-9400000D02*
X3360000Y-9440000D01*
X3360000Y-9400000D02*
X3320000Y-9440000D01*
X3340000Y-15500000D02*
X3380000Y-15540000D01*
X3380000Y-15500000D02*
X3340000Y-15540000D01*
X3340000Y-17400000D02*
X3380000Y-17440000D01*
X3380000Y-17400000D02*
X3340000Y-17440000D01*
X3360000Y-8040000D02*
X3400000Y-8080000D01*
X3400000Y-8040000D02*
X3360000Y-8080000D01*
X3430000Y-12555000D02*
X3470000Y-12595000D01*
X3470000Y-12555000D02*
X3430000Y-12595000D01*
X3460000Y-14740000D02*
X3500000Y-14780000D01*
X3500000Y-14740000D02*
X3460000Y-14780000D01*
X3540000Y-7840000D02*
X3580000Y-7880000D01*
X3580000Y-7840000D02*
X3540000Y-7880000D01*
X3580000Y-10800000D02*
X3620000Y-10840000D01*
X3620000Y-10800000D02*
X3580000Y-10840000D01*
X3780000Y-8440000D02*
X3820000Y-8480000D01*
X3820000Y-8440000D02*
X3780000Y-8480000D01*
X3820000Y-15680000D02*
X3860000Y-15720000D01*
X3860000Y-15680000D02*
X3820000Y-15720000D01*
X3900000Y-9380000D02*
X3940000Y-9420000D01*
X3940000Y-9380000D02*
X3900000Y-9420000D01*
X3960000Y-8240000D02*
X4000000Y-8280000D01*
X4000000Y-8240000D02*
X3960000Y-8280000D01*
X4120000Y-8780000D02*
X4160000Y-8820000D01*
X4160000Y-8780000D02*
X4120000Y-8820000D01*
X4180000Y-6740000D02*
X4220000Y-6780000D01*
X4220000Y-6740000D02*
X4180000Y-6780000D01*
X4200000Y-11440000D02*
X4240000Y-11480000D01*
X4240000Y-11440000D02*
X4200000Y-11480000D01*
X4205000Y-5955000D02*
X4245000Y-5995000D01*
X4245000Y-5955000D02*
X4205000Y-5995000D01*
X4280000Y-19480000D02*
X4320000Y-19520000D01*
X4320000Y-19480000D02*
X4280000Y-19520000D01*
X4300000Y-8580000D02*
X4340000Y-8620000D01*
X4340000Y-8580000D02*
X4300000Y-8620000D01*
X4340000Y-9060000D02*
X4380000Y-9100000D01*
X4380000Y-9060000D02*
X4340000Y-9100000D01*
X4340000Y-11000000D02*
X4380000Y-11040000D01*
X4380000Y-11000000D02*
X4340000Y-11040000D01*
X4440000Y-14240000D02*
X4480000Y-14280000D01*
X4480000Y-14240000D02*
X4440000Y-14280000D01*
X4440000Y-14860000D02*
X4480000Y-14900000D01*
X4480000Y-14860000D02*
X4440000Y-14900000D01*
X4480000Y-9380000D02*
X4520000Y-9420000D01*
X4520000Y-9380000D02*
X4480000Y-9420000D01*
X4490000Y-9980000D02*
X4530000Y-10020000D01*
X4530000Y-9980000D02*
X4490000Y-10020000D01*
X4660000Y-17720000D02*
X4700000Y-17760000D01*
X4700000Y-17720000D02*
X4660000Y-17760000D01*
X4740000Y-8960000D02*
X4780000Y-9000000D01*
X4780000Y-8960000D02*
X4740000Y-9000000D01*
X4880000Y-10705000D02*
X4920000Y-10745000D01*
X4920000Y-10705000D02*
X4880000Y-10745000D01*
X4880000Y-11480000D02*
X4920000Y-11520000D01*
X4920000Y-11480000D02*
X4880000Y-11520000D01*
X4880000Y-16900000D02*
X4920000Y-16940000D01*
X4920000Y-16900000D02*
X4880000Y-16940000D01*
X4890000Y-16170000D02*
X4930000Y-16210000D01*
X4930000Y-16170000D02*
X4890000Y-16210000D01*
X4910000Y-7970000D02*
X4950000Y-8010000D01*
X4950000Y-7970000D02*
X4910000Y-8010000D01*
X4940000Y-12140000D02*
X4980000Y-12180000D01*
X4980000Y-12140000D02*
X4940000Y-12180000D01*
X5300000Y-12540000D02*
X5340000Y-12580000D01*
X5340000Y-12540000D02*
X5300000Y-12580000D01*
X5320000Y-14240000D02*
X5360000Y-14280000D01*
X5360000Y-14240000D02*
X5320000Y-14280000D01*
X5320000Y-14840000D02*
X5360000Y-14880000D01*
X5360000Y-14840000D02*
X5320000Y-14880000D01*
X5400000Y-12020000D02*
X5440000Y-12060000D01*
X5440000Y-12020000D02*
X5400000Y-12060000D01*
X5420000Y-13200000D02*
X5460000Y-13240000D01*
X5460000Y-13200000D02*
X5420000Y-13240000D01*
X5440000Y-9580000D02*
X5480000Y-9620000D01*
X5480000Y-9580000D02*
X5440000Y-9620000D01*
X5500000Y-16600000D02*
X5540000Y-16640000D01*
X5540000Y-16600000D02*
X5500000Y-16640000D01*
X5510000Y-16930000D02*
X5550000Y-16970000D01*
X5550000Y-16930000D02*
X5510000Y-16970000D01*
X5520000Y-10660000D02*
X5560000Y-10700000D01*
X5560000Y-10660000D02*
X5520000Y-10700000D01*
X5560000Y-8790000D02*
X5600000Y-8830000D01*
X5600000Y-8790000D02*
X5560000Y-8830000D01*
X5600000Y-12980000D02*
X5640000Y-13020000D01*
X5640000Y-12980000D02*
X5600000Y-13020000D01*
X5740000Y-9960000D02*
X5780000Y-10000000D01*
X5780000Y-9960000D02*
X5740000Y-10000000D01*
X5780000Y-6380000D02*
X5820000Y-6420000D01*
X5820000Y-6380000D02*
X5780000Y-6420000D01*
X5860000Y-15660000D02*
X5900000Y-15700000D01*
X5900000Y-15660000D02*
X5860000Y-15700000D01*
X5900000Y-9160000D02*
X5940000Y-9200000D01*
X5940000Y-9160000D02*
X5900000Y-9200000D01*
X5930000Y-12430000D02*
X5970000Y-12470000D01*
X5970000Y-12430000D02*
X5930000Y-12470000D01*
X5940000Y-7740000D02*
X5980000Y-7780000D01*
X5980000Y-7740000D02*
X5940000Y-7780000D01*
X5960000Y-17000000D02*
X6000000Y-17040000D01*
X6000000Y-17000000D02*
X5960000Y-17040000D01*
X5960000Y-17800000D02*
X6000000Y-17840000D01*
X6000000Y-17800000D02*
X5960000Y-17840000D01*
X6060000Y-10660000D02*
X6100000Y-10700000D01*
X6100000Y-10660000D02*
X6060000Y-10700000D01*
X6160000Y-14240000D02*
X6200000Y-14280000D01*
X6200000Y-14240000D02*
X6160000Y-14280000D01*
X6160000Y-14840000D02*
X6200000Y-14880000D01*
X6200000Y-14840000D02*
X6160000Y-14880000D01*
X6200000Y-13280000D02*
X6240000Y-13320000D01*
X6240000Y-13280000D02*
X6200000Y-13320000D01*
X6220000Y-13580000D02*
X6260000Y-13620000D01*
X6260000Y-13580000D02*
X6220000Y-13620000D01*
X6260000Y-12920000D02*
X6300000Y-12960000D01*
X6300000Y-12920000D02*
X6260000Y-12960000D01*
X6340000Y-8130000D02*
X6380000Y-8170000D01*
X6380000Y-8130000D02*
X6340000Y-8170000D01*
X6360000Y-10000000D02*
X6400000Y-10040000D01*
X6400000Y-10000000D02*
X6360000Y-10040000D01*
X6400000Y-19470000D02*
X6440000Y-19510000D01*
X6440000Y-19470000D02*
X6400000Y-19510000D01*
X6520000Y-15300000D02*
X6560000Y-15340000D01*
X6560000Y-15300000D02*
X6520000Y-15340000D01*
X6650000Y-15670000D02*
X6690000Y-15710000D01*
X6690000Y-15670000D02*
X6650000Y-15710000D01*
X6780000Y-14240000D02*
X6820000Y-14280000D01*
X6820000Y-14240000D02*
X6780000Y-14280000D01*
X6780000Y-17960000D02*
X6820000Y-18000000D01*
X6820000Y-17960000D02*
X6780000Y-18000000D01*
X6800000Y-14820000D02*
X6840000Y-14860000D01*
X6840000Y-14820000D02*
X6800000Y-14860000D01*
X6810000Y-6370000D02*
X6850000Y-6410000D01*
X6850000Y-6370000D02*
X6810000Y-6410000D01*
X6830000Y-10655000D02*
X6870000Y-10695000D01*
X6870000Y-10655000D02*
X6830000Y-10695000D01*
X6880000Y-16560000D02*
X6920000Y-16600000D01*
X6920000Y-16560000D02*
X6880000Y-16600000D01*
X6900000Y-10000000D02*
X6940000Y-10040000D01*
X6940000Y-10000000D02*
X6900000Y-10040000D01*
X6920000Y-13240000D02*
X6960000Y-13280000D01*
X6960000Y-13240000D02*
X6920000Y-13280000D01*
X6920000Y-13560000D02*
X6960000Y-13600000D01*
X6960000Y-13560000D02*
X6920000Y-13600000D01*
X6980000Y-12900000D02*
X7020000Y-12940000D01*
X7020000Y-12900000D02*
X6980000Y-12940000D01*
X7040000Y-7460000D02*
X7080000Y-7500000D01*
X7080000Y-7460000D02*
X7040000Y-7500000D01*
X7060000Y-13320000D02*
X7100000Y-13360000D01*
X7100000Y-13320000D02*
X7060000Y-13360000D01*
X7060000Y-14140000D02*
X7100000Y-14180000D01*
X7100000Y-14140000D02*
X7060000Y-14180000D01*
X7060000Y-14260000D02*
X7100000Y-14300000D01*
X7100000Y-14260000D02*
X7060000Y-14300000D01*
X7080000Y-12455000D02*
X7120000Y-12495000D01*
X7120000Y-12455000D02*
X7080000Y-12495000D01*
X7090000Y-13210000D02*
X7130000Y-13250000D01*
X7130000Y-13210000D02*
X7090000Y-13250000D01*
X7120000Y-15670000D02*
X7160000Y-15710000D01*
X7160000Y-15670000D02*
X7120000Y-15710000D01*
X7140000Y-15100000D02*
X7180000Y-15140000D01*
X7180000Y-15100000D02*
X7140000Y-15140000D01*
X7155000Y-11180000D02*
X7195000Y-11220000D01*
X7195000Y-11180000D02*
X7155000Y-11220000D01*
X7155000Y-11780000D02*
X7195000Y-11820000D01*
X7195000Y-11780000D02*
X7155000Y-11820000D01*
X7200000Y-15300000D02*
X7240000Y-15340000D01*
X7240000Y-15300000D02*
X7200000Y-15340000D01*
X7220000Y-8820000D02*
X7260000Y-8860000D01*
X7260000Y-8820000D02*
X7220000Y-8860000D01*
X7220000Y-13320000D02*
X7260000Y-13360000D01*
X7260000Y-13320000D02*
X7220000Y-13360000D01*
X7220000Y-14120000D02*
X7260000Y-14160000D01*
X7260000Y-14120000D02*
X7220000Y-14160000D01*
X7220000Y-14260000D02*
X7260000Y-14300000D01*
X7260000Y-14260000D02*
X7220000Y-14300000D01*
X7240000Y-15100000D02*
X7280000Y-15140000D01*
X7280000Y-15100000D02*
X7240000Y-15140000D01*
X7260000Y-13220000D02*
X7300000Y-13260000D01*
X7300000Y-13220000D02*
X7260000Y-13260000D01*
X7360000Y-10000000D02*
X7400000Y-10040000D01*
X7400000Y-10000000D02*
X7360000Y-10040000D01*
X7360000Y-12900000D02*
X7400000Y-12940000D01*
X7400000Y-12900000D02*
X7360000Y-12940000D01*
X7360000Y-13000000D02*
X7400000Y-13040000D01*
X7400000Y-13000000D02*
X7360000Y-13040000D01*
X7420000Y-15060000D02*
X7460000Y-15100000D01*
X7460000Y-15060000D02*
X7420000Y-15100000D01*
X7430000Y-12130000D02*
X7470000Y-12170000D01*
X7470000Y-12130000D02*
X7430000Y-12170000D01*
X7440000Y-13820000D02*
X7480000Y-13860000D01*
X7480000Y-13820000D02*
X7440000Y-13860000D01*
X7440000Y-13940000D02*
X7480000Y-13980000D01*
X7480000Y-13940000D02*
X7440000Y-13980000D01*
X7440000Y-14780000D02*
X7480000Y-14820000D01*
X7480000Y-14780000D02*
X7440000Y-14820000D01*
X7455000Y-14875000D02*
X7495000Y-14915000D01*
X7495000Y-14875000D02*
X7455000Y-14915000D01*
X7480000Y-10655000D02*
X7520000Y-10695000D01*
X7520000Y-10655000D02*
X7480000Y-10695000D01*
X7540000Y-15060000D02*
X7580000Y-15100000D01*
X7580000Y-15060000D02*
X7540000Y-15100000D01*
X7560000Y-13820000D02*
X7600000Y-13860000D01*
X7600000Y-13820000D02*
X7560000Y-13860000D01*
X7560000Y-13940000D02*
X7600000Y-13980000D01*
X7600000Y-13940000D02*
X7560000Y-13980000D01*
X7610000Y-13320000D02*
X7650000Y-13360000D01*
X7650000Y-13320000D02*
X7610000Y-13360000D01*
X7620000Y-14960000D02*
X7660000Y-15000000D01*
X7660000Y-14960000D02*
X7620000Y-15000000D01*
X7620000Y-15620000D02*
X7660000Y-15660000D01*
X7660000Y-15620000D02*
X7620000Y-15660000D01*
X7700000Y-10000000D02*
X7740000Y-10040000D01*
X7740000Y-10000000D02*
X7700000Y-10040000D01*
X7720000Y-8190000D02*
X7760000Y-8230000D01*
X7760000Y-8190000D02*
X7720000Y-8230000D01*
X7720000Y-14960000D02*
X7760000Y-15000000D01*
X7760000Y-14960000D02*
X7720000Y-15000000D01*
X7740000Y-13220000D02*
X7780000Y-13260000D01*
X7780000Y-13220000D02*
X7740000Y-13260000D01*
X7740000Y-13440000D02*
X7780000Y-13480000D01*
X7780000Y-13440000D02*
X7740000Y-13480000D01*
X7740000Y-13700000D02*
X7780000Y-13740000D01*
X7780000Y-13700000D02*
X7740000Y-13740000D01*
X7740000Y-13820000D02*
X7780000Y-13860000D01*
X7780000Y-13820000D02*
X7740000Y-13860000D01*
X7820000Y-13320000D02*
X7860000Y-13360000D01*
X7860000Y-13320000D02*
X7820000Y-13360000D01*
X7840000Y-16980000D02*
X7880000Y-17020000D01*
X7880000Y-16980000D02*
X7840000Y-17020000D01*
X7840000Y-17480000D02*
X7880000Y-17520000D01*
X7880000Y-17480000D02*
X7840000Y-17520000D01*
X7855000Y-8905000D02*
X7895000Y-8945000D01*
X7895000Y-8905000D02*
X7855000Y-8945000D01*
X7860000Y-10680000D02*
X7900000Y-10720000D01*
X7900000Y-10680000D02*
X7860000Y-10720000D01*
X7860000Y-10820000D02*
X7900000Y-10860000D01*
X7900000Y-10820000D02*
X7860000Y-10860000D01*
X7880000Y-6380000D02*
X7920000Y-6420000D01*
X7920000Y-6380000D02*
X7880000Y-6420000D01*
X7900000Y-13220000D02*
X7940000Y-13260000D01*
X7940000Y-13220000D02*
X7900000Y-13260000D01*
X7900000Y-13440000D02*
X7940000Y-13480000D01*
X7940000Y-13440000D02*
X7900000Y-13480000D01*
X7940000Y-12640000D02*
X7980000Y-12680000D01*
X7980000Y-12640000D02*
X7940000Y-12680000D01*
X7940000Y-12740000D02*
X7980000Y-12780000D01*
X7980000Y-12740000D02*
X7940000Y-12780000D01*
X7960000Y-13320000D02*
X8000000Y-13360000D01*
X8000000Y-13320000D02*
X7960000Y-13360000D01*
X8005000Y-11300000D02*
X8045000Y-11340000D01*
X8045000Y-11300000D02*
X8005000Y-11340000D01*
X8010000Y-10980000D02*
X8050000Y-11020000D01*
X8050000Y-10980000D02*
X8010000Y-11020000D01*
X8060000Y-12370000D02*
X8100000Y-12410000D01*
X8100000Y-12370000D02*
X8060000Y-12410000D01*
X8060000Y-12640000D02*
X8100000Y-12680000D01*
X8100000Y-12640000D02*
X8060000Y-12680000D01*
X8060000Y-12740000D02*
X8100000Y-12780000D01*
X8100000Y-12740000D02*
X8060000Y-12780000D01*
X8120000Y-13940000D02*
X8160000Y-13980000D01*
X8160000Y-13940000D02*
X8120000Y-13980000D01*
X8150000Y-18890000D02*
X8190000Y-18930000D01*
X8190000Y-18890000D02*
X8150000Y-18930000D01*
X8150000Y-19470000D02*
X8190000Y-19510000D01*
X8190000Y-19470000D02*
X8150000Y-19510000D01*
X8160000Y-15360000D02*
X8200000Y-15400000D01*
X8200000Y-15360000D02*
X8160000Y-15400000D01*
X8180000Y-15900000D02*
X8220000Y-15940000D01*
X8220000Y-15900000D02*
X8180000Y-15940000D01*
X8240000Y-13940000D02*
X8280000Y-13980000D01*
X8280000Y-13940000D02*
X8240000Y-13980000D01*
X8340000Y-10320000D02*
X8380000Y-10360000D01*
X8380000Y-10320000D02*
X8340000Y-10360000D01*
X8340000Y-10540000D02*
X8380000Y-10580000D01*
X8380000Y-10540000D02*
X8340000Y-10580000D01*
X8340000Y-14700000D02*
X8380000Y-14740000D01*
X8380000Y-14700000D02*
X8340000Y-14740000D01*
X8360000Y-12180000D02*
X8400000Y-12220000D01*
X8400000Y-12180000D02*
X8360000Y-12220000D01*
X8400000Y-9120000D02*
X8440000Y-9160000D01*
X8440000Y-9120000D02*
X8400000Y-9160000D01*
X8430000Y-10805000D02*
X8470000Y-10845000D01*
X8470000Y-10805000D02*
X8430000Y-10845000D01*
X8430000Y-12250000D02*
X8470000Y-12290000D01*
X8470000Y-12250000D02*
X8430000Y-12290000D01*
X8440000Y-11920000D02*
X8480000Y-11960000D01*
X8480000Y-11920000D02*
X8440000Y-11960000D01*
X8440000Y-12020000D02*
X8480000Y-12060000D01*
X8480000Y-12020000D02*
X8440000Y-12060000D01*
X8460000Y-10540000D02*
X8500000Y-10580000D01*
X8500000Y-10540000D02*
X8460000Y-10580000D01*
X8460000Y-11380000D02*
X8500000Y-11420000D01*
X8500000Y-11380000D02*
X8460000Y-11420000D01*
X8470000Y-14700000D02*
X8510000Y-14740000D01*
X8510000Y-14700000D02*
X8470000Y-14740000D01*
X8480000Y-7550000D02*
X8520000Y-7590000D01*
X8520000Y-7550000D02*
X8480000Y-7590000D01*
X8480000Y-10320000D02*
X8520000Y-10360000D01*
X8520000Y-10320000D02*
X8480000Y-10360000D01*
X8480000Y-13060000D02*
X8520000Y-13100000D01*
X8520000Y-13060000D02*
X8480000Y-13100000D01*
X8540000Y-11920000D02*
X8580000Y-11960000D01*
X8580000Y-11920000D02*
X8540000Y-11960000D01*
X8540000Y-12020000D02*
X8580000Y-12060000D01*
X8580000Y-12020000D02*
X8540000Y-12060000D01*
X8540000Y-12740000D02*
X8580000Y-12780000D01*
X8580000Y-12740000D02*
X8540000Y-12780000D01*
X8540000Y-12840000D02*
X8580000Y-12880000D01*
X8580000Y-12840000D02*
X8540000Y-12880000D01*
X8540000Y-12940000D02*
X8580000Y-12980000D01*
X8580000Y-12940000D02*
X8540000Y-12980000D01*
X8540000Y-13840000D02*
X8580000Y-13880000D01*
X8580000Y-13840000D02*
X8540000Y-13880000D01*
X8540000Y-13940000D02*
X8580000Y-13980000D01*
X8580000Y-13940000D02*
X8540000Y-13980000D01*
X8600000Y-13060000D02*
X8640000Y-13100000D01*
X8640000Y-13060000D02*
X8600000Y-13100000D01*
X8600000Y-14500000D02*
X8640000Y-14540000D01*
X8640000Y-14500000D02*
X8600000Y-14540000D01*
X8600000Y-14600000D02*
X8640000Y-14640000D01*
X8640000Y-14600000D02*
X8600000Y-14640000D01*
X8620000Y-10000000D02*
X8660000Y-10040000D01*
X8660000Y-10000000D02*
X8620000Y-10040000D01*
X8640000Y-11920000D02*
X8680000Y-11960000D01*
X8680000Y-11920000D02*
X8640000Y-11960000D01*
X8640000Y-12020000D02*
X8680000Y-12060000D01*
X8680000Y-12020000D02*
X8640000Y-12060000D01*
X8640000Y-12740000D02*
X8680000Y-12780000D01*
X8680000Y-12740000D02*
X8640000Y-12780000D01*
X8640000Y-12840000D02*
X8680000Y-12880000D01*
X8680000Y-12840000D02*
X8640000Y-12880000D01*
X8640000Y-12940000D02*
X8680000Y-12980000D01*
X8680000Y-12940000D02*
X8640000Y-12980000D01*
X8660000Y-9640000D02*
X8700000Y-9680000D01*
X8700000Y-9640000D02*
X8660000Y-9680000D01*
X8720000Y-14500000D02*
X8760000Y-14540000D01*
X8760000Y-14500000D02*
X8720000Y-14540000D01*
X8720000Y-14600000D02*
X8760000Y-14640000D01*
X8760000Y-14600000D02*
X8720000Y-14640000D01*
X8720002Y-11079998D02*
X8760002Y-11119998D01*
X8760002Y-11079998D02*
X8720002Y-11119998D01*
X8740000Y-11920000D02*
X8780000Y-11960000D01*
X8780000Y-11920000D02*
X8740000Y-11960000D01*
X8740000Y-12020000D02*
X8780000Y-12060000D01*
X8780000Y-12020000D02*
X8740000Y-12060000D01*
X8820000Y-11280000D02*
X8860000Y-11320000D01*
X8860000Y-11280000D02*
X8820000Y-11320000D01*
X8820002Y-11079998D02*
X8860002Y-11119998D01*
X8860002Y-11079998D02*
X8820002Y-11119998D01*
X8825000Y-11580000D02*
X8865000Y-11620000D01*
X8865000Y-11580000D02*
X8825000Y-11620000D01*
X8840000Y-11920000D02*
X8880000Y-11960000D01*
X8880000Y-11920000D02*
X8840000Y-11960000D01*
X8840000Y-12020000D02*
X8880000Y-12060000D01*
X8880000Y-12020000D02*
X8840000Y-12060000D01*
X8840000Y-13240000D02*
X8880000Y-13280000D01*
X8880000Y-13240000D02*
X8840000Y-13280000D01*
X8860000Y-13340000D02*
X8900000Y-13380000D01*
X8900000Y-13340000D02*
X8860000Y-13380000D01*
X8920000Y-15380000D02*
X8960000Y-15420000D01*
X8960000Y-15380000D02*
X8920000Y-15420000D01*
X8920000Y-15900000D02*
X8960000Y-15940000D01*
X8960000Y-15900000D02*
X8920000Y-15940000D01*
X8940000Y-13240000D02*
X8980000Y-13280000D01*
X8980000Y-13240000D02*
X8940000Y-13280000D01*
X8940000Y-13860000D02*
X8980000Y-13900000D01*
X8980000Y-13860000D02*
X8940000Y-13900000D01*
X8940000Y-13960000D02*
X8980000Y-14000000D01*
X8980000Y-13960000D02*
X8940000Y-14000000D01*
X8960000Y-13340000D02*
X9000000Y-13380000D01*
X9000000Y-13340000D02*
X8960000Y-13380000D01*
X9020000Y-12600000D02*
X9060000Y-12640000D01*
X9060000Y-12600000D02*
X9020000Y-12640000D01*
X9040000Y-11920000D02*
X9080000Y-11960000D01*
X9080000Y-11920000D02*
X9040000Y-11960000D01*
X9040000Y-12020000D02*
X9080000Y-12060000D01*
X9080000Y-12020000D02*
X9040000Y-12060000D01*
X9140000Y-12880000D02*
X9180000Y-12920000D01*
X9180000Y-12880000D02*
X9140000Y-12920000D01*
X9180000Y-6080000D02*
X9220000Y-6120000D01*
X9220000Y-6080000D02*
X9180000Y-6120000D01*
X9200000Y-12800000D02*
X9240000Y-12840000D01*
X9240000Y-12800000D02*
X9200000Y-12840000D01*
X9220000Y-10000000D02*
X9260000Y-10040000D01*
X9260000Y-10000000D02*
X9220000Y-10040000D01*
X9220000Y-12960000D02*
X9260000Y-13000000D01*
X9260000Y-12960000D02*
X9220000Y-13000000D01*
X9250000Y-16240000D02*
X9290000Y-16280000D01*
X9290000Y-16240000D02*
X9250000Y-16280000D01*
X9250000Y-16980000D02*
X9290000Y-17020000D01*
X9290000Y-16980000D02*
X9250000Y-17020000D01*
X9260000Y-15520000D02*
X9300000Y-15560000D01*
X9300000Y-15520000D02*
X9260000Y-15560000D01*
X9270000Y-8500000D02*
X9310000Y-8540000D01*
X9310000Y-8500000D02*
X9270000Y-8540000D01*
X9270000Y-12870000D02*
X9310000Y-12910000D01*
X9310000Y-12870000D02*
X9270000Y-12910000D01*
X9280000Y-11570000D02*
X9320000Y-11610000D01*
X9320000Y-11570000D02*
X9280000Y-11610000D01*
X9280000Y-11685000D02*
X9320000Y-11725000D01*
X9320000Y-11685000D02*
X9280000Y-11725000D01*
X9280000Y-12720000D02*
X9320000Y-12760000D01*
X9320000Y-12720000D02*
X9280000Y-12760000D01*
X9285000Y-11935000D02*
X9325000Y-11975000D01*
X9325000Y-11935000D02*
X9285000Y-11975000D01*
X9285000Y-12035000D02*
X9325000Y-12075000D01*
X9325000Y-12035000D02*
X9285000Y-12075000D01*
X9300000Y-10725000D02*
X9340000Y-10765000D01*
X9340000Y-10725000D02*
X9300000Y-10765000D01*
X9320000Y-13680000D02*
X9360000Y-13720000D01*
X9360000Y-13680000D02*
X9320000Y-13720000D01*
X9380000Y-12280000D02*
X9420000Y-12320000D01*
X9420000Y-12280000D02*
X9380000Y-12320000D01*
X9380000Y-15320000D02*
X9420000Y-15360000D01*
X9420000Y-15320000D02*
X9380000Y-15360000D01*
X9400000Y-13760000D02*
X9440000Y-13800000D01*
X9440000Y-13760000D02*
X9400000Y-13800000D01*
X9470000Y-12190000D02*
X9510000Y-12230000D01*
X9510000Y-12190000D02*
X9470000Y-12230000D01*
X9480000Y-15340000D02*
X9520000Y-15380000D01*
X9520000Y-15340000D02*
X9480000Y-15380000D01*
X9500000Y-8740000D02*
X9540000Y-8780000D01*
X9540000Y-8740000D02*
X9500000Y-8780000D01*
X9520000Y-14460000D02*
X9560000Y-14500000D01*
X9560000Y-14460000D02*
X9520000Y-14500000D01*
X9520000Y-18710000D02*
X9560000Y-18750000D01*
X9560000Y-18710000D02*
X9520000Y-18750000D01*
X9540000Y-6670000D02*
X9580000Y-6710000D01*
X9580000Y-6670000D02*
X9540000Y-6710000D01*
X9570000Y-15820000D02*
X9610000Y-15860000D01*
X9610000Y-15820000D02*
X9570000Y-15860000D01*
X9570000Y-16720000D02*
X9610000Y-16760000D01*
X9610000Y-16720000D02*
X9570000Y-16760000D01*
X9580000Y-13440000D02*
X9620000Y-13480000D01*
X9620000Y-13440000D02*
X9580000Y-13480000D01*
X9600000Y-11420000D02*
X9640000Y-11460000D01*
X9640000Y-11420000D02*
X9600000Y-11460000D01*
X9600000Y-11530000D02*
X9640000Y-11570000D01*
X9640000Y-11530000D02*
X9600000Y-11570000D01*
X9620000Y-12540000D02*
X9660000Y-12580000D01*
X9660000Y-12540000D02*
X9620000Y-12580000D01*
X9628285Y-13171715D02*
X9668285Y-13211715D01*
X9668285Y-13171715D02*
X9628285Y-13211715D01*
X9640000Y-14460000D02*
X9680000Y-14500000D01*
X9680000Y-14460000D02*
X9640000Y-14500000D01*
X9700000Y-10600000D02*
X9740000Y-10640000D01*
X9740000Y-10600000D02*
X9700000Y-10640000D01*
X9700000Y-10720000D02*
X9740000Y-10760000D01*
X9740000Y-10720000D02*
X9700000Y-10760000D01*
X9700000Y-11660000D02*
X9740000Y-11700000D01*
X9740000Y-11660000D02*
X9700000Y-11700000D01*
X9700000Y-11900000D02*
X9740000Y-11940000D01*
X9740000Y-11900000D02*
X9700000Y-11940000D01*
X9700000Y-12040000D02*
X9740000Y-12080000D01*
X9740000Y-12040000D02*
X9700000Y-12080000D01*
X9700000Y-15340000D02*
X9740000Y-15380000D01*
X9740000Y-15340000D02*
X9700000Y-15380000D01*
X9710000Y-12165000D02*
X9750000Y-12205000D01*
X9750000Y-12165000D02*
X9710000Y-12205000D01*
X9720000Y-6370000D02*
X9760000Y-6410000D01*
X9760000Y-6370000D02*
X9720000Y-6410000D01*
X9728285Y-13171715D02*
X9768285Y-13211715D01*
X9768285Y-13171715D02*
X9728285Y-13211715D01*
X9740000Y-14640000D02*
X9780000Y-14680000D01*
X9780000Y-14640000D02*
X9740000Y-14680000D01*
X9760000Y-13440000D02*
X9800000Y-13480000D01*
X9800000Y-13440000D02*
X9760000Y-13480000D01*
X9805000Y-12740000D02*
X9845000Y-12780000D01*
X9845000Y-12740000D02*
X9805000Y-12780000D01*
X9820000Y-14340000D02*
X9860000Y-14380000D01*
X9860000Y-14340000D02*
X9820000Y-14380000D01*
X9827500Y-12547500D02*
X9867500Y-12587500D01*
X9867500Y-12547500D02*
X9827500Y-12587500D01*
X9860000Y-10000000D02*
X9900000Y-10040000D01*
X9900000Y-10000000D02*
X9860000Y-10040000D01*
X9860000Y-10120000D02*
X9900000Y-10160000D01*
X9900000Y-10120000D02*
X9860000Y-10160000D01*
X9860000Y-10600000D02*
X9900000Y-10640000D01*
X9900000Y-10600000D02*
X9860000Y-10640000D01*
X9860000Y-10720000D02*
X9900000Y-10760000D01*
X9900000Y-10720000D02*
X9860000Y-10760000D01*
X9860000Y-13180000D02*
X9900000Y-13220000D01*
X9900000Y-13180000D02*
X9860000Y-13220000D01*
X9880000Y-7940000D02*
X9920000Y-7980000D01*
X9920000Y-7940000D02*
X9880000Y-7980000D01*
X9900000Y-12645000D02*
X9940000Y-12685000D01*
X9940000Y-12645000D02*
X9900000Y-12685000D01*
X9920000Y-14340000D02*
X9960000Y-14380000D01*
X9960000Y-14340000D02*
X9920000Y-14380000D01*
X9925000Y-8320000D02*
X9965000Y-8360000D01*
X9965000Y-8320000D02*
X9925000Y-8360000D01*
X9930000Y-9090000D02*
X9970000Y-9130000D01*
X9970000Y-9090000D02*
X9930000Y-9130000D01*
X9940000Y-13020000D02*
X9980000Y-13060000D01*
X9980000Y-13020000D02*
X9940000Y-13060000D01*
X9965000Y-12740000D02*
X10005000Y-12780000D01*
X10005000Y-12740000D02*
X9965000Y-12780000D01*
X9967500Y-12547500D02*
X10007500Y-12587500D01*
X10007500Y-12547500D02*
X9967500Y-12587500D01*
X9980000Y-13180000D02*
X10020000Y-13220000D01*
X10020000Y-13180000D02*
X9980000Y-13220000D01*
X10020000Y-10600000D02*
X10060000Y-10640000D01*
X10060000Y-10600000D02*
X10020000Y-10640000D01*
X10020000Y-10720000D02*
X10060000Y-10760000D01*
X10060000Y-10720000D02*
X10020000Y-10760000D01*
X10020000Y-15700000D02*
X10060000Y-15740000D01*
X10060000Y-15700000D02*
X10020000Y-15740000D01*
X10020000Y-15960000D02*
X10060000Y-16000000D01*
X10060000Y-15960000D02*
X10020000Y-16000000D01*
X10030000Y-12645000D02*
X10070000Y-12685000D01*
X10070000Y-12645000D02*
X10030000Y-12685000D01*
X10080000Y-13020000D02*
X10120000Y-13060000D01*
X10120000Y-13020000D02*
X10080000Y-13060000D01*
X10092500Y-10007500D02*
X10132500Y-10047500D01*
X10132500Y-10007500D02*
X10092500Y-10047500D01*
X10092500Y-10127500D02*
X10132500Y-10167500D01*
X10132500Y-10127500D02*
X10092500Y-10167500D01*
X10100000Y-11660000D02*
X10140000Y-11700000D01*
X10140000Y-11660000D02*
X10100000Y-11700000D01*
X10100000Y-13180000D02*
X10140000Y-13220000D01*
X10140000Y-13180000D02*
X10100000Y-13220000D01*
X10100000Y-14780000D02*
X10140000Y-14820000D01*
X10140000Y-14780000D02*
X10100000Y-14820000D01*
X10100000Y-14900000D02*
X10140000Y-14940000D01*
X10140000Y-14900000D02*
X10100000Y-14940000D01*
X10100000Y-15020000D02*
X10140000Y-15060000D01*
X10140000Y-15020000D02*
X10100000Y-15060000D01*
X10100000Y-15160000D02*
X10140000Y-15200000D01*
X10140000Y-15160000D02*
X10100000Y-15200000D01*
X10115000Y-14050000D02*
X10155000Y-14090000D01*
X10155000Y-14050000D02*
X10115000Y-14090000D01*
X10120000Y-5740000D02*
X10160000Y-5780000D01*
X10160000Y-5740000D02*
X10120000Y-5780000D01*
X10140000Y-6160000D02*
X10180000Y-6200000D01*
X10180000Y-6160000D02*
X10140000Y-6200000D01*
X10142500Y-10892500D02*
X10182500Y-10932500D01*
X10182500Y-10892500D02*
X10142500Y-10932500D01*
X10150000Y-13950000D02*
X10190000Y-13990000D01*
X10190000Y-13950000D02*
X10150000Y-13990000D01*
X10180000Y-8300000D02*
X10220000Y-8340000D01*
X10220000Y-8300000D02*
X10180000Y-8340000D01*
X10200000Y-9080000D02*
X10240000Y-9120000D01*
X10240000Y-9080000D02*
X10200000Y-9120000D01*
X10220000Y-10795000D02*
X10260000Y-10835000D01*
X10260000Y-10795000D02*
X10220000Y-10835000D01*
X10220000Y-11000000D02*
X10260000Y-11040000D01*
X10260000Y-11000000D02*
X10220000Y-11040000D01*
X10220000Y-13180000D02*
X10260000Y-13220000D01*
X10260000Y-13180000D02*
X10220000Y-13220000D01*
X10235000Y-14120000D02*
X10275000Y-14160000D01*
X10275000Y-14120000D02*
X10235000Y-14160000D01*
X10240000Y-14780000D02*
X10280000Y-14820000D01*
X10280000Y-14780000D02*
X10240000Y-14820000D01*
X10240000Y-14900000D02*
X10280000Y-14940000D01*
X10280000Y-14900000D02*
X10240000Y-14940000D01*
X10240000Y-15020000D02*
X10280000Y-15060000D01*
X10280000Y-15020000D02*
X10240000Y-15060000D01*
X10240000Y-15160000D02*
X10280000Y-15200000D01*
X10280000Y-15160000D02*
X10240000Y-15200000D01*
X10240000Y-15340000D02*
X10280000Y-15380000D01*
X10280000Y-15340000D02*
X10240000Y-15380000D01*
X10275000Y-14015000D02*
X10315000Y-14055000D01*
X10315000Y-14015000D02*
X10275000Y-14055000D01*
X10280000Y-10010000D02*
X10320000Y-10050000D01*
X10320000Y-10010000D02*
X10280000Y-10050000D01*
X10283744Y-10891256D02*
X10323744Y-10931256D01*
X10323744Y-10891256D02*
X10283744Y-10931256D01*
X10355000Y-10795000D02*
X10395000Y-10835000D01*
X10395000Y-10795000D02*
X10355000Y-10835000D01*
X10360000Y-11000000D02*
X10400000Y-11040000D01*
X10400000Y-11000000D02*
X10360000Y-11040000D01*
X10360000Y-12320000D02*
X10400000Y-12360000D01*
X10400000Y-12320000D02*
X10360000Y-12360000D01*
X10360000Y-12440000D02*
X10400000Y-12480000D01*
X10400000Y-12440000D02*
X10360000Y-12480000D01*
X10400000Y-12150000D02*
X10440000Y-12190000D01*
X10440000Y-12150000D02*
X10400000Y-12190000D01*
X10460000Y-14320000D02*
X10500000Y-14360000D01*
X10500000Y-14320000D02*
X10460000Y-14360000D01*
X10480000Y-18920000D02*
X10520000Y-18960000D01*
X10520000Y-18920000D02*
X10480000Y-18960000D01*
X10520000Y-12630000D02*
X10560000Y-12670000D01*
X10560000Y-12630000D02*
X10520000Y-12670000D01*
X10540000Y-13440000D02*
X10580000Y-13480000D01*
X10580000Y-13440000D02*
X10540000Y-13480000D01*
X10540000Y-13560000D02*
X10580000Y-13600000D01*
X10580000Y-13560000D02*
X10540000Y-13600000D01*
X10560000Y-16380000D02*
X10600000Y-16420000D01*
X10600000Y-16380000D02*
X10560000Y-16420000D01*
X10580000Y-13140000D02*
X10620000Y-13180000D01*
X10620000Y-13140000D02*
X10580000Y-13180000D01*
X10580000Y-13260000D02*
X10620000Y-13300000D01*
X10620000Y-13260000D02*
X10580000Y-13300000D01*
X10680000Y-6660000D02*
X10720000Y-6700000D01*
X10720000Y-6660000D02*
X10680000Y-6700000D01*
X10700000Y-12440000D02*
X10740000Y-12480000D01*
X10740000Y-12440000D02*
X10700000Y-12480000D01*
X10700000Y-12560000D02*
X10740000Y-12600000D01*
X10740000Y-12560000D02*
X10700000Y-12600000D01*
X10740000Y-11460000D02*
X10780000Y-11500000D01*
X10780000Y-11460000D02*
X10740000Y-11500000D01*
X10800000Y-11000000D02*
X10840000Y-11040000D01*
X10840000Y-11000000D02*
X10800000Y-11040000D01*
X10810000Y-13130000D02*
X10850000Y-13170000D01*
X10850000Y-13130000D02*
X10810000Y-13170000D01*
X10810000Y-13250000D02*
X10850000Y-13290000D01*
X10850000Y-13250000D02*
X10810000Y-13290000D01*
X10820000Y-12520000D02*
X10860000Y-12560000D01*
X10860000Y-12520000D02*
X10820000Y-12560000D01*
X10820000Y-12640000D02*
X10860000Y-12680000D01*
X10860000Y-12640000D02*
X10820000Y-12680000D01*
X10865000Y-13845000D02*
X10905000Y-13885000D01*
X10905000Y-13845000D02*
X10865000Y-13885000D01*
X10880000Y-15060000D02*
X10920000Y-15100000D01*
X10920000Y-15060000D02*
X10880000Y-15100000D01*
X10900000Y-12440000D02*
X10940000Y-12480000D01*
X10940000Y-12440000D02*
X10900000Y-12480000D01*
X10900000Y-12580000D02*
X10940000Y-12620000D01*
X10940000Y-12580000D02*
X10900000Y-12620000D01*
X10900000Y-13445000D02*
X10940000Y-13485000D01*
X10940000Y-13445000D02*
X10900000Y-13485000D01*
X10900000Y-14340000D02*
X10940000Y-14380000D01*
X10940000Y-14340000D02*
X10900000Y-14380000D01*
X10930000Y-13780000D02*
X10970000Y-13820000D01*
X10970000Y-13780000D02*
X10930000Y-13820000D01*
X10940000Y-13535000D02*
X10980000Y-13575000D01*
X10980000Y-13535000D02*
X10940000Y-13575000D01*
X11020000Y-15060000D02*
X11060000Y-15100000D01*
X11060000Y-15060000D02*
X11020000Y-15100000D01*
X11080000Y-6140000D02*
X11120000Y-6180000D01*
X11120000Y-6140000D02*
X11080000Y-6180000D01*
X11080000Y-13000000D02*
X11120000Y-13040000D01*
X11120000Y-13000000D02*
X11080000Y-13040000D01*
X11080000Y-14710000D02*
X11120000Y-14750000D01*
X11120000Y-14710000D02*
X11080000Y-14750000D01*
X11080000Y-15420000D02*
X11120000Y-15460000D01*
X11120000Y-15420000D02*
X11080000Y-15460000D01*
X11090000Y-5740000D02*
X11130000Y-5780000D01*
X11130000Y-5740000D02*
X11090000Y-5780000D01*
X11100000Y-9780000D02*
X11140000Y-9820000D01*
X11140000Y-9780000D02*
X11100000Y-9820000D01*
X11120000Y-18920000D02*
X11160000Y-18960000D01*
X11160000Y-18920000D02*
X11120000Y-18960000D01*
X11139999Y-14960001D02*
X11179999Y-15000001D01*
X11179999Y-14960001D02*
X11139999Y-15000001D01*
X11160000Y-11450000D02*
X11200000Y-11490000D01*
X11200000Y-11450000D02*
X11160000Y-11490000D01*
X11160000Y-12600000D02*
X11200000Y-12640000D01*
X11200000Y-12600000D02*
X11160000Y-12640000D01*
X11200000Y-6720000D02*
X11240000Y-6760000D01*
X11240000Y-6720000D02*
X11200000Y-6760000D01*
X11239999Y-14960001D02*
X11279999Y-15000001D01*
X11279999Y-14960001D02*
X11239999Y-15000001D01*
X11260000Y-12020000D02*
X11300000Y-12060000D01*
X11300000Y-12020000D02*
X11260000Y-12060000D01*
X11270000Y-12490000D02*
X11310000Y-12530000D01*
X11310000Y-12490000D02*
X11270000Y-12530000D01*
X11280000Y-10880000D02*
X11320000Y-10920000D01*
X11320000Y-10880000D02*
X11280000Y-10920000D01*
X11280000Y-11000000D02*
X11320000Y-11040000D01*
X11320000Y-11000000D02*
X11280000Y-11040000D01*
X11290000Y-11610000D02*
X11330000Y-11650000D01*
X11330000Y-11610000D02*
X11290000Y-11650000D01*
X11320000Y-16000000D02*
X11360000Y-16040000D01*
X11360000Y-16000000D02*
X11320000Y-16040000D01*
X11330000Y-7280000D02*
X11370000Y-7320000D01*
X11370000Y-7280000D02*
X11330000Y-7320000D01*
X11350000Y-13520000D02*
X11390000Y-13560000D01*
X11390000Y-13520000D02*
X11350000Y-13560000D01*
X11360000Y-13800000D02*
X11400000Y-13840000D01*
X11400000Y-13800000D02*
X11360000Y-13840000D01*
X11380000Y-11700000D02*
X11420000Y-11740000D01*
X11420000Y-11700000D02*
X11380000Y-11740000D01*
X11410000Y-10550000D02*
X11450000Y-10590000D01*
X11450000Y-10550000D02*
X11410000Y-10590000D01*
X11420000Y-16000000D02*
X11460000Y-16040000D01*
X11460000Y-16000000D02*
X11420000Y-16040000D01*
X11558911Y-9861089D02*
X11598911Y-9901089D01*
X11598911Y-9861089D02*
X11558911Y-9901089D01*
X11560000Y-9760000D02*
X11600000Y-9800000D01*
X11600000Y-9760000D02*
X11560000Y-9800000D01*
X11620000Y-18000000D02*
X11660000Y-18040000D01*
X11660000Y-18000000D02*
X11620000Y-18040000D01*
X11630000Y-14710000D02*
X11670000Y-14750000D01*
X11670000Y-14710000D02*
X11630000Y-14750000D01*
X11640000Y-17540000D02*
X11680000Y-17580000D01*
X11680000Y-17540000D02*
X11640000Y-17580000D01*
X11640000Y-18500000D02*
X11680000Y-18540000D01*
X11680000Y-18500000D02*
X11640000Y-18540000D01*
X11670000Y-11430000D02*
X11710000Y-11470000D01*
X11710000Y-11430000D02*
X11670000Y-11470000D01*
X11760000Y-16580000D02*
X11800000Y-16620000D01*
X11800000Y-16580000D02*
X11760000Y-16620000D01*
X11760000Y-16680000D02*
X11800000Y-16720000D01*
X11800000Y-16680000D02*
X11760000Y-16720000D01*
X11770000Y-11950000D02*
X11810000Y-11990000D01*
X11810000Y-11950000D02*
X11770000Y-11990000D01*
X11780000Y-12500000D02*
X11820000Y-12540000D01*
X11820000Y-12500000D02*
X11780000Y-12540000D01*
X11820000Y-7320000D02*
X11860000Y-7360000D01*
X11860000Y-7320000D02*
X11820000Y-7360000D01*
X11820000Y-15390000D02*
X11860000Y-15430000D01*
X11860000Y-15390000D02*
X11820000Y-15430000D01*
X11890000Y-5730000D02*
X11930000Y-5770000D01*
X11930000Y-5730000D02*
X11890000Y-5770000D01*
X11900000Y-6140000D02*
X11940000Y-6180000D01*
X11940000Y-6140000D02*
X11900000Y-6180000D01*
X11920000Y-13720000D02*
X11960000Y-13760000D01*
X11960000Y-13720000D02*
X11920000Y-13760000D01*
X11980000Y-10980000D02*
X12020000Y-11020000D01*
X12020000Y-10980000D02*
X11980000Y-11020000D01*
X11980000Y-14200000D02*
X12020000Y-14240000D01*
X12020000Y-14200000D02*
X11980000Y-14240000D01*
X12030000Y-14700000D02*
X12070000Y-14740000D01*
X12070000Y-14700000D02*
X12030000Y-14740000D01*
X12040000Y-11430000D02*
X12080000Y-11470000D01*
X12080000Y-11430000D02*
X12040000Y-11470000D01*
X12100000Y-12820000D02*
X12140000Y-12860000D01*
X12140000Y-12820000D02*
X12100000Y-12860000D01*
X12140000Y-8060000D02*
X12180000Y-8100000D01*
X12180000Y-8060000D02*
X12140000Y-8100000D01*
X12200000Y-18700000D02*
X12240000Y-18740000D01*
X12240000Y-18700000D02*
X12200000Y-18740000D01*
X12220000Y-10820000D02*
X12260000Y-10860000D01*
X12260000Y-10820000D02*
X12220000Y-10860000D01*
X12220000Y-10980000D02*
X12260000Y-11020000D01*
X12260000Y-10980000D02*
X12220000Y-11020000D01*
X12220000Y-11480000D02*
X12260000Y-11520000D01*
X12260000Y-11480000D02*
X12220000Y-11520000D01*
X12220000Y-11600000D02*
X12260000Y-11640000D01*
X12260000Y-11600000D02*
X12220000Y-11640000D01*
X12280000Y-12500000D02*
X12320000Y-12540000D01*
X12320000Y-12500000D02*
X12280000Y-12540000D01*
X12335356Y-11615356D02*
X12375356Y-11655356D01*
X12375356Y-11615356D02*
X12335356Y-11655356D01*
X12340000Y-11480000D02*
X12380000Y-11520000D01*
X12380000Y-11480000D02*
X12340000Y-11520000D01*
X12340000Y-11960000D02*
X12380000Y-12000000D01*
X12380000Y-11960000D02*
X12340000Y-12000000D01*
X12360000Y-14200000D02*
X12400000Y-14240000D01*
X12400000Y-14200000D02*
X12360000Y-14240000D01*
X12440000Y-10880000D02*
X12480000Y-10920000D01*
X12480000Y-10880000D02*
X12440000Y-10920000D01*
X12440000Y-10980000D02*
X12480000Y-11020000D01*
X12480000Y-10980000D02*
X12440000Y-11020000D01*
X12480000Y-8460000D02*
X12520000Y-8500000D01*
X12520000Y-8460000D02*
X12480000Y-8500000D01*
X12480000Y-14710000D02*
X12520000Y-14750000D01*
X12520000Y-14710000D02*
X12480000Y-14750000D01*
X12520000Y-13240000D02*
X12560000Y-13280000D01*
X12560000Y-13240000D02*
X12520000Y-13280000D01*
X12570000Y-15380000D02*
X12610000Y-15420000D01*
X12610000Y-15380000D02*
X12570000Y-15420000D01*
X12710000Y-15800000D02*
X12750000Y-15840000D01*
X12750000Y-15800000D02*
X12710000Y-15840000D01*
X12730000Y-19480000D02*
X12770000Y-19520000D01*
X12770000Y-19480000D02*
X12730000Y-19520000D01*
X12760000Y-14600000D02*
X12800000Y-14640000D01*
X12800000Y-14600000D02*
X12760000Y-14640000D01*
X12820000Y-13020000D02*
X12860000Y-13060000D01*
X12860000Y-13020000D02*
X12820000Y-13060000D01*
X12840000Y-9540000D02*
X12880000Y-9580000D01*
X12880000Y-9540000D02*
X12840000Y-9580000D01*
X12840000Y-10980000D02*
X12880000Y-11020000D01*
X12880000Y-10980000D02*
X12840000Y-11020000D01*
X12860000Y-9280000D02*
X12900000Y-9320000D01*
X12900000Y-9280000D02*
X12860000Y-9320000D01*
X12880000Y-11525000D02*
X12920000Y-11565000D01*
X12920000Y-11525000D02*
X12880000Y-11565000D01*
X12880000Y-17500000D02*
X12920000Y-17540000D01*
X12920000Y-17500000D02*
X12880000Y-17540000D01*
X12930000Y-8405000D02*
X12970000Y-8445000D01*
X12970000Y-8405000D02*
X12930000Y-8445000D01*
X12960000Y-13720000D02*
X13000000Y-13760000D01*
X13000000Y-13720000D02*
X12960000Y-13760000D01*
X13120000Y-18740000D02*
X13160000Y-18780000D01*
X13160000Y-18740000D02*
X13120000Y-18780000D01*
X13280000Y-13460000D02*
X13320000Y-13500000D01*
X13320000Y-13460000D02*
X13280000Y-13500000D01*
X13300000Y-16250000D02*
X13340000Y-16290000D01*
X13340000Y-16250000D02*
X13300000Y-16290000D01*
X13315000Y-11520000D02*
X13355000Y-11560000D01*
X13355000Y-11520000D02*
X13315000Y-11560000D01*
X13320000Y-10980000D02*
X13360000Y-11020000D01*
X13360000Y-10980000D02*
X13320000Y-11020000D01*
X13360000Y-14120000D02*
X13400000Y-14160000D01*
X13400000Y-14120000D02*
X13360000Y-14160000D01*
X13540000Y-8900000D02*
X13580000Y-8940000D01*
X13580000Y-8900000D02*
X13540000Y-8940000D01*
X13560000Y-9240000D02*
X13600000Y-9280000D01*
X13600000Y-9240000D02*
X13560000Y-9280000D01*
X13570000Y-5740000D02*
X13610000Y-5780000D01*
X13610000Y-5740000D02*
X13570000Y-5780000D01*
X13570000Y-6150000D02*
X13610000Y-6190000D01*
X13610000Y-6150000D02*
X13570000Y-6190000D01*
X13600000Y-9760000D02*
X13640000Y-9800000D01*
X13640000Y-9760000D02*
X13600000Y-9800000D01*
X13620000Y-10640000D02*
X13660000Y-10680000D01*
X13660000Y-10640000D02*
X13620000Y-10680000D01*
X13655000Y-8595000D02*
X13695000Y-8635000D01*
X13695000Y-8595000D02*
X13655000Y-8635000D01*
X13660000Y-8840000D02*
X13700000Y-8880000D01*
X13700000Y-8840000D02*
X13660000Y-8880000D01*
X13660000Y-8960000D02*
X13700000Y-9000000D01*
X13700000Y-8960000D02*
X13660000Y-9000000D01*
X13660000Y-13880000D02*
X13700000Y-13920000D01*
X13700000Y-13880000D02*
X13660000Y-13920000D01*
X13680000Y-7820000D02*
X13720000Y-7860000D01*
X13720000Y-7820000D02*
X13680000Y-7860000D01*
X13740000Y-14480000D02*
X13780000Y-14520000D01*
X13780000Y-14480000D02*
X13740000Y-14520000D01*
X13785000Y-7215000D02*
X13825000Y-7255000D01*
X13825000Y-7215000D02*
X13785000Y-7255000D01*
X13840000Y-11500000D02*
X13880000Y-11540000D01*
X13880000Y-11500000D02*
X13840000Y-11540000D01*
X13900000Y-17500000D02*
X13940000Y-17540000D01*
X13940000Y-17500000D02*
X13900000Y-17540000D01*
X13980000Y-15800000D02*
X14020000Y-15840000D01*
X14020000Y-15800000D02*
X13980000Y-15840000D01*
X14040000Y-14220000D02*
X14080000Y-14260000D01*
X14080000Y-14220000D02*
X14040000Y-14260000D01*
X14060000Y-10200000D02*
X14100000Y-10240000D01*
X14100000Y-10200000D02*
X14060000Y-10240000D01*
X14080000Y-9800000D02*
X14120000Y-9840000D01*
X14120000Y-9800000D02*
X14080000Y-9840000D01*
X14080000Y-10760000D02*
X14120000Y-10800000D01*
X14120000Y-10760000D02*
X14080000Y-10800000D01*
X14080000Y-18740000D02*
X14120000Y-18780000D01*
X14120000Y-18740000D02*
X14080000Y-18780000D01*
X14100000Y-14840000D02*
X14140000Y-14880000D01*
X14140000Y-14840000D02*
X14100000Y-14880000D01*
X14280000Y-10200000D02*
X14320000Y-10240000D01*
X14320000Y-10200000D02*
X14280000Y-10240000D01*
X14300000Y-9800000D02*
X14340000Y-9840000D01*
X14340000Y-9800000D02*
X14300000Y-9840000D01*
X14300000Y-12610000D02*
X14340000Y-12650000D01*
X14340000Y-12610000D02*
X14300000Y-12650000D01*
X14305000Y-11030000D02*
X14345000Y-11070000D01*
X14345000Y-11030000D02*
X14305000Y-11070000D01*
X14380000Y-14580000D02*
X14420000Y-14620000D01*
X14420000Y-14580000D02*
X14380000Y-14620000D01*
X14420000Y-6735000D02*
X14460000Y-6775000D01*
X14460000Y-6735000D02*
X14420000Y-6775000D01*
X14460000Y-8300000D02*
X14500000Y-8340000D01*
X14500000Y-8300000D02*
X14460000Y-8340000D01*
X14500000Y-7000000D02*
X14540000Y-7040000D01*
X14540000Y-7000000D02*
X14500000Y-7040000D01*
X14520000Y-8640000D02*
X14560000Y-8680000D01*
X14560000Y-8640000D02*
X14520000Y-8680000D01*
X14520000Y-8760000D02*
X14560000Y-8800000D01*
X14560000Y-8760000D02*
X14520000Y-8800000D01*
X14580000Y-8960000D02*
X14620000Y-9000000D01*
X14620000Y-8960000D02*
X14580000Y-9000000D01*
X14580000Y-9080000D02*
X14620000Y-9120000D01*
X14620000Y-9080000D02*
X14580000Y-9120000D01*
X14600000Y-9800000D02*
X14640000Y-9840000D01*
X14640000Y-9800000D02*
X14600000Y-9840000D01*
X14610000Y-10180000D02*
X14650000Y-10220000D01*
X14650000Y-10180000D02*
X14610000Y-10220000D01*
X14700000Y-10640000D02*
X14740000Y-10680000D01*
X14740000Y-10640000D02*
X14700000Y-10680000D01*
X14740000Y-7380000D02*
X14780000Y-7420000D01*
X14780000Y-7380000D02*
X14740000Y-7420000D01*
X14780000Y-18660000D02*
X14820000Y-18700000D01*
X14820000Y-18660000D02*
X14780000Y-18700000D01*
X14820000Y-6750000D02*
X14860000Y-6790000D01*
X14860000Y-6750000D02*
X14820000Y-6790000D01*
X14820000Y-17540000D02*
X14860000Y-17580000D01*
X14860000Y-17540000D02*
X14820000Y-17580000D01*
X14840000Y-10200000D02*
X14880000Y-10240000D01*
X14880000Y-10200000D02*
X14840000Y-10240000D01*
X14850000Y-8990000D02*
X14890000Y-9030000D01*
X14890000Y-8990000D02*
X14850000Y-9030000D01*
X14860000Y-9740000D02*
X14900000Y-9780000D01*
X14900000Y-9740000D02*
X14860000Y-9780000D01*
X14860000Y-16135000D02*
X14900000Y-16175000D01*
X14900000Y-16135000D02*
X14860000Y-16175000D01*
X14900000Y-9500000D02*
X14940000Y-9540000D01*
X14940000Y-9500000D02*
X14900000Y-9540000D01*
X14925000Y-7840000D02*
X14965000Y-7880000D01*
X14965000Y-7840000D02*
X14925000Y-7880000D01*
X15115000Y-8760000D02*
X15155000Y-8800000D01*
X15155000Y-8760000D02*
X15115000Y-8800000D01*
X15150000Y-8030000D02*
X15190000Y-8070000D01*
X15190000Y-8030000D02*
X15150000Y-8070000D01*
X15260000Y-7540000D02*
X15300000Y-7580000D01*
X15300000Y-7540000D02*
X15260000Y-7580000D01*
X15420000Y-7760000D02*
X15460000Y-7800000D01*
X15460000Y-7760000D02*
X15420000Y-7800000D01*
X15440000Y-9380000D02*
X15480000Y-9420000D01*
X15480000Y-9380000D02*
X15440000Y-9420000D01*
X15500000Y-8530000D02*
X15540000Y-8570000D01*
X15540000Y-8530000D02*
X15500000Y-8570000D01*
X15535000Y-17025000D02*
X15575000Y-17065000D01*
X15575000Y-17025000D02*
X15535000Y-17065000D01*
X15630000Y-10805000D02*
X15670000Y-10845000D01*
X15670000Y-10805000D02*
X15630000Y-10845000D01*
X15630000Y-13130000D02*
X15670000Y-13170000D01*
X15670000Y-13130000D02*
X15630000Y-13170000D01*
X15880000Y-12105000D02*
X15920000Y-12145000D01*
X15920000Y-12105000D02*
X15880000Y-12145000D01*
X15880000Y-15655000D02*
X15920000Y-15695000D01*
X15920000Y-15655000D02*
X15880000Y-15695000D01*
X15905000Y-10205000D02*
X15945000Y-10245000D01*
X15945000Y-10205000D02*
X15905000Y-10245000D01*
X15905000Y-14205000D02*
X15945000Y-14245000D01*
X15945000Y-14205000D02*
X15905000Y-14245000D01*
X16170000Y-5860000D02*
X16210000Y-5900000D01*
X16210000Y-5860000D02*
X16170000Y-5900000D01*
X16255000Y-19405000D02*
X16295000Y-19445000D01*
X16295000Y-19405000D02*
X16255000Y-19445000D01*
X16305000Y-10255000D02*
X16345000Y-10295000D01*
X16345000Y-10255000D02*
X16305000Y-10295000D01*
X16305000Y-13330000D02*
X16345000Y-13370000D01*
X16345000Y-13330000D02*
X16305000Y-13370000D01*
X16305000Y-17280000D02*
X16345000Y-17320000D01*
X16345000Y-17280000D02*
X16305000Y-17320000D01*
X7560000Y-15930000D02*
G75*
G03*
X7560000Y-15930000I-30000J0D01*
G01*
X7560000Y-16080000D02*
G75*
G03*
X7560000Y-16080000I-30000J0D01*
G01*
X4055000Y-16040000D02*
X4055000Y-16120000D01*
X4015000Y-16080000D02*
X4095000Y-16080000D01*
X4055000Y-17056000D02*
X4055000Y-17136000D01*
X4015000Y-17096000D02*
X4095000Y-17096000D01*
X4355000Y-16040000D02*
X4355000Y-16120000D01*
X4315000Y-16080000D02*
X4395000Y-16080000D01*
X4355000Y-17056000D02*
X4355000Y-17136000D01*
X4315000Y-17096000D02*
X4395000Y-17096000D01*
X4655000Y-16040000D02*
X4655000Y-16120000D01*
X4615000Y-16080000D02*
X4695000Y-16080000D01*
X4655000Y-17056000D02*
X4655000Y-17136000D01*
X4615000Y-17096000D02*
X4695000Y-17096000D01*
X5829000Y-8070000D02*
X5829000Y-8150000D01*
X5789000Y-8110000D02*
X5869000Y-8110000D01*
X5829000Y-8395000D02*
X5829000Y-8475000D01*
X5789000Y-8435000D02*
X5869000Y-8435000D01*
X6355000Y-15865000D02*
X6355000Y-15945000D01*
X6315000Y-15905000D02*
X6395000Y-15905000D01*
X6355000Y-16115000D02*
X6355000Y-16195000D01*
X6315000Y-16155000D02*
X6395000Y-16155000D01*
X6389000Y-17665000D02*
X6389000Y-17745000D01*
X6349000Y-17705000D02*
X6429000Y-17705000D01*
X6389000Y-17965000D02*
X6389000Y-18045000D01*
X6349000Y-18005000D02*
X6429000Y-18005000D01*
X6595000Y-8695000D02*
X6595000Y-8775000D01*
X6555000Y-8735000D02*
X6635000Y-8735000D01*
X6845000Y-8070000D02*
X6845000Y-8150000D01*
X6805000Y-8110000D02*
X6885000Y-8110000D01*
X6845000Y-8395000D02*
X6845000Y-8475000D01*
X6805000Y-8435000D02*
X6885000Y-8435000D01*
X6845000Y-8695000D02*
X6845000Y-8775000D01*
X6805000Y-8735000D02*
X6885000Y-8735000D01*
X7140000Y-6570000D02*
X7140000Y-6650000D01*
X7100000Y-6610000D02*
X7180000Y-6610000D01*
X7394000Y-6570000D02*
X7394000Y-6650000D01*
X7354000Y-6610000D02*
X7434000Y-6610000D01*
X7405000Y-17665000D02*
X7405000Y-17745000D01*
X7365000Y-17705000D02*
X7445000Y-17705000D01*
X7405000Y-17965000D02*
X7405000Y-18045000D01*
X7365000Y-18005000D02*
X7445000Y-18005000D01*
X7930000Y-13650000D02*
X7930000Y-13730000D01*
X7890000Y-13690000D02*
X7970000Y-13690000D01*
X7955000Y-12200000D02*
X7955000Y-12280000D01*
X7915000Y-12240000D02*
X7995000Y-12240000D01*
X8180000Y-13650000D02*
X8180000Y-13730000D01*
X8140000Y-13690000D02*
X8220000Y-13690000D01*
X8205000Y-12200000D02*
X8205000Y-12280000D01*
X8165000Y-12240000D02*
X8245000Y-12240000D01*
X9595000Y-13650000D02*
X9595000Y-13730000D01*
X9555000Y-13690000D02*
X9635000Y-13690000D01*
X9595000Y-13960000D02*
X9595000Y-14040000D01*
X9555000Y-14000000D02*
X9635000Y-14000000D01*
X9640000Y-12340000D02*
X9640000Y-12420000D01*
X9600000Y-12380000D02*
X9680000Y-12380000D01*
X9845000Y-13650000D02*
X9845000Y-13730000D01*
X9805000Y-13690000D02*
X9885000Y-13690000D01*
X9845000Y-13960000D02*
X9845000Y-14040000D01*
X9805000Y-14000000D02*
X9885000Y-14000000D01*
X9890000Y-12340000D02*
X9890000Y-12420000D01*
X9850000Y-12380000D02*
X9930000Y-12380000D01*
X10540000Y-17020000D02*
X10540000Y-17100000D01*
X10500000Y-17060000D02*
X10580000Y-17060000D01*
X11130000Y-17470000D02*
X11130000Y-17550000D01*
X11090000Y-17510000D02*
X11170000Y-17510000D01*
X11130000Y-18486000D02*
X11130000Y-18566000D01*
X11090000Y-18526000D02*
X11170000Y-18526000D01*
X11556000Y-17020000D02*
X11556000Y-17100000D01*
X11516000Y-17060000D02*
X11596000Y-17060000D01*
X11855000Y-9895000D02*
X11855000Y-9975000D01*
X11815000Y-9935000D02*
X11895000Y-9935000D01*
X12019000Y-15705000D02*
X12019000Y-15785000D01*
X11979000Y-15745000D02*
X12059000Y-15745000D01*
X12019000Y-16005000D02*
X12019000Y-16085000D01*
X11979000Y-16045000D02*
X12059000Y-16045000D01*
X12140000Y-17790000D02*
X12140000Y-17870000D01*
X12100000Y-17830000D02*
X12180000Y-17830000D01*
X12140000Y-18040000D02*
X12140000Y-18120000D01*
X12100000Y-18080000D02*
X12180000Y-18080000D01*
X12475000Y-17064000D02*
X12475000Y-17144000D01*
X12435000Y-17104000D02*
X12515000Y-17104000D01*
X12475000Y-18080000D02*
X12475000Y-18160000D01*
X12435000Y-18120000D02*
X12515000Y-18120000D01*
X12871000Y-9895000D02*
X12871000Y-9975000D01*
X12831000Y-9935000D02*
X12911000Y-9935000D01*
X13035000Y-15705000D02*
X13035000Y-15785000D01*
X12995000Y-15745000D02*
X13075000Y-15745000D01*
X13035000Y-16005000D02*
X13035000Y-16085000D01*
X12995000Y-16045000D02*
X13075000Y-16045000D01*
X13125000Y-17800000D02*
X13125000Y-17880000D01*
X13085000Y-17840000D02*
X13165000Y-17840000D01*
X13125000Y-18050000D02*
X13125000Y-18130000D01*
X13085000Y-18090000D02*
X13165000Y-18090000D01*
X13450000Y-17075000D02*
X13450000Y-17155000D01*
X13410000Y-17115000D02*
X13490000Y-17115000D01*
X13450000Y-18091000D02*
X13450000Y-18171000D01*
X13410000Y-18131000D02*
X13490000Y-18131000D01*
X13460000Y-15705000D02*
X13460000Y-15785000D01*
X13420000Y-15745000D02*
X13500000Y-15745000D01*
X13460000Y-16005000D02*
X13460000Y-16085000D01*
X13420000Y-16045000D02*
X13500000Y-16045000D01*
X14100000Y-17800000D02*
X14100000Y-17880000D01*
X14060000Y-17840000D02*
X14140000Y-17840000D01*
X14100000Y-18050000D02*
X14100000Y-18130000D01*
X14060000Y-18090000D02*
X14140000Y-18090000D01*
X14425000Y-17075000D02*
X14425000Y-17155000D01*
X14385000Y-17115000D02*
X14465000Y-17115000D01*
X14425000Y-18091000D02*
X14425000Y-18171000D01*
X14385000Y-18131000D02*
X14465000Y-18131000D01*
X14476000Y-15705000D02*
X14476000Y-15785000D01*
X14436000Y-15745000D02*
X14516000Y-15745000D01*
X14476000Y-16005000D02*
X14476000Y-16085000D01*
X14436000Y-16045000D02*
X14516000Y-16045000D01*
X6482820Y-17236820D02*
X6482820Y-17173180D01*
X6419180Y-17173180D01*
X6419180Y-17236820D01*
X6482820Y-17236820D01*
X6736820Y-17236820D02*
X6736820Y-17173180D01*
X6673180Y-17173180D01*
X6673180Y-17236820D01*
X6736820Y-17236820D01*
X7132820Y-17236820D02*
X7132820Y-17173180D01*
X7069180Y-17173180D01*
X7069180Y-17236820D01*
X7132820Y-17236820D01*
X7386820Y-17236820D02*
X7386820Y-17173180D01*
X7323180Y-17173180D01*
X7323180Y-17236820D01*
X7386820Y-17236820D01*
X12266820Y-16422820D02*
X12266820Y-16359180D01*
X12203180Y-16359180D01*
X12203180Y-16422820D01*
X12266820Y-16422820D01*
X12266820Y-16676820D02*
X12266820Y-16613180D01*
X12203180Y-16613180D01*
X12203180Y-16676820D01*
X12266820Y-16676820D01*
X12941820Y-16422820D02*
X12941820Y-16359180D01*
X12878180Y-16359180D01*
X12878180Y-16422820D01*
X12941820Y-16422820D01*
X12941820Y-16676820D02*
X12941820Y-16613180D01*
X12878180Y-16613180D01*
X12878180Y-16676820D01*
X12941820Y-16676820D01*
X13616820Y-16422820D02*
X13616820Y-16359180D01*
X13553180Y-16359180D01*
X13553180Y-16422820D01*
X13616820Y-16422820D01*
X13616820Y-16676820D02*
X13616820Y-16613180D01*
X13553180Y-16613180D01*
X13553180Y-16676820D01*
X13616820Y-16676820D01*
X14291820Y-16422820D02*
X14291820Y-16359180D01*
X14228180Y-16359180D01*
X14228180Y-16422820D01*
X14291820Y-16422820D01*
X14291820Y-16676820D02*
X14291820Y-16613180D01*
X14228180Y-16613180D01*
X14228180Y-16676820D01*
X14291820Y-16676820D01*
X15793500Y-8747500D02*
X15841000Y-8700000D01*
X15793500Y-8652500D01*
X15746000Y-8700000D01*
X15793500Y-8747500D01*
X15793500Y-8997500D02*
X15841000Y-8950000D01*
X15793500Y-8902500D01*
X15746000Y-8950000D01*
X15793500Y-8997500D01*
X15793500Y-9247500D02*
X15841000Y-9200000D01*
X15793500Y-9152500D01*
X15746000Y-9200000D01*
X15793500Y-9247500D01*
X15793500Y-9497500D02*
X15841000Y-9450000D01*
X15793500Y-9402500D01*
X15746000Y-9450000D01*
X15793500Y-9497500D01*
X15793500Y-9747500D02*
X15841000Y-9700000D01*
X15793500Y-9652500D01*
X15746000Y-9700000D01*
X15793500Y-9747500D01*
X2130000Y-6870000D02*
X2230000Y-6970000D01*
X2230000Y-6870000D02*
X2130000Y-6970000D01*
X2230000Y-6920000D02*
G75*
G03*
X2230000Y-6920000I-50000J0D01*
G01*
X2130000Y-7124000D02*
X2230000Y-7224000D01*
X2230000Y-7124000D02*
X2130000Y-7224000D01*
X2230000Y-7174000D02*
G75*
G03*
X2230000Y-7174000I-50000J0D01*
G01*
X2130000Y-7378000D02*
X2230000Y-7478000D01*
X2230000Y-7378000D02*
X2130000Y-7478000D01*
X2230000Y-7428000D02*
G75*
G03*
X2230000Y-7428000I-50000J0D01*
G01*
X2130000Y-7632000D02*
X2230000Y-7732000D01*
X2230000Y-7632000D02*
X2130000Y-7732000D01*
X2230000Y-7682000D02*
G75*
G03*
X2230000Y-7682000I-50000J0D01*
G01*
X2370000Y-15990000D02*
X2470000Y-16090000D01*
X2470000Y-15990000D02*
X2370000Y-16090000D01*
X2470000Y-16040000D02*
G75*
G03*
X2470000Y-16040000I-50000J0D01*
G01*
X2370000Y-16244000D02*
X2470000Y-16344000D01*
X2470000Y-16244000D02*
X2370000Y-16344000D01*
X2470000Y-16294000D02*
G75*
G03*
X2470000Y-16294000I-50000J0D01*
G01*
X2370000Y-16498000D02*
X2470000Y-16598000D01*
X2470000Y-16498000D02*
X2370000Y-16598000D01*
X2470000Y-16548000D02*
G75*
G03*
X2470000Y-16548000I-50000J0D01*
G01*
X2370000Y-16752000D02*
X2470000Y-16852000D01*
X2470000Y-16752000D02*
X2370000Y-16852000D01*
X2470000Y-16802000D02*
G75*
G03*
X2470000Y-16802000I-50000J0D01*
G01*
X2378000Y-10375000D02*
X2478000Y-10475000D01*
X2478000Y-10375000D02*
X2378000Y-10475000D01*
X2478000Y-10425000D02*
G75*
G03*
X2478000Y-10425000I-50000J0D01*
G01*
X2378000Y-15201000D02*
X2478000Y-15301000D01*
X2478000Y-15201000D02*
X2378000Y-15301000D01*
X2478000Y-15251000D02*
G75*
G03*
X2478000Y-15251000I-50000J0D01*
G01*
X2632000Y-10375000D02*
X2732000Y-10475000D01*
X2732000Y-10375000D02*
X2632000Y-10475000D01*
X2732000Y-10425000D02*
G75*
G03*
X2732000Y-10425000I-50000J0D01*
G01*
X2632000Y-15201000D02*
X2732000Y-15301000D01*
X2732000Y-15201000D02*
X2632000Y-15301000D01*
X2732000Y-15251000D02*
G75*
G03*
X2732000Y-15251000I-50000J0D01*
G01*
X2886000Y-10375000D02*
X2986000Y-10475000D01*
X2986000Y-10375000D02*
X2886000Y-10475000D01*
X2986000Y-10425000D02*
G75*
G03*
X2986000Y-10425000I-50000J0D01*
G01*
X2886000Y-15201000D02*
X2986000Y-15301000D01*
X2986000Y-15201000D02*
X2886000Y-15301000D01*
X2986000Y-15251000D02*
G75*
G03*
X2986000Y-15251000I-50000J0D01*
G01*
X3140000Y-10375000D02*
X3240000Y-10475000D01*
X3240000Y-10375000D02*
X3140000Y-10475000D01*
X3240000Y-10425000D02*
G75*
G03*
X3240000Y-10425000I-50000J0D01*
G01*
X3140000Y-15201000D02*
X3240000Y-15301000D01*
X3240000Y-15201000D02*
X3140000Y-15301000D01*
X3240000Y-15251000D02*
G75*
G03*
X3240000Y-15251000I-50000J0D01*
G01*
X3394000Y-10375000D02*
X3494000Y-10475000D01*
X3494000Y-10375000D02*
X3394000Y-10475000D01*
X3494000Y-10425000D02*
G75*
G03*
X3494000Y-10425000I-50000J0D01*
G01*
X3394000Y-15201000D02*
X3494000Y-15301000D01*
X3494000Y-15201000D02*
X3394000Y-15301000D01*
X3494000Y-15251000D02*
G75*
G03*
X3494000Y-15251000I-50000J0D01*
G01*
X3648000Y-10375000D02*
X3748000Y-10475000D01*
X3748000Y-10375000D02*
X3648000Y-10475000D01*
X3748000Y-10425000D02*
G75*
G03*
X3748000Y-10425000I-50000J0D01*
G01*
X3648000Y-15201000D02*
X3748000Y-15301000D01*
X3748000Y-15201000D02*
X3648000Y-15301000D01*
X3748000Y-15251000D02*
G75*
G03*
X3748000Y-15251000I-50000J0D01*
G01*
X3902000Y-10375000D02*
X4002000Y-10475000D01*
X4002000Y-10375000D02*
X3902000Y-10475000D01*
X4002000Y-10425000D02*
G75*
G03*
X4002000Y-10425000I-50000J0D01*
G01*
X4156000Y-10375000D02*
X4256000Y-10475000D01*
X4256000Y-10375000D02*
X4156000Y-10475000D01*
X4256000Y-10425000D02*
G75*
G03*
X4256000Y-10425000I-50000J0D01*
G01*
X4156000Y-15201000D02*
X4256000Y-15301000D01*
X4256000Y-15201000D02*
X4156000Y-15301000D01*
X4256000Y-15251000D02*
G75*
G03*
X4256000Y-15251000I-50000J0D01*
G01*
X4410000Y-15201000D02*
X4510000Y-15301000D01*
X4510000Y-15201000D02*
X4410000Y-15301000D01*
X4510000Y-15251000D02*
G75*
G03*
X4510000Y-15251000I-50000J0D01*
G01*
X4562000Y-10375000D02*
X4662000Y-10475000D01*
X4662000Y-10375000D02*
X4562000Y-10475000D01*
X4662000Y-10425000D02*
G75*
G03*
X4662000Y-10425000I-50000J0D01*
G01*
X4664000Y-15201000D02*
X4764000Y-15301000D01*
X4764000Y-15201000D02*
X4664000Y-15301000D01*
X4764000Y-15251000D02*
G75*
G03*
X4764000Y-15251000I-50000J0D01*
G01*
X4816000Y-10375000D02*
X4916000Y-10475000D01*
X4916000Y-10375000D02*
X4816000Y-10475000D01*
X4916000Y-10425000D02*
G75*
G03*
X4916000Y-10425000I-50000J0D01*
G01*
X4918000Y-15201000D02*
X5018000Y-15301000D01*
X5018000Y-15201000D02*
X4918000Y-15301000D01*
X5018000Y-15251000D02*
G75*
G03*
X5018000Y-15251000I-50000J0D01*
G01*
X5070000Y-10375000D02*
X5170000Y-10475000D01*
X5170000Y-10375000D02*
X5070000Y-10475000D01*
X5170000Y-10425000D02*
G75*
G03*
X5170000Y-10425000I-50000J0D01*
G01*
X5155000Y-16314000D02*
X5255000Y-16414000D01*
X5255000Y-16314000D02*
X5155000Y-16414000D01*
X5255000Y-16364000D02*
G75*
G03*
X5255000Y-16364000I-50000J0D01*
G01*
X5155000Y-16568000D02*
X5255000Y-16668000D01*
X5255000Y-16568000D02*
X5155000Y-16668000D01*
X5255000Y-16618000D02*
G75*
G03*
X5255000Y-16618000I-50000J0D01*
G01*
X5155000Y-16822000D02*
X5255000Y-16922000D01*
X5255000Y-16822000D02*
X5155000Y-16922000D01*
X5255000Y-16872000D02*
G75*
G03*
X5255000Y-16872000I-50000J0D01*
G01*
X5155000Y-17076000D02*
X5255000Y-17176000D01*
X5255000Y-17076000D02*
X5155000Y-17176000D01*
X5255000Y-17126000D02*
G75*
G03*
X5255000Y-17126000I-50000J0D01*
G01*
X5155000Y-17330000D02*
X5255000Y-17430000D01*
X5255000Y-17330000D02*
X5155000Y-17430000D01*
X5255000Y-17380000D02*
G75*
G03*
X5255000Y-17380000I-50000J0D01*
G01*
X5172000Y-15201000D02*
X5272000Y-15301000D01*
X5272000Y-15201000D02*
X5172000Y-15301000D01*
X5272000Y-15251000D02*
G75*
G03*
X5272000Y-15251000I-50000J0D01*
G01*
X5324000Y-10375000D02*
X5424000Y-10475000D01*
X5424000Y-10375000D02*
X5324000Y-10475000D01*
X5424000Y-10425000D02*
G75*
G03*
X5424000Y-10425000I-50000J0D01*
G01*
X5426000Y-15201000D02*
X5526000Y-15301000D01*
X5526000Y-15201000D02*
X5426000Y-15301000D01*
X5526000Y-15251000D02*
G75*
G03*
X5526000Y-15251000I-50000J0D01*
G01*
X5578000Y-10375000D02*
X5678000Y-10475000D01*
X5678000Y-10375000D02*
X5578000Y-10475000D01*
X5678000Y-10425000D02*
G75*
G03*
X5678000Y-10425000I-50000J0D01*
G01*
X5680000Y-15201000D02*
X5780000Y-15301000D01*
X5780000Y-15201000D02*
X5680000Y-15301000D01*
X5780000Y-15251000D02*
G75*
G03*
X5780000Y-15251000I-50000J0D01*
G01*
X5832000Y-10375000D02*
X5932000Y-10475000D01*
X5932000Y-10375000D02*
X5832000Y-10475000D01*
X5932000Y-10425000D02*
G75*
G03*
X5932000Y-10425000I-50000J0D01*
G01*
X5934000Y-15201000D02*
X6034000Y-15301000D01*
X6034000Y-15201000D02*
X5934000Y-15301000D01*
X6034000Y-15251000D02*
G75*
G03*
X6034000Y-15251000I-50000J0D01*
G01*
X6086000Y-10375000D02*
X6186000Y-10475000D01*
X6186000Y-10375000D02*
X6086000Y-10475000D01*
X6186000Y-10425000D02*
G75*
G03*
X6186000Y-10425000I-50000J0D01*
G01*
X6212000Y-7710000D02*
X6312000Y-7810000D01*
X6312000Y-7710000D02*
X6212000Y-7810000D01*
X6312000Y-7760000D02*
G75*
G03*
X6312000Y-7760000I-50000J0D01*
G01*
X6340000Y-10375000D02*
X6440000Y-10475000D01*
X6440000Y-10375000D02*
X6340000Y-10475000D01*
X6440000Y-10425000D02*
G75*
G03*
X6440000Y-10425000I-50000J0D01*
G01*
X6466000Y-7710000D02*
X6566000Y-7810000D01*
X6566000Y-7710000D02*
X6466000Y-7810000D01*
X6566000Y-7760000D02*
G75*
G03*
X6566000Y-7760000I-50000J0D01*
G01*
X6594000Y-10375000D02*
X6694000Y-10475000D01*
X6694000Y-10375000D02*
X6594000Y-10475000D01*
X6694000Y-10425000D02*
G75*
G03*
X6694000Y-10425000I-50000J0D01*
G01*
X6720000Y-7710000D02*
X6820000Y-7810000D01*
X6820000Y-7710000D02*
X6720000Y-7810000D01*
X6820000Y-7760000D02*
G75*
G03*
X6820000Y-7760000I-50000J0D01*
G01*
X6848000Y-10375000D02*
X6948000Y-10475000D01*
X6948000Y-10375000D02*
X6848000Y-10475000D01*
X6948000Y-10425000D02*
G75*
G03*
X6948000Y-10425000I-50000J0D01*
G01*
X8530000Y-6310000D02*
X8630000Y-6410000D01*
X8630000Y-6310000D02*
X8530000Y-6410000D01*
X8630000Y-6360000D02*
G75*
G03*
X8630000Y-6360000I-50000J0D01*
G01*
X8668000Y-18950000D02*
X8768000Y-19050000D01*
X8768000Y-18950000D02*
X8668000Y-19050000D01*
X8768000Y-19000000D02*
G75*
G03*
X8768000Y-19000000I-50000J0D01*
G01*
X8784000Y-6310000D02*
X8884000Y-6410000D01*
X8884000Y-6310000D02*
X8784000Y-6410000D01*
X8884000Y-6360000D02*
G75*
G03*
X8884000Y-6360000I-50000J0D01*
G01*
X8922000Y-18950000D02*
X9022000Y-19050000D01*
X9022000Y-18950000D02*
X8922000Y-19050000D01*
X9022000Y-19000000D02*
G75*
G03*
X9022000Y-19000000I-50000J0D01*
G01*
X9038000Y-6310000D02*
X9138000Y-6410000D01*
X9138000Y-6310000D02*
X9038000Y-6410000D01*
X9138000Y-6360000D02*
G75*
G03*
X9138000Y-6360000I-50000J0D01*
G01*
X9176000Y-18950000D02*
X9276000Y-19050000D01*
X9276000Y-18950000D02*
X9176000Y-19050000D01*
X9276000Y-19000000D02*
G75*
G03*
X9276000Y-19000000I-50000J0D01*
G01*
X9292000Y-6310000D02*
X9392000Y-6410000D01*
X9392000Y-6310000D02*
X9292000Y-6410000D01*
X9392000Y-6360000D02*
G75*
G03*
X9392000Y-6360000I-50000J0D01*
G01*
X9430000Y-18950000D02*
X9530000Y-19050000D01*
X9530000Y-18950000D02*
X9430000Y-19050000D01*
X9530000Y-19000000D02*
G75*
G03*
X9530000Y-19000000I-50000J0D01*
G01*
X10010395Y-6890395D02*
X10110395Y-6990395D01*
X10110395Y-6890395D02*
X10010395Y-6990395D01*
X10110395Y-6940395D02*
G75*
G03*
X10110395Y-6940395I-50000J0D01*
G01*
X10190000Y-7070000D02*
X10290000Y-7170000D01*
X10290000Y-7070000D02*
X10190000Y-7170000D01*
X10290000Y-7120000D02*
G75*
G03*
X10290000Y-7120000I-50000J0D01*
G01*
X10369605Y-7249605D02*
X10469605Y-7349605D01*
X10469605Y-7249605D02*
X10369605Y-7349605D01*
X10469605Y-7299605D02*
G75*
G03*
X10469605Y-7299605I-50000J0D01*
G01*
X10549210Y-7429210D02*
X10649210Y-7529210D01*
X10649210Y-7429210D02*
X10549210Y-7529210D01*
X10649210Y-7479210D02*
G75*
G03*
X10649210Y-7479210I-50000J0D01*
G01*
X10881000Y-15201000D02*
X10981000Y-15301000D01*
X10981000Y-15201000D02*
X10881000Y-15301000D01*
X10981000Y-15251000D02*
G75*
G03*
X10981000Y-15251000I-50000J0D01*
G01*
X11010000Y-15790000D02*
X11110000Y-15890000D01*
X11110000Y-15790000D02*
X11010000Y-15890000D01*
X11110000Y-15840000D02*
G75*
G03*
X11110000Y-15840000I-50000J0D01*
G01*
X11010000Y-16550000D02*
X11110000Y-16650000D01*
X11110000Y-16550000D02*
X11010000Y-16650000D01*
X11110000Y-16600000D02*
G75*
G03*
X11110000Y-16600000I-50000J0D01*
G01*
X11075000Y-8642000D02*
X11175000Y-8742000D01*
X11175000Y-8642000D02*
X11075000Y-8742000D01*
X11175000Y-8692000D02*
G75*
G03*
X11175000Y-8692000I-50000J0D01*
G01*
X11075000Y-8896000D02*
X11175000Y-8996000D01*
X11175000Y-8896000D02*
X11075000Y-8996000D01*
X11175000Y-8946000D02*
G75*
G03*
X11175000Y-8946000I-50000J0D01*
G01*
X11075000Y-9150000D02*
X11175000Y-9250000D01*
X11175000Y-9150000D02*
X11075000Y-9250000D01*
X11175000Y-9200000D02*
G75*
G03*
X11175000Y-9200000I-50000J0D01*
G01*
X11135000Y-15201000D02*
X11235000Y-15301000D01*
X11235000Y-15201000D02*
X11135000Y-15301000D01*
X11235000Y-15251000D02*
G75*
G03*
X11235000Y-15251000I-50000J0D01*
G01*
X11389000Y-15201000D02*
X11489000Y-15301000D01*
X11489000Y-15201000D02*
X11389000Y-15301000D01*
X11489000Y-15251000D02*
G75*
G03*
X11489000Y-15251000I-50000J0D01*
G01*
X11643000Y-15201000D02*
X11743000Y-15301000D01*
X11743000Y-15201000D02*
X11643000Y-15301000D01*
X11743000Y-15251000D02*
G75*
G03*
X11743000Y-15251000I-50000J0D01*
G01*
X11795000Y-10375000D02*
X11895000Y-10475000D01*
X11895000Y-10375000D02*
X11795000Y-10475000D01*
X11895000Y-10425000D02*
G75*
G03*
X11895000Y-10425000I-50000J0D01*
G01*
X11897000Y-15201000D02*
X11997000Y-15301000D01*
X11997000Y-15201000D02*
X11897000Y-15301000D01*
X11997000Y-15251000D02*
G75*
G03*
X11997000Y-15251000I-50000J0D01*
G01*
X12049000Y-10375000D02*
X12149000Y-10475000D01*
X12149000Y-10375000D02*
X12049000Y-10475000D01*
X12149000Y-10425000D02*
G75*
G03*
X12149000Y-10425000I-50000J0D01*
G01*
X12051000Y-9535000D02*
X12151000Y-9635000D01*
X12151000Y-9535000D02*
X12051000Y-9635000D01*
X12151000Y-9585000D02*
G75*
G03*
X12151000Y-9585000I-50000J0D01*
G01*
X12055000Y-8785000D02*
X12155000Y-8885000D01*
X12155000Y-8785000D02*
X12055000Y-8885000D01*
X12155000Y-8835000D02*
G75*
G03*
X12155000Y-8835000I-50000J0D01*
G01*
X12055000Y-9160000D02*
X12155000Y-9260000D01*
X12155000Y-9160000D02*
X12055000Y-9260000D01*
X12155000Y-9210000D02*
G75*
G03*
X12155000Y-9210000I-50000J0D01*
G01*
X12151000Y-15201000D02*
X12251000Y-15301000D01*
X12251000Y-15201000D02*
X12151000Y-15301000D01*
X12251000Y-15251000D02*
G75*
G03*
X12251000Y-15251000I-50000J0D01*
G01*
X12303000Y-10375000D02*
X12403000Y-10475000D01*
X12403000Y-10375000D02*
X12303000Y-10475000D01*
X12403000Y-10425000D02*
G75*
G03*
X12403000Y-10425000I-50000J0D01*
G01*
X12305000Y-9535000D02*
X12405000Y-9635000D01*
X12405000Y-9535000D02*
X12305000Y-9635000D01*
X12405000Y-9585000D02*
G75*
G03*
X12405000Y-9585000I-50000J0D01*
G01*
X12309000Y-8785000D02*
X12409000Y-8885000D01*
X12409000Y-8785000D02*
X12309000Y-8885000D01*
X12409000Y-8835000D02*
G75*
G03*
X12409000Y-8835000I-50000J0D01*
G01*
X12309000Y-9160000D02*
X12409000Y-9260000D01*
X12409000Y-9160000D02*
X12309000Y-9260000D01*
X12409000Y-9210000D02*
G75*
G03*
X12409000Y-9210000I-50000J0D01*
G01*
X12405000Y-15201000D02*
X12505000Y-15301000D01*
X12505000Y-15201000D02*
X12405000Y-15301000D01*
X12505000Y-15251000D02*
G75*
G03*
X12505000Y-15251000I-50000J0D01*
G01*
X12557000Y-10375000D02*
X12657000Y-10475000D01*
X12657000Y-10375000D02*
X12557000Y-10475000D01*
X12657000Y-10425000D02*
G75*
G03*
X12657000Y-10425000I-50000J0D01*
G01*
X12559000Y-9535000D02*
X12659000Y-9635000D01*
X12659000Y-9535000D02*
X12559000Y-9635000D01*
X12659000Y-9585000D02*
G75*
G03*
X12659000Y-9585000I-50000J0D01*
G01*
X12563000Y-8785000D02*
X12663000Y-8885000D01*
X12663000Y-8785000D02*
X12563000Y-8885000D01*
X12663000Y-8835000D02*
G75*
G03*
X12663000Y-8835000I-50000J0D01*
G01*
X12563000Y-9160000D02*
X12663000Y-9260000D01*
X12663000Y-9160000D02*
X12563000Y-9260000D01*
X12663000Y-9210000D02*
G75*
G03*
X12663000Y-9210000I-50000J0D01*
G01*
X12659000Y-15201000D02*
X12759000Y-15301000D01*
X12759000Y-15201000D02*
X12659000Y-15301000D01*
X12759000Y-15251000D02*
G75*
G03*
X12759000Y-15251000I-50000J0D01*
G01*
X12811000Y-10375000D02*
X12911000Y-10475000D01*
X12911000Y-10375000D02*
X12811000Y-10475000D01*
X12911000Y-10425000D02*
G75*
G03*
X12911000Y-10425000I-50000J0D01*
G01*
X12913000Y-15201000D02*
X13013000Y-15301000D01*
X13013000Y-15201000D02*
X12913000Y-15301000D01*
X13013000Y-15251000D02*
G75*
G03*
X13013000Y-15251000I-50000J0D01*
G01*
X13065000Y-10375000D02*
X13165000Y-10475000D01*
X13165000Y-10375000D02*
X13065000Y-10475000D01*
X13165000Y-10425000D02*
G75*
G03*
X13165000Y-10425000I-50000J0D01*
G01*
X13167000Y-15201000D02*
X13267000Y-15301000D01*
X13267000Y-15201000D02*
X13167000Y-15301000D01*
X13267000Y-15251000D02*
G75*
G03*
X13267000Y-15251000I-50000J0D01*
G01*
X13319000Y-10375000D02*
X13419000Y-10475000D01*
X13419000Y-10375000D02*
X13319000Y-10475000D01*
X13419000Y-10425000D02*
G75*
G03*
X13419000Y-10425000I-50000J0D01*
G01*
X13573000Y-10375000D02*
X13673000Y-10475000D01*
X13673000Y-10375000D02*
X13573000Y-10475000D01*
X13673000Y-10425000D02*
G75*
G03*
X13673000Y-10425000I-50000J0D01*
G01*
X13573000Y-15201000D02*
X13673000Y-15301000D01*
X13673000Y-15201000D02*
X13573000Y-15301000D01*
X13673000Y-15251000D02*
G75*
G03*
X13673000Y-15251000I-50000J0D01*
G01*
X13827000Y-15201000D02*
X13927000Y-15301000D01*
X13927000Y-15201000D02*
X13827000Y-15301000D01*
X13927000Y-15251000D02*
G75*
G03*
X13927000Y-15251000I-50000J0D01*
G01*
X14081000Y-10375000D02*
X14181000Y-10475000D01*
X14181000Y-10375000D02*
X14081000Y-10475000D01*
X14181000Y-10425000D02*
G75*
G03*
X14181000Y-10425000I-50000J0D01*
G01*
X14081000Y-15201000D02*
X14181000Y-15301000D01*
X14181000Y-15201000D02*
X14081000Y-15301000D01*
X14181000Y-15251000D02*
G75*
G03*
X14181000Y-15251000I-50000J0D01*
G01*
X14150000Y-7440000D02*
X14250000Y-7540000D01*
X14250000Y-7440000D02*
X14150000Y-7540000D01*
X14250000Y-7490000D02*
G75*
G03*
X14250000Y-7490000I-50000J0D01*
G01*
X14150000Y-7694000D02*
X14250000Y-7794000D01*
X14250000Y-7694000D02*
X14150000Y-7794000D01*
X14250000Y-7744000D02*
G75*
G03*
X14250000Y-7744000I-50000J0D01*
G01*
X14150000Y-7948000D02*
X14250000Y-8048000D01*
X14250000Y-7948000D02*
X14150000Y-8048000D01*
X14250000Y-7998000D02*
G75*
G03*
X14250000Y-7998000I-50000J0D01*
G01*
X14150000Y-8202000D02*
X14250000Y-8302000D01*
X14250000Y-8202000D02*
X14150000Y-8302000D01*
X14250000Y-8252000D02*
G75*
G03*
X14250000Y-8252000I-50000J0D01*
G01*
X14150000Y-8456000D02*
X14250000Y-8556000D01*
X14250000Y-8456000D02*
X14150000Y-8556000D01*
X14250000Y-8506000D02*
G75*
G03*
X14250000Y-8506000I-50000J0D01*
G01*
X14150000Y-8710000D02*
X14250000Y-8810000D01*
X14250000Y-8710000D02*
X14150000Y-8810000D01*
X14250000Y-8760000D02*
G75*
G03*
X14250000Y-8760000I-50000J0D01*
G01*
X14150000Y-8964000D02*
X14250000Y-9064000D01*
X14250000Y-8964000D02*
X14150000Y-9064000D01*
X14250000Y-9014000D02*
G75*
G03*
X14250000Y-9014000I-50000J0D01*
G01*
X14150000Y-9218000D02*
X14250000Y-9318000D01*
X14250000Y-9218000D02*
X14150000Y-9318000D01*
X14250000Y-9268000D02*
G75*
G03*
X14250000Y-9268000I-50000J0D01*
G01*
X14150000Y-9472000D02*
X14250000Y-9572000D01*
X14250000Y-9472000D02*
X14150000Y-9572000D01*
X14250000Y-9522000D02*
G75*
G03*
X14250000Y-9522000I-50000J0D01*
G01*
X14335000Y-10375000D02*
X14435000Y-10475000D01*
X14435000Y-10375000D02*
X14335000Y-10475000D01*
X14435000Y-10425000D02*
G75*
G03*
X14435000Y-10425000I-50000J0D01*
G01*
X14335000Y-15201000D02*
X14435000Y-15301000D01*
X14435000Y-15201000D02*
X14335000Y-15301000D01*
X14435000Y-15251000D02*
G75*
G03*
X14435000Y-15251000I-50000J0D01*
G01*
X14589000Y-10375000D02*
X14689000Y-10475000D01*
X14689000Y-10375000D02*
X14589000Y-10475000D01*
X14689000Y-10425000D02*
G75*
G03*
X14689000Y-10425000I-50000J0D01*
G01*
X14589000Y-15201000D02*
X14689000Y-15301000D01*
X14689000Y-15201000D02*
X14589000Y-15301000D01*
X14689000Y-15251000D02*
G75*
G03*
X14689000Y-15251000I-50000J0D01*
G01*
X14843000Y-10375000D02*
X14943000Y-10475000D01*
X14943000Y-10375000D02*
X14843000Y-10475000D01*
X14943000Y-10425000D02*
G75*
G03*
X14943000Y-10425000I-50000J0D01*
G01*
X14843000Y-15201000D02*
X14943000Y-15301000D01*
X14943000Y-15201000D02*
X14843000Y-15301000D01*
X14943000Y-15251000D02*
G75*
G03*
X14943000Y-15251000I-50000J0D01*
G01*
X14850000Y-15770000D02*
X14950000Y-15870000D01*
X14950000Y-15770000D02*
X14850000Y-15870000D01*
X14950000Y-15820000D02*
G75*
G03*
X14950000Y-15820000I-50000J0D01*
G01*
X15097000Y-10375000D02*
X15197000Y-10475000D01*
X15197000Y-10375000D02*
X15097000Y-10475000D01*
X15197000Y-10425000D02*
G75*
G03*
X15197000Y-10425000I-50000J0D01*
G01*
X15097000Y-15201000D02*
X15197000Y-15301000D01*
X15197000Y-15201000D02*
X15097000Y-15301000D01*
X15197000Y-15251000D02*
G75*
G03*
X15197000Y-15251000I-50000J0D01*
G01*
X15104000Y-15770000D02*
X15204000Y-15870000D01*
X15204000Y-15770000D02*
X15104000Y-15870000D01*
X15204000Y-15820000D02*
G75*
G03*
X15204000Y-15820000I-50000J0D01*
G01*
X15351000Y-10375000D02*
X15451000Y-10475000D01*
X15451000Y-10375000D02*
X15351000Y-10475000D01*
X15451000Y-10425000D02*
G75*
G03*
X15451000Y-10425000I-50000J0D01*
G01*
X15351000Y-15201000D02*
X15451000Y-15301000D01*
X15451000Y-15201000D02*
X15351000Y-15301000D01*
X15451000Y-15251000D02*
G75*
G03*
X15451000Y-15251000I-50000J0D01*
G01*
X15358000Y-15770000D02*
X15458000Y-15870000D01*
X15458000Y-15770000D02*
X15358000Y-15870000D01*
X15458000Y-15820000D02*
G75*
G03*
X15458000Y-15820000I-50000J0D01*
G01*
X15750000Y-6870000D02*
X15850000Y-6970000D01*
X15850000Y-6870000D02*
X15750000Y-6970000D01*
X15850000Y-6920000D02*
G75*
G03*
X15850000Y-6920000I-50000J0D01*
G01*
X15750000Y-7124000D02*
X15850000Y-7224000D01*
X15850000Y-7124000D02*
X15750000Y-7224000D01*
X15850000Y-7174000D02*
G75*
G03*
X15850000Y-7174000I-50000J0D01*
G01*
X15750000Y-7378000D02*
X15850000Y-7478000D01*
X15850000Y-7378000D02*
X15750000Y-7478000D01*
X15850000Y-7428000D02*
G75*
G03*
X15850000Y-7428000I-50000J0D01*
G01*
X15750000Y-7632000D02*
X15850000Y-7732000D01*
X15850000Y-7632000D02*
X15750000Y-7732000D01*
X15850000Y-7682000D02*
G75*
G03*
X15850000Y-7682000I-50000J0D01*
G01*
X15838500Y-16100000D02*
X15938500Y-16200000D01*
X15938500Y-16100000D02*
X15838500Y-16200000D01*
X15938500Y-16150000D02*
G75*
G03*
X15938500Y-16150000I-50000J0D01*
G01*
X15838500Y-16354000D02*
X15938500Y-16454000D01*
X15938500Y-16354000D02*
X15838500Y-16454000D01*
X15938500Y-16404000D02*
G75*
G03*
X15938500Y-16404000I-50000J0D01*
G01*
X15838500Y-16608000D02*
X15938500Y-16708000D01*
X15938500Y-16608000D02*
X15838500Y-16708000D01*
X15938500Y-16658000D02*
G75*
G03*
X15938500Y-16658000I-50000J0D01*
G01*
X15838500Y-16862000D02*
X15938500Y-16962000D01*
X15938500Y-16862000D02*
X15838500Y-16962000D01*
X15938500Y-16912000D02*
G75*
G03*
X15938500Y-16912000I-50000J0D01*
G01*
X6340000Y-8980000D02*
X6450000Y-9090000D01*
X6450000Y-8980000D02*
X6340000Y-9090000D01*
X6395000Y-8980000D02*
X6395000Y-9090000D01*
X6340000Y-9035000D02*
X6450000Y-9035000D01*
X6340000Y-9630000D02*
X6450000Y-9740000D01*
X6450000Y-9630000D02*
X6340000Y-9740000D01*
X6395000Y-9630000D02*
X6395000Y-9740000D01*
X6340000Y-9685000D02*
X6450000Y-9685000D01*
X6790000Y-8980000D02*
X6900000Y-9090000D01*
X6900000Y-8980000D02*
X6790000Y-9090000D01*
X6845000Y-8980000D02*
X6845000Y-9090000D01*
X6790000Y-9035000D02*
X6900000Y-9035000D01*
X6790000Y-9630000D02*
X6900000Y-9740000D01*
X6900000Y-9630000D02*
X6790000Y-9740000D01*
X6845000Y-9630000D02*
X6845000Y-9740000D01*
X6790000Y-9685000D02*
X6900000Y-9685000D01*
X10500000Y-17726000D02*
X10610000Y-17836000D01*
X10610000Y-17726000D02*
X10500000Y-17836000D01*
X10555000Y-17726000D02*
X10555000Y-17836000D01*
X10500000Y-17781000D02*
X10610000Y-17781000D01*
X10500000Y-17980000D02*
X10610000Y-18090000D01*
X10610000Y-17980000D02*
X10500000Y-18090000D01*
X10555000Y-17980000D02*
X10555000Y-18090000D01*
X10500000Y-18035000D02*
X10610000Y-18035000D01*
X10500000Y-18234000D02*
X10610000Y-18344000D01*
X10610000Y-18234000D02*
X10500000Y-18344000D01*
X10555000Y-18234000D02*
X10555000Y-18344000D01*
X10500000Y-18289000D02*
X10610000Y-18289000D01*
X11970000Y-18360000D02*
X12080000Y-18470000D01*
X12080000Y-18360000D02*
X11970000Y-18470000D01*
X12025000Y-18360000D02*
X12025000Y-18470000D01*
X11970000Y-18415000D02*
X12080000Y-18415000D01*
X11970000Y-19010000D02*
X12080000Y-19120000D01*
X12080000Y-19010000D02*
X11970000Y-19120000D01*
X12025000Y-19010000D02*
X12025000Y-19120000D01*
X11970000Y-19065000D02*
X12080000Y-19065000D01*
X12420000Y-18360000D02*
X12530000Y-18470000D01*
X12530000Y-18360000D02*
X12420000Y-18470000D01*
X12475000Y-18360000D02*
X12475000Y-18470000D01*
X12420000Y-18415000D02*
X12530000Y-18415000D01*
X12420000Y-19010000D02*
X12530000Y-19120000D01*
X12530000Y-19010000D02*
X12420000Y-19120000D01*
X12475000Y-19010000D02*
X12475000Y-19120000D01*
X12420000Y-19065000D02*
X12530000Y-19065000D01*
X12940000Y-18366000D02*
X13050000Y-18476000D01*
X13050000Y-18366000D02*
X12940000Y-18476000D01*
X12995000Y-18366000D02*
X12995000Y-18476000D01*
X12940000Y-18421000D02*
X13050000Y-18421000D01*
X12940000Y-19016000D02*
X13050000Y-19126000D01*
X13050000Y-19016000D02*
X12940000Y-19126000D01*
X12995000Y-19016000D02*
X12995000Y-19126000D01*
X12940000Y-19071000D02*
X13050000Y-19071000D01*
X13390000Y-18366000D02*
X13500000Y-18476000D01*
X13500000Y-18366000D02*
X13390000Y-18476000D01*
X13445000Y-18366000D02*
X13445000Y-18476000D01*
X13390000Y-18421000D02*
X13500000Y-18421000D01*
X13390000Y-19016000D02*
X13500000Y-19126000D01*
X13500000Y-19016000D02*
X13390000Y-19126000D01*
X13445000Y-19016000D02*
X13445000Y-19126000D01*
X13390000Y-19071000D02*
X13500000Y-19071000D01*
X13920000Y-18360000D02*
X14030000Y-18470000D01*
X14030000Y-18360000D02*
X13920000Y-18470000D01*
X13975000Y-18360000D02*
X13975000Y-18470000D01*
X13920000Y-18415000D02*
X14030000Y-18415000D01*
X13920000Y-19010000D02*
X14030000Y-19120000D01*
X14030000Y-19010000D02*
X13920000Y-19120000D01*
X13975000Y-19010000D02*
X13975000Y-19120000D01*
X13920000Y-19065000D02*
X14030000Y-19065000D01*
X14370000Y-18360000D02*
X14480000Y-18470000D01*
X14480000Y-18360000D02*
X14370000Y-18470000D01*
X14425000Y-18360000D02*
X14425000Y-18470000D01*
X14370000Y-18415000D02*
X14480000Y-18415000D01*
X14370000Y-19010000D02*
X14480000Y-19120000D01*
X14480000Y-19010000D02*
X14370000Y-19120000D01*
X14425000Y-19010000D02*
X14425000Y-19120000D01*
X14370000Y-19065000D02*
X14480000Y-19065000D01*
X2240000Y-6320000D02*
X2360000Y-6440000D01*
X2360000Y-6320000D02*
X2240000Y-6440000D01*
X2342427Y-6422427D02*
X2342427Y-6337573D01*
X2257573Y-6337573D01*
X2257573Y-6422427D01*
X2342427Y-6422427D01*
X2395000Y-17266500D02*
X2515000Y-17386500D01*
X2515000Y-17266500D02*
X2395000Y-17386500D01*
X2497427Y-17368927D02*
X2497427Y-17284073D01*
X2412573Y-17284073D01*
X2412573Y-17368927D01*
X2497427Y-17368927D01*
X2395000Y-17774500D02*
X2515000Y-17894500D01*
X2515000Y-17774500D02*
X2395000Y-17894500D01*
X2497427Y-17876927D02*
X2497427Y-17792073D01*
X2412573Y-17792073D01*
X2412573Y-17876927D01*
X2497427Y-17876927D01*
X2395000Y-18282500D02*
X2515000Y-18402500D01*
X2515000Y-18282500D02*
X2395000Y-18402500D01*
X2497427Y-18384927D02*
X2497427Y-18300073D01*
X2412573Y-18300073D01*
X2412573Y-18384927D01*
X2497427Y-18384927D01*
X2395000Y-18790500D02*
X2515000Y-18910500D01*
X2515000Y-18790500D02*
X2395000Y-18910500D01*
X2497427Y-18892927D02*
X2497427Y-18808073D01*
X2412573Y-18808073D01*
X2412573Y-18892927D01*
X2497427Y-18892927D01*
X2415000Y-8196000D02*
X2535000Y-8316000D01*
X2535000Y-8196000D02*
X2415000Y-8316000D01*
X2517427Y-8298427D02*
X2517427Y-8213573D01*
X2432573Y-8213573D01*
X2432573Y-8298427D01*
X2517427Y-8298427D01*
X2415000Y-8704000D02*
X2535000Y-8824000D01*
X2535000Y-8704000D02*
X2415000Y-8824000D01*
X2517427Y-8806427D02*
X2517427Y-8721573D01*
X2432573Y-8721573D01*
X2432573Y-8806427D01*
X2517427Y-8806427D01*
X2415000Y-9212000D02*
X2535000Y-9332000D01*
X2535000Y-9212000D02*
X2415000Y-9332000D01*
X2517427Y-9314427D02*
X2517427Y-9229573D01*
X2432573Y-9229573D01*
X2432573Y-9314427D01*
X2517427Y-9314427D01*
X2415000Y-9720000D02*
X2535000Y-9840000D01*
X2535000Y-9720000D02*
X2415000Y-9840000D01*
X2517427Y-9822427D02*
X2517427Y-9737573D01*
X2432573Y-9737573D01*
X2432573Y-9822427D01*
X2517427Y-9822427D01*
X2748000Y-6320000D02*
X2868000Y-6440000D01*
X2868000Y-6320000D02*
X2748000Y-6440000D01*
X2850427Y-6422427D02*
X2850427Y-6337573D01*
X2765573Y-6337573D01*
X2765573Y-6422427D01*
X2850427Y-6422427D01*
X3256000Y-6320000D02*
X3376000Y-6440000D01*
X3376000Y-6320000D02*
X3256000Y-6440000D01*
X3358427Y-6422427D02*
X3358427Y-6337573D01*
X3273573Y-6337573D01*
X3273573Y-6422427D01*
X3358427Y-6422427D01*
X3764000Y-6320000D02*
X3884000Y-6440000D01*
X3884000Y-6320000D02*
X3764000Y-6440000D01*
X3866427Y-6422427D02*
X3866427Y-6337573D01*
X3781573Y-6337573D01*
X3781573Y-6422427D01*
X3866427Y-6422427D01*
X14080000Y-6300000D02*
X14200000Y-6420000D01*
X14200000Y-6300000D02*
X14080000Y-6420000D01*
X14182427Y-6402427D02*
X14182427Y-6317573D01*
X14097573Y-6317573D01*
X14097573Y-6402427D01*
X14182427Y-6402427D01*
X14588000Y-6300000D02*
X14708000Y-6420000D01*
X14708000Y-6300000D02*
X14588000Y-6420000D01*
X14690427Y-6402427D02*
X14690427Y-6317573D01*
X14605573Y-6317573D01*
X14605573Y-6402427D01*
X14690427Y-6402427D01*
X15096000Y-6300000D02*
X15216000Y-6420000D01*
X15216000Y-6300000D02*
X15096000Y-6420000D01*
X15198427Y-6402427D02*
X15198427Y-6317573D01*
X15113573Y-6317573D01*
X15113573Y-6402427D01*
X15198427Y-6402427D01*
X15520000Y-17356000D02*
X15640000Y-17476000D01*
X15640000Y-17356000D02*
X15520000Y-17476000D01*
X15622427Y-17458427D02*
X15622427Y-17373573D01*
X15537573Y-17373573D01*
X15537573Y-17458427D01*
X15622427Y-17458427D01*
X15520000Y-17864000D02*
X15640000Y-17984000D01*
X15640000Y-17864000D02*
X15520000Y-17984000D01*
X15622427Y-17966427D02*
X15622427Y-17881573D01*
X15537573Y-17881573D01*
X15537573Y-17966427D01*
X15622427Y-17966427D01*
X15520000Y-18372000D02*
X15640000Y-18492000D01*
X15640000Y-18372000D02*
X15520000Y-18492000D01*
X15622427Y-18474427D02*
X15622427Y-18389573D01*
X15537573Y-18389573D01*
X15537573Y-18474427D01*
X15622427Y-18474427D01*
X15520000Y-18880000D02*
X15640000Y-19000000D01*
X15640000Y-18880000D02*
X15520000Y-19000000D01*
X15622427Y-18982427D02*
X15622427Y-18897573D01*
X15537573Y-18897573D01*
X15537573Y-18982427D01*
X15622427Y-18982427D01*
X15604000Y-6300000D02*
X15724000Y-6420000D01*
X15724000Y-6300000D02*
X15604000Y-6420000D01*
X15706427Y-6402427D02*
X15706427Y-6317573D01*
X15621573Y-6317573D01*
X15621573Y-6402427D01*
X15706427Y-6402427D01*
X3755000Y-18815000D02*
X3885000Y-18945000D01*
X3885000Y-18815000D02*
X3755000Y-18945000D01*
X3820000Y-18945000D02*
X3885000Y-18880000D01*
X3820000Y-18815000D01*
X3755000Y-18880000D01*
X3820000Y-18945000D01*
X4255000Y-18815000D02*
X4385000Y-18945000D01*
X4385000Y-18815000D02*
X4255000Y-18945000D01*
X4320000Y-18945000D02*
X4385000Y-18880000D01*
X4320000Y-18815000D01*
X4255000Y-18880000D01*
X4320000Y-18945000D01*
X4755000Y-18815000D02*
X4885000Y-18945000D01*
X4885000Y-18815000D02*
X4755000Y-18945000D01*
X4820000Y-18945000D02*
X4885000Y-18880000D01*
X4820000Y-18815000D01*
X4755000Y-18880000D01*
X4820000Y-18945000D01*
X5255000Y-18815000D02*
X5385000Y-18945000D01*
X5385000Y-18815000D02*
X5255000Y-18945000D01*
X5320000Y-18945000D02*
X5385000Y-18880000D01*
X5320000Y-18815000D01*
X5255000Y-18880000D01*
X5320000Y-18945000D01*
X5875000Y-18815000D02*
X6005000Y-18945000D01*
X6005000Y-18815000D02*
X5875000Y-18945000D01*
X5940000Y-18945000D02*
X6005000Y-18880000D01*
X5940000Y-18815000D01*
X5875000Y-18880000D01*
X5940000Y-18945000D01*
X6375000Y-18815000D02*
X6505000Y-18945000D01*
X6505000Y-18815000D02*
X6375000Y-18945000D01*
X6440000Y-18945000D02*
X6505000Y-18880000D01*
X6440000Y-18815000D01*
X6375000Y-18880000D01*
X6440000Y-18945000D01*
X6875000Y-18815000D02*
X7005000Y-18945000D01*
X7005000Y-18815000D02*
X6875000Y-18945000D01*
X6940000Y-18945000D02*
X7005000Y-18880000D01*
X6940000Y-18815000D01*
X6875000Y-18880000D01*
X6940000Y-18945000D01*
X7375000Y-18815000D02*
X7505000Y-18945000D01*
X7505000Y-18815000D02*
X7375000Y-18945000D01*
X7440000Y-18945000D02*
X7505000Y-18880000D01*
X7440000Y-18815000D01*
X7375000Y-18880000D01*
X7440000Y-18945000D01*
X8535000Y-16535000D02*
X8665000Y-16665000D01*
X8665000Y-16535000D02*
X8535000Y-16665000D01*
X8600000Y-16665000D02*
X8665000Y-16600000D01*
X8600000Y-16535000D01*
X8535000Y-16600000D01*
X8600000Y-16665000D01*
X8400000Y-16655000D02*
X8800000Y-16655000D01*
X8400000Y-16545000D02*
X8800000Y-16545000D01*
X8800000Y-16655000D02*
G75*
G03*
X8800000Y-16545000I0J55000D01*
G01*
X8400000Y-16545000D02*
G75*
G03*
X8400000Y-16655000I0J-55000D01*
G01*
X8535000Y-17235000D02*
X8665000Y-17365000D01*
X8665000Y-17235000D02*
X8535000Y-17365000D01*
X8600000Y-17365000D02*
X8665000Y-17300000D01*
X8600000Y-17235000D01*
X8535000Y-17300000D01*
X8600000Y-17365000D01*
X8400000Y-17355000D02*
X8800000Y-17355000D01*
X8400000Y-17245000D02*
X8800000Y-17245000D01*
X8800000Y-17355000D02*
G75*
G03*
X8800000Y-17245000I0J55000D01*
G01*
X8400000Y-17245000D02*
G75*
G03*
X8400000Y-17355000I0J-55000D01*
G01*
X8535000Y-17935000D02*
X8665000Y-18065000D01*
X8665000Y-17935000D02*
X8535000Y-18065000D01*
X8600000Y-18065000D02*
X8665000Y-18000000D01*
X8600000Y-17935000D01*
X8535000Y-18000000D01*
X8600000Y-18065000D01*
X8400000Y-18055000D02*
X8800000Y-18055000D01*
X8400000Y-17945000D02*
X8800000Y-17945000D01*
X8800000Y-18055000D02*
G75*
G03*
X8800000Y-17945000I0J55000D01*
G01*
X8400000Y-17945000D02*
G75*
G03*
X8400000Y-18055000I0J-55000D01*
G01*
X9900000Y-17075000D02*
X9900000Y-17525000D01*
X9675000Y-17300000D02*
X10125000Y-17300000D01*
X10125000Y-17300000D02*
G75*
G03*
X10125000Y-17300000I-225000J0D01*
G01*
X9900000Y-17795000D02*
X9900000Y-18245000D01*
X9675000Y-18020000D02*
X10125000Y-18020000D01*
X10125000Y-18020000D02*
G75*
G03*
X10125000Y-18020000I-225000J0D01*
G01*
D12*
X1706428Y-20070714D02*
X1706428Y-19770714D01*
X1777857Y-19770714D01*
X1820714Y-19785000D01*
X1849286Y-19813572D01*
X1863571Y-19842143D01*
X1877857Y-19899286D01*
X1877857Y-19942143D01*
X1863571Y-19999286D01*
X1849286Y-20027857D01*
X1820714Y-20056429D01*
X1777857Y-20070714D01*
X1706428Y-20070714D01*
X2006428Y-20070714D02*
X2006428Y-19870714D01*
X2006428Y-19927857D02*
X2020714Y-19899286D01*
X2035000Y-19885000D01*
X2063571Y-19870714D01*
X2092143Y-19870714D01*
X2192143Y-20070714D02*
X2192143Y-19870714D01*
X2192143Y-19770714D02*
X2177857Y-19785000D01*
X2192143Y-19799286D01*
X2206428Y-19785000D01*
X2192143Y-19770714D01*
X2192143Y-19799286D01*
X2377857Y-20070714D02*
X2349286Y-20056429D01*
X2335000Y-20027857D01*
X2335000Y-19770714D01*
X2535000Y-20070714D02*
X2506428Y-20056429D01*
X2492143Y-20027857D01*
X2492143Y-19770714D01*
X2877857Y-20070714D02*
X2877857Y-19770714D01*
X2977857Y-19985000D01*
X3077857Y-19770714D01*
X3077857Y-20070714D01*
X3349286Y-20070714D02*
X3349286Y-19913572D01*
X3335000Y-19885000D01*
X3306428Y-19870714D01*
X3249286Y-19870714D01*
X3220714Y-19885000D01*
X3349286Y-20056429D02*
X3320714Y-20070714D01*
X3249286Y-20070714D01*
X3220714Y-20056429D01*
X3206428Y-20027857D01*
X3206428Y-19999286D01*
X3220714Y-19970714D01*
X3249286Y-19956429D01*
X3320714Y-19956429D01*
X3349286Y-19942143D01*
X3492143Y-19870714D02*
X3492143Y-20170714D01*
X3492143Y-19885000D02*
X3520714Y-19870714D01*
X3577857Y-19870714D01*
X3606428Y-19885000D01*
X3620714Y-19899286D01*
X3635000Y-19927857D01*
X3635000Y-20013572D01*
X3620714Y-20042143D01*
X3606428Y-20056429D01*
X3577857Y-20070714D01*
X3520714Y-20070714D01*
X3492143Y-20056429D01*
X3763571Y-20042143D02*
X3777857Y-20056429D01*
X3763571Y-20070714D01*
X3749286Y-20056429D01*
X3763571Y-20042143D01*
X3763571Y-20070714D01*
X3763571Y-19885000D02*
X3777857Y-19899286D01*
X3763571Y-19913572D01*
X3749286Y-19899286D01*
X3763571Y-19885000D01*
X3763571Y-19913572D01*
X1380000Y-20545000D02*
X1420000Y-20585000D01*
X1420000Y-20545000D02*
X1380000Y-20585000D01*
X1763571Y-20400714D02*
X1792143Y-20400714D01*
X1820714Y-20415000D01*
X1835000Y-20429286D01*
X1849286Y-20457857D01*
X1863571Y-20515000D01*
X1863571Y-20586429D01*
X1849286Y-20643572D01*
X1835000Y-20672143D01*
X1820714Y-20686429D01*
X1792143Y-20700714D01*
X1763571Y-20700714D01*
X1735000Y-20686429D01*
X1720714Y-20672143D01*
X1706428Y-20643572D01*
X1692143Y-20586429D01*
X1692143Y-20515000D01*
X1706428Y-20457857D01*
X1720714Y-20429286D01*
X1735000Y-20415000D01*
X1763571Y-20400714D01*
X1992143Y-20672143D02*
X2006428Y-20686429D01*
X1992143Y-20700714D01*
X1977857Y-20686429D01*
X1992143Y-20672143D01*
X1992143Y-20700714D01*
X2263571Y-20500714D02*
X2263571Y-20700714D01*
X2192143Y-20386429D02*
X2120714Y-20600714D01*
X2306428Y-20600714D01*
X2477857Y-20400714D02*
X2506428Y-20400714D01*
X2535000Y-20415000D01*
X2549286Y-20429286D01*
X2563571Y-20457857D01*
X2577857Y-20515000D01*
X2577857Y-20586429D01*
X2563571Y-20643572D01*
X2549286Y-20672143D01*
X2535000Y-20686429D01*
X2506428Y-20700714D01*
X2477857Y-20700714D01*
X2449286Y-20686429D01*
X2435000Y-20672143D01*
X2420714Y-20643572D01*
X2406428Y-20586429D01*
X2406428Y-20515000D01*
X2420714Y-20457857D01*
X2435000Y-20429286D01*
X2449286Y-20415000D01*
X2477857Y-20400714D01*
X2706428Y-20700714D02*
X2706428Y-20500714D01*
X2706428Y-20529286D02*
X2720714Y-20515000D01*
X2749286Y-20500714D01*
X2792143Y-20500714D01*
X2820714Y-20515000D01*
X2835000Y-20543572D01*
X2835000Y-20700714D01*
X2835000Y-20543572D02*
X2849286Y-20515000D01*
X2877857Y-20500714D01*
X2920714Y-20500714D01*
X2949286Y-20515000D01*
X2963571Y-20543572D01*
X2963571Y-20700714D01*
X3106428Y-20700714D02*
X3106428Y-20500714D01*
X3106428Y-20529286D02*
X3120714Y-20515000D01*
X3149286Y-20500714D01*
X3192143Y-20500714D01*
X3220714Y-20515000D01*
X3235000Y-20543572D01*
X3235000Y-20700714D01*
X3235000Y-20543572D02*
X3249286Y-20515000D01*
X3277857Y-20500714D01*
X3320714Y-20500714D01*
X3349286Y-20515000D01*
X3363571Y-20543572D01*
X3363571Y-20700714D01*
X3949286Y-20386429D02*
X3692143Y-20772143D01*
X4335000Y-20400714D02*
X4363571Y-20400714D01*
X4392143Y-20415000D01*
X4406428Y-20429286D01*
X4420714Y-20457857D01*
X4435000Y-20515000D01*
X4435000Y-20586429D01*
X4420714Y-20643572D01*
X4406428Y-20672143D01*
X4392143Y-20686429D01*
X4363571Y-20700714D01*
X4335000Y-20700714D01*
X4306428Y-20686429D01*
X4292143Y-20672143D01*
X4277857Y-20643572D01*
X4263571Y-20586429D01*
X4263571Y-20515000D01*
X4277857Y-20457857D01*
X4292143Y-20429286D01*
X4306428Y-20415000D01*
X4335000Y-20400714D01*
X4563571Y-20672143D02*
X4577857Y-20686429D01*
X4563571Y-20700714D01*
X4549286Y-20686429D01*
X4563571Y-20672143D01*
X4563571Y-20700714D01*
X4763571Y-20400714D02*
X4792143Y-20400714D01*
X4820714Y-20415000D01*
X4835000Y-20429286D01*
X4849286Y-20457857D01*
X4863571Y-20515000D01*
X4863571Y-20586429D01*
X4849286Y-20643572D01*
X4835000Y-20672143D01*
X4820714Y-20686429D01*
X4792143Y-20700714D01*
X4763571Y-20700714D01*
X4735000Y-20686429D01*
X4720714Y-20672143D01*
X4706428Y-20643572D01*
X4692143Y-20586429D01*
X4692143Y-20515000D01*
X4706428Y-20457857D01*
X4720714Y-20429286D01*
X4735000Y-20415000D01*
X4763571Y-20400714D01*
X5149286Y-20700714D02*
X4977857Y-20700714D01*
X5063571Y-20700714D02*
X5063571Y-20400714D01*
X5035000Y-20443572D01*
X5006428Y-20472143D01*
X4977857Y-20486429D01*
X5406428Y-20400714D02*
X5349286Y-20400714D01*
X5320714Y-20415000D01*
X5306428Y-20429286D01*
X5277857Y-20472143D01*
X5263571Y-20529286D01*
X5263571Y-20643572D01*
X5277857Y-20672143D01*
X5292143Y-20686429D01*
X5320714Y-20700714D01*
X5377857Y-20700714D01*
X5406428Y-20686429D01*
X5420714Y-20672143D01*
X5435000Y-20643572D01*
X5435000Y-20572143D01*
X5420714Y-20543572D01*
X5406428Y-20529286D01*
X5377857Y-20515000D01*
X5320714Y-20515000D01*
X5292143Y-20529286D01*
X5277857Y-20543572D01*
X5263571Y-20572143D01*
X5549286Y-20400714D02*
X5549286Y-20457857D01*
X5663571Y-20400714D02*
X5663571Y-20457857D01*
X6106428Y-20815000D02*
X6092143Y-20800714D01*
X6063571Y-20757857D01*
X6049286Y-20729286D01*
X6035000Y-20686429D01*
X6020714Y-20615000D01*
X6020714Y-20557857D01*
X6035000Y-20486429D01*
X6049286Y-20443572D01*
X6063571Y-20415000D01*
X6092143Y-20372143D01*
X6106428Y-20357857D01*
X6349286Y-20500714D02*
X6349286Y-20700714D01*
X6277857Y-20386429D02*
X6206428Y-20600714D01*
X6392143Y-20600714D01*
X6549286Y-20529286D02*
X6520714Y-20515000D01*
X6506428Y-20500714D01*
X6492143Y-20472143D01*
X6492143Y-20457857D01*
X6506428Y-20429286D01*
X6520714Y-20415000D01*
X6549286Y-20400714D01*
X6606428Y-20400714D01*
X6635000Y-20415000D01*
X6649286Y-20429286D01*
X6663571Y-20457857D01*
X6663571Y-20472143D01*
X6649286Y-20500714D01*
X6635000Y-20515000D01*
X6606428Y-20529286D01*
X6549286Y-20529286D01*
X6520714Y-20543572D01*
X6506428Y-20557857D01*
X6492143Y-20586429D01*
X6492143Y-20643572D01*
X6506428Y-20672143D01*
X6520714Y-20686429D01*
X6549286Y-20700714D01*
X6606428Y-20700714D01*
X6635000Y-20686429D01*
X6649286Y-20672143D01*
X6663571Y-20643572D01*
X6663571Y-20586429D01*
X6649286Y-20557857D01*
X6635000Y-20543572D01*
X6606428Y-20529286D01*
X6763571Y-20400714D02*
X6963571Y-20400714D01*
X6835000Y-20700714D01*
X7306428Y-20700714D02*
X7306428Y-20400714D01*
X7435000Y-20700714D02*
X7435000Y-20543572D01*
X7420714Y-20515000D01*
X7392143Y-20500714D01*
X7349286Y-20500714D01*
X7320714Y-20515000D01*
X7306428Y-20529286D01*
X7620714Y-20700714D02*
X7592143Y-20686429D01*
X7577857Y-20672143D01*
X7563571Y-20643572D01*
X7563571Y-20557857D01*
X7577857Y-20529286D01*
X7592143Y-20515000D01*
X7620714Y-20500714D01*
X7663571Y-20500714D01*
X7692143Y-20515000D01*
X7706428Y-20529286D01*
X7720714Y-20557857D01*
X7720714Y-20643572D01*
X7706428Y-20672143D01*
X7692143Y-20686429D01*
X7663571Y-20700714D01*
X7620714Y-20700714D01*
X7892143Y-20700714D02*
X7863571Y-20686429D01*
X7849286Y-20657857D01*
X7849286Y-20400714D01*
X8120714Y-20686429D02*
X8092143Y-20700714D01*
X8035000Y-20700714D01*
X8006428Y-20686429D01*
X7992143Y-20657857D01*
X7992143Y-20543572D01*
X8006428Y-20515000D01*
X8035000Y-20500714D01*
X8092143Y-20500714D01*
X8120714Y-20515000D01*
X8135000Y-20543572D01*
X8135000Y-20572143D01*
X7992143Y-20600714D01*
X8249286Y-20686429D02*
X8277857Y-20700714D01*
X8335000Y-20700714D01*
X8363571Y-20686429D01*
X8377857Y-20657857D01*
X8377857Y-20643572D01*
X8363571Y-20615000D01*
X8335000Y-20600714D01*
X8292143Y-20600714D01*
X8263571Y-20586429D01*
X8249286Y-20557857D01*
X8249286Y-20543572D01*
X8263571Y-20515000D01*
X8292143Y-20500714D01*
X8335000Y-20500714D01*
X8363571Y-20515000D01*
X8477857Y-20815000D02*
X8492143Y-20800714D01*
X8520714Y-20757857D01*
X8535000Y-20729286D01*
X8549286Y-20686429D01*
X8563571Y-20615000D01*
X8563571Y-20557857D01*
X8549286Y-20486429D01*
X8535000Y-20443572D01*
X8520714Y-20415000D01*
X8492143Y-20372143D01*
X8477857Y-20357857D01*
X1420000Y-20961000D02*
G75*
G03*
X1420000Y-20961000I-30000J0D01*
G01*
X1763571Y-20796714D02*
X1792143Y-20796714D01*
X1820714Y-20811000D01*
X1835000Y-20825286D01*
X1849286Y-20853857D01*
X1863571Y-20911000D01*
X1863571Y-20982429D01*
X1849286Y-21039572D01*
X1835000Y-21068143D01*
X1820714Y-21082429D01*
X1792143Y-21096714D01*
X1763571Y-21096714D01*
X1735000Y-21082429D01*
X1720714Y-21068143D01*
X1706428Y-21039572D01*
X1692143Y-20982429D01*
X1692143Y-20911000D01*
X1706428Y-20853857D01*
X1720714Y-20825286D01*
X1735000Y-20811000D01*
X1763571Y-20796714D01*
X1992143Y-21068143D02*
X2006428Y-21082429D01*
X1992143Y-21096714D01*
X1977857Y-21082429D01*
X1992143Y-21068143D01*
X1992143Y-21096714D01*
X2263571Y-20796714D02*
X2206428Y-20796714D01*
X2177857Y-20811000D01*
X2163571Y-20825286D01*
X2135000Y-20868143D01*
X2120714Y-20925286D01*
X2120714Y-21039572D01*
X2135000Y-21068143D01*
X2149286Y-21082429D01*
X2177857Y-21096714D01*
X2235000Y-21096714D01*
X2263571Y-21082429D01*
X2277857Y-21068143D01*
X2292143Y-21039572D01*
X2292143Y-20968143D01*
X2277857Y-20939572D01*
X2263571Y-20925286D01*
X2235000Y-20911000D01*
X2177857Y-20911000D01*
X2149286Y-20925286D01*
X2135000Y-20939572D01*
X2120714Y-20968143D01*
X2477857Y-20796714D02*
X2506428Y-20796714D01*
X2535000Y-20811000D01*
X2549286Y-20825286D01*
X2563571Y-20853857D01*
X2577857Y-20911000D01*
X2577857Y-20982429D01*
X2563571Y-21039572D01*
X2549286Y-21068143D01*
X2535000Y-21082429D01*
X2506428Y-21096714D01*
X2477857Y-21096714D01*
X2449286Y-21082429D01*
X2435000Y-21068143D01*
X2420714Y-21039572D01*
X2406428Y-20982429D01*
X2406428Y-20911000D01*
X2420714Y-20853857D01*
X2435000Y-20825286D01*
X2449286Y-20811000D01*
X2477857Y-20796714D01*
X2706428Y-21096714D02*
X2706428Y-20896714D01*
X2706428Y-20925286D02*
X2720714Y-20911000D01*
X2749286Y-20896714D01*
X2792143Y-20896714D01*
X2820714Y-20911000D01*
X2835000Y-20939572D01*
X2835000Y-21096714D01*
X2835000Y-20939572D02*
X2849286Y-20911000D01*
X2877857Y-20896714D01*
X2920714Y-20896714D01*
X2949286Y-20911000D01*
X2963571Y-20939572D01*
X2963571Y-21096714D01*
X3106428Y-21096714D02*
X3106428Y-20896714D01*
X3106428Y-20925286D02*
X3120714Y-20911000D01*
X3149286Y-20896714D01*
X3192143Y-20896714D01*
X3220714Y-20911000D01*
X3235000Y-20939572D01*
X3235000Y-21096714D01*
X3235000Y-20939572D02*
X3249286Y-20911000D01*
X3277857Y-20896714D01*
X3320714Y-20896714D01*
X3349286Y-20911000D01*
X3363571Y-20939572D01*
X3363571Y-21096714D01*
X3949286Y-20782429D02*
X3692143Y-21168143D01*
X4335000Y-20796714D02*
X4363571Y-20796714D01*
X4392143Y-20811000D01*
X4406428Y-20825286D01*
X4420714Y-20853857D01*
X4435000Y-20911000D01*
X4435000Y-20982429D01*
X4420714Y-21039572D01*
X4406428Y-21068143D01*
X4392143Y-21082429D01*
X4363571Y-21096714D01*
X4335000Y-21096714D01*
X4306428Y-21082429D01*
X4292143Y-21068143D01*
X4277857Y-21039572D01*
X4263571Y-20982429D01*
X4263571Y-20911000D01*
X4277857Y-20853857D01*
X4292143Y-20825286D01*
X4306428Y-20811000D01*
X4335000Y-20796714D01*
X4563571Y-21068143D02*
X4577857Y-21082429D01*
X4563571Y-21096714D01*
X4549286Y-21082429D01*
X4563571Y-21068143D01*
X4563571Y-21096714D01*
X4763571Y-20796714D02*
X4792143Y-20796714D01*
X4820714Y-20811000D01*
X4835000Y-20825286D01*
X4849286Y-20853857D01*
X4863571Y-20911000D01*
X4863571Y-20982429D01*
X4849286Y-21039572D01*
X4835000Y-21068143D01*
X4820714Y-21082429D01*
X4792143Y-21096714D01*
X4763571Y-21096714D01*
X4735000Y-21082429D01*
X4720714Y-21068143D01*
X4706428Y-21039572D01*
X4692143Y-20982429D01*
X4692143Y-20911000D01*
X4706428Y-20853857D01*
X4720714Y-20825286D01*
X4735000Y-20811000D01*
X4763571Y-20796714D01*
X4977857Y-20825286D02*
X4992143Y-20811000D01*
X5020714Y-20796714D01*
X5092143Y-20796714D01*
X5120714Y-20811000D01*
X5135000Y-20825286D01*
X5149286Y-20853857D01*
X5149286Y-20882429D01*
X5135000Y-20925286D01*
X4963571Y-21096714D01*
X5149286Y-21096714D01*
X5406428Y-20896714D02*
X5406428Y-21096714D01*
X5335000Y-20782429D02*
X5263571Y-20996714D01*
X5449286Y-20996714D01*
X5549286Y-20796714D02*
X5549286Y-20853857D01*
X5663571Y-20796714D02*
X5663571Y-20853857D01*
X6106428Y-21211000D02*
X6092143Y-21196714D01*
X6063571Y-21153857D01*
X6049286Y-21125286D01*
X6035000Y-21082429D01*
X6020714Y-21011000D01*
X6020714Y-20953857D01*
X6035000Y-20882429D01*
X6049286Y-20839572D01*
X6063571Y-20811000D01*
X6092143Y-20768143D01*
X6106428Y-20753857D01*
X6206428Y-20825286D02*
X6220714Y-20811000D01*
X6249286Y-20796714D01*
X6320714Y-20796714D01*
X6349286Y-20811000D01*
X6363571Y-20825286D01*
X6377857Y-20853857D01*
X6377857Y-20882429D01*
X6363571Y-20925286D01*
X6192143Y-21096714D01*
X6377857Y-21096714D01*
X6735000Y-21096714D02*
X6735000Y-20796714D01*
X6863571Y-21096714D02*
X6863571Y-20939572D01*
X6849286Y-20911000D01*
X6820714Y-20896714D01*
X6777857Y-20896714D01*
X6749286Y-20911000D01*
X6735000Y-20925286D01*
X7049286Y-21096714D02*
X7020714Y-21082429D01*
X7006428Y-21068143D01*
X6992143Y-21039572D01*
X6992143Y-20953857D01*
X7006428Y-20925286D01*
X7020714Y-20911000D01*
X7049286Y-20896714D01*
X7092143Y-20896714D01*
X7120714Y-20911000D01*
X7135000Y-20925286D01*
X7149286Y-20953857D01*
X7149286Y-21039572D01*
X7135000Y-21068143D01*
X7120714Y-21082429D01*
X7092143Y-21096714D01*
X7049286Y-21096714D01*
X7320714Y-21096714D02*
X7292143Y-21082429D01*
X7277857Y-21053857D01*
X7277857Y-20796714D01*
X7549286Y-21082429D02*
X7520714Y-21096714D01*
X7463571Y-21096714D01*
X7435000Y-21082429D01*
X7420714Y-21053857D01*
X7420714Y-20939572D01*
X7435000Y-20911000D01*
X7463571Y-20896714D01*
X7520714Y-20896714D01*
X7549286Y-20911000D01*
X7563571Y-20939572D01*
X7563571Y-20968143D01*
X7420714Y-20996714D01*
X7677857Y-21082429D02*
X7706428Y-21096714D01*
X7763571Y-21096714D01*
X7792143Y-21082429D01*
X7806428Y-21053857D01*
X7806428Y-21039572D01*
X7792143Y-21011000D01*
X7763571Y-20996714D01*
X7720714Y-20996714D01*
X7692143Y-20982429D01*
X7677857Y-20953857D01*
X7677857Y-20939572D01*
X7692143Y-20911000D01*
X7720714Y-20896714D01*
X7763571Y-20896714D01*
X7792143Y-20911000D01*
X7906428Y-21211000D02*
X7920714Y-21196714D01*
X7949286Y-21153857D01*
X7963571Y-21125286D01*
X7977857Y-21082429D01*
X7992143Y-21011000D01*
X7992143Y-20953857D01*
X7977857Y-20882429D01*
X7963571Y-20839572D01*
X7949286Y-20811000D01*
X7920714Y-20768143D01*
X7906428Y-20753857D01*
X1380000Y-21317000D02*
X1380000Y-21397000D01*
X1340000Y-21357000D02*
X1420000Y-21357000D01*
X1763571Y-21192714D02*
X1792143Y-21192714D01*
X1820714Y-21207000D01*
X1835000Y-21221286D01*
X1849286Y-21249857D01*
X1863571Y-21307000D01*
X1863571Y-21378429D01*
X1849286Y-21435572D01*
X1835000Y-21464143D01*
X1820714Y-21478429D01*
X1792143Y-21492714D01*
X1763571Y-21492714D01*
X1735000Y-21478429D01*
X1720714Y-21464143D01*
X1706428Y-21435572D01*
X1692143Y-21378429D01*
X1692143Y-21307000D01*
X1706428Y-21249857D01*
X1720714Y-21221286D01*
X1735000Y-21207000D01*
X1763571Y-21192714D01*
X1992143Y-21464143D02*
X2006428Y-21478429D01*
X1992143Y-21492714D01*
X1977857Y-21478429D01*
X1992143Y-21464143D01*
X1992143Y-21492714D01*
X2177857Y-21321286D02*
X2149286Y-21307000D01*
X2135000Y-21292714D01*
X2120714Y-21264143D01*
X2120714Y-21249857D01*
X2135000Y-21221286D01*
X2149286Y-21207000D01*
X2177857Y-21192714D01*
X2235000Y-21192714D01*
X2263571Y-21207000D01*
X2277857Y-21221286D01*
X2292143Y-21249857D01*
X2292143Y-21264143D01*
X2277857Y-21292714D01*
X2263571Y-21307000D01*
X2235000Y-21321286D01*
X2177857Y-21321286D01*
X2149286Y-21335572D01*
X2135000Y-21349857D01*
X2120714Y-21378429D01*
X2120714Y-21435572D01*
X2135000Y-21464143D01*
X2149286Y-21478429D01*
X2177857Y-21492714D01*
X2235000Y-21492714D01*
X2263571Y-21478429D01*
X2277857Y-21464143D01*
X2292143Y-21435572D01*
X2292143Y-21378429D01*
X2277857Y-21349857D01*
X2263571Y-21335572D01*
X2235000Y-21321286D01*
X2477857Y-21192714D02*
X2506428Y-21192714D01*
X2535000Y-21207000D01*
X2549286Y-21221286D01*
X2563571Y-21249857D01*
X2577857Y-21307000D01*
X2577857Y-21378429D01*
X2563571Y-21435572D01*
X2549286Y-21464143D01*
X2535000Y-21478429D01*
X2506428Y-21492714D01*
X2477857Y-21492714D01*
X2449286Y-21478429D01*
X2435000Y-21464143D01*
X2420714Y-21435572D01*
X2406428Y-21378429D01*
X2406428Y-21307000D01*
X2420714Y-21249857D01*
X2435000Y-21221286D01*
X2449286Y-21207000D01*
X2477857Y-21192714D01*
X2706428Y-21492714D02*
X2706428Y-21292714D01*
X2706428Y-21321286D02*
X2720714Y-21307000D01*
X2749286Y-21292714D01*
X2792143Y-21292714D01*
X2820714Y-21307000D01*
X2835000Y-21335572D01*
X2835000Y-21492714D01*
X2835000Y-21335572D02*
X2849286Y-21307000D01*
X2877857Y-21292714D01*
X2920714Y-21292714D01*
X2949286Y-21307000D01*
X2963571Y-21335572D01*
X2963571Y-21492714D01*
X3106428Y-21492714D02*
X3106428Y-21292714D01*
X3106428Y-21321286D02*
X3120714Y-21307000D01*
X3149286Y-21292714D01*
X3192143Y-21292714D01*
X3220714Y-21307000D01*
X3235000Y-21335572D01*
X3235000Y-21492714D01*
X3235000Y-21335572D02*
X3249286Y-21307000D01*
X3277857Y-21292714D01*
X3320714Y-21292714D01*
X3349286Y-21307000D01*
X3363571Y-21335572D01*
X3363571Y-21492714D01*
X3949286Y-21178429D02*
X3692143Y-21564143D01*
X4335000Y-21192714D02*
X4363571Y-21192714D01*
X4392143Y-21207000D01*
X4406428Y-21221286D01*
X4420714Y-21249857D01*
X4435000Y-21307000D01*
X4435000Y-21378429D01*
X4420714Y-21435572D01*
X4406428Y-21464143D01*
X4392143Y-21478429D01*
X4363571Y-21492714D01*
X4335000Y-21492714D01*
X4306428Y-21478429D01*
X4292143Y-21464143D01*
X4277857Y-21435572D01*
X4263571Y-21378429D01*
X4263571Y-21307000D01*
X4277857Y-21249857D01*
X4292143Y-21221286D01*
X4306428Y-21207000D01*
X4335000Y-21192714D01*
X4563571Y-21464143D02*
X4577857Y-21478429D01*
X4563571Y-21492714D01*
X4549286Y-21478429D01*
X4563571Y-21464143D01*
X4563571Y-21492714D01*
X4763571Y-21192714D02*
X4792143Y-21192714D01*
X4820714Y-21207000D01*
X4835000Y-21221286D01*
X4849286Y-21249857D01*
X4863571Y-21307000D01*
X4863571Y-21378429D01*
X4849286Y-21435572D01*
X4835000Y-21464143D01*
X4820714Y-21478429D01*
X4792143Y-21492714D01*
X4763571Y-21492714D01*
X4735000Y-21478429D01*
X4720714Y-21464143D01*
X4706428Y-21435572D01*
X4692143Y-21378429D01*
X4692143Y-21307000D01*
X4706428Y-21249857D01*
X4720714Y-21221286D01*
X4735000Y-21207000D01*
X4763571Y-21192714D01*
X4963571Y-21192714D02*
X5149286Y-21192714D01*
X5049286Y-21307000D01*
X5092143Y-21307000D01*
X5120714Y-21321286D01*
X5135000Y-21335572D01*
X5149286Y-21364143D01*
X5149286Y-21435572D01*
X5135000Y-21464143D01*
X5120714Y-21478429D01*
X5092143Y-21492714D01*
X5006428Y-21492714D01*
X4977857Y-21478429D01*
X4963571Y-21464143D01*
X5435000Y-21492714D02*
X5263571Y-21492714D01*
X5349286Y-21492714D02*
X5349286Y-21192714D01*
X5320714Y-21235572D01*
X5292143Y-21264143D01*
X5263571Y-21278429D01*
X5549286Y-21192714D02*
X5549286Y-21249857D01*
X5663571Y-21192714D02*
X5663571Y-21249857D01*
X6106428Y-21607000D02*
X6092143Y-21592714D01*
X6063571Y-21549857D01*
X6049286Y-21521286D01*
X6035000Y-21478429D01*
X6020714Y-21407000D01*
X6020714Y-21349857D01*
X6035000Y-21278429D01*
X6049286Y-21235572D01*
X6063571Y-21207000D01*
X6092143Y-21164143D01*
X6106428Y-21149857D01*
X6363571Y-21192714D02*
X6220714Y-21192714D01*
X6206428Y-21335572D01*
X6220714Y-21321286D01*
X6249286Y-21307000D01*
X6320714Y-21307000D01*
X6349286Y-21321286D01*
X6363571Y-21335572D01*
X6377857Y-21364143D01*
X6377857Y-21435572D01*
X6363571Y-21464143D01*
X6349286Y-21478429D01*
X6320714Y-21492714D01*
X6249286Y-21492714D01*
X6220714Y-21478429D01*
X6206428Y-21464143D01*
X6635000Y-21192714D02*
X6577857Y-21192714D01*
X6549286Y-21207000D01*
X6535000Y-21221286D01*
X6506428Y-21264143D01*
X6492143Y-21321286D01*
X6492143Y-21435572D01*
X6506428Y-21464143D01*
X6520714Y-21478429D01*
X6549286Y-21492714D01*
X6606428Y-21492714D01*
X6635000Y-21478429D01*
X6649286Y-21464143D01*
X6663571Y-21435572D01*
X6663571Y-21364143D01*
X6649286Y-21335572D01*
X6635000Y-21321286D01*
X6606428Y-21307000D01*
X6549286Y-21307000D01*
X6520714Y-21321286D01*
X6506428Y-21335572D01*
X6492143Y-21364143D01*
X7020714Y-21492714D02*
X7020714Y-21192714D01*
X7149286Y-21492714D02*
X7149286Y-21335572D01*
X7135000Y-21307000D01*
X7106428Y-21292714D01*
X7063571Y-21292714D01*
X7035000Y-21307000D01*
X7020714Y-21321286D01*
X7335000Y-21492714D02*
X7306428Y-21478429D01*
X7292143Y-21464143D01*
X7277857Y-21435572D01*
X7277857Y-21349857D01*
X7292143Y-21321286D01*
X7306428Y-21307000D01*
X7335000Y-21292714D01*
X7377857Y-21292714D01*
X7406428Y-21307000D01*
X7420714Y-21321286D01*
X7435000Y-21349857D01*
X7435000Y-21435572D01*
X7420714Y-21464143D01*
X7406428Y-21478429D01*
X7377857Y-21492714D01*
X7335000Y-21492714D01*
X7606428Y-21492714D02*
X7577857Y-21478429D01*
X7563571Y-21449857D01*
X7563571Y-21192714D01*
X7835000Y-21478429D02*
X7806428Y-21492714D01*
X7749286Y-21492714D01*
X7720714Y-21478429D01*
X7706428Y-21449857D01*
X7706428Y-21335572D01*
X7720714Y-21307000D01*
X7749286Y-21292714D01*
X7806428Y-21292714D01*
X7835000Y-21307000D01*
X7849286Y-21335572D01*
X7849286Y-21364143D01*
X7706428Y-21392714D01*
X7963571Y-21478429D02*
X7992143Y-21492714D01*
X8049286Y-21492714D01*
X8077857Y-21478429D01*
X8092143Y-21449857D01*
X8092143Y-21435572D01*
X8077857Y-21407000D01*
X8049286Y-21392714D01*
X8006428Y-21392714D01*
X7977857Y-21378429D01*
X7963571Y-21349857D01*
X7963571Y-21335572D01*
X7977857Y-21307000D01*
X8006428Y-21292714D01*
X8049286Y-21292714D01*
X8077857Y-21307000D01*
X8192143Y-21607000D02*
X8206428Y-21592714D01*
X8235000Y-21549857D01*
X8249286Y-21521286D01*
X8263571Y-21478429D01*
X8277857Y-21407000D01*
X8277857Y-21349857D01*
X8263571Y-21278429D01*
X8249286Y-21235572D01*
X8235000Y-21207000D01*
X8206428Y-21164143D01*
X8192143Y-21149857D01*
X1406820Y-21784820D02*
X1406820Y-21721180D01*
X1343180Y-21721180D01*
X1343180Y-21784820D01*
X1406820Y-21784820D01*
X1763571Y-21588714D02*
X1792143Y-21588714D01*
X1820714Y-21603000D01*
X1835000Y-21617286D01*
X1849286Y-21645857D01*
X1863571Y-21703000D01*
X1863571Y-21774429D01*
X1849286Y-21831572D01*
X1835000Y-21860143D01*
X1820714Y-21874429D01*
X1792143Y-21888714D01*
X1763571Y-21888714D01*
X1735000Y-21874429D01*
X1720714Y-21860143D01*
X1706428Y-21831572D01*
X1692143Y-21774429D01*
X1692143Y-21703000D01*
X1706428Y-21645857D01*
X1720714Y-21617286D01*
X1735000Y-21603000D01*
X1763571Y-21588714D01*
X1992143Y-21860143D02*
X2006428Y-21874429D01*
X1992143Y-21888714D01*
X1977857Y-21874429D01*
X1992143Y-21860143D01*
X1992143Y-21888714D01*
X2149286Y-21888714D02*
X2206428Y-21888714D01*
X2235000Y-21874429D01*
X2249286Y-21860143D01*
X2277857Y-21817286D01*
X2292143Y-21760143D01*
X2292143Y-21645857D01*
X2277857Y-21617286D01*
X2263571Y-21603000D01*
X2235000Y-21588714D01*
X2177857Y-21588714D01*
X2149286Y-21603000D01*
X2135000Y-21617286D01*
X2120714Y-21645857D01*
X2120714Y-21717286D01*
X2135000Y-21745857D01*
X2149286Y-21760143D01*
X2177857Y-21774429D01*
X2235000Y-21774429D01*
X2263571Y-21760143D01*
X2277857Y-21745857D01*
X2292143Y-21717286D01*
X2477857Y-21588714D02*
X2506428Y-21588714D01*
X2535000Y-21603000D01*
X2549286Y-21617286D01*
X2563571Y-21645857D01*
X2577857Y-21703000D01*
X2577857Y-21774429D01*
X2563571Y-21831572D01*
X2549286Y-21860143D01*
X2535000Y-21874429D01*
X2506428Y-21888714D01*
X2477857Y-21888714D01*
X2449286Y-21874429D01*
X2435000Y-21860143D01*
X2420714Y-21831572D01*
X2406428Y-21774429D01*
X2406428Y-21703000D01*
X2420714Y-21645857D01*
X2435000Y-21617286D01*
X2449286Y-21603000D01*
X2477857Y-21588714D01*
X2706428Y-21888714D02*
X2706428Y-21688714D01*
X2706428Y-21717286D02*
X2720714Y-21703000D01*
X2749286Y-21688714D01*
X2792143Y-21688714D01*
X2820714Y-21703000D01*
X2835000Y-21731572D01*
X2835000Y-21888714D01*
X2835000Y-21731572D02*
X2849286Y-21703000D01*
X2877857Y-21688714D01*
X2920714Y-21688714D01*
X2949286Y-21703000D01*
X2963571Y-21731572D01*
X2963571Y-21888714D01*
X3106428Y-21888714D02*
X3106428Y-21688714D01*
X3106428Y-21717286D02*
X3120714Y-21703000D01*
X3149286Y-21688714D01*
X3192143Y-21688714D01*
X3220714Y-21703000D01*
X3235000Y-21731572D01*
X3235000Y-21888714D01*
X3235000Y-21731572D02*
X3249286Y-21703000D01*
X3277857Y-21688714D01*
X3320714Y-21688714D01*
X3349286Y-21703000D01*
X3363571Y-21731572D01*
X3363571Y-21888714D01*
X3949286Y-21574429D02*
X3692143Y-21960143D01*
X4335000Y-21588714D02*
X4363571Y-21588714D01*
X4392143Y-21603000D01*
X4406428Y-21617286D01*
X4420714Y-21645857D01*
X4435000Y-21703000D01*
X4435000Y-21774429D01*
X4420714Y-21831572D01*
X4406428Y-21860143D01*
X4392143Y-21874429D01*
X4363571Y-21888714D01*
X4335000Y-21888714D01*
X4306428Y-21874429D01*
X4292143Y-21860143D01*
X4277857Y-21831572D01*
X4263571Y-21774429D01*
X4263571Y-21703000D01*
X4277857Y-21645857D01*
X4292143Y-21617286D01*
X4306428Y-21603000D01*
X4335000Y-21588714D01*
X4563571Y-21860143D02*
X4577857Y-21874429D01*
X4563571Y-21888714D01*
X4549286Y-21874429D01*
X4563571Y-21860143D01*
X4563571Y-21888714D01*
X4763571Y-21588714D02*
X4792143Y-21588714D01*
X4820714Y-21603000D01*
X4835000Y-21617286D01*
X4849286Y-21645857D01*
X4863571Y-21703000D01*
X4863571Y-21774429D01*
X4849286Y-21831572D01*
X4835000Y-21860143D01*
X4820714Y-21874429D01*
X4792143Y-21888714D01*
X4763571Y-21888714D01*
X4735000Y-21874429D01*
X4720714Y-21860143D01*
X4706428Y-21831572D01*
X4692143Y-21774429D01*
X4692143Y-21703000D01*
X4706428Y-21645857D01*
X4720714Y-21617286D01*
X4735000Y-21603000D01*
X4763571Y-21588714D01*
X4963571Y-21588714D02*
X5149286Y-21588714D01*
X5049286Y-21703000D01*
X5092143Y-21703000D01*
X5120714Y-21717286D01*
X5135000Y-21731572D01*
X5149286Y-21760143D01*
X5149286Y-21831572D01*
X5135000Y-21860143D01*
X5120714Y-21874429D01*
X5092143Y-21888714D01*
X5006428Y-21888714D01*
X4977857Y-21874429D01*
X4963571Y-21860143D01*
X5420714Y-21588714D02*
X5277857Y-21588714D01*
X5263571Y-21731572D01*
X5277857Y-21717286D01*
X5306428Y-21703000D01*
X5377857Y-21703000D01*
X5406428Y-21717286D01*
X5420714Y-21731572D01*
X5435000Y-21760143D01*
X5435000Y-21831572D01*
X5420714Y-21860143D01*
X5406428Y-21874429D01*
X5377857Y-21888714D01*
X5306428Y-21888714D01*
X5277857Y-21874429D01*
X5263571Y-21860143D01*
X5549286Y-21588714D02*
X5549286Y-21645857D01*
X5663571Y-21588714D02*
X5663571Y-21645857D01*
X6106428Y-22003000D02*
X6092143Y-21988714D01*
X6063571Y-21945857D01*
X6049286Y-21917286D01*
X6035000Y-21874429D01*
X6020714Y-21803000D01*
X6020714Y-21745857D01*
X6035000Y-21674429D01*
X6049286Y-21631572D01*
X6063571Y-21603000D01*
X6092143Y-21560143D01*
X6106428Y-21545857D01*
X6377857Y-21888714D02*
X6206428Y-21888714D01*
X6292143Y-21888714D02*
X6292143Y-21588714D01*
X6263571Y-21631572D01*
X6235000Y-21660143D01*
X6206428Y-21674429D01*
X6492143Y-21617286D02*
X6506428Y-21603000D01*
X6535000Y-21588714D01*
X6606428Y-21588714D01*
X6635000Y-21603000D01*
X6649286Y-21617286D01*
X6663571Y-21645857D01*
X6663571Y-21674429D01*
X6649286Y-21717286D01*
X6477857Y-21888714D01*
X6663571Y-21888714D01*
X7020714Y-21888714D02*
X7020714Y-21588714D01*
X7149286Y-21888714D02*
X7149286Y-21731572D01*
X7135000Y-21703000D01*
X7106428Y-21688714D01*
X7063571Y-21688714D01*
X7035000Y-21703000D01*
X7020714Y-21717286D01*
X7335000Y-21888714D02*
X7306428Y-21874429D01*
X7292143Y-21860143D01*
X7277857Y-21831572D01*
X7277857Y-21745857D01*
X7292143Y-21717286D01*
X7306428Y-21703000D01*
X7335000Y-21688714D01*
X7377857Y-21688714D01*
X7406428Y-21703000D01*
X7420714Y-21717286D01*
X7435000Y-21745857D01*
X7435000Y-21831572D01*
X7420714Y-21860143D01*
X7406428Y-21874429D01*
X7377857Y-21888714D01*
X7335000Y-21888714D01*
X7606428Y-21888714D02*
X7577857Y-21874429D01*
X7563571Y-21845857D01*
X7563571Y-21588714D01*
X7835000Y-21874429D02*
X7806428Y-21888714D01*
X7749286Y-21888714D01*
X7720714Y-21874429D01*
X7706428Y-21845857D01*
X7706428Y-21731572D01*
X7720714Y-21703000D01*
X7749286Y-21688714D01*
X7806428Y-21688714D01*
X7835000Y-21703000D01*
X7849286Y-21731572D01*
X7849286Y-21760143D01*
X7706428Y-21788714D01*
X7963571Y-21874429D02*
X7992143Y-21888714D01*
X8049286Y-21888714D01*
X8077857Y-21874429D01*
X8092143Y-21845857D01*
X8092143Y-21831572D01*
X8077857Y-21803000D01*
X8049286Y-21788714D01*
X8006428Y-21788714D01*
X7977857Y-21774429D01*
X7963571Y-21745857D01*
X7963571Y-21731572D01*
X7977857Y-21703000D01*
X8006428Y-21688714D01*
X8049286Y-21688714D01*
X8077857Y-21703000D01*
X8192143Y-22003000D02*
X8206428Y-21988714D01*
X8235000Y-21945857D01*
X8249286Y-21917286D01*
X8263571Y-21874429D01*
X8277857Y-21803000D01*
X8277857Y-21745857D01*
X8263571Y-21674429D01*
X8249286Y-21631572D01*
X8235000Y-21603000D01*
X8206428Y-21560143D01*
X8192143Y-21545857D01*
X1372500Y-22196500D02*
X1420000Y-22149000D01*
X1372500Y-22101500D01*
X1325000Y-22149000D01*
X1372500Y-22196500D01*
X1763571Y-21984714D02*
X1792143Y-21984714D01*
X1820714Y-21999000D01*
X1835000Y-22013286D01*
X1849286Y-22041857D01*
X1863571Y-22099000D01*
X1863571Y-22170429D01*
X1849286Y-22227572D01*
X1835000Y-22256143D01*
X1820714Y-22270429D01*
X1792143Y-22284714D01*
X1763571Y-22284714D01*
X1735000Y-22270429D01*
X1720714Y-22256143D01*
X1706428Y-22227572D01*
X1692143Y-22170429D01*
X1692143Y-22099000D01*
X1706428Y-22041857D01*
X1720714Y-22013286D01*
X1735000Y-21999000D01*
X1763571Y-21984714D01*
X1992143Y-22256143D02*
X2006428Y-22270429D01*
X1992143Y-22284714D01*
X1977857Y-22270429D01*
X1992143Y-22256143D01*
X1992143Y-22284714D01*
X2149286Y-22284714D02*
X2206428Y-22284714D01*
X2235000Y-22270429D01*
X2249286Y-22256143D01*
X2277857Y-22213286D01*
X2292143Y-22156143D01*
X2292143Y-22041857D01*
X2277857Y-22013286D01*
X2263571Y-21999000D01*
X2235000Y-21984714D01*
X2177857Y-21984714D01*
X2149286Y-21999000D01*
X2135000Y-22013286D01*
X2120714Y-22041857D01*
X2120714Y-22113286D01*
X2135000Y-22141857D01*
X2149286Y-22156143D01*
X2177857Y-22170429D01*
X2235000Y-22170429D01*
X2263571Y-22156143D01*
X2277857Y-22141857D01*
X2292143Y-22113286D01*
X2563571Y-21984714D02*
X2420714Y-21984714D01*
X2406428Y-22127572D01*
X2420714Y-22113286D01*
X2449286Y-22099000D01*
X2520714Y-22099000D01*
X2549286Y-22113286D01*
X2563571Y-22127572D01*
X2577857Y-22156143D01*
X2577857Y-22227572D01*
X2563571Y-22256143D01*
X2549286Y-22270429D01*
X2520714Y-22284714D01*
X2449286Y-22284714D01*
X2420714Y-22270429D01*
X2406428Y-22256143D01*
X2706428Y-22284714D02*
X2706428Y-22084714D01*
X2706428Y-22113286D02*
X2720714Y-22099000D01*
X2749286Y-22084714D01*
X2792143Y-22084714D01*
X2820714Y-22099000D01*
X2835000Y-22127572D01*
X2835000Y-22284714D01*
X2835000Y-22127572D02*
X2849286Y-22099000D01*
X2877857Y-22084714D01*
X2920714Y-22084714D01*
X2949286Y-22099000D01*
X2963571Y-22127572D01*
X2963571Y-22284714D01*
X3106428Y-22284714D02*
X3106428Y-22084714D01*
X3106428Y-22113286D02*
X3120714Y-22099000D01*
X3149286Y-22084714D01*
X3192143Y-22084714D01*
X3220714Y-22099000D01*
X3235000Y-22127572D01*
X3235000Y-22284714D01*
X3235000Y-22127572D02*
X3249286Y-22099000D01*
X3277857Y-22084714D01*
X3320714Y-22084714D01*
X3349286Y-22099000D01*
X3363571Y-22127572D01*
X3363571Y-22284714D01*
X3949286Y-21970429D02*
X3692143Y-22356143D01*
X4335000Y-21984714D02*
X4363571Y-21984714D01*
X4392143Y-21999000D01*
X4406428Y-22013286D01*
X4420714Y-22041857D01*
X4435000Y-22099000D01*
X4435000Y-22170429D01*
X4420714Y-22227572D01*
X4406428Y-22256143D01*
X4392143Y-22270429D01*
X4363571Y-22284714D01*
X4335000Y-22284714D01*
X4306428Y-22270429D01*
X4292143Y-22256143D01*
X4277857Y-22227572D01*
X4263571Y-22170429D01*
X4263571Y-22099000D01*
X4277857Y-22041857D01*
X4292143Y-22013286D01*
X4306428Y-21999000D01*
X4335000Y-21984714D01*
X4563571Y-22256143D02*
X4577857Y-22270429D01*
X4563571Y-22284714D01*
X4549286Y-22270429D01*
X4563571Y-22256143D01*
X4563571Y-22284714D01*
X4763571Y-21984714D02*
X4792143Y-21984714D01*
X4820714Y-21999000D01*
X4835000Y-22013286D01*
X4849286Y-22041857D01*
X4863571Y-22099000D01*
X4863571Y-22170429D01*
X4849286Y-22227572D01*
X4835000Y-22256143D01*
X4820714Y-22270429D01*
X4792143Y-22284714D01*
X4763571Y-22284714D01*
X4735000Y-22270429D01*
X4720714Y-22256143D01*
X4706428Y-22227572D01*
X4692143Y-22170429D01*
X4692143Y-22099000D01*
X4706428Y-22041857D01*
X4720714Y-22013286D01*
X4735000Y-21999000D01*
X4763571Y-21984714D01*
X4963571Y-21984714D02*
X5149286Y-21984714D01*
X5049286Y-22099000D01*
X5092143Y-22099000D01*
X5120714Y-22113286D01*
X5135000Y-22127572D01*
X5149286Y-22156143D01*
X5149286Y-22227572D01*
X5135000Y-22256143D01*
X5120714Y-22270429D01*
X5092143Y-22284714D01*
X5006428Y-22284714D01*
X4977857Y-22270429D01*
X4963571Y-22256143D01*
X5249286Y-21984714D02*
X5449286Y-21984714D01*
X5320714Y-22284714D01*
X5549286Y-21984714D02*
X5549286Y-22041857D01*
X5663571Y-21984714D02*
X5663571Y-22041857D01*
X6106428Y-22399000D02*
X6092143Y-22384714D01*
X6063571Y-22341857D01*
X6049286Y-22313286D01*
X6035000Y-22270429D01*
X6020714Y-22199000D01*
X6020714Y-22141857D01*
X6035000Y-22070429D01*
X6049286Y-22027572D01*
X6063571Y-21999000D01*
X6092143Y-21956143D01*
X6106428Y-21941857D01*
X6363571Y-21984714D02*
X6220714Y-21984714D01*
X6206428Y-22127572D01*
X6220714Y-22113286D01*
X6249286Y-22099000D01*
X6320714Y-22099000D01*
X6349286Y-22113286D01*
X6363571Y-22127572D01*
X6377857Y-22156143D01*
X6377857Y-22227572D01*
X6363571Y-22256143D01*
X6349286Y-22270429D01*
X6320714Y-22284714D01*
X6249286Y-22284714D01*
X6220714Y-22270429D01*
X6206428Y-22256143D01*
X6735000Y-22284714D02*
X6735000Y-21984714D01*
X6863571Y-22284714D02*
X6863571Y-22127572D01*
X6849286Y-22099000D01*
X6820714Y-22084714D01*
X6777857Y-22084714D01*
X6749286Y-22099000D01*
X6735000Y-22113286D01*
X7049286Y-22284714D02*
X7020714Y-22270429D01*
X7006428Y-22256143D01*
X6992143Y-22227572D01*
X6992143Y-22141857D01*
X7006428Y-22113286D01*
X7020714Y-22099000D01*
X7049286Y-22084714D01*
X7092143Y-22084714D01*
X7120714Y-22099000D01*
X7135000Y-22113286D01*
X7149286Y-22141857D01*
X7149286Y-22227572D01*
X7135000Y-22256143D01*
X7120714Y-22270429D01*
X7092143Y-22284714D01*
X7049286Y-22284714D01*
X7320714Y-22284714D02*
X7292143Y-22270429D01*
X7277857Y-22241857D01*
X7277857Y-21984714D01*
X7549286Y-22270429D02*
X7520714Y-22284714D01*
X7463571Y-22284714D01*
X7435000Y-22270429D01*
X7420714Y-22241857D01*
X7420714Y-22127572D01*
X7435000Y-22099000D01*
X7463571Y-22084714D01*
X7520714Y-22084714D01*
X7549286Y-22099000D01*
X7563571Y-22127572D01*
X7563571Y-22156143D01*
X7420714Y-22184714D01*
X7677857Y-22270429D02*
X7706428Y-22284714D01*
X7763571Y-22284714D01*
X7792143Y-22270429D01*
X7806428Y-22241857D01*
X7806428Y-22227572D01*
X7792143Y-22199000D01*
X7763571Y-22184714D01*
X7720714Y-22184714D01*
X7692143Y-22170429D01*
X7677857Y-22141857D01*
X7677857Y-22127572D01*
X7692143Y-22099000D01*
X7720714Y-22084714D01*
X7763571Y-22084714D01*
X7792143Y-22099000D01*
X7906428Y-22399000D02*
X7920714Y-22384714D01*
X7949286Y-22341857D01*
X7963571Y-22313286D01*
X7977857Y-22270429D01*
X7992143Y-22199000D01*
X7992143Y-22141857D01*
X7977857Y-22070429D01*
X7963571Y-22027572D01*
X7949286Y-21999000D01*
X7920714Y-21956143D01*
X7906428Y-21941857D01*
X1320000Y-22495000D02*
X1420000Y-22595000D01*
X1420000Y-22495000D02*
X1320000Y-22595000D01*
X1420000Y-22545000D02*
G75*
G03*
X1420000Y-22545000I-50000J0D01*
G01*
X1863571Y-22680714D02*
X1692143Y-22680714D01*
X1777857Y-22680714D02*
X1777857Y-22380714D01*
X1749286Y-22423571D01*
X1720714Y-22452143D01*
X1692143Y-22466429D01*
X1992143Y-22652143D02*
X2006428Y-22666429D01*
X1992143Y-22680714D01*
X1977857Y-22666429D01*
X1992143Y-22652143D01*
X1992143Y-22680714D01*
X2192143Y-22380714D02*
X2220714Y-22380714D01*
X2249286Y-22395000D01*
X2263571Y-22409286D01*
X2277857Y-22437857D01*
X2292143Y-22495000D01*
X2292143Y-22566429D01*
X2277857Y-22623571D01*
X2263571Y-22652143D01*
X2249286Y-22666429D01*
X2220714Y-22680714D01*
X2192143Y-22680714D01*
X2163571Y-22666429D01*
X2149286Y-22652143D01*
X2135000Y-22623571D01*
X2120714Y-22566429D01*
X2120714Y-22495000D01*
X2135000Y-22437857D01*
X2149286Y-22409286D01*
X2163571Y-22395000D01*
X2192143Y-22380714D01*
X2477857Y-22380714D02*
X2506428Y-22380714D01*
X2535000Y-22395000D01*
X2549286Y-22409286D01*
X2563571Y-22437857D01*
X2577857Y-22495000D01*
X2577857Y-22566429D01*
X2563571Y-22623571D01*
X2549286Y-22652143D01*
X2535000Y-22666429D01*
X2506428Y-22680714D01*
X2477857Y-22680714D01*
X2449286Y-22666429D01*
X2435000Y-22652143D01*
X2420714Y-22623571D01*
X2406428Y-22566429D01*
X2406428Y-22495000D01*
X2420714Y-22437857D01*
X2435000Y-22409286D01*
X2449286Y-22395000D01*
X2477857Y-22380714D01*
X2706428Y-22680714D02*
X2706428Y-22480714D01*
X2706428Y-22509286D02*
X2720714Y-22495000D01*
X2749286Y-22480714D01*
X2792143Y-22480714D01*
X2820714Y-22495000D01*
X2835000Y-22523571D01*
X2835000Y-22680714D01*
X2835000Y-22523571D02*
X2849286Y-22495000D01*
X2877857Y-22480714D01*
X2920714Y-22480714D01*
X2949286Y-22495000D01*
X2963571Y-22523571D01*
X2963571Y-22680714D01*
X3106428Y-22680714D02*
X3106428Y-22480714D01*
X3106428Y-22509286D02*
X3120714Y-22495000D01*
X3149286Y-22480714D01*
X3192143Y-22480714D01*
X3220714Y-22495000D01*
X3235000Y-22523571D01*
X3235000Y-22680714D01*
X3235000Y-22523571D02*
X3249286Y-22495000D01*
X3277857Y-22480714D01*
X3320714Y-22480714D01*
X3349286Y-22495000D01*
X3363571Y-22523571D01*
X3363571Y-22680714D01*
X3949286Y-22366429D02*
X3692143Y-22752143D01*
X4335000Y-22380714D02*
X4363571Y-22380714D01*
X4392143Y-22395000D01*
X4406428Y-22409286D01*
X4420714Y-22437857D01*
X4435000Y-22495000D01*
X4435000Y-22566429D01*
X4420714Y-22623571D01*
X4406428Y-22652143D01*
X4392143Y-22666429D01*
X4363571Y-22680714D01*
X4335000Y-22680714D01*
X4306428Y-22666429D01*
X4292143Y-22652143D01*
X4277857Y-22623571D01*
X4263571Y-22566429D01*
X4263571Y-22495000D01*
X4277857Y-22437857D01*
X4292143Y-22409286D01*
X4306428Y-22395000D01*
X4335000Y-22380714D01*
X4563571Y-22652143D02*
X4577857Y-22666429D01*
X4563571Y-22680714D01*
X4549286Y-22666429D01*
X4563571Y-22652143D01*
X4563571Y-22680714D01*
X4763571Y-22380714D02*
X4792143Y-22380714D01*
X4820714Y-22395000D01*
X4835000Y-22409286D01*
X4849286Y-22437857D01*
X4863571Y-22495000D01*
X4863571Y-22566429D01*
X4849286Y-22623571D01*
X4835000Y-22652143D01*
X4820714Y-22666429D01*
X4792143Y-22680714D01*
X4763571Y-22680714D01*
X4735000Y-22666429D01*
X4720714Y-22652143D01*
X4706428Y-22623571D01*
X4692143Y-22566429D01*
X4692143Y-22495000D01*
X4706428Y-22437857D01*
X4720714Y-22409286D01*
X4735000Y-22395000D01*
X4763571Y-22380714D01*
X4963571Y-22380714D02*
X5149286Y-22380714D01*
X5049286Y-22495000D01*
X5092143Y-22495000D01*
X5120714Y-22509286D01*
X5135000Y-22523571D01*
X5149286Y-22552143D01*
X5149286Y-22623571D01*
X5135000Y-22652143D01*
X5120714Y-22666429D01*
X5092143Y-22680714D01*
X5006428Y-22680714D01*
X4977857Y-22666429D01*
X4963571Y-22652143D01*
X5292143Y-22680714D02*
X5349286Y-22680714D01*
X5377857Y-22666429D01*
X5392143Y-22652143D01*
X5420714Y-22609286D01*
X5435000Y-22552143D01*
X5435000Y-22437857D01*
X5420714Y-22409286D01*
X5406428Y-22395000D01*
X5377857Y-22380714D01*
X5320714Y-22380714D01*
X5292143Y-22395000D01*
X5277857Y-22409286D01*
X5263571Y-22437857D01*
X5263571Y-22509286D01*
X5277857Y-22537857D01*
X5292143Y-22552143D01*
X5320714Y-22566429D01*
X5377857Y-22566429D01*
X5406428Y-22552143D01*
X5420714Y-22537857D01*
X5435000Y-22509286D01*
X5549286Y-22380714D02*
X5549286Y-22437857D01*
X5663571Y-22380714D02*
X5663571Y-22437857D01*
X6106428Y-22795000D02*
X6092143Y-22780714D01*
X6063571Y-22737857D01*
X6049286Y-22709286D01*
X6035000Y-22666429D01*
X6020714Y-22595000D01*
X6020714Y-22537857D01*
X6035000Y-22466429D01*
X6049286Y-22423571D01*
X6063571Y-22395000D01*
X6092143Y-22352143D01*
X6106428Y-22337857D01*
X6377857Y-22680714D02*
X6206428Y-22680714D01*
X6292143Y-22680714D02*
X6292143Y-22380714D01*
X6263571Y-22423571D01*
X6235000Y-22452143D01*
X6206428Y-22466429D01*
X6492143Y-22409286D02*
X6506428Y-22395000D01*
X6535000Y-22380714D01*
X6606428Y-22380714D01*
X6635000Y-22395000D01*
X6649286Y-22409286D01*
X6663571Y-22437857D01*
X6663571Y-22466429D01*
X6649286Y-22509286D01*
X6477857Y-22680714D01*
X6663571Y-22680714D01*
X6920714Y-22380714D02*
X6863571Y-22380714D01*
X6835000Y-22395000D01*
X6820714Y-22409286D01*
X6792143Y-22452143D01*
X6777857Y-22509286D01*
X6777857Y-22623571D01*
X6792143Y-22652143D01*
X6806428Y-22666429D01*
X6835000Y-22680714D01*
X6892143Y-22680714D01*
X6920714Y-22666429D01*
X6935000Y-22652143D01*
X6949286Y-22623571D01*
X6949286Y-22552143D01*
X6935000Y-22523571D01*
X6920714Y-22509286D01*
X6892143Y-22495000D01*
X6835000Y-22495000D01*
X6806428Y-22509286D01*
X6792143Y-22523571D01*
X6777857Y-22552143D01*
X7306428Y-22680714D02*
X7306428Y-22380714D01*
X7435000Y-22680714D02*
X7435000Y-22523571D01*
X7420714Y-22495000D01*
X7392143Y-22480714D01*
X7349286Y-22480714D01*
X7320714Y-22495000D01*
X7306428Y-22509286D01*
X7620714Y-22680714D02*
X7592143Y-22666429D01*
X7577857Y-22652143D01*
X7563571Y-22623571D01*
X7563571Y-22537857D01*
X7577857Y-22509286D01*
X7592143Y-22495000D01*
X7620714Y-22480714D01*
X7663571Y-22480714D01*
X7692143Y-22495000D01*
X7706428Y-22509286D01*
X7720714Y-22537857D01*
X7720714Y-22623571D01*
X7706428Y-22652143D01*
X7692143Y-22666429D01*
X7663571Y-22680714D01*
X7620714Y-22680714D01*
X7892143Y-22680714D02*
X7863571Y-22666429D01*
X7849286Y-22637857D01*
X7849286Y-22380714D01*
X8120714Y-22666429D02*
X8092143Y-22680714D01*
X8035000Y-22680714D01*
X8006428Y-22666429D01*
X7992143Y-22637857D01*
X7992143Y-22523571D01*
X8006428Y-22495000D01*
X8035000Y-22480714D01*
X8092143Y-22480714D01*
X8120714Y-22495000D01*
X8135000Y-22523571D01*
X8135000Y-22552143D01*
X7992143Y-22580714D01*
X8249286Y-22666429D02*
X8277857Y-22680714D01*
X8335000Y-22680714D01*
X8363571Y-22666429D01*
X8377857Y-22637857D01*
X8377857Y-22623571D01*
X8363571Y-22595000D01*
X8335000Y-22580714D01*
X8292143Y-22580714D01*
X8263571Y-22566429D01*
X8249286Y-22537857D01*
X8249286Y-22523571D01*
X8263571Y-22495000D01*
X8292143Y-22480714D01*
X8335000Y-22480714D01*
X8363571Y-22495000D01*
X8477857Y-22795000D02*
X8492143Y-22780714D01*
X8520714Y-22737857D01*
X8535000Y-22709286D01*
X8549286Y-22666429D01*
X8563571Y-22595000D01*
X8563571Y-22537857D01*
X8549286Y-22466429D01*
X8535000Y-22423571D01*
X8520714Y-22395000D01*
X8492143Y-22352143D01*
X8477857Y-22337857D01*
X1310000Y-22886000D02*
X1420000Y-22996000D01*
X1420000Y-22886000D02*
X1310000Y-22996000D01*
X1365000Y-22886000D02*
X1365000Y-22996000D01*
X1310000Y-22941000D02*
X1420000Y-22941000D01*
X1863571Y-23076714D02*
X1692143Y-23076714D01*
X1777857Y-23076714D02*
X1777857Y-22776714D01*
X1749286Y-22819571D01*
X1720714Y-22848143D01*
X1692143Y-22862429D01*
X1992143Y-23048143D02*
X2006428Y-23062429D01*
X1992143Y-23076714D01*
X1977857Y-23062429D01*
X1992143Y-23048143D01*
X1992143Y-23076714D01*
X2292143Y-23076714D02*
X2120714Y-23076714D01*
X2206428Y-23076714D02*
X2206428Y-22776714D01*
X2177857Y-22819571D01*
X2149286Y-22848143D01*
X2120714Y-22862429D01*
X2477857Y-22776714D02*
X2506428Y-22776714D01*
X2535000Y-22791000D01*
X2549286Y-22805286D01*
X2563571Y-22833857D01*
X2577857Y-22891000D01*
X2577857Y-22962429D01*
X2563571Y-23019571D01*
X2549286Y-23048143D01*
X2535000Y-23062429D01*
X2506428Y-23076714D01*
X2477857Y-23076714D01*
X2449286Y-23062429D01*
X2435000Y-23048143D01*
X2420714Y-23019571D01*
X2406428Y-22962429D01*
X2406428Y-22891000D01*
X2420714Y-22833857D01*
X2435000Y-22805286D01*
X2449286Y-22791000D01*
X2477857Y-22776714D01*
X2706428Y-23076714D02*
X2706428Y-22876714D01*
X2706428Y-22905286D02*
X2720714Y-22891000D01*
X2749286Y-22876714D01*
X2792143Y-22876714D01*
X2820714Y-22891000D01*
X2835000Y-22919571D01*
X2835000Y-23076714D01*
X2835000Y-22919571D02*
X2849286Y-22891000D01*
X2877857Y-22876714D01*
X2920714Y-22876714D01*
X2949286Y-22891000D01*
X2963571Y-22919571D01*
X2963571Y-23076714D01*
X3106428Y-23076714D02*
X3106428Y-22876714D01*
X3106428Y-22905286D02*
X3120714Y-22891000D01*
X3149286Y-22876714D01*
X3192143Y-22876714D01*
X3220714Y-22891000D01*
X3235000Y-22919571D01*
X3235000Y-23076714D01*
X3235000Y-22919571D02*
X3249286Y-22891000D01*
X3277857Y-22876714D01*
X3320714Y-22876714D01*
X3349286Y-22891000D01*
X3363571Y-22919571D01*
X3363571Y-23076714D01*
X3949286Y-22762429D02*
X3692143Y-23148143D01*
X4335000Y-22776714D02*
X4363571Y-22776714D01*
X4392143Y-22791000D01*
X4406428Y-22805286D01*
X4420714Y-22833857D01*
X4435000Y-22891000D01*
X4435000Y-22962429D01*
X4420714Y-23019571D01*
X4406428Y-23048143D01*
X4392143Y-23062429D01*
X4363571Y-23076714D01*
X4335000Y-23076714D01*
X4306428Y-23062429D01*
X4292143Y-23048143D01*
X4277857Y-23019571D01*
X4263571Y-22962429D01*
X4263571Y-22891000D01*
X4277857Y-22833857D01*
X4292143Y-22805286D01*
X4306428Y-22791000D01*
X4335000Y-22776714D01*
X4563571Y-23048143D02*
X4577857Y-23062429D01*
X4563571Y-23076714D01*
X4549286Y-23062429D01*
X4563571Y-23048143D01*
X4563571Y-23076714D01*
X4763571Y-22776714D02*
X4792143Y-22776714D01*
X4820714Y-22791000D01*
X4835000Y-22805286D01*
X4849286Y-22833857D01*
X4863571Y-22891000D01*
X4863571Y-22962429D01*
X4849286Y-23019571D01*
X4835000Y-23048143D01*
X4820714Y-23062429D01*
X4792143Y-23076714D01*
X4763571Y-23076714D01*
X4735000Y-23062429D01*
X4720714Y-23048143D01*
X4706428Y-23019571D01*
X4692143Y-22962429D01*
X4692143Y-22891000D01*
X4706428Y-22833857D01*
X4720714Y-22805286D01*
X4735000Y-22791000D01*
X4763571Y-22776714D01*
X5120714Y-22876714D02*
X5120714Y-23076714D01*
X5049286Y-22762429D02*
X4977857Y-22976714D01*
X5163571Y-22976714D01*
X5249286Y-22776714D02*
X5435000Y-22776714D01*
X5335000Y-22891000D01*
X5377857Y-22891000D01*
X5406428Y-22905286D01*
X5420714Y-22919571D01*
X5435000Y-22948143D01*
X5435000Y-23019571D01*
X5420714Y-23048143D01*
X5406428Y-23062429D01*
X5377857Y-23076714D01*
X5292143Y-23076714D01*
X5263571Y-23062429D01*
X5249286Y-23048143D01*
X5549286Y-22776714D02*
X5549286Y-22833857D01*
X5663571Y-22776714D02*
X5663571Y-22833857D01*
X6106428Y-23191000D02*
X6092143Y-23176714D01*
X6063571Y-23133857D01*
X6049286Y-23105286D01*
X6035000Y-23062429D01*
X6020714Y-22991000D01*
X6020714Y-22933857D01*
X6035000Y-22862429D01*
X6049286Y-22819571D01*
X6063571Y-22791000D01*
X6092143Y-22748143D01*
X6106428Y-22733857D01*
X6377857Y-23076714D02*
X6206428Y-23076714D01*
X6292143Y-23076714D02*
X6292143Y-22776714D01*
X6263571Y-22819571D01*
X6235000Y-22848143D01*
X6206428Y-22862429D01*
X6520714Y-23076714D02*
X6577857Y-23076714D01*
X6606428Y-23062429D01*
X6620714Y-23048143D01*
X6649286Y-23005286D01*
X6663571Y-22948143D01*
X6663571Y-22833857D01*
X6649286Y-22805286D01*
X6635000Y-22791000D01*
X6606428Y-22776714D01*
X6549286Y-22776714D01*
X6520714Y-22791000D01*
X6506428Y-22805286D01*
X6492143Y-22833857D01*
X6492143Y-22905286D01*
X6506428Y-22933857D01*
X6520714Y-22948143D01*
X6549286Y-22962429D01*
X6606428Y-22962429D01*
X6635000Y-22948143D01*
X6649286Y-22933857D01*
X6663571Y-22905286D01*
X7020714Y-23076714D02*
X7020714Y-22776714D01*
X7149286Y-23076714D02*
X7149286Y-22919571D01*
X7135000Y-22891000D01*
X7106428Y-22876714D01*
X7063571Y-22876714D01*
X7035000Y-22891000D01*
X7020714Y-22905286D01*
X7335000Y-23076714D02*
X7306428Y-23062429D01*
X7292143Y-23048143D01*
X7277857Y-23019571D01*
X7277857Y-22933857D01*
X7292143Y-22905286D01*
X7306428Y-22891000D01*
X7335000Y-22876714D01*
X7377857Y-22876714D01*
X7406428Y-22891000D01*
X7420714Y-22905286D01*
X7435000Y-22933857D01*
X7435000Y-23019571D01*
X7420714Y-23048143D01*
X7406428Y-23062429D01*
X7377857Y-23076714D01*
X7335000Y-23076714D01*
X7606428Y-23076714D02*
X7577857Y-23062429D01*
X7563571Y-23033857D01*
X7563571Y-22776714D01*
X7835000Y-23062429D02*
X7806428Y-23076714D01*
X7749286Y-23076714D01*
X7720714Y-23062429D01*
X7706428Y-23033857D01*
X7706428Y-22919571D01*
X7720714Y-22891000D01*
X7749286Y-22876714D01*
X7806428Y-22876714D01*
X7835000Y-22891000D01*
X7849286Y-22919571D01*
X7849286Y-22948143D01*
X7706428Y-22976714D01*
X7963571Y-23062429D02*
X7992143Y-23076714D01*
X8049286Y-23076714D01*
X8077857Y-23062429D01*
X8092143Y-23033857D01*
X8092143Y-23019571D01*
X8077857Y-22991000D01*
X8049286Y-22976714D01*
X8006428Y-22976714D01*
X7977857Y-22962429D01*
X7963571Y-22933857D01*
X7963571Y-22919571D01*
X7977857Y-22891000D01*
X8006428Y-22876714D01*
X8049286Y-22876714D01*
X8077857Y-22891000D01*
X8192143Y-23191000D02*
X8206428Y-23176714D01*
X8235000Y-23133857D01*
X8249286Y-23105286D01*
X8263571Y-23062429D01*
X8277857Y-22991000D01*
X8277857Y-22933857D01*
X8263571Y-22862429D01*
X8249286Y-22819571D01*
X8235000Y-22791000D01*
X8206428Y-22748143D01*
X8192143Y-22733857D01*
X1300000Y-23277000D02*
X1420000Y-23397000D01*
X1420000Y-23277000D02*
X1300000Y-23397000D01*
X1402427Y-23379427D02*
X1402427Y-23294573D01*
X1317573Y-23294573D01*
X1317573Y-23379427D01*
X1402427Y-23379427D01*
X1863571Y-23472714D02*
X1692143Y-23472714D01*
X1777857Y-23472714D02*
X1777857Y-23172714D01*
X1749286Y-23215571D01*
X1720714Y-23244143D01*
X1692143Y-23258429D01*
X1992143Y-23444143D02*
X2006428Y-23458429D01*
X1992143Y-23472714D01*
X1977857Y-23458429D01*
X1992143Y-23444143D01*
X1992143Y-23472714D01*
X2120714Y-23201286D02*
X2135000Y-23187000D01*
X2163571Y-23172714D01*
X2235000Y-23172714D01*
X2263571Y-23187000D01*
X2277857Y-23201286D01*
X2292143Y-23229857D01*
X2292143Y-23258429D01*
X2277857Y-23301286D01*
X2106428Y-23472714D01*
X2292143Y-23472714D01*
X2477857Y-23172714D02*
X2506428Y-23172714D01*
X2535000Y-23187000D01*
X2549286Y-23201286D01*
X2563571Y-23229857D01*
X2577857Y-23287000D01*
X2577857Y-23358429D01*
X2563571Y-23415571D01*
X2549286Y-23444143D01*
X2535000Y-23458429D01*
X2506428Y-23472714D01*
X2477857Y-23472714D01*
X2449286Y-23458429D01*
X2435000Y-23444143D01*
X2420714Y-23415571D01*
X2406428Y-23358429D01*
X2406428Y-23287000D01*
X2420714Y-23229857D01*
X2435000Y-23201286D01*
X2449286Y-23187000D01*
X2477857Y-23172714D01*
X2706428Y-23472714D02*
X2706428Y-23272714D01*
X2706428Y-23301286D02*
X2720714Y-23287000D01*
X2749286Y-23272714D01*
X2792143Y-23272714D01*
X2820714Y-23287000D01*
X2835000Y-23315571D01*
X2835000Y-23472714D01*
X2835000Y-23315571D02*
X2849286Y-23287000D01*
X2877857Y-23272714D01*
X2920714Y-23272714D01*
X2949286Y-23287000D01*
X2963571Y-23315571D01*
X2963571Y-23472714D01*
X3106428Y-23472714D02*
X3106428Y-23272714D01*
X3106428Y-23301286D02*
X3120714Y-23287000D01*
X3149286Y-23272714D01*
X3192143Y-23272714D01*
X3220714Y-23287000D01*
X3235000Y-23315571D01*
X3235000Y-23472714D01*
X3235000Y-23315571D02*
X3249286Y-23287000D01*
X3277857Y-23272714D01*
X3320714Y-23272714D01*
X3349286Y-23287000D01*
X3363571Y-23315571D01*
X3363571Y-23472714D01*
X3949286Y-23158429D02*
X3692143Y-23544143D01*
X4335000Y-23172714D02*
X4363571Y-23172714D01*
X4392143Y-23187000D01*
X4406428Y-23201286D01*
X4420714Y-23229857D01*
X4435000Y-23287000D01*
X4435000Y-23358429D01*
X4420714Y-23415571D01*
X4406428Y-23444143D01*
X4392143Y-23458429D01*
X4363571Y-23472714D01*
X4335000Y-23472714D01*
X4306428Y-23458429D01*
X4292143Y-23444143D01*
X4277857Y-23415571D01*
X4263571Y-23358429D01*
X4263571Y-23287000D01*
X4277857Y-23229857D01*
X4292143Y-23201286D01*
X4306428Y-23187000D01*
X4335000Y-23172714D01*
X4563571Y-23444143D02*
X4577857Y-23458429D01*
X4563571Y-23472714D01*
X4549286Y-23458429D01*
X4563571Y-23444143D01*
X4563571Y-23472714D01*
X4763571Y-23172714D02*
X4792143Y-23172714D01*
X4820714Y-23187000D01*
X4835000Y-23201286D01*
X4849286Y-23229857D01*
X4863571Y-23287000D01*
X4863571Y-23358429D01*
X4849286Y-23415571D01*
X4835000Y-23444143D01*
X4820714Y-23458429D01*
X4792143Y-23472714D01*
X4763571Y-23472714D01*
X4735000Y-23458429D01*
X4720714Y-23444143D01*
X4706428Y-23415571D01*
X4692143Y-23358429D01*
X4692143Y-23287000D01*
X4706428Y-23229857D01*
X4720714Y-23201286D01*
X4735000Y-23187000D01*
X4763571Y-23172714D01*
X5120714Y-23272714D02*
X5120714Y-23472714D01*
X5049286Y-23158429D02*
X4977857Y-23372714D01*
X5163571Y-23372714D01*
X5249286Y-23172714D02*
X5449286Y-23172714D01*
X5320714Y-23472714D01*
X5549286Y-23172714D02*
X5549286Y-23229857D01*
X5663571Y-23172714D02*
X5663571Y-23229857D01*
X6106428Y-23587000D02*
X6092143Y-23572714D01*
X6063571Y-23529857D01*
X6049286Y-23501286D01*
X6035000Y-23458429D01*
X6020714Y-23387000D01*
X6020714Y-23329857D01*
X6035000Y-23258429D01*
X6049286Y-23215571D01*
X6063571Y-23187000D01*
X6092143Y-23144143D01*
X6106428Y-23129857D01*
X6206428Y-23201286D02*
X6220714Y-23187000D01*
X6249286Y-23172714D01*
X6320714Y-23172714D01*
X6349286Y-23187000D01*
X6363571Y-23201286D01*
X6377857Y-23229857D01*
X6377857Y-23258429D01*
X6363571Y-23301286D01*
X6192143Y-23472714D01*
X6377857Y-23472714D01*
X6563571Y-23172714D02*
X6592143Y-23172714D01*
X6620714Y-23187000D01*
X6635000Y-23201286D01*
X6649286Y-23229857D01*
X6663571Y-23287000D01*
X6663571Y-23358429D01*
X6649286Y-23415571D01*
X6635000Y-23444143D01*
X6620714Y-23458429D01*
X6592143Y-23472714D01*
X6563571Y-23472714D01*
X6535000Y-23458429D01*
X6520714Y-23444143D01*
X6506428Y-23415571D01*
X6492143Y-23358429D01*
X6492143Y-23287000D01*
X6506428Y-23229857D01*
X6520714Y-23201286D01*
X6535000Y-23187000D01*
X6563571Y-23172714D01*
X7020714Y-23472714D02*
X7020714Y-23172714D01*
X7149286Y-23472714D02*
X7149286Y-23315571D01*
X7135000Y-23287000D01*
X7106428Y-23272714D01*
X7063571Y-23272714D01*
X7035000Y-23287000D01*
X7020714Y-23301286D01*
X7335000Y-23472714D02*
X7306428Y-23458429D01*
X7292143Y-23444143D01*
X7277857Y-23415571D01*
X7277857Y-23329857D01*
X7292143Y-23301286D01*
X7306428Y-23287000D01*
X7335000Y-23272714D01*
X7377857Y-23272714D01*
X7406428Y-23287000D01*
X7420714Y-23301286D01*
X7435000Y-23329857D01*
X7435000Y-23415571D01*
X7420714Y-23444143D01*
X7406428Y-23458429D01*
X7377857Y-23472714D01*
X7335000Y-23472714D01*
X7606428Y-23472714D02*
X7577857Y-23458429D01*
X7563571Y-23429857D01*
X7563571Y-23172714D01*
X7835000Y-23458429D02*
X7806428Y-23472714D01*
X7749286Y-23472714D01*
X7720714Y-23458429D01*
X7706428Y-23429857D01*
X7706428Y-23315571D01*
X7720714Y-23287000D01*
X7749286Y-23272714D01*
X7806428Y-23272714D01*
X7835000Y-23287000D01*
X7849286Y-23315571D01*
X7849286Y-23344143D01*
X7706428Y-23372714D01*
X7963571Y-23458429D02*
X7992143Y-23472714D01*
X8049286Y-23472714D01*
X8077857Y-23458429D01*
X8092143Y-23429857D01*
X8092143Y-23415571D01*
X8077857Y-23387000D01*
X8049286Y-23372714D01*
X8006428Y-23372714D01*
X7977857Y-23358429D01*
X7963571Y-23329857D01*
X7963571Y-23315571D01*
X7977857Y-23287000D01*
X8006428Y-23272714D01*
X8049286Y-23272714D01*
X8077857Y-23287000D01*
X8192143Y-23587000D02*
X8206428Y-23572714D01*
X8235000Y-23529857D01*
X8249286Y-23501286D01*
X8263571Y-23458429D01*
X8277857Y-23387000D01*
X8277857Y-23329857D01*
X8263571Y-23258429D01*
X8249286Y-23215571D01*
X8235000Y-23187000D01*
X8206428Y-23144143D01*
X8192143Y-23129857D01*
X1290000Y-23668000D02*
X1420000Y-23798000D01*
X1420000Y-23668000D02*
X1290000Y-23798000D01*
X1355000Y-23798000D02*
X1420000Y-23733000D01*
X1355000Y-23668000D01*
X1290000Y-23733000D01*
X1355000Y-23798000D01*
X1863571Y-23868714D02*
X1692143Y-23868714D01*
X1777857Y-23868714D02*
X1777857Y-23568714D01*
X1749286Y-23611571D01*
X1720714Y-23640143D01*
X1692143Y-23654429D01*
X1992143Y-23840143D02*
X2006428Y-23854429D01*
X1992143Y-23868714D01*
X1977857Y-23854429D01*
X1992143Y-23840143D01*
X1992143Y-23868714D01*
X2106428Y-23568714D02*
X2292143Y-23568714D01*
X2192143Y-23683000D01*
X2235000Y-23683000D01*
X2263571Y-23697286D01*
X2277857Y-23711571D01*
X2292143Y-23740143D01*
X2292143Y-23811571D01*
X2277857Y-23840143D01*
X2263571Y-23854429D01*
X2235000Y-23868714D01*
X2149286Y-23868714D01*
X2120714Y-23854429D01*
X2106428Y-23840143D01*
X2477857Y-23568714D02*
X2506428Y-23568714D01*
X2535000Y-23583000D01*
X2549286Y-23597286D01*
X2563571Y-23625857D01*
X2577857Y-23683000D01*
X2577857Y-23754429D01*
X2563571Y-23811571D01*
X2549286Y-23840143D01*
X2535000Y-23854429D01*
X2506428Y-23868714D01*
X2477857Y-23868714D01*
X2449286Y-23854429D01*
X2435000Y-23840143D01*
X2420714Y-23811571D01*
X2406428Y-23754429D01*
X2406428Y-23683000D01*
X2420714Y-23625857D01*
X2435000Y-23597286D01*
X2449286Y-23583000D01*
X2477857Y-23568714D01*
X2706428Y-23868714D02*
X2706428Y-23668714D01*
X2706428Y-23697286D02*
X2720714Y-23683000D01*
X2749286Y-23668714D01*
X2792143Y-23668714D01*
X2820714Y-23683000D01*
X2835000Y-23711571D01*
X2835000Y-23868714D01*
X2835000Y-23711571D02*
X2849286Y-23683000D01*
X2877857Y-23668714D01*
X2920714Y-23668714D01*
X2949286Y-23683000D01*
X2963571Y-23711571D01*
X2963571Y-23868714D01*
X3106428Y-23868714D02*
X3106428Y-23668714D01*
X3106428Y-23697286D02*
X3120714Y-23683000D01*
X3149286Y-23668714D01*
X3192143Y-23668714D01*
X3220714Y-23683000D01*
X3235000Y-23711571D01*
X3235000Y-23868714D01*
X3235000Y-23711571D02*
X3249286Y-23683000D01*
X3277857Y-23668714D01*
X3320714Y-23668714D01*
X3349286Y-23683000D01*
X3363571Y-23711571D01*
X3363571Y-23868714D01*
X3949286Y-23554429D02*
X3692143Y-23940143D01*
X4335000Y-23568714D02*
X4363571Y-23568714D01*
X4392143Y-23583000D01*
X4406428Y-23597286D01*
X4420714Y-23625857D01*
X4435000Y-23683000D01*
X4435000Y-23754429D01*
X4420714Y-23811571D01*
X4406428Y-23840143D01*
X4392143Y-23854429D01*
X4363571Y-23868714D01*
X4335000Y-23868714D01*
X4306428Y-23854429D01*
X4292143Y-23840143D01*
X4277857Y-23811571D01*
X4263571Y-23754429D01*
X4263571Y-23683000D01*
X4277857Y-23625857D01*
X4292143Y-23597286D01*
X4306428Y-23583000D01*
X4335000Y-23568714D01*
X4563571Y-23840143D02*
X4577857Y-23854429D01*
X4563571Y-23868714D01*
X4549286Y-23854429D01*
X4563571Y-23840143D01*
X4563571Y-23868714D01*
X4763571Y-23568714D02*
X4792143Y-23568714D01*
X4820714Y-23583000D01*
X4835000Y-23597286D01*
X4849286Y-23625857D01*
X4863571Y-23683000D01*
X4863571Y-23754429D01*
X4849286Y-23811571D01*
X4835000Y-23840143D01*
X4820714Y-23854429D01*
X4792143Y-23868714D01*
X4763571Y-23868714D01*
X4735000Y-23854429D01*
X4720714Y-23840143D01*
X4706428Y-23811571D01*
X4692143Y-23754429D01*
X4692143Y-23683000D01*
X4706428Y-23625857D01*
X4720714Y-23597286D01*
X4735000Y-23583000D01*
X4763571Y-23568714D01*
X5135000Y-23568714D02*
X4992143Y-23568714D01*
X4977857Y-23711571D01*
X4992143Y-23697286D01*
X5020714Y-23683000D01*
X5092143Y-23683000D01*
X5120714Y-23697286D01*
X5135000Y-23711571D01*
X5149286Y-23740143D01*
X5149286Y-23811571D01*
X5135000Y-23840143D01*
X5120714Y-23854429D01*
X5092143Y-23868714D01*
X5020714Y-23868714D01*
X4992143Y-23854429D01*
X4977857Y-23840143D01*
X5435000Y-23868714D02*
X5263571Y-23868714D01*
X5349286Y-23868714D02*
X5349286Y-23568714D01*
X5320714Y-23611571D01*
X5292143Y-23640143D01*
X5263571Y-23654429D01*
X5549286Y-23568714D02*
X5549286Y-23625857D01*
X5663571Y-23568714D02*
X5663571Y-23625857D01*
X6106428Y-23983000D02*
X6092143Y-23968714D01*
X6063571Y-23925857D01*
X6049286Y-23897286D01*
X6035000Y-23854429D01*
X6020714Y-23783000D01*
X6020714Y-23725857D01*
X6035000Y-23654429D01*
X6049286Y-23611571D01*
X6063571Y-23583000D01*
X6092143Y-23540143D01*
X6106428Y-23525857D01*
X6263571Y-23697286D02*
X6235000Y-23683000D01*
X6220714Y-23668714D01*
X6206428Y-23640143D01*
X6206428Y-23625857D01*
X6220714Y-23597286D01*
X6235000Y-23583000D01*
X6263571Y-23568714D01*
X6320714Y-23568714D01*
X6349286Y-23583000D01*
X6363571Y-23597286D01*
X6377857Y-23625857D01*
X6377857Y-23640143D01*
X6363571Y-23668714D01*
X6349286Y-23683000D01*
X6320714Y-23697286D01*
X6263571Y-23697286D01*
X6235000Y-23711571D01*
X6220714Y-23725857D01*
X6206428Y-23754429D01*
X6206428Y-23811571D01*
X6220714Y-23840143D01*
X6235000Y-23854429D01*
X6263571Y-23868714D01*
X6320714Y-23868714D01*
X6349286Y-23854429D01*
X6363571Y-23840143D01*
X6377857Y-23811571D01*
X6377857Y-23754429D01*
X6363571Y-23725857D01*
X6349286Y-23711571D01*
X6320714Y-23697286D01*
X6735000Y-23868714D02*
X6735000Y-23568714D01*
X6863571Y-23868714D02*
X6863571Y-23711571D01*
X6849286Y-23683000D01*
X6820714Y-23668714D01*
X6777857Y-23668714D01*
X6749286Y-23683000D01*
X6735000Y-23697286D01*
X7049286Y-23868714D02*
X7020714Y-23854429D01*
X7006428Y-23840143D01*
X6992143Y-23811571D01*
X6992143Y-23725857D01*
X7006428Y-23697286D01*
X7020714Y-23683000D01*
X7049286Y-23668714D01*
X7092143Y-23668714D01*
X7120714Y-23683000D01*
X7135000Y-23697286D01*
X7149286Y-23725857D01*
X7149286Y-23811571D01*
X7135000Y-23840143D01*
X7120714Y-23854429D01*
X7092143Y-23868714D01*
X7049286Y-23868714D01*
X7320714Y-23868714D02*
X7292143Y-23854429D01*
X7277857Y-23825857D01*
X7277857Y-23568714D01*
X7549286Y-23854429D02*
X7520714Y-23868714D01*
X7463571Y-23868714D01*
X7435000Y-23854429D01*
X7420714Y-23825857D01*
X7420714Y-23711571D01*
X7435000Y-23683000D01*
X7463571Y-23668714D01*
X7520714Y-23668714D01*
X7549286Y-23683000D01*
X7563571Y-23711571D01*
X7563571Y-23740143D01*
X7420714Y-23768714D01*
X7677857Y-23854429D02*
X7706428Y-23868714D01*
X7763571Y-23868714D01*
X7792143Y-23854429D01*
X7806428Y-23825857D01*
X7806428Y-23811571D01*
X7792143Y-23783000D01*
X7763571Y-23768714D01*
X7720714Y-23768714D01*
X7692143Y-23754429D01*
X7677857Y-23725857D01*
X7677857Y-23711571D01*
X7692143Y-23683000D01*
X7720714Y-23668714D01*
X7763571Y-23668714D01*
X7792143Y-23683000D01*
X8163571Y-23754429D02*
X8392143Y-23754429D01*
X8277857Y-23868714D02*
X8277857Y-23640143D01*
X8735000Y-23568714D02*
X8920714Y-23568714D01*
X8820714Y-23683000D01*
X8863571Y-23683000D01*
X8892143Y-23697286D01*
X8906428Y-23711571D01*
X8920714Y-23740143D01*
X8920714Y-23811571D01*
X8906428Y-23840143D01*
X8892143Y-23854429D01*
X8863571Y-23868714D01*
X8777857Y-23868714D01*
X8749286Y-23854429D01*
X8735000Y-23840143D01*
X9263571Y-23854429D02*
X9292143Y-23868714D01*
X9349286Y-23868714D01*
X9377857Y-23854429D01*
X9392143Y-23825857D01*
X9392143Y-23811571D01*
X9377857Y-23783000D01*
X9349286Y-23768714D01*
X9306428Y-23768714D01*
X9277857Y-23754429D01*
X9263571Y-23725857D01*
X9263571Y-23711571D01*
X9277857Y-23683000D01*
X9306428Y-23668714D01*
X9349286Y-23668714D01*
X9377857Y-23683000D01*
X9563571Y-23868714D02*
X9535000Y-23854429D01*
X9520714Y-23825857D01*
X9520714Y-23568714D01*
X9720714Y-23868714D02*
X9692143Y-23854429D01*
X9677857Y-23840143D01*
X9663571Y-23811571D01*
X9663571Y-23725857D01*
X9677857Y-23697286D01*
X9692143Y-23683000D01*
X9720714Y-23668714D01*
X9763571Y-23668714D01*
X9792143Y-23683000D01*
X9806428Y-23697286D01*
X9820714Y-23725857D01*
X9820714Y-23811571D01*
X9806428Y-23840143D01*
X9792143Y-23854429D01*
X9763571Y-23868714D01*
X9720714Y-23868714D01*
X9906428Y-23668714D02*
X10020714Y-23668714D01*
X9949286Y-23568714D02*
X9949286Y-23825857D01*
X9963571Y-23854429D01*
X9992143Y-23868714D01*
X10020714Y-23868714D01*
X10106428Y-23854429D02*
X10135000Y-23868714D01*
X10192143Y-23868714D01*
X10220714Y-23854429D01*
X10235000Y-23825857D01*
X10235000Y-23811571D01*
X10220714Y-23783000D01*
X10192143Y-23768714D01*
X10149286Y-23768714D01*
X10120714Y-23754429D01*
X10106428Y-23725857D01*
X10106428Y-23711571D01*
X10120714Y-23683000D01*
X10149286Y-23668714D01*
X10192143Y-23668714D01*
X10220714Y-23683000D01*
X10335000Y-23983000D02*
X10349286Y-23968714D01*
X10377857Y-23925857D01*
X10392143Y-23897286D01*
X10406428Y-23854429D01*
X10420714Y-23783000D01*
X10420714Y-23725857D01*
X10406428Y-23654429D01*
X10392143Y-23611571D01*
X10377857Y-23583000D01*
X10349286Y-23540143D01*
X10335000Y-23525857D01*
X1195000Y-23904000D02*
X1195000Y-24354000D01*
X970000Y-24129000D02*
X1420000Y-24129000D01*
X1420000Y-24129000D02*
G75*
G03*
X1420000Y-24129000I-225000J0D01*
G01*
X1835000Y-24064714D02*
X1835000Y-24264714D01*
X1763571Y-23950429D02*
X1692143Y-24164714D01*
X1877857Y-24164714D01*
X1992143Y-24236143D02*
X2006428Y-24250429D01*
X1992143Y-24264714D01*
X1977857Y-24250429D01*
X1992143Y-24236143D01*
X1992143Y-24264714D01*
X2277857Y-23964714D02*
X2135000Y-23964714D01*
X2120714Y-24107571D01*
X2135000Y-24093286D01*
X2163571Y-24079000D01*
X2235000Y-24079000D01*
X2263571Y-24093286D01*
X2277857Y-24107571D01*
X2292143Y-24136143D01*
X2292143Y-24207571D01*
X2277857Y-24236143D01*
X2263571Y-24250429D01*
X2235000Y-24264714D01*
X2163571Y-24264714D01*
X2135000Y-24250429D01*
X2120714Y-24236143D01*
X2477857Y-23964714D02*
X2506428Y-23964714D01*
X2535000Y-23979000D01*
X2549286Y-23993286D01*
X2563571Y-24021857D01*
X2577857Y-24079000D01*
X2577857Y-24150429D01*
X2563571Y-24207571D01*
X2549286Y-24236143D01*
X2535000Y-24250429D01*
X2506428Y-24264714D01*
X2477857Y-24264714D01*
X2449286Y-24250429D01*
X2435000Y-24236143D01*
X2420714Y-24207571D01*
X2406428Y-24150429D01*
X2406428Y-24079000D01*
X2420714Y-24021857D01*
X2435000Y-23993286D01*
X2449286Y-23979000D01*
X2477857Y-23964714D01*
X2706428Y-24264714D02*
X2706428Y-24064714D01*
X2706428Y-24093286D02*
X2720714Y-24079000D01*
X2749286Y-24064714D01*
X2792143Y-24064714D01*
X2820714Y-24079000D01*
X2835000Y-24107571D01*
X2835000Y-24264714D01*
X2835000Y-24107571D02*
X2849286Y-24079000D01*
X2877857Y-24064714D01*
X2920714Y-24064714D01*
X2949286Y-24079000D01*
X2963571Y-24107571D01*
X2963571Y-24264714D01*
X3106428Y-24264714D02*
X3106428Y-24064714D01*
X3106428Y-24093286D02*
X3120714Y-24079000D01*
X3149286Y-24064714D01*
X3192143Y-24064714D01*
X3220714Y-24079000D01*
X3235000Y-24107571D01*
X3235000Y-24264714D01*
X3235000Y-24107571D02*
X3249286Y-24079000D01*
X3277857Y-24064714D01*
X3320714Y-24064714D01*
X3349286Y-24079000D01*
X3363571Y-24107571D01*
X3363571Y-24264714D01*
X3949286Y-23950429D02*
X3692143Y-24336143D01*
X4335000Y-23964714D02*
X4363571Y-23964714D01*
X4392143Y-23979000D01*
X4406428Y-23993286D01*
X4420714Y-24021857D01*
X4435000Y-24079000D01*
X4435000Y-24150429D01*
X4420714Y-24207571D01*
X4406428Y-24236143D01*
X4392143Y-24250429D01*
X4363571Y-24264714D01*
X4335000Y-24264714D01*
X4306428Y-24250429D01*
X4292143Y-24236143D01*
X4277857Y-24207571D01*
X4263571Y-24150429D01*
X4263571Y-24079000D01*
X4277857Y-24021857D01*
X4292143Y-23993286D01*
X4306428Y-23979000D01*
X4335000Y-23964714D01*
X4563571Y-24236143D02*
X4577857Y-24250429D01*
X4563571Y-24264714D01*
X4549286Y-24250429D01*
X4563571Y-24236143D01*
X4563571Y-24264714D01*
X4863571Y-24264714D02*
X4692143Y-24264714D01*
X4777857Y-24264714D02*
X4777857Y-23964714D01*
X4749286Y-24007571D01*
X4720714Y-24036143D01*
X4692143Y-24050429D01*
X4963571Y-23964714D02*
X5163571Y-23964714D01*
X5035000Y-24264714D01*
X5249286Y-23964714D02*
X5449286Y-23964714D01*
X5320714Y-24264714D01*
X5549286Y-23964714D02*
X5549286Y-24021857D01*
X5663571Y-23964714D02*
X5663571Y-24021857D01*
X6106428Y-24379000D02*
X6092143Y-24364714D01*
X6063571Y-24321857D01*
X6049286Y-24293286D01*
X6035000Y-24250429D01*
X6020714Y-24179000D01*
X6020714Y-24121857D01*
X6035000Y-24050429D01*
X6049286Y-24007571D01*
X6063571Y-23979000D01*
X6092143Y-23936143D01*
X6106428Y-23921857D01*
X6206428Y-23993286D02*
X6220714Y-23979000D01*
X6249286Y-23964714D01*
X6320714Y-23964714D01*
X6349286Y-23979000D01*
X6363571Y-23993286D01*
X6377857Y-24021857D01*
X6377857Y-24050429D01*
X6363571Y-24093286D01*
X6192143Y-24264714D01*
X6377857Y-24264714D01*
X6735000Y-24264714D02*
X6735000Y-23964714D01*
X6863571Y-24264714D02*
X6863571Y-24107571D01*
X6849286Y-24079000D01*
X6820714Y-24064714D01*
X6777857Y-24064714D01*
X6749286Y-24079000D01*
X6735000Y-24093286D01*
X7049286Y-24264714D02*
X7020714Y-24250429D01*
X7006428Y-24236143D01*
X6992143Y-24207571D01*
X6992143Y-24121857D01*
X7006428Y-24093286D01*
X7020714Y-24079000D01*
X7049286Y-24064714D01*
X7092143Y-24064714D01*
X7120714Y-24079000D01*
X7135000Y-24093286D01*
X7149286Y-24121857D01*
X7149286Y-24207571D01*
X7135000Y-24236143D01*
X7120714Y-24250429D01*
X7092143Y-24264714D01*
X7049286Y-24264714D01*
X7320714Y-24264714D02*
X7292143Y-24250429D01*
X7277857Y-24221857D01*
X7277857Y-23964714D01*
X7549286Y-24250429D02*
X7520714Y-24264714D01*
X7463571Y-24264714D01*
X7435000Y-24250429D01*
X7420714Y-24221857D01*
X7420714Y-24107571D01*
X7435000Y-24079000D01*
X7463571Y-24064714D01*
X7520714Y-24064714D01*
X7549286Y-24079000D01*
X7563571Y-24107571D01*
X7563571Y-24136143D01*
X7420714Y-24164714D01*
X7677857Y-24250429D02*
X7706428Y-24264714D01*
X7763571Y-24264714D01*
X7792143Y-24250429D01*
X7806428Y-24221857D01*
X7806428Y-24207571D01*
X7792143Y-24179000D01*
X7763571Y-24164714D01*
X7720714Y-24164714D01*
X7692143Y-24150429D01*
X7677857Y-24121857D01*
X7677857Y-24107571D01*
X7692143Y-24079000D01*
X7720714Y-24064714D01*
X7763571Y-24064714D01*
X7792143Y-24079000D01*
X7906428Y-24379000D02*
X7920714Y-24364714D01*
X7949286Y-24321857D01*
X7963571Y-24293286D01*
X7977857Y-24250429D01*
X7992143Y-24179000D01*
X7992143Y-24121857D01*
X7977857Y-24050429D01*
X7963571Y-24007571D01*
X7949286Y-23979000D01*
X7920714Y-23936143D01*
X7906428Y-23921857D01*
M02*
