%FSLAX45Y45*%
G04 Gerber Fmt 4.5, Leading zero omitted, Abs format (unit mm)*
G04 Created by KiCad (PCBNEW (5.1.9)-1) date 2022-03-30 20:27:59*
%MOMM*%
%LPD*%
G01*
G04 APERTURE LIST*
%TA.AperFunction,Profile*%
%ADD10C,0.100000*%
%TD*%
%ADD11C,0.200000*%
%ADD12C,0.300000*%
G04 APERTURE END LIST*
D10*
X16425000Y-5600000D02*
X16425000Y-19600000D01*
X1425000Y-5600000D02*
X16425000Y-5600000D01*
X1425000Y-19600000D02*
X1425000Y-5600000D01*
X16425000Y-19600000D02*
X1425000Y-19600000D01*
D11*
X3215000Y-16025000D02*
X3645000Y-16455000D01*
X3645000Y-16025000D02*
X3215000Y-16455000D01*
X4665000Y-6335000D02*
X5095000Y-6765000D01*
X5095000Y-6335000D02*
X4665000Y-6765000D01*
X12675000Y-6335000D02*
X13105000Y-6765000D01*
X13105000Y-6335000D02*
X12675000Y-6765000D01*
X14985000Y-16445000D02*
X15415000Y-16875000D01*
X15415000Y-16445000D02*
X14985000Y-16875000D01*
D12*
X1706428Y-20070714D02*
X1706428Y-19770714D01*
X1777857Y-19770714D01*
X1820714Y-19785000D01*
X1849286Y-19813572D01*
X1863571Y-19842143D01*
X1877857Y-19899286D01*
X1877857Y-19942143D01*
X1863571Y-19999286D01*
X1849286Y-20027857D01*
X1820714Y-20056429D01*
X1777857Y-20070714D01*
X1706428Y-20070714D01*
X2006428Y-20070714D02*
X2006428Y-19870714D01*
X2006428Y-19927857D02*
X2020714Y-19899286D01*
X2035000Y-19885000D01*
X2063571Y-19870714D01*
X2092143Y-19870714D01*
X2192143Y-20070714D02*
X2192143Y-19870714D01*
X2192143Y-19770714D02*
X2177857Y-19785000D01*
X2192143Y-19799286D01*
X2206428Y-19785000D01*
X2192143Y-19770714D01*
X2192143Y-19799286D01*
X2377857Y-20070714D02*
X2349286Y-20056429D01*
X2335000Y-20027857D01*
X2335000Y-19770714D01*
X2535000Y-20070714D02*
X2506428Y-20056429D01*
X2492143Y-20027857D01*
X2492143Y-19770714D01*
X2877857Y-20070714D02*
X2877857Y-19770714D01*
X2977857Y-19985000D01*
X3077857Y-19770714D01*
X3077857Y-20070714D01*
X3349286Y-20070714D02*
X3349286Y-19913572D01*
X3335000Y-19885000D01*
X3306428Y-19870714D01*
X3249286Y-19870714D01*
X3220714Y-19885000D01*
X3349286Y-20056429D02*
X3320714Y-20070714D01*
X3249286Y-20070714D01*
X3220714Y-20056429D01*
X3206428Y-20027857D01*
X3206428Y-19999286D01*
X3220714Y-19970714D01*
X3249286Y-19956429D01*
X3320714Y-19956429D01*
X3349286Y-19942143D01*
X3492143Y-19870714D02*
X3492143Y-20170714D01*
X3492143Y-19885000D02*
X3520714Y-19870714D01*
X3577857Y-19870714D01*
X3606428Y-19885000D01*
X3620714Y-19899286D01*
X3635000Y-19927857D01*
X3635000Y-20013572D01*
X3620714Y-20042143D01*
X3606428Y-20056429D01*
X3577857Y-20070714D01*
X3520714Y-20070714D01*
X3492143Y-20056429D01*
X3763571Y-20042143D02*
X3777857Y-20056429D01*
X3763571Y-20070714D01*
X3749286Y-20056429D01*
X3763571Y-20042143D01*
X3763571Y-20070714D01*
X3763571Y-19885000D02*
X3777857Y-19899286D01*
X3763571Y-19913572D01*
X3749286Y-19899286D01*
X3763571Y-19885000D01*
X3763571Y-19913572D01*
X990000Y-20350000D02*
X1420000Y-20780000D01*
X1420000Y-20350000D02*
X990000Y-20780000D01*
X1835000Y-20500714D02*
X1835000Y-20700714D01*
X1763571Y-20386429D02*
X1692143Y-20600714D01*
X1877857Y-20600714D01*
X1992143Y-20672143D02*
X2006428Y-20686429D01*
X1992143Y-20700714D01*
X1977857Y-20686429D01*
X1992143Y-20672143D01*
X1992143Y-20700714D01*
X2106428Y-20400714D02*
X2292143Y-20400714D01*
X2192143Y-20515000D01*
X2235000Y-20515000D01*
X2263571Y-20529286D01*
X2277857Y-20543572D01*
X2292143Y-20572143D01*
X2292143Y-20643572D01*
X2277857Y-20672143D01*
X2263571Y-20686429D01*
X2235000Y-20700714D01*
X2149286Y-20700714D01*
X2120714Y-20686429D01*
X2106428Y-20672143D01*
X2477857Y-20400714D02*
X2506428Y-20400714D01*
X2535000Y-20415000D01*
X2549286Y-20429286D01*
X2563571Y-20457857D01*
X2577857Y-20515000D01*
X2577857Y-20586429D01*
X2563571Y-20643572D01*
X2549286Y-20672143D01*
X2535000Y-20686429D01*
X2506428Y-20700714D01*
X2477857Y-20700714D01*
X2449286Y-20686429D01*
X2435000Y-20672143D01*
X2420714Y-20643572D01*
X2406428Y-20586429D01*
X2406428Y-20515000D01*
X2420714Y-20457857D01*
X2435000Y-20429286D01*
X2449286Y-20415000D01*
X2477857Y-20400714D01*
X2706428Y-20700714D02*
X2706428Y-20500714D01*
X2706428Y-20529286D02*
X2720714Y-20515000D01*
X2749286Y-20500714D01*
X2792143Y-20500714D01*
X2820714Y-20515000D01*
X2835000Y-20543572D01*
X2835000Y-20700714D01*
X2835000Y-20543572D02*
X2849286Y-20515000D01*
X2877857Y-20500714D01*
X2920714Y-20500714D01*
X2949286Y-20515000D01*
X2963571Y-20543572D01*
X2963571Y-20700714D01*
X3106428Y-20700714D02*
X3106428Y-20500714D01*
X3106428Y-20529286D02*
X3120714Y-20515000D01*
X3149286Y-20500714D01*
X3192143Y-20500714D01*
X3220714Y-20515000D01*
X3235000Y-20543572D01*
X3235000Y-20700714D01*
X3235000Y-20543572D02*
X3249286Y-20515000D01*
X3277857Y-20500714D01*
X3320714Y-20500714D01*
X3349286Y-20515000D01*
X3363571Y-20543572D01*
X3363571Y-20700714D01*
X3949286Y-20386429D02*
X3692143Y-20772143D01*
X4335000Y-20400714D02*
X4363571Y-20400714D01*
X4392143Y-20415000D01*
X4406428Y-20429286D01*
X4420714Y-20457857D01*
X4435000Y-20515000D01*
X4435000Y-20586429D01*
X4420714Y-20643572D01*
X4406428Y-20672143D01*
X4392143Y-20686429D01*
X4363571Y-20700714D01*
X4335000Y-20700714D01*
X4306428Y-20686429D01*
X4292143Y-20672143D01*
X4277857Y-20643572D01*
X4263571Y-20586429D01*
X4263571Y-20515000D01*
X4277857Y-20457857D01*
X4292143Y-20429286D01*
X4306428Y-20415000D01*
X4335000Y-20400714D01*
X4563571Y-20672143D02*
X4577857Y-20686429D01*
X4563571Y-20700714D01*
X4549286Y-20686429D01*
X4563571Y-20672143D01*
X4563571Y-20700714D01*
X4863571Y-20700714D02*
X4692143Y-20700714D01*
X4777857Y-20700714D02*
X4777857Y-20400714D01*
X4749286Y-20443572D01*
X4720714Y-20472143D01*
X4692143Y-20486429D01*
X5120714Y-20400714D02*
X5063571Y-20400714D01*
X5035000Y-20415000D01*
X5020714Y-20429286D01*
X4992143Y-20472143D01*
X4977857Y-20529286D01*
X4977857Y-20643572D01*
X4992143Y-20672143D01*
X5006428Y-20686429D01*
X5035000Y-20700714D01*
X5092143Y-20700714D01*
X5120714Y-20686429D01*
X5135000Y-20672143D01*
X5149286Y-20643572D01*
X5149286Y-20572143D01*
X5135000Y-20543572D01*
X5120714Y-20529286D01*
X5092143Y-20515000D01*
X5035000Y-20515000D01*
X5006428Y-20529286D01*
X4992143Y-20543572D01*
X4977857Y-20572143D01*
X5292143Y-20700714D02*
X5349286Y-20700714D01*
X5377857Y-20686429D01*
X5392143Y-20672143D01*
X5420714Y-20629286D01*
X5435000Y-20572143D01*
X5435000Y-20457857D01*
X5420714Y-20429286D01*
X5406428Y-20415000D01*
X5377857Y-20400714D01*
X5320714Y-20400714D01*
X5292143Y-20415000D01*
X5277857Y-20429286D01*
X5263571Y-20457857D01*
X5263571Y-20529286D01*
X5277857Y-20557857D01*
X5292143Y-20572143D01*
X5320714Y-20586429D01*
X5377857Y-20586429D01*
X5406428Y-20572143D01*
X5420714Y-20557857D01*
X5435000Y-20529286D01*
X5549286Y-20400714D02*
X5549286Y-20457857D01*
X5663571Y-20400714D02*
X5663571Y-20457857D01*
X6106428Y-20815000D02*
X6092143Y-20800714D01*
X6063571Y-20757857D01*
X6049286Y-20729286D01*
X6035000Y-20686429D01*
X6020714Y-20615000D01*
X6020714Y-20557857D01*
X6035000Y-20486429D01*
X6049286Y-20443572D01*
X6063571Y-20415000D01*
X6092143Y-20372143D01*
X6106428Y-20357857D01*
X6349286Y-20500714D02*
X6349286Y-20700714D01*
X6277857Y-20386429D02*
X6206428Y-20600714D01*
X6392143Y-20600714D01*
X6735000Y-20700714D02*
X6735000Y-20400714D01*
X6863571Y-20700714D02*
X6863571Y-20543572D01*
X6849286Y-20515000D01*
X6820714Y-20500714D01*
X6777857Y-20500714D01*
X6749286Y-20515000D01*
X6735000Y-20529286D01*
X7049286Y-20700714D02*
X7020714Y-20686429D01*
X7006428Y-20672143D01*
X6992143Y-20643572D01*
X6992143Y-20557857D01*
X7006428Y-20529286D01*
X7020714Y-20515000D01*
X7049286Y-20500714D01*
X7092143Y-20500714D01*
X7120714Y-20515000D01*
X7135000Y-20529286D01*
X7149286Y-20557857D01*
X7149286Y-20643572D01*
X7135000Y-20672143D01*
X7120714Y-20686429D01*
X7092143Y-20700714D01*
X7049286Y-20700714D01*
X7320714Y-20700714D02*
X7292143Y-20686429D01*
X7277857Y-20657857D01*
X7277857Y-20400714D01*
X7549286Y-20686429D02*
X7520714Y-20700714D01*
X7463571Y-20700714D01*
X7435000Y-20686429D01*
X7420714Y-20657857D01*
X7420714Y-20543572D01*
X7435000Y-20515000D01*
X7463571Y-20500714D01*
X7520714Y-20500714D01*
X7549286Y-20515000D01*
X7563571Y-20543572D01*
X7563571Y-20572143D01*
X7420714Y-20600714D01*
X7677857Y-20686429D02*
X7706428Y-20700714D01*
X7763571Y-20700714D01*
X7792143Y-20686429D01*
X7806428Y-20657857D01*
X7806428Y-20643572D01*
X7792143Y-20615000D01*
X7763571Y-20600714D01*
X7720714Y-20600714D01*
X7692143Y-20586429D01*
X7677857Y-20557857D01*
X7677857Y-20543572D01*
X7692143Y-20515000D01*
X7720714Y-20500714D01*
X7763571Y-20500714D01*
X7792143Y-20515000D01*
X7906428Y-20815000D02*
X7920714Y-20800714D01*
X7949286Y-20757857D01*
X7963571Y-20729286D01*
X7977857Y-20686429D01*
X7992143Y-20615000D01*
X7992143Y-20557857D01*
X7977857Y-20486429D01*
X7963571Y-20443572D01*
X7949286Y-20415000D01*
X7920714Y-20372143D01*
X7906428Y-20357857D01*
X8449286Y-20815000D02*
X8435000Y-20800714D01*
X8406428Y-20757857D01*
X8392143Y-20729286D01*
X8377857Y-20686429D01*
X8363571Y-20615000D01*
X8363571Y-20557857D01*
X8377857Y-20486429D01*
X8392143Y-20443572D01*
X8406428Y-20415000D01*
X8435000Y-20372143D01*
X8449286Y-20357857D01*
X8563571Y-20500714D02*
X8563571Y-20700714D01*
X8563571Y-20529286D02*
X8577857Y-20515000D01*
X8606428Y-20500714D01*
X8649286Y-20500714D01*
X8677857Y-20515000D01*
X8692143Y-20543572D01*
X8692143Y-20700714D01*
X8877857Y-20700714D02*
X8849286Y-20686429D01*
X8835000Y-20672143D01*
X8820714Y-20643572D01*
X8820714Y-20557857D01*
X8835000Y-20529286D01*
X8849286Y-20515000D01*
X8877857Y-20500714D01*
X8920714Y-20500714D01*
X8949286Y-20515000D01*
X8963571Y-20529286D01*
X8977857Y-20557857D01*
X8977857Y-20643572D01*
X8963571Y-20672143D01*
X8949286Y-20686429D01*
X8920714Y-20700714D01*
X8877857Y-20700714D01*
X9063571Y-20500714D02*
X9177857Y-20500714D01*
X9106428Y-20400714D02*
X9106428Y-20657857D01*
X9120714Y-20686429D01*
X9149286Y-20700714D01*
X9177857Y-20700714D01*
X9506428Y-20500714D02*
X9506428Y-20800714D01*
X9506428Y-20515000D02*
X9535000Y-20500714D01*
X9592143Y-20500714D01*
X9620714Y-20515000D01*
X9635000Y-20529286D01*
X9649286Y-20557857D01*
X9649286Y-20643572D01*
X9635000Y-20672143D01*
X9620714Y-20686429D01*
X9592143Y-20700714D01*
X9535000Y-20700714D01*
X9506428Y-20686429D01*
X9820714Y-20700714D02*
X9792143Y-20686429D01*
X9777857Y-20657857D01*
X9777857Y-20400714D01*
X10063571Y-20700714D02*
X10063571Y-20543572D01*
X10049286Y-20515000D01*
X10020714Y-20500714D01*
X9963571Y-20500714D01*
X9935000Y-20515000D01*
X10063571Y-20686429D02*
X10035000Y-20700714D01*
X9963571Y-20700714D01*
X9935000Y-20686429D01*
X9920714Y-20657857D01*
X9920714Y-20629286D01*
X9935000Y-20600714D01*
X9963571Y-20586429D01*
X10035000Y-20586429D01*
X10063571Y-20572143D01*
X10163571Y-20500714D02*
X10277857Y-20500714D01*
X10206428Y-20400714D02*
X10206428Y-20657857D01*
X10220714Y-20686429D01*
X10249286Y-20700714D01*
X10277857Y-20700714D01*
X10492143Y-20686429D02*
X10463571Y-20700714D01*
X10406428Y-20700714D01*
X10377857Y-20686429D01*
X10363571Y-20657857D01*
X10363571Y-20543572D01*
X10377857Y-20515000D01*
X10406428Y-20500714D01*
X10463571Y-20500714D01*
X10492143Y-20515000D01*
X10506428Y-20543572D01*
X10506428Y-20572143D01*
X10363571Y-20600714D01*
X10763571Y-20700714D02*
X10763571Y-20400714D01*
X10763571Y-20686429D02*
X10735000Y-20700714D01*
X10677857Y-20700714D01*
X10649286Y-20686429D01*
X10635000Y-20672143D01*
X10620714Y-20643572D01*
X10620714Y-20557857D01*
X10635000Y-20529286D01*
X10649286Y-20515000D01*
X10677857Y-20500714D01*
X10735000Y-20500714D01*
X10763571Y-20515000D01*
X10877857Y-20815000D02*
X10892143Y-20800714D01*
X10920714Y-20757857D01*
X10935000Y-20729286D01*
X10949286Y-20686429D01*
X10963571Y-20615000D01*
X10963571Y-20557857D01*
X10949286Y-20486429D01*
X10935000Y-20443572D01*
X10920714Y-20415000D01*
X10892143Y-20372143D01*
X10877857Y-20357857D01*
M02*
