G04 #@! TF.GenerationSoftware,KiCad,Pcbnew,(5.1.9)-1*
G04 #@! TF.CreationDate,2022-03-30T20:26:24+02:00*
G04 #@! TF.ProjectId,robot_mobilny_pcb,726f626f-745f-46d6-9f62-696c6e795f70,rev?*
G04 #@! TF.SameCoordinates,Original*
G04 #@! TF.FileFunction,Other,User*
%FSLAX46Y46*%
G04 Gerber Fmt 4.6, Leading zero omitted, Abs format (unit mm)*
G04 Created by KiCad (PCBNEW (5.1.9)-1) date 2022-03-30 20:26:24*
%MOMM*%
%LPD*%
G01*
G04 APERTURE LIST*
%ADD10C,0.050000*%
%ADD11C,0.120000*%
G04 APERTURE END LIST*
D10*
X61800000Y-183050000D02*
X61800000Y-161050000D01*
X49800000Y-183050000D02*
X61800000Y-183050000D01*
X49800000Y-161050000D02*
X49800000Y-183050000D01*
X49800000Y-161050000D02*
X61800000Y-161050000D01*
X139500000Y-98150000D02*
X139500000Y-71650000D01*
X151000000Y-98150000D02*
X139500000Y-98150000D01*
X151000000Y-71650000D02*
X151000000Y-98150000D01*
X139500000Y-71650000D02*
X151000000Y-71650000D01*
X80050000Y-82450000D02*
X83550000Y-82450000D01*
X80050000Y-82450000D02*
X80050000Y-85950000D01*
X83550000Y-85950000D02*
X83550000Y-82450000D01*
X83550000Y-85950000D02*
X80050000Y-85950000D01*
X35450000Y-176350000D02*
X38950000Y-176350000D01*
X35450000Y-176350000D02*
X35450000Y-179850000D01*
X38950000Y-179850000D02*
X38950000Y-176350000D01*
X38950000Y-179850000D02*
X35450000Y-179850000D01*
X41950000Y-176350000D02*
X45450000Y-176350000D01*
X41950000Y-176350000D02*
X41950000Y-179850000D01*
X45450000Y-179850000D02*
X45450000Y-176350000D01*
X45450000Y-179850000D02*
X41950000Y-179850000D01*
X70750000Y-67250000D02*
X74550000Y-67250000D01*
X74550000Y-67250000D02*
X75200000Y-66600000D01*
X75200000Y-66600000D02*
X75200000Y-65600000D01*
X75200000Y-65600000D02*
X74550000Y-64950000D01*
X74550000Y-64950000D02*
X70750000Y-64950000D01*
X70750000Y-64950000D02*
X70100000Y-65600000D01*
X70100000Y-65600000D02*
X70100000Y-66600000D01*
X70100000Y-66600000D02*
X70750000Y-67250000D01*
X108537686Y-74792102D02*
X100618090Y-66872506D01*
X100618090Y-66872506D02*
X98072506Y-69418090D01*
X98072506Y-69418090D02*
X105992102Y-77337686D01*
X105992102Y-77337686D02*
X108537686Y-74792102D01*
X21490000Y-155300000D02*
X21490000Y-152510000D01*
X21490000Y-152510000D02*
X18950000Y-149970000D01*
X18950000Y-149970000D02*
X18950000Y-117200000D01*
X18950000Y-117200000D02*
X21490000Y-114660000D01*
X21490000Y-114660000D02*
X21490000Y-103230000D01*
X21490000Y-103230000D02*
X23260000Y-101460000D01*
X23260000Y-101460000D02*
X88030000Y-101460000D01*
X88030000Y-101460000D02*
X88030000Y-110980000D01*
X88030000Y-110980000D02*
X94380000Y-110980000D01*
X94380000Y-110980000D02*
X94380000Y-122920000D01*
X94380000Y-122920000D02*
X88030000Y-122920000D01*
X88030000Y-122920000D02*
X88030000Y-142730000D01*
X88030000Y-142730000D02*
X89940000Y-142730000D01*
X89940000Y-142730000D02*
X89940000Y-152130000D01*
X89940000Y-152130000D02*
X88030000Y-152130000D01*
X88030000Y-152130000D02*
X88030000Y-155300000D01*
X88030000Y-155300000D02*
X21490000Y-155300000D01*
X90260000Y-101460000D02*
X156800000Y-101460000D01*
X90260000Y-104630000D02*
X90260000Y-101460000D01*
X88350000Y-104630000D02*
X90260000Y-104630000D01*
X88350000Y-114030000D02*
X88350000Y-104630000D01*
X90260000Y-114030000D02*
X88350000Y-114030000D01*
X90260000Y-133840000D02*
X90260000Y-114030000D01*
X83910000Y-133840000D02*
X90260000Y-133840000D01*
X83910000Y-145780000D02*
X83910000Y-133840000D01*
X90260000Y-145780000D02*
X83910000Y-145780000D01*
X90260000Y-155300000D02*
X90260000Y-145780000D01*
X155030000Y-155300000D02*
X90260000Y-155300000D01*
X156800000Y-153530000D02*
X155030000Y-155300000D01*
X156800000Y-142100000D02*
X156800000Y-153530000D01*
X159340000Y-139560000D02*
X156800000Y-142100000D01*
X159340000Y-106790000D02*
X159340000Y-139560000D01*
X156800000Y-104250000D02*
X159340000Y-106790000D01*
X156800000Y-101460000D02*
X156800000Y-104250000D01*
X89050000Y-122950000D02*
X84900000Y-122950000D01*
X84900000Y-122950000D02*
X84900000Y-124400000D01*
X84900000Y-124400000D02*
X83800000Y-124400000D01*
X83800000Y-124400000D02*
X83800000Y-125500000D01*
X83800000Y-125500000D02*
X82350000Y-125500000D01*
X82350000Y-125500000D02*
X82350000Y-129650000D01*
X89050000Y-122950000D02*
X93200000Y-122950000D01*
X93200000Y-122950000D02*
X93200000Y-124400000D01*
X93200000Y-124400000D02*
X94300000Y-124400000D01*
X94300000Y-124400000D02*
X94300000Y-125500000D01*
X94300000Y-125500000D02*
X95750000Y-125500000D01*
X95750000Y-125500000D02*
X95750000Y-129650000D01*
X89050000Y-136350000D02*
X84900000Y-136350000D01*
X84900000Y-136350000D02*
X84900000Y-134900000D01*
X84900000Y-134900000D02*
X83800000Y-134900000D01*
X83800000Y-134900000D02*
X83800000Y-133800000D01*
X83800000Y-133800000D02*
X82350000Y-133800000D01*
X82350000Y-133800000D02*
X82350000Y-129650000D01*
X89050000Y-136350000D02*
X93200000Y-136350000D01*
X93200000Y-136350000D02*
X93200000Y-134900000D01*
X93200000Y-134900000D02*
X94300000Y-134900000D01*
X94300000Y-134900000D02*
X94300000Y-133800000D01*
X94300000Y-133800000D02*
X95750000Y-133800000D01*
X95750000Y-133800000D02*
X95750000Y-129650000D01*
X156550000Y-166600000D02*
G75*
G03*
X156550000Y-166600000I-4550000J0D01*
G01*
X38850000Y-162400000D02*
G75*
G03*
X38850000Y-162400000I-4550000J0D01*
G01*
X133450000Y-65500000D02*
G75*
G03*
X133450000Y-65500000I-4550000J0D01*
G01*
X53350000Y-65500000D02*
G75*
G03*
X53350000Y-65500000I-4550000J0D01*
G01*
X56200000Y-183090000D02*
X35200000Y-183090000D01*
X56200000Y-193900000D02*
X56200000Y-183090000D01*
X35200000Y-193900000D02*
X56200000Y-193900000D01*
X35200000Y-183090000D02*
X35200000Y-193900000D01*
X56400000Y-183090000D02*
X56400000Y-193900000D01*
X56400000Y-193900000D02*
X77400000Y-193900000D01*
X77400000Y-193900000D02*
X77400000Y-183090000D01*
X77400000Y-183090000D02*
X56400000Y-183090000D01*
X53850000Y-175600000D02*
X50300000Y-175600000D01*
X50300000Y-175600000D02*
X50300000Y-161900000D01*
X50300000Y-161900000D02*
X53850000Y-161900000D01*
X53850000Y-161900000D02*
X53850000Y-175600000D01*
D11*
X78000000Y-162000000D02*
X94000000Y-162000000D01*
X78000000Y-184000000D02*
X94000000Y-184000000D01*
X94000000Y-162000000D02*
X94000000Y-184000000D01*
X78000000Y-162000000D02*
X78000000Y-184000000D01*
D10*
X96600000Y-188200000D02*
X85400000Y-188200000D01*
X85400000Y-188200000D02*
X85400000Y-191800000D01*
X85400000Y-191800000D02*
X96600000Y-191800000D01*
X96600000Y-191800000D02*
X96600000Y-188200000D01*
X45050000Y-172010000D02*
X48050000Y-172010000D01*
X48050000Y-172010000D02*
X48050000Y-159750000D01*
X48050000Y-159750000D02*
X45050000Y-159750000D01*
X45050000Y-159750000D02*
X45050000Y-172010000D01*
X45050000Y-159750000D02*
X42050000Y-159750000D01*
X42050000Y-159750000D02*
X42050000Y-172010000D01*
X42050000Y-172010000D02*
X45050000Y-172010000D01*
X45050000Y-172010000D02*
X45050000Y-159750000D01*
X99950000Y-138500000D02*
X94450000Y-138500000D01*
X99950000Y-141500000D02*
X99950000Y-138500000D01*
X94450000Y-141500000D02*
X99950000Y-141500000D01*
X94450000Y-138500000D02*
X94450000Y-141500000D01*
X69050000Y-175300000D02*
X75500000Y-175300000D01*
X69050000Y-168800000D02*
X69050000Y-175300000D01*
X75500000Y-168800000D02*
X69050000Y-168800000D01*
X75500000Y-175300000D02*
X75500000Y-168800000D01*
X62550000Y-175300000D02*
X69000000Y-175300000D01*
X62550000Y-168800000D02*
X62550000Y-175300000D01*
X69000000Y-168800000D02*
X62550000Y-168800000D01*
X69000000Y-175300000D02*
X69000000Y-168800000D01*
X62840000Y-181550000D02*
X75100000Y-181550000D01*
X62840000Y-178550000D02*
X62840000Y-181550000D01*
X75100000Y-178550000D02*
X62840000Y-178550000D01*
X75100000Y-181550000D02*
X75100000Y-178550000D01*
X62840000Y-178550000D02*
X75100000Y-178550000D01*
X62840000Y-175550000D02*
X62840000Y-178550000D01*
X75100000Y-175550000D02*
X62840000Y-175550000D01*
X75100000Y-178550000D02*
X75100000Y-175550000D01*
X145750000Y-182360000D02*
X145750000Y-170100000D01*
X142750000Y-182360000D02*
X145750000Y-182360000D01*
X142750000Y-170100000D02*
X142750000Y-182360000D01*
X145750000Y-170100000D02*
X142750000Y-170100000D01*
X136000000Y-182360000D02*
X136000000Y-170100000D01*
X133000000Y-182360000D02*
X136000000Y-182360000D01*
X133000000Y-170100000D02*
X133000000Y-182360000D01*
X136000000Y-170100000D02*
X133000000Y-170100000D01*
X145810000Y-155950000D02*
X133550000Y-155950000D01*
X145810000Y-158950000D02*
X145810000Y-155950000D01*
X133550000Y-158950000D02*
X145810000Y-158950000D01*
X133550000Y-155950000D02*
X133550000Y-158950000D01*
X145810000Y-158950000D02*
X133550000Y-158950000D01*
X145810000Y-161950000D02*
X145810000Y-158950000D01*
X133550000Y-161950000D02*
X145810000Y-161950000D01*
X133550000Y-158950000D02*
X133550000Y-161950000D01*
X119140000Y-158950000D02*
X131400000Y-158950000D01*
X119140000Y-155950000D02*
X119140000Y-158950000D01*
X131400000Y-155950000D02*
X119140000Y-155950000D01*
X131400000Y-158950000D02*
X131400000Y-155950000D01*
X126250000Y-182250000D02*
X126250000Y-169990000D01*
X123250000Y-182250000D02*
X126250000Y-182250000D01*
X123250000Y-169990000D02*
X123250000Y-182250000D01*
X126250000Y-169990000D02*
X123250000Y-169990000D01*
X104350000Y-169100000D02*
X104350000Y-172100000D01*
X104350000Y-172100000D02*
X116610000Y-172100000D01*
X116610000Y-172100000D02*
X116610000Y-169100000D01*
X116610000Y-169100000D02*
X104350000Y-169100000D01*
X119140000Y-161950000D02*
X131400000Y-161950000D01*
X119140000Y-158950000D02*
X119140000Y-161950000D01*
X131400000Y-158950000D02*
X119140000Y-158950000D01*
X131400000Y-161950000D02*
X131400000Y-158950000D01*
X117500000Y-97850000D02*
X117500000Y-100850000D01*
X117500000Y-100850000D02*
X129760000Y-100850000D01*
X129760000Y-100850000D02*
X129760000Y-97850000D01*
X129760000Y-97850000D02*
X117500000Y-97850000D01*
X57240000Y-82600000D02*
X69500000Y-82600000D01*
X57240000Y-79600000D02*
X57240000Y-82600000D01*
X69500000Y-79600000D02*
X57240000Y-79600000D01*
X69500000Y-82600000D02*
X69500000Y-79600000D01*
X57240000Y-85850000D02*
X69500000Y-85850000D01*
X57240000Y-82850000D02*
X57240000Y-85850000D01*
X69500000Y-82850000D02*
X57240000Y-82850000D01*
X69500000Y-85850000D02*
X69500000Y-82850000D01*
X112800000Y-186310000D02*
X112800000Y-174050000D01*
X109800000Y-186310000D02*
X112800000Y-186310000D01*
X109800000Y-174050000D02*
X109800000Y-186310000D01*
X112800000Y-174050000D02*
X109800000Y-174050000D01*
X39050000Y-159750000D02*
X39050000Y-172010000D01*
X42050000Y-159750000D02*
X39050000Y-159750000D01*
X42050000Y-172010000D02*
X42050000Y-159750000D01*
X39050000Y-172010000D02*
X42050000Y-172010000D01*
X147200000Y-160000000D02*
X155850000Y-160000000D01*
X155850000Y-160000000D02*
X155850000Y-156400000D01*
X155850000Y-156400000D02*
X147200000Y-156400000D01*
X147200000Y-156400000D02*
X147200000Y-160000000D01*
X113050000Y-93800000D02*
X113050000Y-85150000D01*
X113050000Y-85150000D02*
X109450000Y-85150000D01*
X109450000Y-85150000D02*
X109450000Y-93800000D01*
X109450000Y-93800000D02*
X113050000Y-93800000D01*
X119250000Y-90150000D02*
X127900000Y-90150000D01*
X127900000Y-90150000D02*
X127900000Y-86550000D01*
X127900000Y-86550000D02*
X119250000Y-86550000D01*
X119250000Y-86550000D02*
X119250000Y-90150000D01*
X119250000Y-93900000D02*
X127900000Y-93900000D01*
X127900000Y-93900000D02*
X127900000Y-90300000D01*
X127900000Y-90300000D02*
X119250000Y-90300000D01*
X119250000Y-90300000D02*
X119250000Y-93900000D01*
X26000000Y-158600000D02*
X22400000Y-158600000D01*
X26000000Y-169800000D02*
X26000000Y-158600000D01*
X22400000Y-169800000D02*
X26000000Y-169800000D01*
X22400000Y-158600000D02*
X22400000Y-169800000D01*
X140200000Y-97000000D02*
X140200000Y-73100000D01*
X143750000Y-97000000D02*
X140200000Y-97000000D01*
X143750000Y-73100000D02*
X143750000Y-97000000D01*
X140200000Y-73100000D02*
X143750000Y-73100000D01*
X119210000Y-97650000D02*
X127860000Y-97650000D01*
X127860000Y-97650000D02*
X127860000Y-94050000D01*
X127860000Y-94050000D02*
X119210000Y-94050000D01*
X119210000Y-94050000D02*
X119210000Y-97650000D01*
X69500000Y-79400000D02*
X69500000Y-75800000D01*
X60850000Y-79400000D02*
X69500000Y-79400000D01*
X60850000Y-75800000D02*
X60850000Y-79400000D01*
X69500000Y-75800000D02*
X60850000Y-75800000D01*
X142500000Y-182400000D02*
X142500000Y-176900000D01*
X139500000Y-182400000D02*
X142500000Y-182400000D01*
X139500000Y-176900000D02*
X139500000Y-182400000D01*
X142500000Y-176900000D02*
X139500000Y-176900000D01*
X132750000Y-182400000D02*
X132750000Y-176900000D01*
X129750000Y-182400000D02*
X132750000Y-182400000D01*
X129750000Y-176900000D02*
X129750000Y-182400000D01*
X132750000Y-176900000D02*
X129750000Y-176900000D01*
X122900000Y-182300000D02*
X122900000Y-176800000D01*
X119900000Y-182300000D02*
X122900000Y-182300000D01*
X119900000Y-176800000D02*
X119900000Y-182300000D01*
X122900000Y-176800000D02*
X119900000Y-176800000D01*
X64450000Y-88850000D02*
X69950000Y-88850000D01*
X64450000Y-85850000D02*
X64450000Y-88850000D01*
X69950000Y-85850000D02*
X64450000Y-85850000D01*
X69950000Y-88850000D02*
X69950000Y-85850000D01*
X77550000Y-160050000D02*
G75*
G03*
X77550000Y-160050000I-2250000J0D01*
G01*
X62050000Y-157550000D02*
X62050000Y-163050000D01*
X65050000Y-157550000D02*
X62050000Y-157550000D01*
X65050000Y-163050000D02*
X65050000Y-157550000D01*
X62050000Y-163050000D02*
X65050000Y-163050000D01*
X77800000Y-135400000D02*
X77800000Y-138400000D01*
X77800000Y-138400000D02*
X83300000Y-138400000D01*
X83300000Y-138400000D02*
X83300000Y-135400000D01*
X83300000Y-135400000D02*
X77800000Y-135400000D01*
X94450000Y-135400000D02*
X94450000Y-138400000D01*
X94450000Y-138400000D02*
X99950000Y-138400000D01*
X99950000Y-138400000D02*
X99950000Y-135400000D01*
X99950000Y-135400000D02*
X94450000Y-135400000D01*
X94900000Y-122300000D02*
X94900000Y-125300000D01*
X94900000Y-125300000D02*
X100400000Y-125300000D01*
X100400000Y-125300000D02*
X100400000Y-122300000D01*
X100400000Y-122300000D02*
X94900000Y-122300000D01*
X83550000Y-123900000D02*
X83550000Y-120900000D01*
X83550000Y-120900000D02*
X78050000Y-120900000D01*
X78050000Y-120900000D02*
X78050000Y-123900000D01*
X78050000Y-123900000D02*
X83550000Y-123900000D01*
X116850000Y-162200000D02*
G75*
G03*
X116850000Y-162200000I-6250000J0D01*
G01*
X69700000Y-98350000D02*
X62700000Y-98350000D01*
X62450000Y-98100000D02*
X62450000Y-89100000D01*
X62700000Y-88850000D02*
X69700000Y-88850000D01*
X69950000Y-89100000D02*
X69950000Y-98100000D01*
X62450000Y-88850000D02*
X62450000Y-89100000D01*
X62700000Y-88850000D02*
X62450000Y-88850000D01*
X69950000Y-88850000D02*
X69950000Y-89100000D01*
X69700000Y-88850000D02*
X69950000Y-88850000D01*
X69950000Y-98350000D02*
X69700000Y-98350000D01*
X69950000Y-98100000D02*
X69950000Y-98350000D01*
X62450000Y-98350000D02*
X62700000Y-98350000D01*
X62450000Y-98100000D02*
X62450000Y-98350000D01*
X65550000Y-168700000D02*
X72550000Y-168700000D01*
X72550000Y-168700000D02*
X72550000Y-157600000D01*
X72550000Y-157600000D02*
X65550000Y-157600000D01*
X65550000Y-157600000D02*
X65550000Y-168700000D01*
X145500000Y-192150000D02*
X138500000Y-192150000D01*
X138250000Y-191900000D02*
X138250000Y-182900000D01*
X138500000Y-182650000D02*
X145500000Y-182650000D01*
X145750000Y-182900000D02*
X145750000Y-191900000D01*
X138250000Y-182650000D02*
X138250000Y-182900000D01*
X138500000Y-182650000D02*
X138250000Y-182650000D01*
X145750000Y-182650000D02*
X145750000Y-182900000D01*
X145500000Y-182650000D02*
X145750000Y-182650000D01*
X145750000Y-192150000D02*
X145500000Y-192150000D01*
X145750000Y-191900000D02*
X145750000Y-192150000D01*
X138250000Y-192150000D02*
X138500000Y-192150000D01*
X138250000Y-191900000D02*
X138250000Y-192150000D01*
X135700000Y-192210000D02*
X128700000Y-192210000D01*
X128450000Y-191960000D02*
X128450000Y-182960000D01*
X128700000Y-182710000D02*
X135700000Y-182710000D01*
X135950000Y-182960000D02*
X135950000Y-191960000D01*
X128450000Y-182710000D02*
X128450000Y-182960000D01*
X128700000Y-182710000D02*
X128450000Y-182710000D01*
X135950000Y-182710000D02*
X135950000Y-182960000D01*
X135700000Y-182710000D02*
X135950000Y-182710000D01*
X135950000Y-192210000D02*
X135700000Y-192210000D01*
X135950000Y-191960000D02*
X135950000Y-192210000D01*
X128450000Y-192210000D02*
X128700000Y-192210000D01*
X128450000Y-191960000D02*
X128450000Y-192210000D01*
X126000000Y-192150000D02*
X119000000Y-192150000D01*
X118750000Y-191900000D02*
X118750000Y-182900000D01*
X119000000Y-182650000D02*
X126000000Y-182650000D01*
X126250000Y-182900000D02*
X126250000Y-191900000D01*
X118750000Y-182650000D02*
X118750000Y-182900000D01*
X119000000Y-182650000D02*
X118750000Y-182650000D01*
X126250000Y-182650000D02*
X126250000Y-182900000D01*
X126000000Y-182650000D02*
X126250000Y-182650000D01*
X126250000Y-192150000D02*
X126000000Y-192150000D01*
X126250000Y-191900000D02*
X126250000Y-192150000D01*
X118750000Y-192150000D02*
X119000000Y-192150000D01*
X118750000Y-191900000D02*
X118750000Y-192150000D01*
X95200000Y-65400000D02*
X84000000Y-65400000D01*
X95200000Y-61850000D02*
X95200000Y-65400000D01*
X84000000Y-61850000D02*
X95200000Y-61850000D01*
X84000000Y-65400000D02*
X84000000Y-61850000D01*
X156200000Y-78600000D02*
X156200000Y-67400000D01*
X159750000Y-78600000D02*
X156200000Y-78600000D01*
X159750000Y-67400000D02*
X159750000Y-78600000D01*
X156200000Y-67400000D02*
X159750000Y-67400000D01*
X20000000Y-78600000D02*
X20000000Y-67400000D01*
X23550000Y-78600000D02*
X20000000Y-78600000D01*
X23550000Y-67400000D02*
X23550000Y-78600000D01*
X20000000Y-67400000D02*
X23550000Y-67400000D01*
X157085000Y-170900000D02*
X157085000Y-159700000D01*
X160635000Y-170900000D02*
X157085000Y-170900000D01*
X160635000Y-159700000D02*
X160635000Y-170900000D01*
X157085000Y-159700000D02*
X160635000Y-159700000D01*
X160650000Y-192440000D02*
X160650000Y-171120000D01*
X152400000Y-192440000D02*
X160650000Y-192440000D01*
X152400000Y-171120000D02*
X152400000Y-192440000D01*
X160650000Y-171120000D02*
X152400000Y-171120000D01*
X19700000Y-170225000D02*
X19700000Y-191545000D01*
X27950000Y-170225000D02*
X19700000Y-170225000D01*
X27950000Y-191545000D02*
X27950000Y-170225000D01*
X19700000Y-191545000D02*
X27950000Y-191545000D01*
X159680000Y-58750000D02*
X138360000Y-58750000D01*
X159680000Y-67000000D02*
X159680000Y-58750000D01*
X138360000Y-67000000D02*
X159680000Y-67000000D01*
X138360000Y-58750000D02*
X138360000Y-67000000D01*
X155835000Y-84000000D02*
X155835000Y-100000000D01*
X160635000Y-84000000D02*
X155835000Y-84000000D01*
X160635000Y-100000000D02*
X160635000Y-84000000D01*
X155835000Y-100000000D02*
X160635000Y-100000000D01*
X19900000Y-79520000D02*
X19900000Y-100840000D01*
X28150000Y-79520000D02*
X19900000Y-79520000D01*
X28150000Y-100840000D02*
X28150000Y-79520000D01*
X19900000Y-100840000D02*
X28150000Y-100840000D01*
X41280000Y-58950000D02*
X19960000Y-58950000D01*
X41280000Y-67200000D02*
X41280000Y-58950000D01*
X19960000Y-67200000D02*
X41280000Y-67200000D01*
X19960000Y-58950000D02*
X19960000Y-67200000D01*
X94400000Y-168350000D02*
X103600000Y-168350000D01*
X103600000Y-168350000D02*
X103600000Y-181800000D01*
X103600000Y-181800000D02*
X100850000Y-184850000D01*
X100850000Y-184850000D02*
X97150000Y-184850000D01*
X97150000Y-184850000D02*
X94400000Y-181800000D01*
X94400000Y-181800000D02*
X94400000Y-168350000D01*
X139350000Y-161950000D02*
X139350000Y-168400000D01*
X145850000Y-161950000D02*
X139350000Y-161950000D01*
X145850000Y-168400000D02*
X145850000Y-161950000D01*
X139350000Y-168400000D02*
X145850000Y-168400000D01*
X132600000Y-161950000D02*
X132600000Y-168400000D01*
X139100000Y-161950000D02*
X132600000Y-161950000D01*
X139100000Y-168400000D02*
X139100000Y-161950000D01*
X132600000Y-168400000D02*
X139100000Y-168400000D01*
X125850000Y-161950000D02*
X125850000Y-168400000D01*
X132350000Y-161950000D02*
X125850000Y-161950000D01*
X132350000Y-168400000D02*
X132350000Y-161950000D01*
X125850000Y-168400000D02*
X132350000Y-168400000D01*
X119100000Y-161950000D02*
X119100000Y-168400000D01*
X125600000Y-161950000D02*
X119100000Y-161950000D01*
X125600000Y-168400000D02*
X125600000Y-161950000D01*
X119100000Y-168400000D02*
X125600000Y-168400000D01*
X108950000Y-185600000D02*
X108950000Y-175100000D01*
X104040000Y-185600000D02*
X108950000Y-185600000D01*
X104040000Y-175100000D02*
X104040000Y-185600000D01*
X108950000Y-175100000D02*
X104040000Y-175100000D01*
M02*
