G04 #@! TF.GenerationSoftware,KiCad,Pcbnew,(5.1.9)-1*
G04 #@! TF.CreationDate,2022-03-30T20:26:24+02:00*
G04 #@! TF.ProjectId,robot_mobilny_pcb,726f626f-745f-46d6-9f62-696c6e795f70,rev?*
G04 #@! TF.SameCoordinates,Original*
G04 #@! TF.FileFunction,Paste,Top*
G04 #@! TF.FilePolarity,Positive*
%FSLAX46Y46*%
G04 Gerber Fmt 4.6, Leading zero omitted, Abs format (unit mm)*
G04 Created by KiCad (PCBNEW (5.1.9)-1) date 2022-03-30 20:26:24*
%MOMM*%
%LPD*%
G01*
G04 APERTURE LIST*
%ADD10R,1.200000X2.200000*%
%ADD11R,2.750000X3.050000*%
G04 APERTURE END LIST*
G36*
G01*
X85150000Y-124675000D02*
X85150000Y-123275000D01*
G75*
G02*
X85225000Y-123200000I75000J0D01*
G01*
X85375000Y-123200000D01*
G75*
G02*
X85450000Y-123275000I0J-75000D01*
G01*
X85450000Y-124675000D01*
G75*
G02*
X85375000Y-124750000I-75000J0D01*
G01*
X85225000Y-124750000D01*
G75*
G02*
X85150000Y-124675000I0J75000D01*
G01*
G37*
G36*
G01*
X85650000Y-124675000D02*
X85650000Y-123275000D01*
G75*
G02*
X85725000Y-123200000I75000J0D01*
G01*
X85875000Y-123200000D01*
G75*
G02*
X85950000Y-123275000I0J-75000D01*
G01*
X85950000Y-124675000D01*
G75*
G02*
X85875000Y-124750000I-75000J0D01*
G01*
X85725000Y-124750000D01*
G75*
G02*
X85650000Y-124675000I0J75000D01*
G01*
G37*
G36*
G01*
X86150000Y-124675000D02*
X86150000Y-123275000D01*
G75*
G02*
X86225000Y-123200000I75000J0D01*
G01*
X86375000Y-123200000D01*
G75*
G02*
X86450000Y-123275000I0J-75000D01*
G01*
X86450000Y-124675000D01*
G75*
G02*
X86375000Y-124750000I-75000J0D01*
G01*
X86225000Y-124750000D01*
G75*
G02*
X86150000Y-124675000I0J75000D01*
G01*
G37*
G36*
G01*
X86650000Y-124675000D02*
X86650000Y-123275000D01*
G75*
G02*
X86725000Y-123200000I75000J0D01*
G01*
X86875000Y-123200000D01*
G75*
G02*
X86950000Y-123275000I0J-75000D01*
G01*
X86950000Y-124675000D01*
G75*
G02*
X86875000Y-124750000I-75000J0D01*
G01*
X86725000Y-124750000D01*
G75*
G02*
X86650000Y-124675000I0J75000D01*
G01*
G37*
G36*
G01*
X87150000Y-124675000D02*
X87150000Y-123275000D01*
G75*
G02*
X87225000Y-123200000I75000J0D01*
G01*
X87375000Y-123200000D01*
G75*
G02*
X87450000Y-123275000I0J-75000D01*
G01*
X87450000Y-124675000D01*
G75*
G02*
X87375000Y-124750000I-75000J0D01*
G01*
X87225000Y-124750000D01*
G75*
G02*
X87150000Y-124675000I0J75000D01*
G01*
G37*
G36*
G01*
X87650000Y-124675000D02*
X87650000Y-123275000D01*
G75*
G02*
X87725000Y-123200000I75000J0D01*
G01*
X87875000Y-123200000D01*
G75*
G02*
X87950000Y-123275000I0J-75000D01*
G01*
X87950000Y-124675000D01*
G75*
G02*
X87875000Y-124750000I-75000J0D01*
G01*
X87725000Y-124750000D01*
G75*
G02*
X87650000Y-124675000I0J75000D01*
G01*
G37*
G36*
G01*
X88150000Y-124675000D02*
X88150000Y-123275000D01*
G75*
G02*
X88225000Y-123200000I75000J0D01*
G01*
X88375000Y-123200000D01*
G75*
G02*
X88450000Y-123275000I0J-75000D01*
G01*
X88450000Y-124675000D01*
G75*
G02*
X88375000Y-124750000I-75000J0D01*
G01*
X88225000Y-124750000D01*
G75*
G02*
X88150000Y-124675000I0J75000D01*
G01*
G37*
G36*
G01*
X88650000Y-124675000D02*
X88650000Y-123275000D01*
G75*
G02*
X88725000Y-123200000I75000J0D01*
G01*
X88875000Y-123200000D01*
G75*
G02*
X88950000Y-123275000I0J-75000D01*
G01*
X88950000Y-124675000D01*
G75*
G02*
X88875000Y-124750000I-75000J0D01*
G01*
X88725000Y-124750000D01*
G75*
G02*
X88650000Y-124675000I0J75000D01*
G01*
G37*
G36*
G01*
X89150000Y-124675000D02*
X89150000Y-123275000D01*
G75*
G02*
X89225000Y-123200000I75000J0D01*
G01*
X89375000Y-123200000D01*
G75*
G02*
X89450000Y-123275000I0J-75000D01*
G01*
X89450000Y-124675000D01*
G75*
G02*
X89375000Y-124750000I-75000J0D01*
G01*
X89225000Y-124750000D01*
G75*
G02*
X89150000Y-124675000I0J75000D01*
G01*
G37*
G36*
G01*
X89650000Y-124675000D02*
X89650000Y-123275000D01*
G75*
G02*
X89725000Y-123200000I75000J0D01*
G01*
X89875000Y-123200000D01*
G75*
G02*
X89950000Y-123275000I0J-75000D01*
G01*
X89950000Y-124675000D01*
G75*
G02*
X89875000Y-124750000I-75000J0D01*
G01*
X89725000Y-124750000D01*
G75*
G02*
X89650000Y-124675000I0J75000D01*
G01*
G37*
G36*
G01*
X90150000Y-124675000D02*
X90150000Y-123275000D01*
G75*
G02*
X90225000Y-123200000I75000J0D01*
G01*
X90375000Y-123200000D01*
G75*
G02*
X90450000Y-123275000I0J-75000D01*
G01*
X90450000Y-124675000D01*
G75*
G02*
X90375000Y-124750000I-75000J0D01*
G01*
X90225000Y-124750000D01*
G75*
G02*
X90150000Y-124675000I0J75000D01*
G01*
G37*
G36*
G01*
X90650000Y-124675000D02*
X90650000Y-123275000D01*
G75*
G02*
X90725000Y-123200000I75000J0D01*
G01*
X90875000Y-123200000D01*
G75*
G02*
X90950000Y-123275000I0J-75000D01*
G01*
X90950000Y-124675000D01*
G75*
G02*
X90875000Y-124750000I-75000J0D01*
G01*
X90725000Y-124750000D01*
G75*
G02*
X90650000Y-124675000I0J75000D01*
G01*
G37*
G36*
G01*
X91150000Y-124675000D02*
X91150000Y-123275000D01*
G75*
G02*
X91225000Y-123200000I75000J0D01*
G01*
X91375000Y-123200000D01*
G75*
G02*
X91450000Y-123275000I0J-75000D01*
G01*
X91450000Y-124675000D01*
G75*
G02*
X91375000Y-124750000I-75000J0D01*
G01*
X91225000Y-124750000D01*
G75*
G02*
X91150000Y-124675000I0J75000D01*
G01*
G37*
G36*
G01*
X91650000Y-124675000D02*
X91650000Y-123275000D01*
G75*
G02*
X91725000Y-123200000I75000J0D01*
G01*
X91875000Y-123200000D01*
G75*
G02*
X91950000Y-123275000I0J-75000D01*
G01*
X91950000Y-124675000D01*
G75*
G02*
X91875000Y-124750000I-75000J0D01*
G01*
X91725000Y-124750000D01*
G75*
G02*
X91650000Y-124675000I0J75000D01*
G01*
G37*
G36*
G01*
X92150000Y-124675000D02*
X92150000Y-123275000D01*
G75*
G02*
X92225000Y-123200000I75000J0D01*
G01*
X92375000Y-123200000D01*
G75*
G02*
X92450000Y-123275000I0J-75000D01*
G01*
X92450000Y-124675000D01*
G75*
G02*
X92375000Y-124750000I-75000J0D01*
G01*
X92225000Y-124750000D01*
G75*
G02*
X92150000Y-124675000I0J75000D01*
G01*
G37*
G36*
G01*
X92650000Y-124675000D02*
X92650000Y-123275000D01*
G75*
G02*
X92725000Y-123200000I75000J0D01*
G01*
X92875000Y-123200000D01*
G75*
G02*
X92950000Y-123275000I0J-75000D01*
G01*
X92950000Y-124675000D01*
G75*
G02*
X92875000Y-124750000I-75000J0D01*
G01*
X92725000Y-124750000D01*
G75*
G02*
X92650000Y-124675000I0J75000D01*
G01*
G37*
G36*
G01*
X93950000Y-125975000D02*
X93950000Y-125825000D01*
G75*
G02*
X94025000Y-125750000I75000J0D01*
G01*
X95425000Y-125750000D01*
G75*
G02*
X95500000Y-125825000I0J-75000D01*
G01*
X95500000Y-125975000D01*
G75*
G02*
X95425000Y-126050000I-75000J0D01*
G01*
X94025000Y-126050000D01*
G75*
G02*
X93950000Y-125975000I0J75000D01*
G01*
G37*
G36*
G01*
X93950000Y-126475000D02*
X93950000Y-126325000D01*
G75*
G02*
X94025000Y-126250000I75000J0D01*
G01*
X95425000Y-126250000D01*
G75*
G02*
X95500000Y-126325000I0J-75000D01*
G01*
X95500000Y-126475000D01*
G75*
G02*
X95425000Y-126550000I-75000J0D01*
G01*
X94025000Y-126550000D01*
G75*
G02*
X93950000Y-126475000I0J75000D01*
G01*
G37*
G36*
G01*
X93950000Y-126975000D02*
X93950000Y-126825000D01*
G75*
G02*
X94025000Y-126750000I75000J0D01*
G01*
X95425000Y-126750000D01*
G75*
G02*
X95500000Y-126825000I0J-75000D01*
G01*
X95500000Y-126975000D01*
G75*
G02*
X95425000Y-127050000I-75000J0D01*
G01*
X94025000Y-127050000D01*
G75*
G02*
X93950000Y-126975000I0J75000D01*
G01*
G37*
G36*
G01*
X93950000Y-127475000D02*
X93950000Y-127325000D01*
G75*
G02*
X94025000Y-127250000I75000J0D01*
G01*
X95425000Y-127250000D01*
G75*
G02*
X95500000Y-127325000I0J-75000D01*
G01*
X95500000Y-127475000D01*
G75*
G02*
X95425000Y-127550000I-75000J0D01*
G01*
X94025000Y-127550000D01*
G75*
G02*
X93950000Y-127475000I0J75000D01*
G01*
G37*
G36*
G01*
X93950000Y-127975000D02*
X93950000Y-127825000D01*
G75*
G02*
X94025000Y-127750000I75000J0D01*
G01*
X95425000Y-127750000D01*
G75*
G02*
X95500000Y-127825000I0J-75000D01*
G01*
X95500000Y-127975000D01*
G75*
G02*
X95425000Y-128050000I-75000J0D01*
G01*
X94025000Y-128050000D01*
G75*
G02*
X93950000Y-127975000I0J75000D01*
G01*
G37*
G36*
G01*
X93950000Y-128475000D02*
X93950000Y-128325000D01*
G75*
G02*
X94025000Y-128250000I75000J0D01*
G01*
X95425000Y-128250000D01*
G75*
G02*
X95500000Y-128325000I0J-75000D01*
G01*
X95500000Y-128475000D01*
G75*
G02*
X95425000Y-128550000I-75000J0D01*
G01*
X94025000Y-128550000D01*
G75*
G02*
X93950000Y-128475000I0J75000D01*
G01*
G37*
G36*
G01*
X93950000Y-128975000D02*
X93950000Y-128825000D01*
G75*
G02*
X94025000Y-128750000I75000J0D01*
G01*
X95425000Y-128750000D01*
G75*
G02*
X95500000Y-128825000I0J-75000D01*
G01*
X95500000Y-128975000D01*
G75*
G02*
X95425000Y-129050000I-75000J0D01*
G01*
X94025000Y-129050000D01*
G75*
G02*
X93950000Y-128975000I0J75000D01*
G01*
G37*
G36*
G01*
X93950000Y-129475000D02*
X93950000Y-129325000D01*
G75*
G02*
X94025000Y-129250000I75000J0D01*
G01*
X95425000Y-129250000D01*
G75*
G02*
X95500000Y-129325000I0J-75000D01*
G01*
X95500000Y-129475000D01*
G75*
G02*
X95425000Y-129550000I-75000J0D01*
G01*
X94025000Y-129550000D01*
G75*
G02*
X93950000Y-129475000I0J75000D01*
G01*
G37*
G36*
G01*
X93950000Y-129975000D02*
X93950000Y-129825000D01*
G75*
G02*
X94025000Y-129750000I75000J0D01*
G01*
X95425000Y-129750000D01*
G75*
G02*
X95500000Y-129825000I0J-75000D01*
G01*
X95500000Y-129975000D01*
G75*
G02*
X95425000Y-130050000I-75000J0D01*
G01*
X94025000Y-130050000D01*
G75*
G02*
X93950000Y-129975000I0J75000D01*
G01*
G37*
G36*
G01*
X93950000Y-130475000D02*
X93950000Y-130325000D01*
G75*
G02*
X94025000Y-130250000I75000J0D01*
G01*
X95425000Y-130250000D01*
G75*
G02*
X95500000Y-130325000I0J-75000D01*
G01*
X95500000Y-130475000D01*
G75*
G02*
X95425000Y-130550000I-75000J0D01*
G01*
X94025000Y-130550000D01*
G75*
G02*
X93950000Y-130475000I0J75000D01*
G01*
G37*
G36*
G01*
X93950000Y-130975000D02*
X93950000Y-130825000D01*
G75*
G02*
X94025000Y-130750000I75000J0D01*
G01*
X95425000Y-130750000D01*
G75*
G02*
X95500000Y-130825000I0J-75000D01*
G01*
X95500000Y-130975000D01*
G75*
G02*
X95425000Y-131050000I-75000J0D01*
G01*
X94025000Y-131050000D01*
G75*
G02*
X93950000Y-130975000I0J75000D01*
G01*
G37*
G36*
G01*
X93950000Y-131475000D02*
X93950000Y-131325000D01*
G75*
G02*
X94025000Y-131250000I75000J0D01*
G01*
X95425000Y-131250000D01*
G75*
G02*
X95500000Y-131325000I0J-75000D01*
G01*
X95500000Y-131475000D01*
G75*
G02*
X95425000Y-131550000I-75000J0D01*
G01*
X94025000Y-131550000D01*
G75*
G02*
X93950000Y-131475000I0J75000D01*
G01*
G37*
G36*
G01*
X93950000Y-131975000D02*
X93950000Y-131825000D01*
G75*
G02*
X94025000Y-131750000I75000J0D01*
G01*
X95425000Y-131750000D01*
G75*
G02*
X95500000Y-131825000I0J-75000D01*
G01*
X95500000Y-131975000D01*
G75*
G02*
X95425000Y-132050000I-75000J0D01*
G01*
X94025000Y-132050000D01*
G75*
G02*
X93950000Y-131975000I0J75000D01*
G01*
G37*
G36*
G01*
X93950000Y-132475000D02*
X93950000Y-132325000D01*
G75*
G02*
X94025000Y-132250000I75000J0D01*
G01*
X95425000Y-132250000D01*
G75*
G02*
X95500000Y-132325000I0J-75000D01*
G01*
X95500000Y-132475000D01*
G75*
G02*
X95425000Y-132550000I-75000J0D01*
G01*
X94025000Y-132550000D01*
G75*
G02*
X93950000Y-132475000I0J75000D01*
G01*
G37*
G36*
G01*
X93950000Y-132975000D02*
X93950000Y-132825000D01*
G75*
G02*
X94025000Y-132750000I75000J0D01*
G01*
X95425000Y-132750000D01*
G75*
G02*
X95500000Y-132825000I0J-75000D01*
G01*
X95500000Y-132975000D01*
G75*
G02*
X95425000Y-133050000I-75000J0D01*
G01*
X94025000Y-133050000D01*
G75*
G02*
X93950000Y-132975000I0J75000D01*
G01*
G37*
G36*
G01*
X93950000Y-133475000D02*
X93950000Y-133325000D01*
G75*
G02*
X94025000Y-133250000I75000J0D01*
G01*
X95425000Y-133250000D01*
G75*
G02*
X95500000Y-133325000I0J-75000D01*
G01*
X95500000Y-133475000D01*
G75*
G02*
X95425000Y-133550000I-75000J0D01*
G01*
X94025000Y-133550000D01*
G75*
G02*
X93950000Y-133475000I0J75000D01*
G01*
G37*
G36*
G01*
X92650000Y-136025000D02*
X92650000Y-134625000D01*
G75*
G02*
X92725000Y-134550000I75000J0D01*
G01*
X92875000Y-134550000D01*
G75*
G02*
X92950000Y-134625000I0J-75000D01*
G01*
X92950000Y-136025000D01*
G75*
G02*
X92875000Y-136100000I-75000J0D01*
G01*
X92725000Y-136100000D01*
G75*
G02*
X92650000Y-136025000I0J75000D01*
G01*
G37*
G36*
G01*
X92150000Y-136025000D02*
X92150000Y-134625000D01*
G75*
G02*
X92225000Y-134550000I75000J0D01*
G01*
X92375000Y-134550000D01*
G75*
G02*
X92450000Y-134625000I0J-75000D01*
G01*
X92450000Y-136025000D01*
G75*
G02*
X92375000Y-136100000I-75000J0D01*
G01*
X92225000Y-136100000D01*
G75*
G02*
X92150000Y-136025000I0J75000D01*
G01*
G37*
G36*
G01*
X91650000Y-136025000D02*
X91650000Y-134625000D01*
G75*
G02*
X91725000Y-134550000I75000J0D01*
G01*
X91875000Y-134550000D01*
G75*
G02*
X91950000Y-134625000I0J-75000D01*
G01*
X91950000Y-136025000D01*
G75*
G02*
X91875000Y-136100000I-75000J0D01*
G01*
X91725000Y-136100000D01*
G75*
G02*
X91650000Y-136025000I0J75000D01*
G01*
G37*
G36*
G01*
X91150000Y-136025000D02*
X91150000Y-134625000D01*
G75*
G02*
X91225000Y-134550000I75000J0D01*
G01*
X91375000Y-134550000D01*
G75*
G02*
X91450000Y-134625000I0J-75000D01*
G01*
X91450000Y-136025000D01*
G75*
G02*
X91375000Y-136100000I-75000J0D01*
G01*
X91225000Y-136100000D01*
G75*
G02*
X91150000Y-136025000I0J75000D01*
G01*
G37*
G36*
G01*
X90650000Y-136025000D02*
X90650000Y-134625000D01*
G75*
G02*
X90725000Y-134550000I75000J0D01*
G01*
X90875000Y-134550000D01*
G75*
G02*
X90950000Y-134625000I0J-75000D01*
G01*
X90950000Y-136025000D01*
G75*
G02*
X90875000Y-136100000I-75000J0D01*
G01*
X90725000Y-136100000D01*
G75*
G02*
X90650000Y-136025000I0J75000D01*
G01*
G37*
G36*
G01*
X90150000Y-136025000D02*
X90150000Y-134625000D01*
G75*
G02*
X90225000Y-134550000I75000J0D01*
G01*
X90375000Y-134550000D01*
G75*
G02*
X90450000Y-134625000I0J-75000D01*
G01*
X90450000Y-136025000D01*
G75*
G02*
X90375000Y-136100000I-75000J0D01*
G01*
X90225000Y-136100000D01*
G75*
G02*
X90150000Y-136025000I0J75000D01*
G01*
G37*
G36*
G01*
X89650000Y-136025000D02*
X89650000Y-134625000D01*
G75*
G02*
X89725000Y-134550000I75000J0D01*
G01*
X89875000Y-134550000D01*
G75*
G02*
X89950000Y-134625000I0J-75000D01*
G01*
X89950000Y-136025000D01*
G75*
G02*
X89875000Y-136100000I-75000J0D01*
G01*
X89725000Y-136100000D01*
G75*
G02*
X89650000Y-136025000I0J75000D01*
G01*
G37*
G36*
G01*
X89150000Y-136025000D02*
X89150000Y-134625000D01*
G75*
G02*
X89225000Y-134550000I75000J0D01*
G01*
X89375000Y-134550000D01*
G75*
G02*
X89450000Y-134625000I0J-75000D01*
G01*
X89450000Y-136025000D01*
G75*
G02*
X89375000Y-136100000I-75000J0D01*
G01*
X89225000Y-136100000D01*
G75*
G02*
X89150000Y-136025000I0J75000D01*
G01*
G37*
G36*
G01*
X88650000Y-136025000D02*
X88650000Y-134625000D01*
G75*
G02*
X88725000Y-134550000I75000J0D01*
G01*
X88875000Y-134550000D01*
G75*
G02*
X88950000Y-134625000I0J-75000D01*
G01*
X88950000Y-136025000D01*
G75*
G02*
X88875000Y-136100000I-75000J0D01*
G01*
X88725000Y-136100000D01*
G75*
G02*
X88650000Y-136025000I0J75000D01*
G01*
G37*
G36*
G01*
X88150000Y-136025000D02*
X88150000Y-134625000D01*
G75*
G02*
X88225000Y-134550000I75000J0D01*
G01*
X88375000Y-134550000D01*
G75*
G02*
X88450000Y-134625000I0J-75000D01*
G01*
X88450000Y-136025000D01*
G75*
G02*
X88375000Y-136100000I-75000J0D01*
G01*
X88225000Y-136100000D01*
G75*
G02*
X88150000Y-136025000I0J75000D01*
G01*
G37*
G36*
G01*
X87650000Y-136025000D02*
X87650000Y-134625000D01*
G75*
G02*
X87725000Y-134550000I75000J0D01*
G01*
X87875000Y-134550000D01*
G75*
G02*
X87950000Y-134625000I0J-75000D01*
G01*
X87950000Y-136025000D01*
G75*
G02*
X87875000Y-136100000I-75000J0D01*
G01*
X87725000Y-136100000D01*
G75*
G02*
X87650000Y-136025000I0J75000D01*
G01*
G37*
G36*
G01*
X87150000Y-136025000D02*
X87150000Y-134625000D01*
G75*
G02*
X87225000Y-134550000I75000J0D01*
G01*
X87375000Y-134550000D01*
G75*
G02*
X87450000Y-134625000I0J-75000D01*
G01*
X87450000Y-136025000D01*
G75*
G02*
X87375000Y-136100000I-75000J0D01*
G01*
X87225000Y-136100000D01*
G75*
G02*
X87150000Y-136025000I0J75000D01*
G01*
G37*
G36*
G01*
X86650000Y-136025000D02*
X86650000Y-134625000D01*
G75*
G02*
X86725000Y-134550000I75000J0D01*
G01*
X86875000Y-134550000D01*
G75*
G02*
X86950000Y-134625000I0J-75000D01*
G01*
X86950000Y-136025000D01*
G75*
G02*
X86875000Y-136100000I-75000J0D01*
G01*
X86725000Y-136100000D01*
G75*
G02*
X86650000Y-136025000I0J75000D01*
G01*
G37*
G36*
G01*
X86150000Y-136025000D02*
X86150000Y-134625000D01*
G75*
G02*
X86225000Y-134550000I75000J0D01*
G01*
X86375000Y-134550000D01*
G75*
G02*
X86450000Y-134625000I0J-75000D01*
G01*
X86450000Y-136025000D01*
G75*
G02*
X86375000Y-136100000I-75000J0D01*
G01*
X86225000Y-136100000D01*
G75*
G02*
X86150000Y-136025000I0J75000D01*
G01*
G37*
G36*
G01*
X85650000Y-136025000D02*
X85650000Y-134625000D01*
G75*
G02*
X85725000Y-134550000I75000J0D01*
G01*
X85875000Y-134550000D01*
G75*
G02*
X85950000Y-134625000I0J-75000D01*
G01*
X85950000Y-136025000D01*
G75*
G02*
X85875000Y-136100000I-75000J0D01*
G01*
X85725000Y-136100000D01*
G75*
G02*
X85650000Y-136025000I0J75000D01*
G01*
G37*
G36*
G01*
X85150000Y-136025000D02*
X85150000Y-134625000D01*
G75*
G02*
X85225000Y-134550000I75000J0D01*
G01*
X85375000Y-134550000D01*
G75*
G02*
X85450000Y-134625000I0J-75000D01*
G01*
X85450000Y-136025000D01*
G75*
G02*
X85375000Y-136100000I-75000J0D01*
G01*
X85225000Y-136100000D01*
G75*
G02*
X85150000Y-136025000I0J75000D01*
G01*
G37*
G36*
G01*
X82600000Y-133475000D02*
X82600000Y-133325000D01*
G75*
G02*
X82675000Y-133250000I75000J0D01*
G01*
X84075000Y-133250000D01*
G75*
G02*
X84150000Y-133325000I0J-75000D01*
G01*
X84150000Y-133475000D01*
G75*
G02*
X84075000Y-133550000I-75000J0D01*
G01*
X82675000Y-133550000D01*
G75*
G02*
X82600000Y-133475000I0J75000D01*
G01*
G37*
G36*
G01*
X82600000Y-132975000D02*
X82600000Y-132825000D01*
G75*
G02*
X82675000Y-132750000I75000J0D01*
G01*
X84075000Y-132750000D01*
G75*
G02*
X84150000Y-132825000I0J-75000D01*
G01*
X84150000Y-132975000D01*
G75*
G02*
X84075000Y-133050000I-75000J0D01*
G01*
X82675000Y-133050000D01*
G75*
G02*
X82600000Y-132975000I0J75000D01*
G01*
G37*
G36*
G01*
X82600000Y-132475000D02*
X82600000Y-132325000D01*
G75*
G02*
X82675000Y-132250000I75000J0D01*
G01*
X84075000Y-132250000D01*
G75*
G02*
X84150000Y-132325000I0J-75000D01*
G01*
X84150000Y-132475000D01*
G75*
G02*
X84075000Y-132550000I-75000J0D01*
G01*
X82675000Y-132550000D01*
G75*
G02*
X82600000Y-132475000I0J75000D01*
G01*
G37*
G36*
G01*
X82600000Y-131975000D02*
X82600000Y-131825000D01*
G75*
G02*
X82675000Y-131750000I75000J0D01*
G01*
X84075000Y-131750000D01*
G75*
G02*
X84150000Y-131825000I0J-75000D01*
G01*
X84150000Y-131975000D01*
G75*
G02*
X84075000Y-132050000I-75000J0D01*
G01*
X82675000Y-132050000D01*
G75*
G02*
X82600000Y-131975000I0J75000D01*
G01*
G37*
G36*
G01*
X82600000Y-131475000D02*
X82600000Y-131325000D01*
G75*
G02*
X82675000Y-131250000I75000J0D01*
G01*
X84075000Y-131250000D01*
G75*
G02*
X84150000Y-131325000I0J-75000D01*
G01*
X84150000Y-131475000D01*
G75*
G02*
X84075000Y-131550000I-75000J0D01*
G01*
X82675000Y-131550000D01*
G75*
G02*
X82600000Y-131475000I0J75000D01*
G01*
G37*
G36*
G01*
X82600000Y-130975000D02*
X82600000Y-130825000D01*
G75*
G02*
X82675000Y-130750000I75000J0D01*
G01*
X84075000Y-130750000D01*
G75*
G02*
X84150000Y-130825000I0J-75000D01*
G01*
X84150000Y-130975000D01*
G75*
G02*
X84075000Y-131050000I-75000J0D01*
G01*
X82675000Y-131050000D01*
G75*
G02*
X82600000Y-130975000I0J75000D01*
G01*
G37*
G36*
G01*
X82600000Y-130475000D02*
X82600000Y-130325000D01*
G75*
G02*
X82675000Y-130250000I75000J0D01*
G01*
X84075000Y-130250000D01*
G75*
G02*
X84150000Y-130325000I0J-75000D01*
G01*
X84150000Y-130475000D01*
G75*
G02*
X84075000Y-130550000I-75000J0D01*
G01*
X82675000Y-130550000D01*
G75*
G02*
X82600000Y-130475000I0J75000D01*
G01*
G37*
G36*
G01*
X82600000Y-129975000D02*
X82600000Y-129825000D01*
G75*
G02*
X82675000Y-129750000I75000J0D01*
G01*
X84075000Y-129750000D01*
G75*
G02*
X84150000Y-129825000I0J-75000D01*
G01*
X84150000Y-129975000D01*
G75*
G02*
X84075000Y-130050000I-75000J0D01*
G01*
X82675000Y-130050000D01*
G75*
G02*
X82600000Y-129975000I0J75000D01*
G01*
G37*
G36*
G01*
X82600000Y-129475000D02*
X82600000Y-129325000D01*
G75*
G02*
X82675000Y-129250000I75000J0D01*
G01*
X84075000Y-129250000D01*
G75*
G02*
X84150000Y-129325000I0J-75000D01*
G01*
X84150000Y-129475000D01*
G75*
G02*
X84075000Y-129550000I-75000J0D01*
G01*
X82675000Y-129550000D01*
G75*
G02*
X82600000Y-129475000I0J75000D01*
G01*
G37*
G36*
G01*
X82600000Y-128975000D02*
X82600000Y-128825000D01*
G75*
G02*
X82675000Y-128750000I75000J0D01*
G01*
X84075000Y-128750000D01*
G75*
G02*
X84150000Y-128825000I0J-75000D01*
G01*
X84150000Y-128975000D01*
G75*
G02*
X84075000Y-129050000I-75000J0D01*
G01*
X82675000Y-129050000D01*
G75*
G02*
X82600000Y-128975000I0J75000D01*
G01*
G37*
G36*
G01*
X82600000Y-128475000D02*
X82600000Y-128325000D01*
G75*
G02*
X82675000Y-128250000I75000J0D01*
G01*
X84075000Y-128250000D01*
G75*
G02*
X84150000Y-128325000I0J-75000D01*
G01*
X84150000Y-128475000D01*
G75*
G02*
X84075000Y-128550000I-75000J0D01*
G01*
X82675000Y-128550000D01*
G75*
G02*
X82600000Y-128475000I0J75000D01*
G01*
G37*
G36*
G01*
X82600000Y-127975000D02*
X82600000Y-127825000D01*
G75*
G02*
X82675000Y-127750000I75000J0D01*
G01*
X84075000Y-127750000D01*
G75*
G02*
X84150000Y-127825000I0J-75000D01*
G01*
X84150000Y-127975000D01*
G75*
G02*
X84075000Y-128050000I-75000J0D01*
G01*
X82675000Y-128050000D01*
G75*
G02*
X82600000Y-127975000I0J75000D01*
G01*
G37*
G36*
G01*
X82600000Y-127475000D02*
X82600000Y-127325000D01*
G75*
G02*
X82675000Y-127250000I75000J0D01*
G01*
X84075000Y-127250000D01*
G75*
G02*
X84150000Y-127325000I0J-75000D01*
G01*
X84150000Y-127475000D01*
G75*
G02*
X84075000Y-127550000I-75000J0D01*
G01*
X82675000Y-127550000D01*
G75*
G02*
X82600000Y-127475000I0J75000D01*
G01*
G37*
G36*
G01*
X82600000Y-126975000D02*
X82600000Y-126825000D01*
G75*
G02*
X82675000Y-126750000I75000J0D01*
G01*
X84075000Y-126750000D01*
G75*
G02*
X84150000Y-126825000I0J-75000D01*
G01*
X84150000Y-126975000D01*
G75*
G02*
X84075000Y-127050000I-75000J0D01*
G01*
X82675000Y-127050000D01*
G75*
G02*
X82600000Y-126975000I0J75000D01*
G01*
G37*
G36*
G01*
X82600000Y-126475000D02*
X82600000Y-126325000D01*
G75*
G02*
X82675000Y-126250000I75000J0D01*
G01*
X84075000Y-126250000D01*
G75*
G02*
X84150000Y-126325000I0J-75000D01*
G01*
X84150000Y-126475000D01*
G75*
G02*
X84075000Y-126550000I-75000J0D01*
G01*
X82675000Y-126550000D01*
G75*
G02*
X82600000Y-126475000I0J75000D01*
G01*
G37*
G36*
G01*
X82600000Y-125975000D02*
X82600000Y-125825000D01*
G75*
G02*
X82675000Y-125750000I75000J0D01*
G01*
X84075000Y-125750000D01*
G75*
G02*
X84150000Y-125825000I0J-75000D01*
G01*
X84150000Y-125975000D01*
G75*
G02*
X84075000Y-126050000I-75000J0D01*
G01*
X82675000Y-126050000D01*
G75*
G02*
X82600000Y-125975000I0J75000D01*
G01*
G37*
D10*
X66770000Y-167350000D03*
X71330000Y-167350000D03*
D11*
X70575000Y-159375000D03*
X67525000Y-162725000D03*
X67525000Y-159375000D03*
X70575000Y-162725000D03*
M02*
