G04 #@! TF.GenerationSoftware,KiCad,Pcbnew,(5.1.9)-1*
G04 #@! TF.CreationDate,2022-03-30T20:26:24+02:00*
G04 #@! TF.ProjectId,robot_mobilny_pcb,726f626f-745f-46d6-9f62-696c6e795f70,rev?*
G04 #@! TF.SameCoordinates,Original*
G04 #@! TF.FileFunction,Other,Fab,Top*
%FSLAX46Y46*%
G04 Gerber Fmt 4.6, Leading zero omitted, Abs format (unit mm)*
G04 Created by KiCad (PCBNEW (5.1.9)-1) date 2022-03-30 20:26:24*
%MOMM*%
%LPD*%
G01*
G04 APERTURE LIST*
%ADD10C,0.100000*%
%ADD11C,0.120000*%
%ADD12C,0.150000*%
%ADD13C,0.200000*%
G04 APERTURE END LIST*
D10*
X107339140Y-75241115D02*
X105992102Y-76588153D01*
X105992102Y-76588153D02*
X98807897Y-69403948D01*
X98807897Y-69403948D02*
X100603948Y-67607897D01*
X100603948Y-67607897D02*
X107339140Y-74343089D01*
X107339140Y-74343089D02*
X107339140Y-75241115D01*
X94130000Y-122670000D02*
X78250000Y-122670000D01*
X78250000Y-122670000D02*
X78250000Y-111240000D01*
X78250000Y-111240000D02*
X94130000Y-111240000D01*
X94130000Y-111240000D02*
X94130000Y-122670000D01*
X89680000Y-151870000D02*
X76350000Y-151870000D01*
X76350000Y-151870000D02*
X76350000Y-142980000D01*
X76350000Y-142980000D02*
X89680000Y-142980000D01*
X89680000Y-142980000D02*
X89680000Y-151870000D01*
X21740000Y-114660000D02*
X21740000Y-103230000D01*
X19200000Y-149970000D02*
X19200000Y-117200000D01*
X19200000Y-117200000D02*
X21740000Y-114660000D01*
X21740000Y-155050000D02*
X21740000Y-152510000D01*
X21740000Y-152510000D02*
X19200000Y-149970000D01*
X21740000Y-103230000D02*
X23260000Y-101710000D01*
X23260000Y-101710000D02*
X87780000Y-101710000D01*
X87780000Y-101710000D02*
X87780000Y-155050000D01*
X87780000Y-155050000D02*
X21740000Y-155050000D01*
X90510000Y-101710000D02*
X156550000Y-101710000D01*
X90510000Y-155050000D02*
X90510000Y-101710000D01*
X155030000Y-155050000D02*
X90510000Y-155050000D01*
X156550000Y-153530000D02*
X155030000Y-155050000D01*
X156550000Y-104250000D02*
X159090000Y-106790000D01*
X156550000Y-101710000D02*
X156550000Y-104250000D01*
X159090000Y-139560000D02*
X156550000Y-142100000D01*
X159090000Y-106790000D02*
X159090000Y-139560000D01*
X156550000Y-142100000D02*
X156550000Y-153530000D01*
X88610000Y-113780000D02*
X88610000Y-104890000D01*
X101940000Y-113780000D02*
X88610000Y-113780000D01*
X101940000Y-104890000D02*
X101940000Y-113780000D01*
X88610000Y-104890000D02*
X101940000Y-104890000D01*
X84160000Y-145520000D02*
X84160000Y-134090000D01*
X100040000Y-145520000D02*
X84160000Y-145520000D01*
X100040000Y-134090000D02*
X100040000Y-145520000D01*
X84160000Y-134090000D02*
X100040000Y-134090000D01*
X85050000Y-124650000D02*
X94050000Y-124650000D01*
X94050000Y-124650000D02*
X94050000Y-134650000D01*
X94050000Y-134650000D02*
X84050000Y-134650000D01*
X84050000Y-134650000D02*
X84050000Y-125650000D01*
X84050000Y-125650000D02*
X85050000Y-124650000D01*
X54155000Y-187662000D02*
X52063000Y-189755000D01*
X54338000Y-187845000D02*
X52246000Y-189938000D01*
X49155000Y-187662000D02*
X47063000Y-189755000D01*
X49338000Y-187845000D02*
X47246000Y-189938000D01*
X44155000Y-187662000D02*
X42063000Y-189755000D01*
X44338000Y-187845000D02*
X42246000Y-189938000D01*
X39155000Y-187662000D02*
X37062000Y-189755000D01*
X39338000Y-187845000D02*
X37245000Y-189938000D01*
X35700000Y-186500000D02*
X55700000Y-186500000D01*
X35700000Y-191400000D02*
X55700000Y-191400000D01*
X35700000Y-192900000D02*
X55700000Y-192900000D01*
X35700000Y-192900000D02*
X35700000Y-183600000D01*
X36200000Y-193400000D02*
X35700000Y-192900000D01*
X55700000Y-193400000D02*
X36200000Y-193400000D01*
X55700000Y-183600000D02*
X55700000Y-193400000D01*
X35700000Y-183600000D02*
X55700000Y-183600000D01*
X54700000Y-188800000D02*
G75*
G03*
X54700000Y-188800000I-1500000J0D01*
G01*
X49700000Y-188800000D02*
G75*
G03*
X49700000Y-188800000I-1500000J0D01*
G01*
X44700000Y-188800000D02*
G75*
G03*
X44700000Y-188800000I-1500000J0D01*
G01*
X39700000Y-188800000D02*
G75*
G03*
X39700000Y-188800000I-1500000J0D01*
G01*
X60900000Y-188800000D02*
G75*
G03*
X60900000Y-188800000I-1500000J0D01*
G01*
X65900000Y-188800000D02*
G75*
G03*
X65900000Y-188800000I-1500000J0D01*
G01*
X70900000Y-188800000D02*
G75*
G03*
X70900000Y-188800000I-1500000J0D01*
G01*
X75900000Y-188800000D02*
G75*
G03*
X75900000Y-188800000I-1500000J0D01*
G01*
X56900000Y-183600000D02*
X76900000Y-183600000D01*
X76900000Y-183600000D02*
X76900000Y-193400000D01*
X76900000Y-193400000D02*
X57400000Y-193400000D01*
X57400000Y-193400000D02*
X56900000Y-192900000D01*
X56900000Y-192900000D02*
X56900000Y-183600000D01*
X56900000Y-192900000D02*
X76900000Y-192900000D01*
X56900000Y-191400000D02*
X76900000Y-191400000D01*
X56900000Y-186500000D02*
X76900000Y-186500000D01*
X60538000Y-187845000D02*
X58445000Y-189938000D01*
X60355000Y-187662000D02*
X58262000Y-189755000D01*
X65538000Y-187845000D02*
X63446000Y-189938000D01*
X65355000Y-187662000D02*
X63263000Y-189755000D01*
X70538000Y-187845000D02*
X68446000Y-189938000D01*
X70355000Y-187662000D02*
X68263000Y-189755000D01*
X75538000Y-187845000D02*
X73446000Y-189938000D01*
X75355000Y-187662000D02*
X73263000Y-189755000D01*
X53320000Y-175070000D02*
X51415000Y-175070000D01*
X51415000Y-175070000D02*
X50780000Y-174435000D01*
X50780000Y-174435000D02*
X50780000Y-162370000D01*
X50780000Y-162370000D02*
X53320000Y-162370000D01*
X53320000Y-162370000D02*
X53320000Y-175070000D01*
X96070000Y-189365000D02*
X96070000Y-191270000D01*
X96070000Y-191270000D02*
X85910000Y-191270000D01*
X85910000Y-191270000D02*
X85910000Y-188730000D01*
X85910000Y-188730000D02*
X95435000Y-188730000D01*
X95435000Y-188730000D02*
X96070000Y-189365000D01*
X45300000Y-169030000D02*
X47800000Y-169030000D01*
X47800000Y-169030000D02*
X47800000Y-162730000D01*
X47800000Y-162730000D02*
X45300000Y-162730000D01*
X45300000Y-162730000D02*
X45300000Y-169030000D01*
X46550000Y-170960000D02*
X46550000Y-169030000D01*
X46550000Y-160800000D02*
X46550000Y-162730000D01*
X44800000Y-162730000D02*
X42300000Y-162730000D01*
X42300000Y-162730000D02*
X42300000Y-169030000D01*
X42300000Y-169030000D02*
X44800000Y-169030000D01*
X44800000Y-169030000D02*
X44800000Y-162730000D01*
X43550000Y-160800000D02*
X43550000Y-162730000D01*
X43550000Y-170960000D02*
X43550000Y-169030000D01*
X99700000Y-138750000D02*
X94700000Y-138750000D01*
X99700000Y-141250000D02*
X99700000Y-138750000D01*
X94700000Y-141250000D02*
X99700000Y-141250000D01*
X94700000Y-138750000D02*
X94700000Y-141250000D01*
X74780000Y-173519694D02*
X74780000Y-170580306D01*
X74780000Y-172050000D02*
G75*
G03*
X74780000Y-172050000I-2500000J0D01*
G01*
X74780016Y-170580334D02*
G75*
G03*
X74780000Y-173519694I-2500016J-1469666D01*
G01*
X68280000Y-173519694D02*
X68280000Y-170580306D01*
X68280000Y-172050000D02*
G75*
G03*
X68280000Y-172050000I-2500000J0D01*
G01*
X68280016Y-170580334D02*
G75*
G03*
X68280000Y-173519694I-2500016J-1469666D01*
G01*
X63890000Y-180050000D02*
X65820000Y-180050000D01*
X74050000Y-180050000D02*
X72120000Y-180050000D01*
X65820000Y-181300000D02*
X72120000Y-181300000D01*
X65820000Y-178800000D02*
X65820000Y-181300000D01*
X72120000Y-178800000D02*
X65820000Y-178800000D01*
X72120000Y-181300000D02*
X72120000Y-178800000D01*
X63890000Y-177050000D02*
X65820000Y-177050000D01*
X74050000Y-177050000D02*
X72120000Y-177050000D01*
X65820000Y-178300000D02*
X72120000Y-178300000D01*
X65820000Y-175800000D02*
X65820000Y-178300000D01*
X72120000Y-175800000D02*
X65820000Y-175800000D01*
X72120000Y-178300000D02*
X72120000Y-175800000D01*
X144250000Y-181310000D02*
X144250000Y-179380000D01*
X144250000Y-171150000D02*
X144250000Y-173080000D01*
X145500000Y-179380000D02*
X145500000Y-173080000D01*
X143000000Y-179380000D02*
X145500000Y-179380000D01*
X143000000Y-173080000D02*
X143000000Y-179380000D01*
X145500000Y-173080000D02*
X143000000Y-173080000D01*
X134500000Y-181310000D02*
X134500000Y-179380000D01*
X134500000Y-171150000D02*
X134500000Y-173080000D01*
X135750000Y-179380000D02*
X135750000Y-173080000D01*
X133250000Y-179380000D02*
X135750000Y-179380000D01*
X133250000Y-173080000D02*
X133250000Y-179380000D01*
X135750000Y-173080000D02*
X133250000Y-173080000D01*
X144760000Y-157450000D02*
X142830000Y-157450000D01*
X134600000Y-157450000D02*
X136530000Y-157450000D01*
X142830000Y-156200000D02*
X136530000Y-156200000D01*
X142830000Y-158700000D02*
X142830000Y-156200000D01*
X136530000Y-158700000D02*
X142830000Y-158700000D01*
X136530000Y-156200000D02*
X136530000Y-158700000D01*
X144760000Y-160450000D02*
X142830000Y-160450000D01*
X134600000Y-160450000D02*
X136530000Y-160450000D01*
X142830000Y-159200000D02*
X136530000Y-159200000D01*
X142830000Y-161700000D02*
X142830000Y-159200000D01*
X136530000Y-161700000D02*
X142830000Y-161700000D01*
X136530000Y-159200000D02*
X136530000Y-161700000D01*
X120190000Y-157450000D02*
X122120000Y-157450000D01*
X130350000Y-157450000D02*
X128420000Y-157450000D01*
X122120000Y-158700000D02*
X128420000Y-158700000D01*
X122120000Y-156200000D02*
X122120000Y-158700000D01*
X128420000Y-156200000D02*
X122120000Y-156200000D01*
X128420000Y-158700000D02*
X128420000Y-156200000D01*
X124750000Y-181200000D02*
X124750000Y-179270000D01*
X124750000Y-171040000D02*
X124750000Y-172970000D01*
X126000000Y-179270000D02*
X126000000Y-172970000D01*
X123500000Y-179270000D02*
X126000000Y-179270000D01*
X123500000Y-172970000D02*
X123500000Y-179270000D01*
X126000000Y-172970000D02*
X123500000Y-172970000D01*
X107330000Y-169350000D02*
X107330000Y-171850000D01*
X107330000Y-171850000D02*
X113630000Y-171850000D01*
X113630000Y-171850000D02*
X113630000Y-169350000D01*
X113630000Y-169350000D02*
X107330000Y-169350000D01*
X105400000Y-170600000D02*
X107330000Y-170600000D01*
X115560000Y-170600000D02*
X113630000Y-170600000D01*
X120190000Y-160450000D02*
X122120000Y-160450000D01*
X130350000Y-160450000D02*
X128420000Y-160450000D01*
X122120000Y-161700000D02*
X128420000Y-161700000D01*
X122120000Y-159200000D02*
X122120000Y-161700000D01*
X128420000Y-159200000D02*
X122120000Y-159200000D01*
X128420000Y-161700000D02*
X128420000Y-159200000D01*
X120480000Y-98100000D02*
X120480000Y-100600000D01*
X120480000Y-100600000D02*
X126780000Y-100600000D01*
X126780000Y-100600000D02*
X126780000Y-98100000D01*
X126780000Y-98100000D02*
X120480000Y-98100000D01*
X118550000Y-99350000D02*
X120480000Y-99350000D01*
X128710000Y-99350000D02*
X126780000Y-99350000D01*
X58290000Y-81100000D02*
X60220000Y-81100000D01*
X68450000Y-81100000D02*
X66520000Y-81100000D01*
X60220000Y-82350000D02*
X66520000Y-82350000D01*
X60220000Y-79850000D02*
X60220000Y-82350000D01*
X66520000Y-79850000D02*
X60220000Y-79850000D01*
X66520000Y-82350000D02*
X66520000Y-79850000D01*
X58290000Y-84350000D02*
X60220000Y-84350000D01*
X68450000Y-84350000D02*
X66520000Y-84350000D01*
X60220000Y-85600000D02*
X66520000Y-85600000D01*
X60220000Y-83100000D02*
X60220000Y-85600000D01*
X66520000Y-83100000D02*
X60220000Y-83100000D01*
X66520000Y-85600000D02*
X66520000Y-83100000D01*
X111300000Y-185260000D02*
X111300000Y-183330000D01*
X111300000Y-175100000D02*
X111300000Y-177030000D01*
X112550000Y-183330000D02*
X112550000Y-177030000D01*
X110050000Y-183330000D02*
X112550000Y-183330000D01*
X110050000Y-177030000D02*
X110050000Y-183330000D01*
X112550000Y-177030000D02*
X110050000Y-177030000D01*
X40550000Y-160800000D02*
X40550000Y-162730000D01*
X40550000Y-170960000D02*
X40550000Y-169030000D01*
X39300000Y-162730000D02*
X39300000Y-169030000D01*
X41800000Y-162730000D02*
X39300000Y-162730000D01*
X41800000Y-169030000D02*
X41800000Y-162730000D01*
X39300000Y-169030000D02*
X41800000Y-169030000D01*
X147730000Y-158835000D02*
X147730000Y-156930000D01*
X147730000Y-156930000D02*
X155350000Y-156930000D01*
X155350000Y-156930000D02*
X155350000Y-159470000D01*
X155350000Y-159470000D02*
X148365000Y-159470000D01*
X148365000Y-159470000D02*
X147730000Y-158835000D01*
X111885000Y-93270000D02*
X109980000Y-93270000D01*
X109980000Y-93270000D02*
X109980000Y-85650000D01*
X109980000Y-85650000D02*
X112520000Y-85650000D01*
X112520000Y-85650000D02*
X112520000Y-92635000D01*
X112520000Y-92635000D02*
X111885000Y-93270000D01*
X119780000Y-88985000D02*
X119780000Y-87080000D01*
X119780000Y-87080000D02*
X127400000Y-87080000D01*
X127400000Y-87080000D02*
X127400000Y-89620000D01*
X127400000Y-89620000D02*
X120415000Y-89620000D01*
X120415000Y-89620000D02*
X119780000Y-88985000D01*
X119780000Y-92735000D02*
X119780000Y-90830000D01*
X119780000Y-90830000D02*
X127400000Y-90830000D01*
X127400000Y-90830000D02*
X127400000Y-93370000D01*
X127400000Y-93370000D02*
X120415000Y-93370000D01*
X120415000Y-93370000D02*
X119780000Y-92735000D01*
X22930000Y-159765000D02*
X23565000Y-159130000D01*
X22930000Y-169290000D02*
X22930000Y-159765000D01*
X25470000Y-169290000D02*
X22930000Y-169290000D01*
X25470000Y-159130000D02*
X25470000Y-169290000D01*
X23565000Y-159130000D02*
X25470000Y-159130000D01*
X140730000Y-96490000D02*
X140730000Y-73630000D01*
X143270000Y-96490000D02*
X140730000Y-96490000D01*
X143270000Y-74265000D02*
X143270000Y-96490000D01*
X142635000Y-73630000D02*
X143270000Y-74265000D01*
X140730000Y-73630000D02*
X142635000Y-73630000D01*
X119740000Y-96485000D02*
X119740000Y-94580000D01*
X119740000Y-94580000D02*
X127360000Y-94580000D01*
X127360000Y-94580000D02*
X127360000Y-97120000D01*
X127360000Y-97120000D02*
X120375000Y-97120000D01*
X120375000Y-97120000D02*
X119740000Y-96485000D01*
X68335000Y-76330000D02*
X68970000Y-76965000D01*
X61350000Y-76330000D02*
X68335000Y-76330000D01*
X61350000Y-78870000D02*
X61350000Y-76330000D01*
X68970000Y-78870000D02*
X61350000Y-78870000D01*
X68970000Y-76965000D02*
X68970000Y-78870000D01*
X142250000Y-182150000D02*
X142250000Y-177150000D01*
X139750000Y-182150000D02*
X142250000Y-182150000D01*
X139750000Y-177150000D02*
X139750000Y-182150000D01*
X142250000Y-177150000D02*
X139750000Y-177150000D01*
X132500000Y-182150000D02*
X132500000Y-177150000D01*
X130000000Y-182150000D02*
X132500000Y-182150000D01*
X130000000Y-177150000D02*
X130000000Y-182150000D01*
X132500000Y-177150000D02*
X130000000Y-177150000D01*
X122650000Y-182050000D02*
X122650000Y-177050000D01*
X120150000Y-182050000D02*
X122650000Y-182050000D01*
X120150000Y-177050000D02*
X120150000Y-182050000D01*
X122650000Y-177050000D02*
X120150000Y-177050000D01*
X64700000Y-88600000D02*
X69700000Y-88600000D01*
X64700000Y-86100000D02*
X64700000Y-88600000D01*
X69700000Y-86100000D02*
X64700000Y-86100000D01*
X69700000Y-88600000D02*
X69700000Y-86100000D01*
X74232500Y-161552554D02*
X74632500Y-161552554D01*
X74432500Y-161752554D02*
X74432500Y-161352554D01*
X77300000Y-160050000D02*
G75*
G03*
X77300000Y-160050000I-2000000J0D01*
G01*
X62300000Y-157800000D02*
X62300000Y-162800000D01*
X64800000Y-157800000D02*
X62300000Y-157800000D01*
X64800000Y-162800000D02*
X64800000Y-157800000D01*
X62300000Y-162800000D02*
X64800000Y-162800000D01*
X78050000Y-135650000D02*
X78050000Y-138150000D01*
X78050000Y-138150000D02*
X83050000Y-138150000D01*
X83050000Y-138150000D02*
X83050000Y-135650000D01*
X83050000Y-135650000D02*
X78050000Y-135650000D01*
X94700000Y-135650000D02*
X94700000Y-138150000D01*
X94700000Y-138150000D02*
X99700000Y-138150000D01*
X99700000Y-138150000D02*
X99700000Y-135650000D01*
X99700000Y-135650000D02*
X94700000Y-135650000D01*
X95150000Y-122550000D02*
X95150000Y-125050000D01*
X95150000Y-125050000D02*
X100150000Y-125050000D01*
X100150000Y-125050000D02*
X100150000Y-122550000D01*
X100150000Y-122550000D02*
X95150000Y-122550000D01*
X83300000Y-123650000D02*
X83300000Y-121150000D01*
X83300000Y-121150000D02*
X78300000Y-121150000D01*
X78300000Y-121150000D02*
X78300000Y-123650000D01*
X78300000Y-123650000D02*
X83300000Y-123650000D01*
X116600000Y-162200000D02*
G75*
G03*
X116600000Y-162200000I-6000000J0D01*
G01*
X111600000Y-162200000D02*
G75*
G03*
X111600000Y-162200000I-1000000J0D01*
G01*
X68215564Y-93600000D02*
G75*
G03*
X68215564Y-93600000I-2015564J0D01*
G01*
X69200000Y-90600000D02*
X69200000Y-93600000D01*
X63200000Y-90600000D02*
X69200000Y-90600000D01*
X63200000Y-96600000D02*
X63200000Y-90600000D01*
X69200000Y-96600000D02*
X63200000Y-96600000D01*
X69200000Y-93600000D02*
X69200000Y-96600000D01*
X66350000Y-159200000D02*
X66350000Y-158200000D01*
X66350000Y-158200000D02*
X71750000Y-158200000D01*
X71750000Y-158200000D02*
X71750000Y-159200000D01*
X65800000Y-159200000D02*
X72300000Y-159200000D01*
X72300000Y-159200000D02*
X72300000Y-165420000D01*
X72300000Y-165420000D02*
X66800000Y-165420000D01*
X66800000Y-165420000D02*
X65800000Y-164420000D01*
X65800000Y-164420000D02*
X65800000Y-159200000D01*
X66395000Y-165015000D02*
X66395000Y-168120000D01*
X66395000Y-168120000D02*
X67145000Y-168120000D01*
X67145000Y-168120000D02*
X67145000Y-165420000D01*
X70955000Y-165420000D02*
X70955000Y-168120000D01*
X70955000Y-168120000D02*
X71705000Y-168120000D01*
X71705000Y-168120000D02*
X71705000Y-165420000D01*
X144015564Y-187400000D02*
G75*
G03*
X144015564Y-187400000I-2015564J0D01*
G01*
X145000000Y-184400000D02*
X145000000Y-187400000D01*
X139000000Y-184400000D02*
X145000000Y-184400000D01*
X139000000Y-190400000D02*
X139000000Y-184400000D01*
X145000000Y-190400000D02*
X139000000Y-190400000D01*
X145000000Y-187400000D02*
X145000000Y-190400000D01*
X134215564Y-187460000D02*
G75*
G03*
X134215564Y-187460000I-2015564J0D01*
G01*
X135200000Y-184460000D02*
X135200000Y-187460000D01*
X129200000Y-184460000D02*
X135200000Y-184460000D01*
X129200000Y-190460000D02*
X129200000Y-184460000D01*
X135200000Y-190460000D02*
X129200000Y-190460000D01*
X135200000Y-187460000D02*
X135200000Y-190460000D01*
X124515564Y-187400000D02*
G75*
G03*
X124515564Y-187400000I-2015564J0D01*
G01*
X125500000Y-184400000D02*
X125500000Y-187400000D01*
X119500000Y-184400000D02*
X125500000Y-184400000D01*
X119500000Y-190400000D02*
X119500000Y-184400000D01*
X125500000Y-190400000D02*
X119500000Y-190400000D01*
X125500000Y-187400000D02*
X125500000Y-190400000D01*
X94690000Y-64870000D02*
X84530000Y-64870000D01*
X94690000Y-62330000D02*
X94690000Y-64870000D01*
X85165000Y-62330000D02*
X94690000Y-62330000D01*
X84530000Y-62965000D02*
X85165000Y-62330000D01*
X84530000Y-64870000D02*
X84530000Y-62965000D01*
X156730000Y-78090000D02*
X156730000Y-67930000D01*
X159270000Y-78090000D02*
X156730000Y-78090000D01*
X159270000Y-68565000D02*
X159270000Y-78090000D01*
X158635000Y-67930000D02*
X159270000Y-68565000D01*
X156730000Y-67930000D02*
X158635000Y-67930000D01*
X20530000Y-78090000D02*
X20530000Y-67930000D01*
X23070000Y-78090000D02*
X20530000Y-78090000D01*
X23070000Y-68565000D02*
X23070000Y-78090000D01*
X22435000Y-67930000D02*
X23070000Y-68565000D01*
X20530000Y-67930000D02*
X22435000Y-67930000D01*
X157615000Y-170390000D02*
X157615000Y-160230000D01*
X160155000Y-170390000D02*
X157615000Y-170390000D01*
X160155000Y-160865000D02*
X160155000Y-170390000D01*
X159520000Y-160230000D02*
X160155000Y-160865000D01*
X157615000Y-160230000D02*
X159520000Y-160230000D01*
X160650000Y-171120000D02*
X160650000Y-173120000D01*
X159400000Y-171120000D02*
X160650000Y-171120000D01*
X160150000Y-191940000D02*
X160150000Y-171620000D01*
X152900000Y-191940000D02*
X160150000Y-191940000D01*
X152900000Y-171620000D02*
X152900000Y-191940000D01*
X160150000Y-171620000D02*
X152900000Y-171620000D01*
X19700000Y-191545000D02*
X19700000Y-189545000D01*
X20950000Y-191545000D02*
X19700000Y-191545000D01*
X20200000Y-170725000D02*
X20200000Y-191045000D01*
X27450000Y-170725000D02*
X20200000Y-170725000D01*
X27450000Y-191045000D02*
X27450000Y-170725000D01*
X20200000Y-191045000D02*
X27450000Y-191045000D01*
X138360000Y-58750000D02*
X140360000Y-58750000D01*
X138360000Y-60000000D02*
X138360000Y-58750000D01*
X159180000Y-59250000D02*
X138860000Y-59250000D01*
X159180000Y-66500000D02*
X159180000Y-59250000D01*
X138860000Y-66500000D02*
X159180000Y-66500000D01*
X138860000Y-59250000D02*
X138860000Y-66500000D01*
X160545000Y-99910000D02*
X160545000Y-97410000D01*
X158045000Y-99910000D02*
X160545000Y-99910000D01*
X156335000Y-84500000D02*
X156335000Y-99500000D01*
X160135000Y-84500000D02*
X156335000Y-84500000D01*
X160135000Y-99500000D02*
X160135000Y-84500000D01*
X156335000Y-99500000D02*
X160135000Y-99500000D01*
X19900000Y-100840000D02*
X19900000Y-98840000D01*
X21150000Y-100840000D02*
X19900000Y-100840000D01*
X20400000Y-80020000D02*
X20400000Y-100340000D01*
X27650000Y-80020000D02*
X20400000Y-80020000D01*
X27650000Y-100340000D02*
X27650000Y-80020000D01*
X20400000Y-100340000D02*
X27650000Y-100340000D01*
X19960000Y-58950000D02*
X21960000Y-58950000D01*
X19960000Y-60200000D02*
X19960000Y-58950000D01*
X40780000Y-59450000D02*
X20460000Y-59450000D01*
X40780000Y-66700000D02*
X40780000Y-59450000D01*
X20460000Y-66700000D02*
X40780000Y-66700000D01*
X20460000Y-59450000D02*
X20460000Y-66700000D01*
D11*
X94950000Y-168850000D02*
X94950000Y-181600000D01*
X94950000Y-181600000D02*
X97450000Y-184350000D01*
X97450000Y-184350000D02*
X100550000Y-184350000D01*
X100550000Y-184350000D02*
X103050000Y-181600000D01*
X103050000Y-181600000D02*
X103050000Y-168850000D01*
X103050000Y-168850000D02*
X94950000Y-168850000D01*
D10*
X141130306Y-167680000D02*
X144069694Y-167680000D01*
X145100000Y-165180000D02*
G75*
G03*
X145100000Y-165180000I-2500000J0D01*
G01*
X144069666Y-167680016D02*
G75*
G03*
X141130306Y-167680000I-1469666J2500016D01*
G01*
X134380306Y-167680000D02*
X137319694Y-167680000D01*
X138350000Y-165180000D02*
G75*
G03*
X138350000Y-165180000I-2500000J0D01*
G01*
X137319666Y-167680016D02*
G75*
G03*
X134380306Y-167680000I-1469666J2500016D01*
G01*
X127630306Y-167680000D02*
X130569694Y-167680000D01*
X131600000Y-165180000D02*
G75*
G03*
X131600000Y-165180000I-2500000J0D01*
G01*
X130569666Y-167680016D02*
G75*
G03*
X127630306Y-167680000I-1469666J2500016D01*
G01*
X120880306Y-167680000D02*
X123819694Y-167680000D01*
X124850000Y-165180000D02*
G75*
G03*
X124850000Y-165180000I-2500000J0D01*
G01*
X123819666Y-167680016D02*
G75*
G03*
X120880306Y-167680000I-1469666J2500016D01*
G01*
X108700000Y-182200000D02*
X107430000Y-182200000D01*
X108700000Y-178500000D02*
X107430000Y-178500000D01*
X107430000Y-175350000D02*
X107430000Y-185350000D01*
X108700000Y-185350000D02*
X108700000Y-175350000D01*
X104300000Y-185350000D02*
X108700000Y-185350000D01*
X104300000Y-175350000D02*
X104300000Y-185350000D01*
X108700000Y-175350000D02*
X104300000Y-175350000D01*
D12*
X80323809Y-81502380D02*
X80942857Y-81502380D01*
X80609523Y-81883333D01*
X80752380Y-81883333D01*
X80847619Y-81930952D01*
X80895238Y-81978571D01*
X80942857Y-82073809D01*
X80942857Y-82311904D01*
X80895238Y-82407142D01*
X80847619Y-82454761D01*
X80752380Y-82502380D01*
X80466666Y-82502380D01*
X80371428Y-82454761D01*
X80323809Y-82407142D01*
X81371428Y-82407142D02*
X81419047Y-82454761D01*
X81371428Y-82502380D01*
X81323809Y-82454761D01*
X81371428Y-82407142D01*
X81371428Y-82502380D01*
X81752380Y-81502380D02*
X82371428Y-81502380D01*
X82038095Y-81883333D01*
X82180952Y-81883333D01*
X82276190Y-81930952D01*
X82323809Y-81978571D01*
X82371428Y-82073809D01*
X82371428Y-82311904D01*
X82323809Y-82407142D01*
X82276190Y-82454761D01*
X82180952Y-82502380D01*
X81895238Y-82502380D01*
X81800000Y-82454761D01*
X81752380Y-82407142D01*
X82657142Y-81502380D02*
X82990476Y-82502380D01*
X83323809Y-81502380D01*
X37009523Y-175402380D02*
X36533333Y-175402380D01*
X36485714Y-175878571D01*
X36533333Y-175830952D01*
X36628571Y-175783333D01*
X36866666Y-175783333D01*
X36961904Y-175830952D01*
X37009523Y-175878571D01*
X37057142Y-175973809D01*
X37057142Y-176211904D01*
X37009523Y-176307142D01*
X36961904Y-176354761D01*
X36866666Y-176402380D01*
X36628571Y-176402380D01*
X36533333Y-176354761D01*
X36485714Y-176307142D01*
X37342857Y-175402380D02*
X37676190Y-176402380D01*
X38009523Y-175402380D01*
X42009523Y-176021428D02*
X42771428Y-176021428D01*
X42390476Y-176402380D02*
X42390476Y-175640476D01*
X43580952Y-175878571D02*
X43723809Y-175926190D01*
X43771428Y-175973809D01*
X43819047Y-176069047D01*
X43819047Y-176211904D01*
X43771428Y-176307142D01*
X43723809Y-176354761D01*
X43628571Y-176402380D01*
X43247619Y-176402380D01*
X43247619Y-175402380D01*
X43580952Y-175402380D01*
X43676190Y-175450000D01*
X43723809Y-175497619D01*
X43771428Y-175592857D01*
X43771428Y-175688095D01*
X43723809Y-175783333D01*
X43676190Y-175830952D01*
X43580952Y-175878571D01*
X43247619Y-175878571D01*
X44200000Y-176116666D02*
X44676190Y-176116666D01*
X44104761Y-176402380D02*
X44438095Y-175402380D01*
X44771428Y-176402380D01*
X44961904Y-175402380D02*
X45533333Y-175402380D01*
X45247619Y-176402380D02*
X45247619Y-175402380D01*
X71938095Y-63600000D02*
X71842857Y-63552380D01*
X71700000Y-63552380D01*
X71557142Y-63600000D01*
X71461904Y-63695238D01*
X71414285Y-63790476D01*
X71366666Y-63980952D01*
X71366666Y-64123809D01*
X71414285Y-64314285D01*
X71461904Y-64409523D01*
X71557142Y-64504761D01*
X71700000Y-64552380D01*
X71795238Y-64552380D01*
X71938095Y-64504761D01*
X71985714Y-64457142D01*
X71985714Y-64123809D01*
X71795238Y-64123809D01*
X72414285Y-64552380D02*
X72414285Y-63552380D01*
X72985714Y-64552380D01*
X72985714Y-63552380D01*
X73461904Y-64552380D02*
X73461904Y-63552380D01*
X73700000Y-63552380D01*
X73842857Y-63600000D01*
X73938095Y-63695238D01*
X73985714Y-63790476D01*
X74033333Y-63980952D01*
X74033333Y-64123809D01*
X73985714Y-64314285D01*
X73938095Y-64409523D01*
X73842857Y-64504761D01*
X73700000Y-64552380D01*
X73461904Y-64552380D01*
X102776112Y-70801662D02*
X102271036Y-71306738D01*
X102136349Y-71374082D01*
X102001662Y-71374082D01*
X101866975Y-71306738D01*
X101799632Y-71239395D01*
X103045486Y-71071036D02*
X103483219Y-71508769D01*
X102978143Y-71542441D01*
X103079158Y-71643456D01*
X103112830Y-71744471D01*
X103112830Y-71811815D01*
X103079158Y-71912830D01*
X102910799Y-72081189D01*
X102809784Y-72114860D01*
X102742441Y-72114860D01*
X102641425Y-72081189D01*
X102439395Y-71879158D01*
X102405723Y-71778143D01*
X102405723Y-71710799D01*
X103920952Y-71946502D02*
X103988295Y-72013845D01*
X104021967Y-72114860D01*
X104021967Y-72182204D01*
X103988295Y-72283219D01*
X103887280Y-72451578D01*
X103718921Y-72619937D01*
X103550563Y-72720952D01*
X103449547Y-72754624D01*
X103382204Y-72754624D01*
X103281189Y-72720952D01*
X103213845Y-72653608D01*
X103180173Y-72552593D01*
X103180173Y-72485250D01*
X103213845Y-72384234D01*
X103314860Y-72215876D01*
X103483219Y-72047517D01*
X103651578Y-71946502D01*
X103752593Y-71912830D01*
X103819937Y-71912830D01*
X103920952Y-71946502D01*
X104392356Y-72417906D02*
X104863761Y-72889311D01*
X103853608Y-73293372D01*
X59125714Y-132356666D02*
X59601904Y-132356666D01*
X59030476Y-132642380D02*
X59363809Y-131642380D01*
X59697142Y-132642380D01*
X60554285Y-132642380D02*
X59982857Y-132642380D01*
X60268571Y-132642380D02*
X60268571Y-131642380D01*
X60173333Y-131785238D01*
X60078095Y-131880476D01*
X59982857Y-131928095D01*
X117735714Y-124736666D02*
X118211904Y-124736666D01*
X117640476Y-125022380D02*
X117973809Y-124022380D01*
X118307142Y-125022380D01*
X118592857Y-124117619D02*
X118640476Y-124070000D01*
X118735714Y-124022380D01*
X118973809Y-124022380D01*
X119069047Y-124070000D01*
X119116666Y-124117619D01*
X119164285Y-124212857D01*
X119164285Y-124308095D01*
X119116666Y-124450952D01*
X118545238Y-125022380D01*
X119164285Y-125022380D01*
X87335714Y-129102380D02*
X87335714Y-129911904D01*
X87383333Y-130007142D01*
X87430952Y-130054761D01*
X87526190Y-130102380D01*
X87716666Y-130102380D01*
X87811904Y-130054761D01*
X87859523Y-130007142D01*
X87907142Y-129911904D01*
X87907142Y-129102380D01*
X88907142Y-130102380D02*
X88335714Y-130102380D01*
X88621428Y-130102380D02*
X88621428Y-129102380D01*
X88526190Y-129245238D01*
X88430952Y-129340476D01*
X88335714Y-129388095D01*
X89526190Y-129102380D02*
X89621428Y-129102380D01*
X89716666Y-129150000D01*
X89764285Y-129197619D01*
X89811904Y-129292857D01*
X89859523Y-129483333D01*
X89859523Y-129721428D01*
X89811904Y-129911904D01*
X89764285Y-130007142D01*
X89716666Y-130054761D01*
X89621428Y-130102380D01*
X89526190Y-130102380D01*
X89430952Y-130054761D01*
X89383333Y-130007142D01*
X89335714Y-129911904D01*
X89288095Y-129721428D01*
X89288095Y-129483333D01*
X89335714Y-129292857D01*
X89383333Y-129197619D01*
X89430952Y-129150000D01*
X89526190Y-129102380D01*
X90811904Y-130102380D02*
X90240476Y-130102380D01*
X90526190Y-130102380D02*
X90526190Y-129102380D01*
X90430952Y-129245238D01*
X90335714Y-129340476D01*
X90240476Y-129388095D01*
X150966666Y-167052380D02*
X150633333Y-166576190D01*
X150395238Y-167052380D02*
X150395238Y-166052380D01*
X150776190Y-166052380D01*
X150871428Y-166100000D01*
X150919047Y-166147619D01*
X150966666Y-166242857D01*
X150966666Y-166385714D01*
X150919047Y-166480952D01*
X150871428Y-166528571D01*
X150776190Y-166576190D01*
X150395238Y-166576190D01*
X151395238Y-166528571D02*
X151728571Y-166528571D01*
X151871428Y-167052380D02*
X151395238Y-167052380D01*
X151395238Y-166052380D01*
X151871428Y-166052380D01*
X152633333Y-166528571D02*
X152300000Y-166528571D01*
X152300000Y-167052380D02*
X152300000Y-166052380D01*
X152776190Y-166052380D01*
X153300000Y-166052380D02*
X153300000Y-166290476D01*
X153061904Y-166195238D02*
X153300000Y-166290476D01*
X153538095Y-166195238D01*
X153157142Y-166480952D02*
X153300000Y-166290476D01*
X153442857Y-166480952D01*
X154061904Y-166052380D02*
X154061904Y-166290476D01*
X153823809Y-166195238D02*
X154061904Y-166290476D01*
X154300000Y-166195238D01*
X153919047Y-166480952D02*
X154061904Y-166290476D01*
X154204761Y-166480952D01*
X33266666Y-162852380D02*
X32933333Y-162376190D01*
X32695238Y-162852380D02*
X32695238Y-161852380D01*
X33076190Y-161852380D01*
X33171428Y-161900000D01*
X33219047Y-161947619D01*
X33266666Y-162042857D01*
X33266666Y-162185714D01*
X33219047Y-162280952D01*
X33171428Y-162328571D01*
X33076190Y-162376190D01*
X32695238Y-162376190D01*
X33695238Y-162328571D02*
X34028571Y-162328571D01*
X34171428Y-162852380D02*
X33695238Y-162852380D01*
X33695238Y-161852380D01*
X34171428Y-161852380D01*
X34933333Y-162328571D02*
X34600000Y-162328571D01*
X34600000Y-162852380D02*
X34600000Y-161852380D01*
X35076190Y-161852380D01*
X35600000Y-161852380D02*
X35600000Y-162090476D01*
X35361904Y-161995238D02*
X35600000Y-162090476D01*
X35838095Y-161995238D01*
X35457142Y-162280952D02*
X35600000Y-162090476D01*
X35742857Y-162280952D01*
X36361904Y-161852380D02*
X36361904Y-162090476D01*
X36123809Y-161995238D02*
X36361904Y-162090476D01*
X36600000Y-161995238D01*
X36219047Y-162280952D02*
X36361904Y-162090476D01*
X36504761Y-162280952D01*
X127866666Y-65952380D02*
X127533333Y-65476190D01*
X127295238Y-65952380D02*
X127295238Y-64952380D01*
X127676190Y-64952380D01*
X127771428Y-65000000D01*
X127819047Y-65047619D01*
X127866666Y-65142857D01*
X127866666Y-65285714D01*
X127819047Y-65380952D01*
X127771428Y-65428571D01*
X127676190Y-65476190D01*
X127295238Y-65476190D01*
X128295238Y-65428571D02*
X128628571Y-65428571D01*
X128771428Y-65952380D02*
X128295238Y-65952380D01*
X128295238Y-64952380D01*
X128771428Y-64952380D01*
X129533333Y-65428571D02*
X129200000Y-65428571D01*
X129200000Y-65952380D02*
X129200000Y-64952380D01*
X129676190Y-64952380D01*
X130200000Y-64952380D02*
X130200000Y-65190476D01*
X129961904Y-65095238D02*
X130200000Y-65190476D01*
X130438095Y-65095238D01*
X130057142Y-65380952D02*
X130200000Y-65190476D01*
X130342857Y-65380952D01*
X130961904Y-64952380D02*
X130961904Y-65190476D01*
X130723809Y-65095238D02*
X130961904Y-65190476D01*
X131200000Y-65095238D01*
X130819047Y-65380952D02*
X130961904Y-65190476D01*
X131104761Y-65380952D01*
X47766666Y-65952380D02*
X47433333Y-65476190D01*
X47195238Y-65952380D02*
X47195238Y-64952380D01*
X47576190Y-64952380D01*
X47671428Y-65000000D01*
X47719047Y-65047619D01*
X47766666Y-65142857D01*
X47766666Y-65285714D01*
X47719047Y-65380952D01*
X47671428Y-65428571D01*
X47576190Y-65476190D01*
X47195238Y-65476190D01*
X48195238Y-65428571D02*
X48528571Y-65428571D01*
X48671428Y-65952380D02*
X48195238Y-65952380D01*
X48195238Y-64952380D01*
X48671428Y-64952380D01*
X49433333Y-65428571D02*
X49100000Y-65428571D01*
X49100000Y-65952380D02*
X49100000Y-64952380D01*
X49576190Y-64952380D01*
X50100000Y-64952380D02*
X50100000Y-65190476D01*
X49861904Y-65095238D02*
X50100000Y-65190476D01*
X50338095Y-65095238D01*
X49957142Y-65380952D02*
X50100000Y-65190476D01*
X50242857Y-65380952D01*
X50861904Y-64952380D02*
X50861904Y-65190476D01*
X50623809Y-65095238D02*
X50861904Y-65190476D01*
X51100000Y-65095238D01*
X50719047Y-65380952D02*
X50861904Y-65190476D01*
X51004761Y-65380952D01*
X45366666Y-191452380D02*
X45366666Y-192166666D01*
X45319047Y-192309523D01*
X45223809Y-192404761D01*
X45080952Y-192452380D01*
X44985714Y-192452380D01*
X46271428Y-191785714D02*
X46271428Y-192452380D01*
X46033333Y-191404761D02*
X45795238Y-192119047D01*
X46414285Y-192119047D01*
X66566666Y-191452380D02*
X66566666Y-192166666D01*
X66519047Y-192309523D01*
X66423809Y-192404761D01*
X66280952Y-192452380D01*
X66185714Y-192452380D01*
X66947619Y-191452380D02*
X67566666Y-191452380D01*
X67233333Y-191833333D01*
X67376190Y-191833333D01*
X67471428Y-191880952D01*
X67519047Y-191928571D01*
X67566666Y-192023809D01*
X67566666Y-192261904D01*
X67519047Y-192357142D01*
X67471428Y-192404761D01*
X67376190Y-192452380D01*
X67090476Y-192452380D01*
X66995238Y-192404761D01*
X66947619Y-192357142D01*
X51502380Y-169053333D02*
X52216666Y-169053333D01*
X52359523Y-169100952D01*
X52454761Y-169196190D01*
X52502380Y-169339047D01*
X52502380Y-169434285D01*
X51597619Y-168624761D02*
X51550000Y-168577142D01*
X51502380Y-168481904D01*
X51502380Y-168243809D01*
X51550000Y-168148571D01*
X51597619Y-168100952D01*
X51692857Y-168053333D01*
X51788095Y-168053333D01*
X51930952Y-168100952D01*
X52502380Y-168672380D01*
X52502380Y-168053333D01*
X89704285Y-189452380D02*
X89704285Y-190166666D01*
X89656666Y-190309523D01*
X89561428Y-190404761D01*
X89418571Y-190452380D01*
X89323333Y-190452380D01*
X90085238Y-189452380D02*
X90704285Y-189452380D01*
X90370952Y-189833333D01*
X90513809Y-189833333D01*
X90609047Y-189880952D01*
X90656666Y-189928571D01*
X90704285Y-190023809D01*
X90704285Y-190261904D01*
X90656666Y-190357142D01*
X90609047Y-190404761D01*
X90513809Y-190452380D01*
X90228095Y-190452380D01*
X90132857Y-190404761D01*
X90085238Y-190357142D01*
X91656666Y-190452380D02*
X91085238Y-190452380D01*
X91370952Y-190452380D02*
X91370952Y-189452380D01*
X91275714Y-189595238D01*
X91180476Y-189690476D01*
X91085238Y-189738095D01*
X92037619Y-189547619D02*
X92085238Y-189500000D01*
X92180476Y-189452380D01*
X92418571Y-189452380D01*
X92513809Y-189500000D01*
X92561428Y-189547619D01*
X92609047Y-189642857D01*
X92609047Y-189738095D01*
X92561428Y-189880952D01*
X91990000Y-190452380D01*
X92609047Y-190452380D01*
X47002380Y-166046666D02*
X46526190Y-166380000D01*
X47002380Y-166618095D02*
X46002380Y-166618095D01*
X46002380Y-166237142D01*
X46050000Y-166141904D01*
X46097619Y-166094285D01*
X46192857Y-166046666D01*
X46335714Y-166046666D01*
X46430952Y-166094285D01*
X46478571Y-166141904D01*
X46526190Y-166237142D01*
X46526190Y-166618095D01*
X46002380Y-165189523D02*
X46002380Y-165380000D01*
X46050000Y-165475238D01*
X46097619Y-165522857D01*
X46240476Y-165618095D01*
X46430952Y-165665714D01*
X46811904Y-165665714D01*
X46907142Y-165618095D01*
X46954761Y-165570476D01*
X47002380Y-165475238D01*
X47002380Y-165284761D01*
X46954761Y-165189523D01*
X46907142Y-165141904D01*
X46811904Y-165094285D01*
X46573809Y-165094285D01*
X46478571Y-165141904D01*
X46430952Y-165189523D01*
X46383333Y-165284761D01*
X46383333Y-165475238D01*
X46430952Y-165570476D01*
X46478571Y-165618095D01*
X46573809Y-165665714D01*
X44002380Y-166046666D02*
X43526190Y-166380000D01*
X44002380Y-166618095D02*
X43002380Y-166618095D01*
X43002380Y-166237142D01*
X43050000Y-166141904D01*
X43097619Y-166094285D01*
X43192857Y-166046666D01*
X43335714Y-166046666D01*
X43430952Y-166094285D01*
X43478571Y-166141904D01*
X43526190Y-166237142D01*
X43526190Y-166618095D01*
X43097619Y-165665714D02*
X43050000Y-165618095D01*
X43002380Y-165522857D01*
X43002380Y-165284761D01*
X43050000Y-165189523D01*
X43097619Y-165141904D01*
X43192857Y-165094285D01*
X43288095Y-165094285D01*
X43430952Y-165141904D01*
X44002380Y-165713333D01*
X44002380Y-165094285D01*
X96080952Y-140357142D02*
X96033333Y-140404761D01*
X95890476Y-140452380D01*
X95795238Y-140452380D01*
X95652380Y-140404761D01*
X95557142Y-140309523D01*
X95509523Y-140214285D01*
X95461904Y-140023809D01*
X95461904Y-139880952D01*
X95509523Y-139690476D01*
X95557142Y-139595238D01*
X95652380Y-139500000D01*
X95795238Y-139452380D01*
X95890476Y-139452380D01*
X96033333Y-139500000D01*
X96080952Y-139547619D01*
X97033333Y-140452380D02*
X96461904Y-140452380D01*
X96747619Y-140452380D02*
X96747619Y-139452380D01*
X96652380Y-139595238D01*
X96557142Y-139690476D01*
X96461904Y-139738095D01*
X97652380Y-139452380D02*
X97747619Y-139452380D01*
X97842857Y-139500000D01*
X97890476Y-139547619D01*
X97938095Y-139642857D01*
X97985714Y-139833333D01*
X97985714Y-140071428D01*
X97938095Y-140261904D01*
X97890476Y-140357142D01*
X97842857Y-140404761D01*
X97747619Y-140452380D01*
X97652380Y-140452380D01*
X97557142Y-140404761D01*
X97509523Y-140357142D01*
X97461904Y-140261904D01*
X97414285Y-140071428D01*
X97414285Y-139833333D01*
X97461904Y-139642857D01*
X97509523Y-139547619D01*
X97557142Y-139500000D01*
X97652380Y-139452380D01*
X98366666Y-139547619D02*
X98414285Y-139500000D01*
X98509523Y-139452380D01*
X98747619Y-139452380D01*
X98842857Y-139500000D01*
X98890476Y-139547619D01*
X98938095Y-139642857D01*
X98938095Y-139738095D01*
X98890476Y-139880952D01*
X98319047Y-140452380D01*
X98938095Y-140452380D01*
D13*
X71709523Y-172411904D02*
X71709523Y-171611904D01*
X71900000Y-171611904D01*
X72014285Y-171650000D01*
X72090476Y-171726190D01*
X72128571Y-171802380D01*
X72166666Y-171954761D01*
X72166666Y-172069047D01*
X72128571Y-172221428D01*
X72090476Y-172297619D01*
X72014285Y-172373809D01*
X71900000Y-172411904D01*
X71709523Y-172411904D01*
X72471428Y-171688095D02*
X72509523Y-171650000D01*
X72585714Y-171611904D01*
X72776190Y-171611904D01*
X72852380Y-171650000D01*
X72890476Y-171688095D01*
X72928571Y-171764285D01*
X72928571Y-171840476D01*
X72890476Y-171954761D01*
X72433333Y-172411904D01*
X72928571Y-172411904D01*
X65209523Y-172411904D02*
X65209523Y-171611904D01*
X65400000Y-171611904D01*
X65514285Y-171650000D01*
X65590476Y-171726190D01*
X65628571Y-171802380D01*
X65666666Y-171954761D01*
X65666666Y-172069047D01*
X65628571Y-172221428D01*
X65590476Y-172297619D01*
X65514285Y-172373809D01*
X65400000Y-172411904D01*
X65209523Y-172411904D01*
X66428571Y-172411904D02*
X65971428Y-172411904D01*
X66200000Y-172411904D02*
X66200000Y-171611904D01*
X66123809Y-171726190D01*
X66047619Y-171802380D01*
X65971428Y-171840476D01*
D12*
X68883333Y-180502380D02*
X68550000Y-180026190D01*
X68311904Y-180502380D02*
X68311904Y-179502380D01*
X68692857Y-179502380D01*
X68788095Y-179550000D01*
X68835714Y-179597619D01*
X68883333Y-179692857D01*
X68883333Y-179835714D01*
X68835714Y-179930952D01*
X68788095Y-179978571D01*
X68692857Y-180026190D01*
X68311904Y-180026190D01*
X69740476Y-179835714D02*
X69740476Y-180502380D01*
X69502380Y-179454761D02*
X69264285Y-180169047D01*
X69883333Y-180169047D01*
X68803333Y-177502380D02*
X68470000Y-177026190D01*
X68231904Y-177502380D02*
X68231904Y-176502380D01*
X68612857Y-176502380D01*
X68708095Y-176550000D01*
X68755714Y-176597619D01*
X68803333Y-176692857D01*
X68803333Y-176835714D01*
X68755714Y-176930952D01*
X68708095Y-176978571D01*
X68612857Y-177026190D01*
X68231904Y-177026190D01*
X69136666Y-176502380D02*
X69755714Y-176502380D01*
X69422380Y-176883333D01*
X69565238Y-176883333D01*
X69660476Y-176930952D01*
X69708095Y-176978571D01*
X69755714Y-177073809D01*
X69755714Y-177311904D01*
X69708095Y-177407142D01*
X69660476Y-177454761D01*
X69565238Y-177502380D01*
X69279523Y-177502380D01*
X69184285Y-177454761D01*
X69136666Y-177407142D01*
X144702380Y-177349047D02*
X144226190Y-177682380D01*
X144702380Y-177920476D02*
X143702380Y-177920476D01*
X143702380Y-177539523D01*
X143750000Y-177444285D01*
X143797619Y-177396666D01*
X143892857Y-177349047D01*
X144035714Y-177349047D01*
X144130952Y-177396666D01*
X144178571Y-177444285D01*
X144226190Y-177539523D01*
X144226190Y-177920476D01*
X143797619Y-176968095D02*
X143750000Y-176920476D01*
X143702380Y-176825238D01*
X143702380Y-176587142D01*
X143750000Y-176491904D01*
X143797619Y-176444285D01*
X143892857Y-176396666D01*
X143988095Y-176396666D01*
X144130952Y-176444285D01*
X144702380Y-177015714D01*
X144702380Y-176396666D01*
X143702380Y-175777619D02*
X143702380Y-175682380D01*
X143750000Y-175587142D01*
X143797619Y-175539523D01*
X143892857Y-175491904D01*
X144083333Y-175444285D01*
X144321428Y-175444285D01*
X144511904Y-175491904D01*
X144607142Y-175539523D01*
X144654761Y-175587142D01*
X144702380Y-175682380D01*
X144702380Y-175777619D01*
X144654761Y-175872857D01*
X144607142Y-175920476D01*
X144511904Y-175968095D01*
X144321428Y-176015714D01*
X144083333Y-176015714D01*
X143892857Y-175968095D01*
X143797619Y-175920476D01*
X143750000Y-175872857D01*
X143702380Y-175777619D01*
X144130952Y-174872857D02*
X144083333Y-174968095D01*
X144035714Y-175015714D01*
X143940476Y-175063333D01*
X143892857Y-175063333D01*
X143797619Y-175015714D01*
X143750000Y-174968095D01*
X143702380Y-174872857D01*
X143702380Y-174682380D01*
X143750000Y-174587142D01*
X143797619Y-174539523D01*
X143892857Y-174491904D01*
X143940476Y-174491904D01*
X144035714Y-174539523D01*
X144083333Y-174587142D01*
X144130952Y-174682380D01*
X144130952Y-174872857D01*
X144178571Y-174968095D01*
X144226190Y-175015714D01*
X144321428Y-175063333D01*
X144511904Y-175063333D01*
X144607142Y-175015714D01*
X144654761Y-174968095D01*
X144702380Y-174872857D01*
X144702380Y-174682380D01*
X144654761Y-174587142D01*
X144607142Y-174539523D01*
X144511904Y-174491904D01*
X144321428Y-174491904D01*
X144226190Y-174539523D01*
X144178571Y-174587142D01*
X144130952Y-174682380D01*
X134952380Y-177349047D02*
X134476190Y-177682380D01*
X134952380Y-177920476D02*
X133952380Y-177920476D01*
X133952380Y-177539523D01*
X134000000Y-177444285D01*
X134047619Y-177396666D01*
X134142857Y-177349047D01*
X134285714Y-177349047D01*
X134380952Y-177396666D01*
X134428571Y-177444285D01*
X134476190Y-177539523D01*
X134476190Y-177920476D01*
X134047619Y-176968095D02*
X134000000Y-176920476D01*
X133952380Y-176825238D01*
X133952380Y-176587142D01*
X134000000Y-176491904D01*
X134047619Y-176444285D01*
X134142857Y-176396666D01*
X134238095Y-176396666D01*
X134380952Y-176444285D01*
X134952380Y-177015714D01*
X134952380Y-176396666D01*
X133952380Y-175777619D02*
X133952380Y-175682380D01*
X134000000Y-175587142D01*
X134047619Y-175539523D01*
X134142857Y-175491904D01*
X134333333Y-175444285D01*
X134571428Y-175444285D01*
X134761904Y-175491904D01*
X134857142Y-175539523D01*
X134904761Y-175587142D01*
X134952380Y-175682380D01*
X134952380Y-175777619D01*
X134904761Y-175872857D01*
X134857142Y-175920476D01*
X134761904Y-175968095D01*
X134571428Y-176015714D01*
X134333333Y-176015714D01*
X134142857Y-175968095D01*
X134047619Y-175920476D01*
X134000000Y-175872857D01*
X133952380Y-175777619D01*
X133952380Y-175110952D02*
X133952380Y-174444285D01*
X134952380Y-174872857D01*
X138560952Y-157902380D02*
X138227619Y-157426190D01*
X137989523Y-157902380D02*
X137989523Y-156902380D01*
X138370476Y-156902380D01*
X138465714Y-156950000D01*
X138513333Y-156997619D01*
X138560952Y-157092857D01*
X138560952Y-157235714D01*
X138513333Y-157330952D01*
X138465714Y-157378571D01*
X138370476Y-157426190D01*
X137989523Y-157426190D01*
X138941904Y-156997619D02*
X138989523Y-156950000D01*
X139084761Y-156902380D01*
X139322857Y-156902380D01*
X139418095Y-156950000D01*
X139465714Y-156997619D01*
X139513333Y-157092857D01*
X139513333Y-157188095D01*
X139465714Y-157330952D01*
X138894285Y-157902380D01*
X139513333Y-157902380D01*
X140132380Y-156902380D02*
X140227619Y-156902380D01*
X140322857Y-156950000D01*
X140370476Y-156997619D01*
X140418095Y-157092857D01*
X140465714Y-157283333D01*
X140465714Y-157521428D01*
X140418095Y-157711904D01*
X140370476Y-157807142D01*
X140322857Y-157854761D01*
X140227619Y-157902380D01*
X140132380Y-157902380D01*
X140037142Y-157854761D01*
X139989523Y-157807142D01*
X139941904Y-157711904D01*
X139894285Y-157521428D01*
X139894285Y-157283333D01*
X139941904Y-157092857D01*
X139989523Y-156997619D01*
X140037142Y-156950000D01*
X140132380Y-156902380D01*
X141322857Y-156902380D02*
X141132380Y-156902380D01*
X141037142Y-156950000D01*
X140989523Y-156997619D01*
X140894285Y-157140476D01*
X140846666Y-157330952D01*
X140846666Y-157711904D01*
X140894285Y-157807142D01*
X140941904Y-157854761D01*
X141037142Y-157902380D01*
X141227619Y-157902380D01*
X141322857Y-157854761D01*
X141370476Y-157807142D01*
X141418095Y-157711904D01*
X141418095Y-157473809D01*
X141370476Y-157378571D01*
X141322857Y-157330952D01*
X141227619Y-157283333D01*
X141037142Y-157283333D01*
X140941904Y-157330952D01*
X140894285Y-157378571D01*
X140846666Y-157473809D01*
X138560952Y-160902380D02*
X138227619Y-160426190D01*
X137989523Y-160902380D02*
X137989523Y-159902380D01*
X138370476Y-159902380D01*
X138465714Y-159950000D01*
X138513333Y-159997619D01*
X138560952Y-160092857D01*
X138560952Y-160235714D01*
X138513333Y-160330952D01*
X138465714Y-160378571D01*
X138370476Y-160426190D01*
X137989523Y-160426190D01*
X138941904Y-159997619D02*
X138989523Y-159950000D01*
X139084761Y-159902380D01*
X139322857Y-159902380D01*
X139418095Y-159950000D01*
X139465714Y-159997619D01*
X139513333Y-160092857D01*
X139513333Y-160188095D01*
X139465714Y-160330952D01*
X138894285Y-160902380D01*
X139513333Y-160902380D01*
X140132380Y-159902380D02*
X140227619Y-159902380D01*
X140322857Y-159950000D01*
X140370476Y-159997619D01*
X140418095Y-160092857D01*
X140465714Y-160283333D01*
X140465714Y-160521428D01*
X140418095Y-160711904D01*
X140370476Y-160807142D01*
X140322857Y-160854761D01*
X140227619Y-160902380D01*
X140132380Y-160902380D01*
X140037142Y-160854761D01*
X139989523Y-160807142D01*
X139941904Y-160711904D01*
X139894285Y-160521428D01*
X139894285Y-160283333D01*
X139941904Y-160092857D01*
X139989523Y-159997619D01*
X140037142Y-159950000D01*
X140132380Y-159902380D01*
X141370476Y-159902380D02*
X140894285Y-159902380D01*
X140846666Y-160378571D01*
X140894285Y-160330952D01*
X140989523Y-160283333D01*
X141227619Y-160283333D01*
X141322857Y-160330952D01*
X141370476Y-160378571D01*
X141418095Y-160473809D01*
X141418095Y-160711904D01*
X141370476Y-160807142D01*
X141322857Y-160854761D01*
X141227619Y-160902380D01*
X140989523Y-160902380D01*
X140894285Y-160854761D01*
X140846666Y-160807142D01*
X124150952Y-157902380D02*
X123817619Y-157426190D01*
X123579523Y-157902380D02*
X123579523Y-156902380D01*
X123960476Y-156902380D01*
X124055714Y-156950000D01*
X124103333Y-156997619D01*
X124150952Y-157092857D01*
X124150952Y-157235714D01*
X124103333Y-157330952D01*
X124055714Y-157378571D01*
X123960476Y-157426190D01*
X123579523Y-157426190D01*
X124531904Y-156997619D02*
X124579523Y-156950000D01*
X124674761Y-156902380D01*
X124912857Y-156902380D01*
X125008095Y-156950000D01*
X125055714Y-156997619D01*
X125103333Y-157092857D01*
X125103333Y-157188095D01*
X125055714Y-157330952D01*
X124484285Y-157902380D01*
X125103333Y-157902380D01*
X125722380Y-156902380D02*
X125817619Y-156902380D01*
X125912857Y-156950000D01*
X125960476Y-156997619D01*
X126008095Y-157092857D01*
X126055714Y-157283333D01*
X126055714Y-157521428D01*
X126008095Y-157711904D01*
X125960476Y-157807142D01*
X125912857Y-157854761D01*
X125817619Y-157902380D01*
X125722380Y-157902380D01*
X125627142Y-157854761D01*
X125579523Y-157807142D01*
X125531904Y-157711904D01*
X125484285Y-157521428D01*
X125484285Y-157283333D01*
X125531904Y-157092857D01*
X125579523Y-156997619D01*
X125627142Y-156950000D01*
X125722380Y-156902380D01*
X126912857Y-157235714D02*
X126912857Y-157902380D01*
X126674761Y-156854761D02*
X126436666Y-157569047D01*
X127055714Y-157569047D01*
X125202380Y-177239047D02*
X124726190Y-177572380D01*
X125202380Y-177810476D02*
X124202380Y-177810476D01*
X124202380Y-177429523D01*
X124250000Y-177334285D01*
X124297619Y-177286666D01*
X124392857Y-177239047D01*
X124535714Y-177239047D01*
X124630952Y-177286666D01*
X124678571Y-177334285D01*
X124726190Y-177429523D01*
X124726190Y-177810476D01*
X124297619Y-176858095D02*
X124250000Y-176810476D01*
X124202380Y-176715238D01*
X124202380Y-176477142D01*
X124250000Y-176381904D01*
X124297619Y-176334285D01*
X124392857Y-176286666D01*
X124488095Y-176286666D01*
X124630952Y-176334285D01*
X125202380Y-176905714D01*
X125202380Y-176286666D01*
X124202380Y-175667619D02*
X124202380Y-175572380D01*
X124250000Y-175477142D01*
X124297619Y-175429523D01*
X124392857Y-175381904D01*
X124583333Y-175334285D01*
X124821428Y-175334285D01*
X125011904Y-175381904D01*
X125107142Y-175429523D01*
X125154761Y-175477142D01*
X125202380Y-175572380D01*
X125202380Y-175667619D01*
X125154761Y-175762857D01*
X125107142Y-175810476D01*
X125011904Y-175858095D01*
X124821428Y-175905714D01*
X124583333Y-175905714D01*
X124392857Y-175858095D01*
X124297619Y-175810476D01*
X124250000Y-175762857D01*
X124202380Y-175667619D01*
X124202380Y-175000952D02*
X124202380Y-174381904D01*
X124583333Y-174715238D01*
X124583333Y-174572380D01*
X124630952Y-174477142D01*
X124678571Y-174429523D01*
X124773809Y-174381904D01*
X125011904Y-174381904D01*
X125107142Y-174429523D01*
X125154761Y-174477142D01*
X125202380Y-174572380D01*
X125202380Y-174858095D01*
X125154761Y-174953333D01*
X125107142Y-175000952D01*
X109360952Y-171052380D02*
X109027619Y-170576190D01*
X108789523Y-171052380D02*
X108789523Y-170052380D01*
X109170476Y-170052380D01*
X109265714Y-170100000D01*
X109313333Y-170147619D01*
X109360952Y-170242857D01*
X109360952Y-170385714D01*
X109313333Y-170480952D01*
X109265714Y-170528571D01*
X109170476Y-170576190D01*
X108789523Y-170576190D01*
X109741904Y-170147619D02*
X109789523Y-170100000D01*
X109884761Y-170052380D01*
X110122857Y-170052380D01*
X110218095Y-170100000D01*
X110265714Y-170147619D01*
X110313333Y-170242857D01*
X110313333Y-170338095D01*
X110265714Y-170480952D01*
X109694285Y-171052380D01*
X110313333Y-171052380D01*
X110932380Y-170052380D02*
X111027619Y-170052380D01*
X111122857Y-170100000D01*
X111170476Y-170147619D01*
X111218095Y-170242857D01*
X111265714Y-170433333D01*
X111265714Y-170671428D01*
X111218095Y-170861904D01*
X111170476Y-170957142D01*
X111122857Y-171004761D01*
X111027619Y-171052380D01*
X110932380Y-171052380D01*
X110837142Y-171004761D01*
X110789523Y-170957142D01*
X110741904Y-170861904D01*
X110694285Y-170671428D01*
X110694285Y-170433333D01*
X110741904Y-170242857D01*
X110789523Y-170147619D01*
X110837142Y-170100000D01*
X110932380Y-170052380D01*
X111646666Y-170147619D02*
X111694285Y-170100000D01*
X111789523Y-170052380D01*
X112027619Y-170052380D01*
X112122857Y-170100000D01*
X112170476Y-170147619D01*
X112218095Y-170242857D01*
X112218095Y-170338095D01*
X112170476Y-170480952D01*
X111599047Y-171052380D01*
X112218095Y-171052380D01*
X124150952Y-160902380D02*
X123817619Y-160426190D01*
X123579523Y-160902380D02*
X123579523Y-159902380D01*
X123960476Y-159902380D01*
X124055714Y-159950000D01*
X124103333Y-159997619D01*
X124150952Y-160092857D01*
X124150952Y-160235714D01*
X124103333Y-160330952D01*
X124055714Y-160378571D01*
X123960476Y-160426190D01*
X123579523Y-160426190D01*
X124531904Y-159997619D02*
X124579523Y-159950000D01*
X124674761Y-159902380D01*
X124912857Y-159902380D01*
X125008095Y-159950000D01*
X125055714Y-159997619D01*
X125103333Y-160092857D01*
X125103333Y-160188095D01*
X125055714Y-160330952D01*
X124484285Y-160902380D01*
X125103333Y-160902380D01*
X125722380Y-159902380D02*
X125817619Y-159902380D01*
X125912857Y-159950000D01*
X125960476Y-159997619D01*
X126008095Y-160092857D01*
X126055714Y-160283333D01*
X126055714Y-160521428D01*
X126008095Y-160711904D01*
X125960476Y-160807142D01*
X125912857Y-160854761D01*
X125817619Y-160902380D01*
X125722380Y-160902380D01*
X125627142Y-160854761D01*
X125579523Y-160807142D01*
X125531904Y-160711904D01*
X125484285Y-160521428D01*
X125484285Y-160283333D01*
X125531904Y-160092857D01*
X125579523Y-159997619D01*
X125627142Y-159950000D01*
X125722380Y-159902380D01*
X127008095Y-160902380D02*
X126436666Y-160902380D01*
X126722380Y-160902380D02*
X126722380Y-159902380D01*
X126627142Y-160045238D01*
X126531904Y-160140476D01*
X126436666Y-160188095D01*
X122510952Y-99802380D02*
X122177619Y-99326190D01*
X121939523Y-99802380D02*
X121939523Y-98802380D01*
X122320476Y-98802380D01*
X122415714Y-98850000D01*
X122463333Y-98897619D01*
X122510952Y-98992857D01*
X122510952Y-99135714D01*
X122463333Y-99230952D01*
X122415714Y-99278571D01*
X122320476Y-99326190D01*
X121939523Y-99326190D01*
X123463333Y-99802380D02*
X122891904Y-99802380D01*
X123177619Y-99802380D02*
X123177619Y-98802380D01*
X123082380Y-98945238D01*
X122987142Y-99040476D01*
X122891904Y-99088095D01*
X124082380Y-98802380D02*
X124177619Y-98802380D01*
X124272857Y-98850000D01*
X124320476Y-98897619D01*
X124368095Y-98992857D01*
X124415714Y-99183333D01*
X124415714Y-99421428D01*
X124368095Y-99611904D01*
X124320476Y-99707142D01*
X124272857Y-99754761D01*
X124177619Y-99802380D01*
X124082380Y-99802380D01*
X123987142Y-99754761D01*
X123939523Y-99707142D01*
X123891904Y-99611904D01*
X123844285Y-99421428D01*
X123844285Y-99183333D01*
X123891904Y-98992857D01*
X123939523Y-98897619D01*
X123987142Y-98850000D01*
X124082380Y-98802380D01*
X125320476Y-98802380D02*
X124844285Y-98802380D01*
X124796666Y-99278571D01*
X124844285Y-99230952D01*
X124939523Y-99183333D01*
X125177619Y-99183333D01*
X125272857Y-99230952D01*
X125320476Y-99278571D01*
X125368095Y-99373809D01*
X125368095Y-99611904D01*
X125320476Y-99707142D01*
X125272857Y-99754761D01*
X125177619Y-99802380D01*
X124939523Y-99802380D01*
X124844285Y-99754761D01*
X124796666Y-99707142D01*
X62250952Y-81552380D02*
X61917619Y-81076190D01*
X61679523Y-81552380D02*
X61679523Y-80552380D01*
X62060476Y-80552380D01*
X62155714Y-80600000D01*
X62203333Y-80647619D01*
X62250952Y-80742857D01*
X62250952Y-80885714D01*
X62203333Y-80980952D01*
X62155714Y-81028571D01*
X62060476Y-81076190D01*
X61679523Y-81076190D01*
X63203333Y-81552380D02*
X62631904Y-81552380D01*
X62917619Y-81552380D02*
X62917619Y-80552380D01*
X62822380Y-80695238D01*
X62727142Y-80790476D01*
X62631904Y-80838095D01*
X63822380Y-80552380D02*
X63917619Y-80552380D01*
X64012857Y-80600000D01*
X64060476Y-80647619D01*
X64108095Y-80742857D01*
X64155714Y-80933333D01*
X64155714Y-81171428D01*
X64108095Y-81361904D01*
X64060476Y-81457142D01*
X64012857Y-81504761D01*
X63917619Y-81552380D01*
X63822380Y-81552380D01*
X63727142Y-81504761D01*
X63679523Y-81457142D01*
X63631904Y-81361904D01*
X63584285Y-81171428D01*
X63584285Y-80933333D01*
X63631904Y-80742857D01*
X63679523Y-80647619D01*
X63727142Y-80600000D01*
X63822380Y-80552380D01*
X64536666Y-80647619D02*
X64584285Y-80600000D01*
X64679523Y-80552380D01*
X64917619Y-80552380D01*
X65012857Y-80600000D01*
X65060476Y-80647619D01*
X65108095Y-80742857D01*
X65108095Y-80838095D01*
X65060476Y-80980952D01*
X64489047Y-81552380D01*
X65108095Y-81552380D01*
X62250952Y-84802380D02*
X61917619Y-84326190D01*
X61679523Y-84802380D02*
X61679523Y-83802380D01*
X62060476Y-83802380D01*
X62155714Y-83850000D01*
X62203333Y-83897619D01*
X62250952Y-83992857D01*
X62250952Y-84135714D01*
X62203333Y-84230952D01*
X62155714Y-84278571D01*
X62060476Y-84326190D01*
X61679523Y-84326190D01*
X63203333Y-84802380D02*
X62631904Y-84802380D01*
X62917619Y-84802380D02*
X62917619Y-83802380D01*
X62822380Y-83945238D01*
X62727142Y-84040476D01*
X62631904Y-84088095D01*
X63822380Y-83802380D02*
X63917619Y-83802380D01*
X64012857Y-83850000D01*
X64060476Y-83897619D01*
X64108095Y-83992857D01*
X64155714Y-84183333D01*
X64155714Y-84421428D01*
X64108095Y-84611904D01*
X64060476Y-84707142D01*
X64012857Y-84754761D01*
X63917619Y-84802380D01*
X63822380Y-84802380D01*
X63727142Y-84754761D01*
X63679523Y-84707142D01*
X63631904Y-84611904D01*
X63584285Y-84421428D01*
X63584285Y-84183333D01*
X63631904Y-83992857D01*
X63679523Y-83897619D01*
X63727142Y-83850000D01*
X63822380Y-83802380D01*
X65108095Y-84802380D02*
X64536666Y-84802380D01*
X64822380Y-84802380D02*
X64822380Y-83802380D01*
X64727142Y-83945238D01*
X64631904Y-84040476D01*
X64536666Y-84088095D01*
X111752380Y-180346666D02*
X111276190Y-180680000D01*
X111752380Y-180918095D02*
X110752380Y-180918095D01*
X110752380Y-180537142D01*
X110800000Y-180441904D01*
X110847619Y-180394285D01*
X110942857Y-180346666D01*
X111085714Y-180346666D01*
X111180952Y-180394285D01*
X111228571Y-180441904D01*
X111276190Y-180537142D01*
X111276190Y-180918095D01*
X110752380Y-179441904D02*
X110752380Y-179918095D01*
X111228571Y-179965714D01*
X111180952Y-179918095D01*
X111133333Y-179822857D01*
X111133333Y-179584761D01*
X111180952Y-179489523D01*
X111228571Y-179441904D01*
X111323809Y-179394285D01*
X111561904Y-179394285D01*
X111657142Y-179441904D01*
X111704761Y-179489523D01*
X111752380Y-179584761D01*
X111752380Y-179822857D01*
X111704761Y-179918095D01*
X111657142Y-179965714D01*
X41002380Y-166046666D02*
X40526190Y-166380000D01*
X41002380Y-166618095D02*
X40002380Y-166618095D01*
X40002380Y-166237142D01*
X40050000Y-166141904D01*
X40097619Y-166094285D01*
X40192857Y-166046666D01*
X40335714Y-166046666D01*
X40430952Y-166094285D01*
X40478571Y-166141904D01*
X40526190Y-166237142D01*
X40526190Y-166618095D01*
X41002380Y-165094285D02*
X41002380Y-165665714D01*
X41002380Y-165380000D02*
X40002380Y-165380000D01*
X40145238Y-165475238D01*
X40240476Y-165570476D01*
X40288095Y-165665714D01*
X149754285Y-157652380D02*
X149754285Y-158366666D01*
X149706666Y-158509523D01*
X149611428Y-158604761D01*
X149468571Y-158652380D01*
X149373333Y-158652380D01*
X150230476Y-158652380D02*
X150230476Y-157652380D01*
X150611428Y-157652380D01*
X150706666Y-157700000D01*
X150754285Y-157747619D01*
X150801904Y-157842857D01*
X150801904Y-157985714D01*
X150754285Y-158080952D01*
X150706666Y-158128571D01*
X150611428Y-158176190D01*
X150230476Y-158176190D01*
X151754285Y-158652380D02*
X151182857Y-158652380D01*
X151468571Y-158652380D02*
X151468571Y-157652380D01*
X151373333Y-157795238D01*
X151278095Y-157890476D01*
X151182857Y-157938095D01*
X152373333Y-157652380D02*
X152468571Y-157652380D01*
X152563809Y-157700000D01*
X152611428Y-157747619D01*
X152659047Y-157842857D01*
X152706666Y-158033333D01*
X152706666Y-158271428D01*
X152659047Y-158461904D01*
X152611428Y-158557142D01*
X152563809Y-158604761D01*
X152468571Y-158652380D01*
X152373333Y-158652380D01*
X152278095Y-158604761D01*
X152230476Y-158557142D01*
X152182857Y-158461904D01*
X152135238Y-158271428D01*
X152135238Y-158033333D01*
X152182857Y-157842857D01*
X152230476Y-157747619D01*
X152278095Y-157700000D01*
X152373333Y-157652380D01*
X153040000Y-157652380D02*
X153706666Y-157652380D01*
X153278095Y-158652380D01*
X110702380Y-91245714D02*
X111416666Y-91245714D01*
X111559523Y-91293333D01*
X111654761Y-91388571D01*
X111702380Y-91531428D01*
X111702380Y-91626666D01*
X111702380Y-90769523D02*
X110702380Y-90769523D01*
X110702380Y-90388571D01*
X110750000Y-90293333D01*
X110797619Y-90245714D01*
X110892857Y-90198095D01*
X111035714Y-90198095D01*
X111130952Y-90245714D01*
X111178571Y-90293333D01*
X111226190Y-90388571D01*
X111226190Y-90769523D01*
X111702380Y-89245714D02*
X111702380Y-89817142D01*
X111702380Y-89531428D02*
X110702380Y-89531428D01*
X110845238Y-89626666D01*
X110940476Y-89721904D01*
X110988095Y-89817142D01*
X110702380Y-88626666D02*
X110702380Y-88531428D01*
X110750000Y-88436190D01*
X110797619Y-88388571D01*
X110892857Y-88340952D01*
X111083333Y-88293333D01*
X111321428Y-88293333D01*
X111511904Y-88340952D01*
X111607142Y-88388571D01*
X111654761Y-88436190D01*
X111702380Y-88531428D01*
X111702380Y-88626666D01*
X111654761Y-88721904D01*
X111607142Y-88769523D01*
X111511904Y-88817142D01*
X111321428Y-88864761D01*
X111083333Y-88864761D01*
X110892857Y-88817142D01*
X110797619Y-88769523D01*
X110750000Y-88721904D01*
X110702380Y-88626666D01*
X110702380Y-87388571D02*
X110702380Y-87864761D01*
X111178571Y-87912380D01*
X111130952Y-87864761D01*
X111083333Y-87769523D01*
X111083333Y-87531428D01*
X111130952Y-87436190D01*
X111178571Y-87388571D01*
X111273809Y-87340952D01*
X111511904Y-87340952D01*
X111607142Y-87388571D01*
X111654761Y-87436190D01*
X111702380Y-87531428D01*
X111702380Y-87769523D01*
X111654761Y-87864761D01*
X111607142Y-87912380D01*
X121804285Y-87802380D02*
X121804285Y-88516666D01*
X121756666Y-88659523D01*
X121661428Y-88754761D01*
X121518571Y-88802380D01*
X121423333Y-88802380D01*
X122280476Y-88802380D02*
X122280476Y-87802380D01*
X122661428Y-87802380D01*
X122756666Y-87850000D01*
X122804285Y-87897619D01*
X122851904Y-87992857D01*
X122851904Y-88135714D01*
X122804285Y-88230952D01*
X122756666Y-88278571D01*
X122661428Y-88326190D01*
X122280476Y-88326190D01*
X123804285Y-88802380D02*
X123232857Y-88802380D01*
X123518571Y-88802380D02*
X123518571Y-87802380D01*
X123423333Y-87945238D01*
X123328095Y-88040476D01*
X123232857Y-88088095D01*
X124423333Y-87802380D02*
X124518571Y-87802380D01*
X124613809Y-87850000D01*
X124661428Y-87897619D01*
X124709047Y-87992857D01*
X124756666Y-88183333D01*
X124756666Y-88421428D01*
X124709047Y-88611904D01*
X124661428Y-88707142D01*
X124613809Y-88754761D01*
X124518571Y-88802380D01*
X124423333Y-88802380D01*
X124328095Y-88754761D01*
X124280476Y-88707142D01*
X124232857Y-88611904D01*
X124185238Y-88421428D01*
X124185238Y-88183333D01*
X124232857Y-87992857D01*
X124280476Y-87897619D01*
X124328095Y-87850000D01*
X124423333Y-87802380D01*
X125613809Y-88135714D02*
X125613809Y-88802380D01*
X125375714Y-87754761D02*
X125137619Y-88469047D01*
X125756666Y-88469047D01*
X121014285Y-83552380D02*
X121014285Y-84266666D01*
X120966666Y-84409523D01*
X120871428Y-84504761D01*
X120728571Y-84552380D01*
X120633333Y-84552380D01*
X121490476Y-84552380D02*
X121490476Y-83552380D01*
X121871428Y-83552380D01*
X121966666Y-83600000D01*
X122014285Y-83647619D01*
X122061904Y-83742857D01*
X122061904Y-83885714D01*
X122014285Y-83980952D01*
X121966666Y-84028571D01*
X121871428Y-84076190D01*
X121490476Y-84076190D01*
X123014285Y-84552380D02*
X122442857Y-84552380D01*
X122728571Y-84552380D02*
X122728571Y-83552380D01*
X122633333Y-83695238D01*
X122538095Y-83790476D01*
X122442857Y-83838095D01*
X123633333Y-83552380D02*
X123728571Y-83552380D01*
X123823809Y-83600000D01*
X123871428Y-83647619D01*
X123919047Y-83742857D01*
X123966666Y-83933333D01*
X123966666Y-84171428D01*
X123919047Y-84361904D01*
X123871428Y-84457142D01*
X123823809Y-84504761D01*
X123728571Y-84552380D01*
X123633333Y-84552380D01*
X123538095Y-84504761D01*
X123490476Y-84457142D01*
X123442857Y-84361904D01*
X123395238Y-84171428D01*
X123395238Y-83933333D01*
X123442857Y-83742857D01*
X123490476Y-83647619D01*
X123538095Y-83600000D01*
X123633333Y-83552380D01*
X124347619Y-83647619D02*
X124395238Y-83600000D01*
X124490476Y-83552380D01*
X124728571Y-83552380D01*
X124823809Y-83600000D01*
X124871428Y-83647619D01*
X124919047Y-83742857D01*
X124919047Y-83838095D01*
X124871428Y-83980952D01*
X124300000Y-84552380D01*
X124919047Y-84552380D01*
X23652380Y-165495714D02*
X24366666Y-165495714D01*
X24509523Y-165543333D01*
X24604761Y-165638571D01*
X24652380Y-165781428D01*
X24652380Y-165876666D01*
X23652380Y-165114761D02*
X23652380Y-164495714D01*
X24033333Y-164829047D01*
X24033333Y-164686190D01*
X24080952Y-164590952D01*
X24128571Y-164543333D01*
X24223809Y-164495714D01*
X24461904Y-164495714D01*
X24557142Y-164543333D01*
X24604761Y-164590952D01*
X24652380Y-164686190D01*
X24652380Y-164971904D01*
X24604761Y-165067142D01*
X24557142Y-165114761D01*
X24652380Y-163543333D02*
X24652380Y-164114761D01*
X24652380Y-163829047D02*
X23652380Y-163829047D01*
X23795238Y-163924285D01*
X23890476Y-164019523D01*
X23938095Y-164114761D01*
X24652380Y-162590952D02*
X24652380Y-163162380D01*
X24652380Y-162876666D02*
X23652380Y-162876666D01*
X23795238Y-162971904D01*
X23890476Y-163067142D01*
X23938095Y-163162380D01*
X141452380Y-86345714D02*
X142166666Y-86345714D01*
X142309523Y-86393333D01*
X142404761Y-86488571D01*
X142452380Y-86631428D01*
X142452380Y-86726666D01*
X141452380Y-85964761D02*
X141452380Y-85345714D01*
X141833333Y-85679047D01*
X141833333Y-85536190D01*
X141880952Y-85440952D01*
X141928571Y-85393333D01*
X142023809Y-85345714D01*
X142261904Y-85345714D01*
X142357142Y-85393333D01*
X142404761Y-85440952D01*
X142452380Y-85536190D01*
X142452380Y-85821904D01*
X142404761Y-85917142D01*
X142357142Y-85964761D01*
X141452380Y-84726666D02*
X141452380Y-84631428D01*
X141500000Y-84536190D01*
X141547619Y-84488571D01*
X141642857Y-84440952D01*
X141833333Y-84393333D01*
X142071428Y-84393333D01*
X142261904Y-84440952D01*
X142357142Y-84488571D01*
X142404761Y-84536190D01*
X142452380Y-84631428D01*
X142452380Y-84726666D01*
X142404761Y-84821904D01*
X142357142Y-84869523D01*
X142261904Y-84917142D01*
X142071428Y-84964761D01*
X141833333Y-84964761D01*
X141642857Y-84917142D01*
X141547619Y-84869523D01*
X141500000Y-84821904D01*
X141452380Y-84726666D01*
X141880952Y-83821904D02*
X141833333Y-83917142D01*
X141785714Y-83964761D01*
X141690476Y-84012380D01*
X141642857Y-84012380D01*
X141547619Y-83964761D01*
X141500000Y-83917142D01*
X141452380Y-83821904D01*
X141452380Y-83631428D01*
X141500000Y-83536190D01*
X141547619Y-83488571D01*
X141642857Y-83440952D01*
X141690476Y-83440952D01*
X141785714Y-83488571D01*
X141833333Y-83536190D01*
X141880952Y-83631428D01*
X141880952Y-83821904D01*
X141928571Y-83917142D01*
X141976190Y-83964761D01*
X142071428Y-84012380D01*
X142261904Y-84012380D01*
X142357142Y-83964761D01*
X142404761Y-83917142D01*
X142452380Y-83821904D01*
X142452380Y-83631428D01*
X142404761Y-83536190D01*
X142357142Y-83488571D01*
X142261904Y-83440952D01*
X142071428Y-83440952D01*
X141976190Y-83488571D01*
X141928571Y-83536190D01*
X141880952Y-83631428D01*
X122264285Y-95302380D02*
X122264285Y-96016666D01*
X122216666Y-96159523D01*
X122121428Y-96254761D01*
X121978571Y-96302380D01*
X121883333Y-96302380D01*
X123264285Y-96302380D02*
X122692857Y-96302380D01*
X122978571Y-96302380D02*
X122978571Y-95302380D01*
X122883333Y-95445238D01*
X122788095Y-95540476D01*
X122692857Y-95588095D01*
X123883333Y-95302380D02*
X123978571Y-95302380D01*
X124073809Y-95350000D01*
X124121428Y-95397619D01*
X124169047Y-95492857D01*
X124216666Y-95683333D01*
X124216666Y-95921428D01*
X124169047Y-96111904D01*
X124121428Y-96207142D01*
X124073809Y-96254761D01*
X123978571Y-96302380D01*
X123883333Y-96302380D01*
X123788095Y-96254761D01*
X123740476Y-96207142D01*
X123692857Y-96111904D01*
X123645238Y-95921428D01*
X123645238Y-95683333D01*
X123692857Y-95492857D01*
X123740476Y-95397619D01*
X123788095Y-95350000D01*
X123883333Y-95302380D01*
X124597619Y-95397619D02*
X124645238Y-95350000D01*
X124740476Y-95302380D01*
X124978571Y-95302380D01*
X125073809Y-95350000D01*
X125121428Y-95397619D01*
X125169047Y-95492857D01*
X125169047Y-95588095D01*
X125121428Y-95730952D01*
X124550000Y-96302380D01*
X125169047Y-96302380D01*
X63874285Y-77052380D02*
X63874285Y-77766666D01*
X63826666Y-77909523D01*
X63731428Y-78004761D01*
X63588571Y-78052380D01*
X63493333Y-78052380D01*
X64874285Y-78052380D02*
X64302857Y-78052380D01*
X64588571Y-78052380D02*
X64588571Y-77052380D01*
X64493333Y-77195238D01*
X64398095Y-77290476D01*
X64302857Y-77338095D01*
X65493333Y-77052380D02*
X65588571Y-77052380D01*
X65683809Y-77100000D01*
X65731428Y-77147619D01*
X65779047Y-77242857D01*
X65826666Y-77433333D01*
X65826666Y-77671428D01*
X65779047Y-77861904D01*
X65731428Y-77957142D01*
X65683809Y-78004761D01*
X65588571Y-78052380D01*
X65493333Y-78052380D01*
X65398095Y-78004761D01*
X65350476Y-77957142D01*
X65302857Y-77861904D01*
X65255238Y-77671428D01*
X65255238Y-77433333D01*
X65302857Y-77242857D01*
X65350476Y-77147619D01*
X65398095Y-77100000D01*
X65493333Y-77052380D01*
X66779047Y-78052380D02*
X66207619Y-78052380D01*
X66493333Y-78052380D02*
X66493333Y-77052380D01*
X66398095Y-77195238D01*
X66302857Y-77290476D01*
X66207619Y-77338095D01*
X141357142Y-180769047D02*
X141404761Y-180816666D01*
X141452380Y-180959523D01*
X141452380Y-181054761D01*
X141404761Y-181197619D01*
X141309523Y-181292857D01*
X141214285Y-181340476D01*
X141023809Y-181388095D01*
X140880952Y-181388095D01*
X140690476Y-181340476D01*
X140595238Y-181292857D01*
X140500000Y-181197619D01*
X140452380Y-181054761D01*
X140452380Y-180959523D01*
X140500000Y-180816666D01*
X140547619Y-180769047D01*
X140547619Y-180388095D02*
X140500000Y-180340476D01*
X140452380Y-180245238D01*
X140452380Y-180007142D01*
X140500000Y-179911904D01*
X140547619Y-179864285D01*
X140642857Y-179816666D01*
X140738095Y-179816666D01*
X140880952Y-179864285D01*
X141452380Y-180435714D01*
X141452380Y-179816666D01*
X140452380Y-179197619D02*
X140452380Y-179102380D01*
X140500000Y-179007142D01*
X140547619Y-178959523D01*
X140642857Y-178911904D01*
X140833333Y-178864285D01*
X141071428Y-178864285D01*
X141261904Y-178911904D01*
X141357142Y-178959523D01*
X141404761Y-179007142D01*
X141452380Y-179102380D01*
X141452380Y-179197619D01*
X141404761Y-179292857D01*
X141357142Y-179340476D01*
X141261904Y-179388095D01*
X141071428Y-179435714D01*
X140833333Y-179435714D01*
X140642857Y-179388095D01*
X140547619Y-179340476D01*
X140500000Y-179292857D01*
X140452380Y-179197619D01*
X140452380Y-178530952D02*
X140452380Y-177911904D01*
X140833333Y-178245238D01*
X140833333Y-178102380D01*
X140880952Y-178007142D01*
X140928571Y-177959523D01*
X141023809Y-177911904D01*
X141261904Y-177911904D01*
X141357142Y-177959523D01*
X141404761Y-178007142D01*
X141452380Y-178102380D01*
X141452380Y-178388095D01*
X141404761Y-178483333D01*
X141357142Y-178530952D01*
X131607142Y-180769047D02*
X131654761Y-180816666D01*
X131702380Y-180959523D01*
X131702380Y-181054761D01*
X131654761Y-181197619D01*
X131559523Y-181292857D01*
X131464285Y-181340476D01*
X131273809Y-181388095D01*
X131130952Y-181388095D01*
X130940476Y-181340476D01*
X130845238Y-181292857D01*
X130750000Y-181197619D01*
X130702380Y-181054761D01*
X130702380Y-180959523D01*
X130750000Y-180816666D01*
X130797619Y-180769047D01*
X130797619Y-180388095D02*
X130750000Y-180340476D01*
X130702380Y-180245238D01*
X130702380Y-180007142D01*
X130750000Y-179911904D01*
X130797619Y-179864285D01*
X130892857Y-179816666D01*
X130988095Y-179816666D01*
X131130952Y-179864285D01*
X131702380Y-180435714D01*
X131702380Y-179816666D01*
X130702380Y-179197619D02*
X130702380Y-179102380D01*
X130750000Y-179007142D01*
X130797619Y-178959523D01*
X130892857Y-178911904D01*
X131083333Y-178864285D01*
X131321428Y-178864285D01*
X131511904Y-178911904D01*
X131607142Y-178959523D01*
X131654761Y-179007142D01*
X131702380Y-179102380D01*
X131702380Y-179197619D01*
X131654761Y-179292857D01*
X131607142Y-179340476D01*
X131511904Y-179388095D01*
X131321428Y-179435714D01*
X131083333Y-179435714D01*
X130892857Y-179388095D01*
X130797619Y-179340476D01*
X130750000Y-179292857D01*
X130702380Y-179197619D01*
X130797619Y-178483333D02*
X130750000Y-178435714D01*
X130702380Y-178340476D01*
X130702380Y-178102380D01*
X130750000Y-178007142D01*
X130797619Y-177959523D01*
X130892857Y-177911904D01*
X130988095Y-177911904D01*
X131130952Y-177959523D01*
X131702380Y-178530952D01*
X131702380Y-177911904D01*
X121757142Y-180669047D02*
X121804761Y-180716666D01*
X121852380Y-180859523D01*
X121852380Y-180954761D01*
X121804761Y-181097619D01*
X121709523Y-181192857D01*
X121614285Y-181240476D01*
X121423809Y-181288095D01*
X121280952Y-181288095D01*
X121090476Y-181240476D01*
X120995238Y-181192857D01*
X120900000Y-181097619D01*
X120852380Y-180954761D01*
X120852380Y-180859523D01*
X120900000Y-180716666D01*
X120947619Y-180669047D01*
X120947619Y-180288095D02*
X120900000Y-180240476D01*
X120852380Y-180145238D01*
X120852380Y-179907142D01*
X120900000Y-179811904D01*
X120947619Y-179764285D01*
X121042857Y-179716666D01*
X121138095Y-179716666D01*
X121280952Y-179764285D01*
X121852380Y-180335714D01*
X121852380Y-179716666D01*
X120852380Y-179097619D02*
X120852380Y-179002380D01*
X120900000Y-178907142D01*
X120947619Y-178859523D01*
X121042857Y-178811904D01*
X121233333Y-178764285D01*
X121471428Y-178764285D01*
X121661904Y-178811904D01*
X121757142Y-178859523D01*
X121804761Y-178907142D01*
X121852380Y-179002380D01*
X121852380Y-179097619D01*
X121804761Y-179192857D01*
X121757142Y-179240476D01*
X121661904Y-179288095D01*
X121471428Y-179335714D01*
X121233333Y-179335714D01*
X121042857Y-179288095D01*
X120947619Y-179240476D01*
X120900000Y-179192857D01*
X120852380Y-179097619D01*
X121852380Y-177811904D02*
X121852380Y-178383333D01*
X121852380Y-178097619D02*
X120852380Y-178097619D01*
X120995238Y-178192857D01*
X121090476Y-178288095D01*
X121138095Y-178383333D01*
X65830952Y-87707142D02*
X65783333Y-87754761D01*
X65640476Y-87802380D01*
X65545238Y-87802380D01*
X65402380Y-87754761D01*
X65307142Y-87659523D01*
X65259523Y-87564285D01*
X65211904Y-87373809D01*
X65211904Y-87230952D01*
X65259523Y-87040476D01*
X65307142Y-86945238D01*
X65402380Y-86850000D01*
X65545238Y-86802380D01*
X65640476Y-86802380D01*
X65783333Y-86850000D01*
X65830952Y-86897619D01*
X66783333Y-87802380D02*
X66211904Y-87802380D01*
X66497619Y-87802380D02*
X66497619Y-86802380D01*
X66402380Y-86945238D01*
X66307142Y-87040476D01*
X66211904Y-87088095D01*
X67402380Y-86802380D02*
X67497619Y-86802380D01*
X67592857Y-86850000D01*
X67640476Y-86897619D01*
X67688095Y-86992857D01*
X67735714Y-87183333D01*
X67735714Y-87421428D01*
X67688095Y-87611904D01*
X67640476Y-87707142D01*
X67592857Y-87754761D01*
X67497619Y-87802380D01*
X67402380Y-87802380D01*
X67307142Y-87754761D01*
X67259523Y-87707142D01*
X67211904Y-87611904D01*
X67164285Y-87421428D01*
X67164285Y-87183333D01*
X67211904Y-86992857D01*
X67259523Y-86897619D01*
X67307142Y-86850000D01*
X67402380Y-86802380D01*
X68688095Y-87802380D02*
X68116666Y-87802380D01*
X68402380Y-87802380D02*
X68402380Y-86802380D01*
X68307142Y-86945238D01*
X68211904Y-87040476D01*
X68116666Y-87088095D01*
D11*
X75585714Y-160183333D02*
X75623809Y-160221428D01*
X75661904Y-160335714D01*
X75661904Y-160411904D01*
X75623809Y-160526190D01*
X75547619Y-160602380D01*
X75471428Y-160640476D01*
X75319047Y-160678571D01*
X75204761Y-160678571D01*
X75052380Y-160640476D01*
X74976190Y-160602380D01*
X74900000Y-160526190D01*
X74861904Y-160411904D01*
X74861904Y-160335714D01*
X74900000Y-160221428D01*
X74938095Y-160183333D01*
X74861904Y-159497619D02*
X74861904Y-159650000D01*
X74900000Y-159726190D01*
X74938095Y-159764285D01*
X75052380Y-159840476D01*
X75204761Y-159878571D01*
X75509523Y-159878571D01*
X75585714Y-159840476D01*
X75623809Y-159802380D01*
X75661904Y-159726190D01*
X75661904Y-159573809D01*
X75623809Y-159497619D01*
X75585714Y-159459523D01*
X75509523Y-159421428D01*
X75319047Y-159421428D01*
X75242857Y-159459523D01*
X75204761Y-159497619D01*
X75166666Y-159573809D01*
X75166666Y-159726190D01*
X75204761Y-159802380D01*
X75242857Y-159840476D01*
X75319047Y-159878571D01*
D12*
X63907142Y-160466666D02*
X63954761Y-160514285D01*
X64002380Y-160657142D01*
X64002380Y-160752380D01*
X63954761Y-160895238D01*
X63859523Y-160990476D01*
X63764285Y-161038095D01*
X63573809Y-161085714D01*
X63430952Y-161085714D01*
X63240476Y-161038095D01*
X63145238Y-160990476D01*
X63050000Y-160895238D01*
X63002380Y-160752380D01*
X63002380Y-160657142D01*
X63050000Y-160514285D01*
X63097619Y-160466666D01*
X63002380Y-159561904D02*
X63002380Y-160038095D01*
X63478571Y-160085714D01*
X63430952Y-160038095D01*
X63383333Y-159942857D01*
X63383333Y-159704761D01*
X63430952Y-159609523D01*
X63478571Y-159561904D01*
X63573809Y-159514285D01*
X63811904Y-159514285D01*
X63907142Y-159561904D01*
X63954761Y-159609523D01*
X64002380Y-159704761D01*
X64002380Y-159942857D01*
X63954761Y-160038095D01*
X63907142Y-160085714D01*
X80383333Y-137257142D02*
X80335714Y-137304761D01*
X80192857Y-137352380D01*
X80097619Y-137352380D01*
X79954761Y-137304761D01*
X79859523Y-137209523D01*
X79811904Y-137114285D01*
X79764285Y-136923809D01*
X79764285Y-136780952D01*
X79811904Y-136590476D01*
X79859523Y-136495238D01*
X79954761Y-136400000D01*
X80097619Y-136352380D01*
X80192857Y-136352380D01*
X80335714Y-136400000D01*
X80383333Y-136447619D01*
X81240476Y-136685714D02*
X81240476Y-137352380D01*
X81002380Y-136304761D02*
X80764285Y-137019047D01*
X81383333Y-137019047D01*
X97557142Y-137066666D02*
X97604761Y-137114285D01*
X97652380Y-137257142D01*
X97652380Y-137352380D01*
X97604761Y-137495238D01*
X97509523Y-137590476D01*
X97414285Y-137638095D01*
X97223809Y-137685714D01*
X97080952Y-137685714D01*
X96890476Y-137638095D01*
X96795238Y-137590476D01*
X96700000Y-137495238D01*
X96652380Y-137352380D01*
X96652380Y-137257142D01*
X96700000Y-137114285D01*
X96747619Y-137066666D01*
X96652380Y-136733333D02*
X96652380Y-136114285D01*
X97033333Y-136447619D01*
X97033333Y-136304761D01*
X97080952Y-136209523D01*
X97128571Y-136161904D01*
X97223809Y-136114285D01*
X97461904Y-136114285D01*
X97557142Y-136161904D01*
X97604761Y-136209523D01*
X97652380Y-136304761D01*
X97652380Y-136590476D01*
X97604761Y-136685714D01*
X97557142Y-136733333D01*
X97483333Y-124157142D02*
X97435714Y-124204761D01*
X97292857Y-124252380D01*
X97197619Y-124252380D01*
X97054761Y-124204761D01*
X96959523Y-124109523D01*
X96911904Y-124014285D01*
X96864285Y-123823809D01*
X96864285Y-123680952D01*
X96911904Y-123490476D01*
X96959523Y-123395238D01*
X97054761Y-123300000D01*
X97197619Y-123252380D01*
X97292857Y-123252380D01*
X97435714Y-123300000D01*
X97483333Y-123347619D01*
X97864285Y-123347619D02*
X97911904Y-123300000D01*
X98007142Y-123252380D01*
X98245238Y-123252380D01*
X98340476Y-123300000D01*
X98388095Y-123347619D01*
X98435714Y-123442857D01*
X98435714Y-123538095D01*
X98388095Y-123680952D01*
X97816666Y-124252380D01*
X98435714Y-124252380D01*
X81157142Y-122566666D02*
X81204761Y-122614285D01*
X81252380Y-122757142D01*
X81252380Y-122852380D01*
X81204761Y-122995238D01*
X81109523Y-123090476D01*
X81014285Y-123138095D01*
X80823809Y-123185714D01*
X80680952Y-123185714D01*
X80490476Y-123138095D01*
X80395238Y-123090476D01*
X80300000Y-122995238D01*
X80252380Y-122852380D01*
X80252380Y-122757142D01*
X80300000Y-122614285D01*
X80347619Y-122566666D01*
X81252380Y-121614285D02*
X81252380Y-122185714D01*
X81252380Y-121900000D02*
X80252380Y-121900000D01*
X80395238Y-121995238D01*
X80490476Y-122090476D01*
X80538095Y-122185714D01*
X108131428Y-166390952D02*
X108131428Y-165629047D01*
X108512380Y-166010000D02*
X107750476Y-166010000D01*
X106528571Y-164033333D02*
X106576190Y-163890476D01*
X106623809Y-163842857D01*
X106719047Y-163795238D01*
X106861904Y-163795238D01*
X106957142Y-163842857D01*
X107004761Y-163890476D01*
X107052380Y-163985714D01*
X107052380Y-164366666D01*
X106052380Y-164366666D01*
X106052380Y-164033333D01*
X106100000Y-163938095D01*
X106147619Y-163890476D01*
X106242857Y-163842857D01*
X106338095Y-163842857D01*
X106433333Y-163890476D01*
X106480952Y-163938095D01*
X106528571Y-164033333D01*
X106528571Y-164366666D01*
X106052380Y-163461904D02*
X106052380Y-162795238D01*
X107052380Y-163461904D01*
X107052380Y-162795238D01*
X106147619Y-162461904D02*
X106100000Y-162414285D01*
X106052380Y-162319047D01*
X106052380Y-162080952D01*
X106100000Y-161985714D01*
X106147619Y-161938095D01*
X106242857Y-161890476D01*
X106338095Y-161890476D01*
X106480952Y-161938095D01*
X107052380Y-162509523D01*
X107052380Y-161890476D01*
X106052380Y-161271428D02*
X106052380Y-161176190D01*
X106100000Y-161080952D01*
X106147619Y-161033333D01*
X106242857Y-160985714D01*
X106433333Y-160938095D01*
X106671428Y-160938095D01*
X106861904Y-160985714D01*
X106957142Y-161033333D01*
X107004761Y-161080952D01*
X107052380Y-161176190D01*
X107052380Y-161271428D01*
X107004761Y-161366666D01*
X106957142Y-161414285D01*
X106861904Y-161461904D01*
X106671428Y-161509523D01*
X106433333Y-161509523D01*
X106242857Y-161461904D01*
X106147619Y-161414285D01*
X106100000Y-161366666D01*
X106052380Y-161271428D01*
X107052380Y-159985714D02*
X107052380Y-160557142D01*
X107052380Y-160271428D02*
X106052380Y-160271428D01*
X106195238Y-160366666D01*
X106290476Y-160461904D01*
X106338095Y-160557142D01*
X65852380Y-94852380D02*
X65376190Y-95185714D01*
X65852380Y-95423809D02*
X64852380Y-95423809D01*
X64852380Y-95042857D01*
X64900000Y-94947619D01*
X64947619Y-94900000D01*
X65042857Y-94852380D01*
X65185714Y-94852380D01*
X65280952Y-94900000D01*
X65328571Y-94947619D01*
X65376190Y-95042857D01*
X65376190Y-95423809D01*
X65328571Y-94423809D02*
X65328571Y-94090476D01*
X65852380Y-93947619D02*
X65852380Y-94423809D01*
X64852380Y-94423809D01*
X64852380Y-93947619D01*
X65804761Y-93566666D02*
X65852380Y-93423809D01*
X65852380Y-93185714D01*
X65804761Y-93090476D01*
X65757142Y-93042857D01*
X65661904Y-92995238D01*
X65566666Y-92995238D01*
X65471428Y-93042857D01*
X65423809Y-93090476D01*
X65376190Y-93185714D01*
X65328571Y-93376190D01*
X65280952Y-93471428D01*
X65233333Y-93519047D01*
X65138095Y-93566666D01*
X65042857Y-93566666D01*
X64947619Y-93519047D01*
X64900000Y-93471428D01*
X64852380Y-93376190D01*
X64852380Y-93138095D01*
X64900000Y-92995238D01*
X65328571Y-92566666D02*
X65328571Y-92233333D01*
X65852380Y-92090476D02*
X65852380Y-92566666D01*
X64852380Y-92566666D01*
X64852380Y-92090476D01*
X64852380Y-91804761D02*
X64852380Y-91233333D01*
X65852380Y-91519047D02*
X64852380Y-91519047D01*
X68502380Y-163911904D02*
X69311904Y-163911904D01*
X69407142Y-163864285D01*
X69454761Y-163816666D01*
X69502380Y-163721428D01*
X69502380Y-163530952D01*
X69454761Y-163435714D01*
X69407142Y-163388095D01*
X69311904Y-163340476D01*
X68502380Y-163340476D01*
X69502380Y-162340476D02*
X69502380Y-162911904D01*
X69502380Y-162626190D02*
X68502380Y-162626190D01*
X68645238Y-162721428D01*
X68740476Y-162816666D01*
X68788095Y-162911904D01*
X142404761Y-189685714D02*
X142452380Y-189542857D01*
X142452380Y-189304761D01*
X142404761Y-189209523D01*
X142357142Y-189161904D01*
X142261904Y-189114285D01*
X142166666Y-189114285D01*
X142071428Y-189161904D01*
X142023809Y-189209523D01*
X141976190Y-189304761D01*
X141928571Y-189495238D01*
X141880952Y-189590476D01*
X141833333Y-189638095D01*
X141738095Y-189685714D01*
X141642857Y-189685714D01*
X141547619Y-189638095D01*
X141500000Y-189590476D01*
X141452380Y-189495238D01*
X141452380Y-189257142D01*
X141500000Y-189114285D01*
X141452380Y-188780952D02*
X142452380Y-188542857D01*
X141738095Y-188352380D01*
X142452380Y-188161904D01*
X141452380Y-187923809D01*
X141547619Y-187590476D02*
X141500000Y-187542857D01*
X141452380Y-187447619D01*
X141452380Y-187209523D01*
X141500000Y-187114285D01*
X141547619Y-187066666D01*
X141642857Y-187019047D01*
X141738095Y-187019047D01*
X141880952Y-187066666D01*
X142452380Y-187638095D01*
X142452380Y-187019047D01*
X141452380Y-186400000D02*
X141452380Y-186304761D01*
X141500000Y-186209523D01*
X141547619Y-186161904D01*
X141642857Y-186114285D01*
X141833333Y-186066666D01*
X142071428Y-186066666D01*
X142261904Y-186114285D01*
X142357142Y-186161904D01*
X142404761Y-186209523D01*
X142452380Y-186304761D01*
X142452380Y-186400000D01*
X142404761Y-186495238D01*
X142357142Y-186542857D01*
X142261904Y-186590476D01*
X142071428Y-186638095D01*
X141833333Y-186638095D01*
X141642857Y-186590476D01*
X141547619Y-186542857D01*
X141500000Y-186495238D01*
X141452380Y-186400000D01*
X141452380Y-185733333D02*
X141452380Y-185114285D01*
X141833333Y-185447619D01*
X141833333Y-185304761D01*
X141880952Y-185209523D01*
X141928571Y-185161904D01*
X142023809Y-185114285D01*
X142261904Y-185114285D01*
X142357142Y-185161904D01*
X142404761Y-185209523D01*
X142452380Y-185304761D01*
X142452380Y-185590476D01*
X142404761Y-185685714D01*
X142357142Y-185733333D01*
X132604761Y-189745714D02*
X132652380Y-189602857D01*
X132652380Y-189364761D01*
X132604761Y-189269523D01*
X132557142Y-189221904D01*
X132461904Y-189174285D01*
X132366666Y-189174285D01*
X132271428Y-189221904D01*
X132223809Y-189269523D01*
X132176190Y-189364761D01*
X132128571Y-189555238D01*
X132080952Y-189650476D01*
X132033333Y-189698095D01*
X131938095Y-189745714D01*
X131842857Y-189745714D01*
X131747619Y-189698095D01*
X131700000Y-189650476D01*
X131652380Y-189555238D01*
X131652380Y-189317142D01*
X131700000Y-189174285D01*
X131652380Y-188840952D02*
X132652380Y-188602857D01*
X131938095Y-188412380D01*
X132652380Y-188221904D01*
X131652380Y-187983809D01*
X131747619Y-187650476D02*
X131700000Y-187602857D01*
X131652380Y-187507619D01*
X131652380Y-187269523D01*
X131700000Y-187174285D01*
X131747619Y-187126666D01*
X131842857Y-187079047D01*
X131938095Y-187079047D01*
X132080952Y-187126666D01*
X132652380Y-187698095D01*
X132652380Y-187079047D01*
X131652380Y-186460000D02*
X131652380Y-186364761D01*
X131700000Y-186269523D01*
X131747619Y-186221904D01*
X131842857Y-186174285D01*
X132033333Y-186126666D01*
X132271428Y-186126666D01*
X132461904Y-186174285D01*
X132557142Y-186221904D01*
X132604761Y-186269523D01*
X132652380Y-186364761D01*
X132652380Y-186460000D01*
X132604761Y-186555238D01*
X132557142Y-186602857D01*
X132461904Y-186650476D01*
X132271428Y-186698095D01*
X132033333Y-186698095D01*
X131842857Y-186650476D01*
X131747619Y-186602857D01*
X131700000Y-186555238D01*
X131652380Y-186460000D01*
X131747619Y-185745714D02*
X131700000Y-185698095D01*
X131652380Y-185602857D01*
X131652380Y-185364761D01*
X131700000Y-185269523D01*
X131747619Y-185221904D01*
X131842857Y-185174285D01*
X131938095Y-185174285D01*
X132080952Y-185221904D01*
X132652380Y-185793333D01*
X132652380Y-185174285D01*
X122904761Y-189685714D02*
X122952380Y-189542857D01*
X122952380Y-189304761D01*
X122904761Y-189209523D01*
X122857142Y-189161904D01*
X122761904Y-189114285D01*
X122666666Y-189114285D01*
X122571428Y-189161904D01*
X122523809Y-189209523D01*
X122476190Y-189304761D01*
X122428571Y-189495238D01*
X122380952Y-189590476D01*
X122333333Y-189638095D01*
X122238095Y-189685714D01*
X122142857Y-189685714D01*
X122047619Y-189638095D01*
X122000000Y-189590476D01*
X121952380Y-189495238D01*
X121952380Y-189257142D01*
X122000000Y-189114285D01*
X121952380Y-188780952D02*
X122952380Y-188542857D01*
X122238095Y-188352380D01*
X122952380Y-188161904D01*
X121952380Y-187923809D01*
X122047619Y-187590476D02*
X122000000Y-187542857D01*
X121952380Y-187447619D01*
X121952380Y-187209523D01*
X122000000Y-187114285D01*
X122047619Y-187066666D01*
X122142857Y-187019047D01*
X122238095Y-187019047D01*
X122380952Y-187066666D01*
X122952380Y-187638095D01*
X122952380Y-187019047D01*
X121952380Y-186400000D02*
X121952380Y-186304761D01*
X122000000Y-186209523D01*
X122047619Y-186161904D01*
X122142857Y-186114285D01*
X122333333Y-186066666D01*
X122571428Y-186066666D01*
X122761904Y-186114285D01*
X122857142Y-186161904D01*
X122904761Y-186209523D01*
X122952380Y-186304761D01*
X122952380Y-186400000D01*
X122904761Y-186495238D01*
X122857142Y-186542857D01*
X122761904Y-186590476D01*
X122571428Y-186638095D01*
X122333333Y-186638095D01*
X122142857Y-186590476D01*
X122047619Y-186542857D01*
X122000000Y-186495238D01*
X121952380Y-186400000D01*
X122952380Y-185114285D02*
X122952380Y-185685714D01*
X122952380Y-185400000D02*
X121952380Y-185400000D01*
X122095238Y-185495238D01*
X122190476Y-185590476D01*
X122238095Y-185685714D01*
X88324285Y-63052380D02*
X88324285Y-63766666D01*
X88276666Y-63909523D01*
X88181428Y-64004761D01*
X88038571Y-64052380D01*
X87943333Y-64052380D01*
X88705238Y-63052380D02*
X89324285Y-63052380D01*
X88990952Y-63433333D01*
X89133809Y-63433333D01*
X89229047Y-63480952D01*
X89276666Y-63528571D01*
X89324285Y-63623809D01*
X89324285Y-63861904D01*
X89276666Y-63957142D01*
X89229047Y-64004761D01*
X89133809Y-64052380D01*
X88848095Y-64052380D01*
X88752857Y-64004761D01*
X88705238Y-63957142D01*
X90276666Y-64052380D02*
X89705238Y-64052380D01*
X89990952Y-64052380D02*
X89990952Y-63052380D01*
X89895714Y-63195238D01*
X89800476Y-63290476D01*
X89705238Y-63338095D01*
X91181428Y-63052380D02*
X90705238Y-63052380D01*
X90657619Y-63528571D01*
X90705238Y-63480952D01*
X90800476Y-63433333D01*
X91038571Y-63433333D01*
X91133809Y-63480952D01*
X91181428Y-63528571D01*
X91229047Y-63623809D01*
X91229047Y-63861904D01*
X91181428Y-63957142D01*
X91133809Y-64004761D01*
X91038571Y-64052380D01*
X90800476Y-64052380D01*
X90705238Y-64004761D01*
X90657619Y-63957142D01*
X157452380Y-74295714D02*
X158166666Y-74295714D01*
X158309523Y-74343333D01*
X158404761Y-74438571D01*
X158452380Y-74581428D01*
X158452380Y-74676666D01*
X157452380Y-73914761D02*
X157452380Y-73295714D01*
X157833333Y-73629047D01*
X157833333Y-73486190D01*
X157880952Y-73390952D01*
X157928571Y-73343333D01*
X158023809Y-73295714D01*
X158261904Y-73295714D01*
X158357142Y-73343333D01*
X158404761Y-73390952D01*
X158452380Y-73486190D01*
X158452380Y-73771904D01*
X158404761Y-73867142D01*
X158357142Y-73914761D01*
X158452380Y-72343333D02*
X158452380Y-72914761D01*
X158452380Y-72629047D02*
X157452380Y-72629047D01*
X157595238Y-72724285D01*
X157690476Y-72819523D01*
X157738095Y-72914761D01*
X157452380Y-71486190D02*
X157452380Y-71676666D01*
X157500000Y-71771904D01*
X157547619Y-71819523D01*
X157690476Y-71914761D01*
X157880952Y-71962380D01*
X158261904Y-71962380D01*
X158357142Y-71914761D01*
X158404761Y-71867142D01*
X158452380Y-71771904D01*
X158452380Y-71581428D01*
X158404761Y-71486190D01*
X158357142Y-71438571D01*
X158261904Y-71390952D01*
X158023809Y-71390952D01*
X157928571Y-71438571D01*
X157880952Y-71486190D01*
X157833333Y-71581428D01*
X157833333Y-71771904D01*
X157880952Y-71867142D01*
X157928571Y-71914761D01*
X158023809Y-71962380D01*
X21252380Y-74295714D02*
X21966666Y-74295714D01*
X22109523Y-74343333D01*
X22204761Y-74438571D01*
X22252380Y-74581428D01*
X22252380Y-74676666D01*
X21252380Y-73914761D02*
X21252380Y-73295714D01*
X21633333Y-73629047D01*
X21633333Y-73486190D01*
X21680952Y-73390952D01*
X21728571Y-73343333D01*
X21823809Y-73295714D01*
X22061904Y-73295714D01*
X22157142Y-73343333D01*
X22204761Y-73390952D01*
X22252380Y-73486190D01*
X22252380Y-73771904D01*
X22204761Y-73867142D01*
X22157142Y-73914761D01*
X22252380Y-72343333D02*
X22252380Y-72914761D01*
X22252380Y-72629047D02*
X21252380Y-72629047D01*
X21395238Y-72724285D01*
X21490476Y-72819523D01*
X21538095Y-72914761D01*
X21585714Y-71486190D02*
X22252380Y-71486190D01*
X21204761Y-71724285D02*
X21919047Y-71962380D01*
X21919047Y-71343333D01*
X158337380Y-166595714D02*
X159051666Y-166595714D01*
X159194523Y-166643333D01*
X159289761Y-166738571D01*
X159337380Y-166881428D01*
X159337380Y-166976666D01*
X158337380Y-166214761D02*
X158337380Y-165595714D01*
X158718333Y-165929047D01*
X158718333Y-165786190D01*
X158765952Y-165690952D01*
X158813571Y-165643333D01*
X158908809Y-165595714D01*
X159146904Y-165595714D01*
X159242142Y-165643333D01*
X159289761Y-165690952D01*
X159337380Y-165786190D01*
X159337380Y-166071904D01*
X159289761Y-166167142D01*
X159242142Y-166214761D01*
X159337380Y-164643333D02*
X159337380Y-165214761D01*
X159337380Y-164929047D02*
X158337380Y-164929047D01*
X158480238Y-165024285D01*
X158575476Y-165119523D01*
X158623095Y-165214761D01*
X158337380Y-164310000D02*
X158337380Y-163690952D01*
X158718333Y-164024285D01*
X158718333Y-163881428D01*
X158765952Y-163786190D01*
X158813571Y-163738571D01*
X158908809Y-163690952D01*
X159146904Y-163690952D01*
X159242142Y-163738571D01*
X159289761Y-163786190D01*
X159337380Y-163881428D01*
X159337380Y-164167142D01*
X159289761Y-164262380D01*
X159242142Y-164310000D01*
X158902380Y-183065714D02*
X159616666Y-183065714D01*
X159759523Y-183113333D01*
X159854761Y-183208571D01*
X159902380Y-183351428D01*
X159902380Y-183446666D01*
X158902380Y-182684761D02*
X158902380Y-182065714D01*
X159283333Y-182399047D01*
X159283333Y-182256190D01*
X159330952Y-182160952D01*
X159378571Y-182113333D01*
X159473809Y-182065714D01*
X159711904Y-182065714D01*
X159807142Y-182113333D01*
X159854761Y-182160952D01*
X159902380Y-182256190D01*
X159902380Y-182541904D01*
X159854761Y-182637142D01*
X159807142Y-182684761D01*
X159902380Y-181113333D02*
X159902380Y-181684761D01*
X159902380Y-181399047D02*
X158902380Y-181399047D01*
X159045238Y-181494285D01*
X159140476Y-181589523D01*
X159188095Y-181684761D01*
X158902380Y-180494285D02*
X158902380Y-180399047D01*
X158950000Y-180303809D01*
X158997619Y-180256190D01*
X159092857Y-180208571D01*
X159283333Y-180160952D01*
X159521428Y-180160952D01*
X159711904Y-180208571D01*
X159807142Y-180256190D01*
X159854761Y-180303809D01*
X159902380Y-180399047D01*
X159902380Y-180494285D01*
X159854761Y-180589523D01*
X159807142Y-180637142D01*
X159711904Y-180684761D01*
X159521428Y-180732380D01*
X159283333Y-180732380D01*
X159092857Y-180684761D01*
X158997619Y-180637142D01*
X158950000Y-180589523D01*
X158902380Y-180494285D01*
X20352380Y-182170714D02*
X21066666Y-182170714D01*
X21209523Y-182218333D01*
X21304761Y-182313571D01*
X21352380Y-182456428D01*
X21352380Y-182551666D01*
X20352380Y-181789761D02*
X20352380Y-181170714D01*
X20733333Y-181504047D01*
X20733333Y-181361190D01*
X20780952Y-181265952D01*
X20828571Y-181218333D01*
X20923809Y-181170714D01*
X21161904Y-181170714D01*
X21257142Y-181218333D01*
X21304761Y-181265952D01*
X21352380Y-181361190D01*
X21352380Y-181646904D01*
X21304761Y-181742142D01*
X21257142Y-181789761D01*
X20352380Y-180551666D02*
X20352380Y-180456428D01*
X20400000Y-180361190D01*
X20447619Y-180313571D01*
X20542857Y-180265952D01*
X20733333Y-180218333D01*
X20971428Y-180218333D01*
X21161904Y-180265952D01*
X21257142Y-180313571D01*
X21304761Y-180361190D01*
X21352380Y-180456428D01*
X21352380Y-180551666D01*
X21304761Y-180646904D01*
X21257142Y-180694523D01*
X21161904Y-180742142D01*
X20971428Y-180789761D01*
X20733333Y-180789761D01*
X20542857Y-180742142D01*
X20447619Y-180694523D01*
X20400000Y-180646904D01*
X20352380Y-180551666D01*
X20352380Y-179361190D02*
X20352380Y-179551666D01*
X20400000Y-179646904D01*
X20447619Y-179694523D01*
X20590476Y-179789761D01*
X20780952Y-179837380D01*
X21161904Y-179837380D01*
X21257142Y-179789761D01*
X21304761Y-179742142D01*
X21352380Y-179646904D01*
X21352380Y-179456428D01*
X21304761Y-179361190D01*
X21257142Y-179313571D01*
X21161904Y-179265952D01*
X20923809Y-179265952D01*
X20828571Y-179313571D01*
X20780952Y-179361190D01*
X20733333Y-179456428D01*
X20733333Y-179646904D01*
X20780952Y-179742142D01*
X20828571Y-179789761D01*
X20923809Y-179837380D01*
X147734285Y-59402380D02*
X147734285Y-60116666D01*
X147686666Y-60259523D01*
X147591428Y-60354761D01*
X147448571Y-60402380D01*
X147353333Y-60402380D01*
X148115238Y-59402380D02*
X148734285Y-59402380D01*
X148400952Y-59783333D01*
X148543809Y-59783333D01*
X148639047Y-59830952D01*
X148686666Y-59878571D01*
X148734285Y-59973809D01*
X148734285Y-60211904D01*
X148686666Y-60307142D01*
X148639047Y-60354761D01*
X148543809Y-60402380D01*
X148258095Y-60402380D01*
X148162857Y-60354761D01*
X148115238Y-60307142D01*
X149353333Y-59402380D02*
X149448571Y-59402380D01*
X149543809Y-59450000D01*
X149591428Y-59497619D01*
X149639047Y-59592857D01*
X149686666Y-59783333D01*
X149686666Y-60021428D01*
X149639047Y-60211904D01*
X149591428Y-60307142D01*
X149543809Y-60354761D01*
X149448571Y-60402380D01*
X149353333Y-60402380D01*
X149258095Y-60354761D01*
X149210476Y-60307142D01*
X149162857Y-60211904D01*
X149115238Y-60021428D01*
X149115238Y-59783333D01*
X149162857Y-59592857D01*
X149210476Y-59497619D01*
X149258095Y-59450000D01*
X149353333Y-59402380D01*
X150591428Y-59402380D02*
X150115238Y-59402380D01*
X150067619Y-59878571D01*
X150115238Y-59830952D01*
X150210476Y-59783333D01*
X150448571Y-59783333D01*
X150543809Y-59830952D01*
X150591428Y-59878571D01*
X150639047Y-59973809D01*
X150639047Y-60211904D01*
X150591428Y-60307142D01*
X150543809Y-60354761D01*
X150448571Y-60402380D01*
X150210476Y-60402380D01*
X150115238Y-60354761D01*
X150067619Y-60307142D01*
X158887380Y-93285714D02*
X159601666Y-93285714D01*
X159744523Y-93333333D01*
X159839761Y-93428571D01*
X159887380Y-93571428D01*
X159887380Y-93666666D01*
X158887380Y-92904761D02*
X158887380Y-92285714D01*
X159268333Y-92619047D01*
X159268333Y-92476190D01*
X159315952Y-92380952D01*
X159363571Y-92333333D01*
X159458809Y-92285714D01*
X159696904Y-92285714D01*
X159792142Y-92333333D01*
X159839761Y-92380952D01*
X159887380Y-92476190D01*
X159887380Y-92761904D01*
X159839761Y-92857142D01*
X159792142Y-92904761D01*
X158887380Y-91666666D02*
X158887380Y-91571428D01*
X158935000Y-91476190D01*
X158982619Y-91428571D01*
X159077857Y-91380952D01*
X159268333Y-91333333D01*
X159506428Y-91333333D01*
X159696904Y-91380952D01*
X159792142Y-91428571D01*
X159839761Y-91476190D01*
X159887380Y-91571428D01*
X159887380Y-91666666D01*
X159839761Y-91761904D01*
X159792142Y-91809523D01*
X159696904Y-91857142D01*
X159506428Y-91904761D01*
X159268333Y-91904761D01*
X159077857Y-91857142D01*
X158982619Y-91809523D01*
X158935000Y-91761904D01*
X158887380Y-91666666D01*
X158887380Y-91000000D02*
X158887380Y-90380952D01*
X159268333Y-90714285D01*
X159268333Y-90571428D01*
X159315952Y-90476190D01*
X159363571Y-90428571D01*
X159458809Y-90380952D01*
X159696904Y-90380952D01*
X159792142Y-90428571D01*
X159839761Y-90476190D01*
X159887380Y-90571428D01*
X159887380Y-90857142D01*
X159839761Y-90952380D01*
X159792142Y-91000000D01*
X20552380Y-91465714D02*
X21266666Y-91465714D01*
X21409523Y-91513333D01*
X21504761Y-91608571D01*
X21552380Y-91751428D01*
X21552380Y-91846666D01*
X20552380Y-91084761D02*
X20552380Y-90465714D01*
X20933333Y-90799047D01*
X20933333Y-90656190D01*
X20980952Y-90560952D01*
X21028571Y-90513333D01*
X21123809Y-90465714D01*
X21361904Y-90465714D01*
X21457142Y-90513333D01*
X21504761Y-90560952D01*
X21552380Y-90656190D01*
X21552380Y-90941904D01*
X21504761Y-91037142D01*
X21457142Y-91084761D01*
X20552380Y-89846666D02*
X20552380Y-89751428D01*
X20600000Y-89656190D01*
X20647619Y-89608571D01*
X20742857Y-89560952D01*
X20933333Y-89513333D01*
X21171428Y-89513333D01*
X21361904Y-89560952D01*
X21457142Y-89608571D01*
X21504761Y-89656190D01*
X21552380Y-89751428D01*
X21552380Y-89846666D01*
X21504761Y-89941904D01*
X21457142Y-89989523D01*
X21361904Y-90037142D01*
X21171428Y-90084761D01*
X20933333Y-90084761D01*
X20742857Y-90037142D01*
X20647619Y-89989523D01*
X20600000Y-89941904D01*
X20552380Y-89846666D01*
X20647619Y-89132380D02*
X20600000Y-89084761D01*
X20552380Y-88989523D01*
X20552380Y-88751428D01*
X20600000Y-88656190D01*
X20647619Y-88608571D01*
X20742857Y-88560952D01*
X20838095Y-88560952D01*
X20980952Y-88608571D01*
X21552380Y-89180000D01*
X21552380Y-88560952D01*
X29334285Y-59602380D02*
X29334285Y-60316666D01*
X29286666Y-60459523D01*
X29191428Y-60554761D01*
X29048571Y-60602380D01*
X28953333Y-60602380D01*
X29715238Y-59602380D02*
X30334285Y-59602380D01*
X30000952Y-59983333D01*
X30143809Y-59983333D01*
X30239047Y-60030952D01*
X30286666Y-60078571D01*
X30334285Y-60173809D01*
X30334285Y-60411904D01*
X30286666Y-60507142D01*
X30239047Y-60554761D01*
X30143809Y-60602380D01*
X29858095Y-60602380D01*
X29762857Y-60554761D01*
X29715238Y-60507142D01*
X30953333Y-59602380D02*
X31048571Y-59602380D01*
X31143809Y-59650000D01*
X31191428Y-59697619D01*
X31239047Y-59792857D01*
X31286666Y-59983333D01*
X31286666Y-60221428D01*
X31239047Y-60411904D01*
X31191428Y-60507142D01*
X31143809Y-60554761D01*
X31048571Y-60602380D01*
X30953333Y-60602380D01*
X30858095Y-60554761D01*
X30810476Y-60507142D01*
X30762857Y-60411904D01*
X30715238Y-60221428D01*
X30715238Y-59983333D01*
X30762857Y-59792857D01*
X30810476Y-59697619D01*
X30858095Y-59650000D01*
X30953333Y-59602380D01*
X32239047Y-60602380D02*
X31667619Y-60602380D01*
X31953333Y-60602380D02*
X31953333Y-59602380D01*
X31858095Y-59745238D01*
X31762857Y-59840476D01*
X31667619Y-59888095D01*
X98502380Y-176933333D02*
X99216666Y-176933333D01*
X99359523Y-176980952D01*
X99454761Y-177076190D01*
X99502380Y-177219047D01*
X99502380Y-177314285D01*
X99502380Y-175933333D02*
X99502380Y-176504761D01*
X99502380Y-176219047D02*
X98502380Y-176219047D01*
X98645238Y-176314285D01*
X98740476Y-176409523D01*
X98788095Y-176504761D01*
D13*
X142961904Y-166552380D02*
X142161904Y-166552380D01*
X142161904Y-166361904D01*
X142200000Y-166247619D01*
X142276190Y-166171428D01*
X142352380Y-166133333D01*
X142504761Y-166095238D01*
X142619047Y-166095238D01*
X142771428Y-166133333D01*
X142847619Y-166171428D01*
X142923809Y-166247619D01*
X142961904Y-166361904D01*
X142961904Y-166552380D01*
X142238095Y-165790476D02*
X142200000Y-165752380D01*
X142161904Y-165676190D01*
X142161904Y-165485714D01*
X142200000Y-165409523D01*
X142238095Y-165371428D01*
X142314285Y-165333333D01*
X142390476Y-165333333D01*
X142504761Y-165371428D01*
X142961904Y-165828571D01*
X142961904Y-165333333D01*
X142161904Y-164838095D02*
X142161904Y-164761904D01*
X142200000Y-164685714D01*
X142238095Y-164647619D01*
X142314285Y-164609523D01*
X142466666Y-164571428D01*
X142657142Y-164571428D01*
X142809523Y-164609523D01*
X142885714Y-164647619D01*
X142923809Y-164685714D01*
X142961904Y-164761904D01*
X142961904Y-164838095D01*
X142923809Y-164914285D01*
X142885714Y-164952380D01*
X142809523Y-164990476D01*
X142657142Y-165028571D01*
X142466666Y-165028571D01*
X142314285Y-164990476D01*
X142238095Y-164952380D01*
X142200000Y-164914285D01*
X142161904Y-164838095D01*
X142428571Y-163885714D02*
X142961904Y-163885714D01*
X142123809Y-164076190D02*
X142695238Y-164266666D01*
X142695238Y-163771428D01*
X136211904Y-166552380D02*
X135411904Y-166552380D01*
X135411904Y-166361904D01*
X135450000Y-166247619D01*
X135526190Y-166171428D01*
X135602380Y-166133333D01*
X135754761Y-166095238D01*
X135869047Y-166095238D01*
X136021428Y-166133333D01*
X136097619Y-166171428D01*
X136173809Y-166247619D01*
X136211904Y-166361904D01*
X136211904Y-166552380D01*
X135488095Y-165790476D02*
X135450000Y-165752380D01*
X135411904Y-165676190D01*
X135411904Y-165485714D01*
X135450000Y-165409523D01*
X135488095Y-165371428D01*
X135564285Y-165333333D01*
X135640476Y-165333333D01*
X135754761Y-165371428D01*
X136211904Y-165828571D01*
X136211904Y-165333333D01*
X135411904Y-164838095D02*
X135411904Y-164761904D01*
X135450000Y-164685714D01*
X135488095Y-164647619D01*
X135564285Y-164609523D01*
X135716666Y-164571428D01*
X135907142Y-164571428D01*
X136059523Y-164609523D01*
X136135714Y-164647619D01*
X136173809Y-164685714D01*
X136211904Y-164761904D01*
X136211904Y-164838095D01*
X136173809Y-164914285D01*
X136135714Y-164952380D01*
X136059523Y-164990476D01*
X135907142Y-165028571D01*
X135716666Y-165028571D01*
X135564285Y-164990476D01*
X135488095Y-164952380D01*
X135450000Y-164914285D01*
X135411904Y-164838095D01*
X135411904Y-164304761D02*
X135411904Y-163809523D01*
X135716666Y-164076190D01*
X135716666Y-163961904D01*
X135754761Y-163885714D01*
X135792857Y-163847619D01*
X135869047Y-163809523D01*
X136059523Y-163809523D01*
X136135714Y-163847619D01*
X136173809Y-163885714D01*
X136211904Y-163961904D01*
X136211904Y-164190476D01*
X136173809Y-164266666D01*
X136135714Y-164304761D01*
X129461904Y-166552380D02*
X128661904Y-166552380D01*
X128661904Y-166361904D01*
X128700000Y-166247619D01*
X128776190Y-166171428D01*
X128852380Y-166133333D01*
X129004761Y-166095238D01*
X129119047Y-166095238D01*
X129271428Y-166133333D01*
X129347619Y-166171428D01*
X129423809Y-166247619D01*
X129461904Y-166361904D01*
X129461904Y-166552380D01*
X128738095Y-165790476D02*
X128700000Y-165752380D01*
X128661904Y-165676190D01*
X128661904Y-165485714D01*
X128700000Y-165409523D01*
X128738095Y-165371428D01*
X128814285Y-165333333D01*
X128890476Y-165333333D01*
X129004761Y-165371428D01*
X129461904Y-165828571D01*
X129461904Y-165333333D01*
X128661904Y-164838095D02*
X128661904Y-164761904D01*
X128700000Y-164685714D01*
X128738095Y-164647619D01*
X128814285Y-164609523D01*
X128966666Y-164571428D01*
X129157142Y-164571428D01*
X129309523Y-164609523D01*
X129385714Y-164647619D01*
X129423809Y-164685714D01*
X129461904Y-164761904D01*
X129461904Y-164838095D01*
X129423809Y-164914285D01*
X129385714Y-164952380D01*
X129309523Y-164990476D01*
X129157142Y-165028571D01*
X128966666Y-165028571D01*
X128814285Y-164990476D01*
X128738095Y-164952380D01*
X128700000Y-164914285D01*
X128661904Y-164838095D01*
X128738095Y-164266666D02*
X128700000Y-164228571D01*
X128661904Y-164152380D01*
X128661904Y-163961904D01*
X128700000Y-163885714D01*
X128738095Y-163847619D01*
X128814285Y-163809523D01*
X128890476Y-163809523D01*
X129004761Y-163847619D01*
X129461904Y-164304761D01*
X129461904Y-163809523D01*
X122711904Y-166552380D02*
X121911904Y-166552380D01*
X121911904Y-166361904D01*
X121950000Y-166247619D01*
X122026190Y-166171428D01*
X122102380Y-166133333D01*
X122254761Y-166095238D01*
X122369047Y-166095238D01*
X122521428Y-166133333D01*
X122597619Y-166171428D01*
X122673809Y-166247619D01*
X122711904Y-166361904D01*
X122711904Y-166552380D01*
X121988095Y-165790476D02*
X121950000Y-165752380D01*
X121911904Y-165676190D01*
X121911904Y-165485714D01*
X121950000Y-165409523D01*
X121988095Y-165371428D01*
X122064285Y-165333333D01*
X122140476Y-165333333D01*
X122254761Y-165371428D01*
X122711904Y-165828571D01*
X122711904Y-165333333D01*
X121911904Y-164838095D02*
X121911904Y-164761904D01*
X121950000Y-164685714D01*
X121988095Y-164647619D01*
X122064285Y-164609523D01*
X122216666Y-164571428D01*
X122407142Y-164571428D01*
X122559523Y-164609523D01*
X122635714Y-164647619D01*
X122673809Y-164685714D01*
X122711904Y-164761904D01*
X122711904Y-164838095D01*
X122673809Y-164914285D01*
X122635714Y-164952380D01*
X122559523Y-164990476D01*
X122407142Y-165028571D01*
X122216666Y-165028571D01*
X122064285Y-164990476D01*
X121988095Y-164952380D01*
X121950000Y-164914285D01*
X121911904Y-164838095D01*
X122711904Y-163809523D02*
X122711904Y-164266666D01*
X122711904Y-164038095D02*
X121911904Y-164038095D01*
X122026190Y-164114285D01*
X122102380Y-164190476D01*
X122140476Y-164266666D01*
D12*
X110367619Y-180445238D02*
X110320000Y-180540476D01*
X110224761Y-180635714D01*
X110081904Y-180778571D01*
X110034285Y-180873809D01*
X110034285Y-180969047D01*
X110272380Y-180921428D02*
X110224761Y-181016666D01*
X110129523Y-181111904D01*
X109939047Y-181159523D01*
X109605714Y-181159523D01*
X109415238Y-181111904D01*
X109320000Y-181016666D01*
X109272380Y-180921428D01*
X109272380Y-180730952D01*
X109320000Y-180635714D01*
X109415238Y-180540476D01*
X109605714Y-180492857D01*
X109939047Y-180492857D01*
X110129523Y-180540476D01*
X110224761Y-180635714D01*
X110272380Y-180730952D01*
X110272380Y-180921428D01*
X110272380Y-179540476D02*
X110272380Y-180111904D01*
X110272380Y-179826190D02*
X109272380Y-179826190D01*
X109415238Y-179921428D01*
X109510476Y-180016666D01*
X109558095Y-180111904D01*
M02*
